<svg xmlns="http://www.w3.org/2000/svg" viewBox="0 0 284 128" role="img" aria-label="Logo Matilha monocromático branco">
  <path fill="#FFFFFF" fill-rule="evenodd" d="M84.00 81.50L83.00 81.50L82.00 81.50L81.00 81.50L80.00 81.50L79.00 81.50L78.00 81.50L77.50 81.00L77.50 80.00L77.50 79.00L77.50 78.00L77.50 77.00L77.50 76.00L77.50 75.00L77.50 74.00L77.50 73.00L77.50 72.00L77.50 71.00L77.50 70.00L77.50 69.00L77.50 68.00L77.50 67.00L77.50 66.00L77.50 65.00L77.50 64.00L77.50 63.00L77.50 62.00L77.50 61.00L77.50 60.00L77.00 59.50L76.50 60.00L76.50 61.00L76.00 61.50L75.50 62.00L75.50 63.00L75.00 63.50L74.50 64.00L74.50 65.00L74.50 66.00L74.00 66.50L73.50 67.00L73.50 68.00L73.50 69.00L73.00 69.50L72.50 70.00L72.50 71.00L72.50 72.00L72.00 72.50L71.50 73.00L71.50 74.00L71.50 75.00L71.00 75.50L70.50 76.00L70.50 77.00L70.00 77.50L69.50 78.00L69.00 78.50L68.00 78.50L67.00 78.50L66.00 78.50L65.00 78.50L64.00 78.50L63.00 78.50L62.00 78.50L61.00 78.50L60.50 78.00L60.50 77.00L60.00 76.50L59.50 76.00L59.50 75.00L59.50 74.00L59.00 73.50L58.50 73.00L58.50 72.00L58.50 71.00L58.00 70.50L57.50 70.00L57.50 69.00L57.50 68.00L57.00 67.50L56.50 67.00L56.50 66.00L56.00 65.50L55.50 65.00L55.50 64.00L55.50 63.00L55.00 62.50L54.50 62.00L54.50 61.00L54.50 60.00L54.00 59.50L53.50 60.00L53.50 61.00L53.50 62.00L53.50 63.00L53.50 64.00L53.50 65.00L53.50 66.00L53.50 67.00L53.50 68.00L53.50 69.00L53.50 70.00L53.50 71.00L53.50 72.00L53.50 73.00L53.50 74.00L53.50 75.00L53.50 76.00L53.50 77.00L53.50 78.00L53.50 79.00L53.50 80.00L53.50 81.00L53.00 81.50L52.00 81.50L51.00 81.50L50.00 81.50L49.00 81.50L48.00 81.50L47.00 81.50L46.50 81.00L46.50 80.00L46.50 79.00L46.50 78.00L46.50 77.00L46.50 76.00L46.50 75.00L46.50 74.00L46.50 73.00L46.50 72.00L46.50 71.00L46.50 70.00L46.50 69.00L46.50 68.00L46.50 67.00L46.50 66.00L46.50 65.00L46.50 64.00L46.50 63.00L46.50 62.00L46.50 61.00L46.50 60.00L46.50 59.00L46.50 58.00L46.50 57.00L46.50 56.00L46.50 55.00L46.50 54.00L46.50 53.00L46.50 52.00L46.50 51.00L46.50 50.00L46.50 49.00L46.50 48.00L46.50 47.00L46.50 46.00L46.50 45.00L47.00 44.50L48.00 44.50L49.00 44.50L50.00 44.50L51.00 44.50L52.00 44.50L53.00 44.50L54.00 44.50L55.00 44.50L55.50 45.00L55.50 46.00L56.00 46.50L56.50 47.00L56.50 48.00L56.50 49.00L57.00 49.50L57.50 50.00L57.50 51.00L58.00 51.50L58.50 52.00L58.50 53.00L58.50 54.00L59.00 54.50L59.50 55.00L59.50 56.00L59.50 57.00L60.00 57.50L60.50 58.00L60.50 59.00L60.50 60.00L61.00 60.50L61.50 61.00L61.50 62.00L61.50 63.00L62.00 63.50L62.50 64.00L62.50 65.00L63.00 65.50L63.50 66.00L63.50 67.00L63.50 68.00L64.00 68.50L64.50 69.00L64.50 70.00L65.00 70.50L66.00 70.50L66.50 70.00L66.50 69.00L66.50 68.00L67.00 67.50L67.50 67.00L67.50 66.00L67.50 65.00L68.00 64.50L68.50 64.00L68.50 63.00L68.50 62.00L69.00 61.50L69.50 61.00L69.50 60.00L70.00 59.50L70.50 59.00L70.50 58.00L70.50 57.00L71.00 56.50L71.50 56.00L71.50 55.00L71.50 54.00L72.00 53.50L72.50 53.00L72.50 52.00L72.50 51.00L73.00 50.50L73.50 50.00L73.50 49.00L73.50 48.00L74.00 47.50L74.50 47.00L74.50 46.00L75.00 45.50L75.50 45.00L76.00 44.50L77.00 44.50L78.00 44.50L79.00 44.50L80.00 44.50L81.00 44.50L82.00 44.50L83.00 44.50L84.00 44.50L84.50 45.00L84.50 46.00L84.50 47.00L84.50 48.00L84.50 49.00L84.50 50.00L84.50 51.00L84.50 52.00L84.50 53.00L84.50 54.00L84.50 55.00L84.50 56.00L84.50 57.00L84.50 58.00L84.50 59.00L84.50 60.00L84.50 61.00L84.50 62.00L84.50 63.00L84.50 64.00L84.50 65.00L84.50 66.00L84.50 67.00L84.50 68.00L84.50 69.00L84.50 70.00L84.50 71.00L84.50 72.00L84.50 73.00L84.50 74.00L84.50 75.00L84.50 76.00L84.50 77.00L84.50 78.00L84.50 79.00L84.50 80.00L84.50 81.00L84.00 81.50ZM152.00 51.50L151.00 51.50L150.00 51.50L149.00 51.50L148.00 51.50L147.50 51.00L147.00 50.50L146.50 50.00L146.00 49.50L145.50 49.00L145.50 48.00L145.50 47.00L146.00 46.50L146.50 46.00L147.00 45.50L147.50 45.00L148.00 44.50L149.00 44.50L150.00 44.50L151.00 44.50L152.00 44.50L152.50 45.00L153.00 45.50L153.50 46.00L153.50 47.00L153.50 48.00L153.50 49.00L153.00 49.50L152.50 50.00L152.50 51.00L152.00 51.50ZM167.00 81.50L166.00 81.50L165.00 81.50L164.00 81.50L163.00 81.50L162.00 81.50L161.00 81.50L160.50 81.00L160.50 80.00L160.50 79.00L160.50 78.00L160.50 77.00L160.50 76.00L160.50 75.00L160.50 74.00L160.50 73.00L160.50 72.00L160.50 71.00L160.50 70.00L160.50 69.00L160.50 68.00L160.50 67.00L160.50 66.00L160.50 65.00L160.50 64.00L160.50 63.00L160.50 62.00L160.50 61.00L160.50 60.00L160.50 59.00L160.50 58.00L160.50 57.00L160.50 56.00L160.50 55.00L160.50 54.00L160.50 53.00L160.50 52.00L160.50 51.00L160.50 50.00L160.50 49.00L160.50 48.00L160.50 47.00L160.50 46.00L160.50 45.00L161.00 44.50L162.00 44.50L163.00 44.50L164.00 44.50L165.00 44.50L166.00 44.50L167.00 44.50L167.50 45.00L167.50 46.00L167.50 47.00L167.50 48.00L167.50 49.00L167.50 50.00L167.50 51.00L167.50 52.00L167.50 53.00L167.50 54.00L167.50 55.00L167.50 56.00L167.50 57.00L167.50 58.00L167.50 59.00L167.50 60.00L167.50 61.00L167.50 62.00L167.50 63.00L167.50 64.00L167.50 65.00L167.50 66.00L167.50 67.00L167.50 68.00L167.50 69.00L167.50 70.00L167.50 71.00L167.50 72.00L167.50 73.00L167.50 74.00L167.50 75.00L167.50 76.00L167.50 77.00L167.50 78.00L167.50 79.00L167.50 80.00L167.50 81.00L167.00 81.50ZM201.00 81.50L200.00 81.50L199.00 81.50L198.00 81.50L197.00 81.50L196.00 81.50L195.00 81.50L194.50 81.00L194.50 80.00L194.50 79.00L194.50 78.00L194.50 77.00L194.50 76.00L194.50 75.00L194.50 74.00L194.50 73.00L194.50 72.00L194.50 71.00L194.50 70.00L194.50 69.00L194.50 68.00L194.50 67.00L194.50 66.00L194.50 65.00L194.50 64.00L194.50 63.00L194.00 62.50L193.50 62.00L193.00 61.50L192.00 61.50L191.50 61.00L191.00 60.50L190.00 60.50L189.50 61.00L189.00 61.50L188.00 61.50L187.00 61.50L186.50 62.00L186.00 62.50L185.50 63.00L185.00 63.50L184.50 64.00L184.00 64.50L183.50 65.00L183.50 66.00L183.50 67.00L183.50 68.00L183.50 69.00L183.50 70.00L183.50 71.00L183.50 72.00L183.50 73.00L183.50 74.00L183.50 75.00L183.50 76.00L183.50 77.00L183.50 78.00L183.50 79.00L183.50 80.00L183.50 81.00L183.00 81.50L182.00 81.50L181.00 81.50L180.00 81.50L179.00 81.50L178.00 81.50L177.00 81.50L176.00 81.50L175.50 81.00L175.50 80.00L175.50 79.00L175.50 78.00L175.50 77.00L175.50 76.00L175.50 75.00L175.50 74.00L175.50 73.00L175.50 72.00L175.50 71.00L175.50 70.00L175.50 69.00L175.50 68.00L175.50 67.00L175.50 66.00L175.50 65.00L175.50 64.00L175.50 63.00L175.50 62.00L175.50 61.00L175.50 60.00L175.50 59.00L175.50 58.00L175.50 57.00L175.50 56.00L175.50 55.00L175.50 54.00L175.50 53.00L175.50 52.00L175.50 51.00L175.50 50.00L175.50 49.00L175.50 48.00L175.50 47.00L175.50 46.00L175.50 45.00L176.00 44.50L177.00 44.50L178.00 44.50L179.00 44.50L180.00 44.50L181.00 44.50L182.00 44.50L182.50 45.00L182.50 46.00L182.50 47.00L182.50 48.00L182.50 49.00L182.50 50.00L182.50 51.00L182.50 52.00L182.50 53.00L182.50 54.00L182.50 55.00L182.50 56.00L182.50 57.00L183.00 57.50L184.00 57.50L184.50 57.00L185.00 56.50L186.00 56.50L186.50 56.00L187.00 55.50L188.00 55.50L189.00 55.50L190.00 55.50L191.00 55.50L192.00 55.50L193.00 55.50L194.00 55.50L195.00 55.50L196.00 55.50L196.50 56.00L197.00 56.50L198.00 56.50L198.50 57.00L199.00 57.50L199.50 58.00L199.50 59.00L200.00 59.50L200.50 60.00L200.50 61.00L201.00 61.50L201.50 62.00L201.50 63.00L201.50 64.00L201.50 65.00L201.50 66.00L201.50 67.00L202.00 67.50L202.50 68.00L202.00 68.50L201.50 69.00L201.50 70.00L201.50 71.00L201.50 72.00L201.50 73.00L201.50 74.00L201.50 75.00L201.50 76.00L201.50 77.00L201.50 78.00L201.50 79.00L201.50 80.00L201.50 81.00L201.00 81.50ZM139.00 81.50L138.00 81.50L137.00 81.50L136.00 81.50L135.00 81.50L134.00 81.50L133.00 81.50L132.00 81.50L131.00 81.50L130.50 81.00L130.00 80.50L129.00 80.50L128.50 80.00L128.00 79.50L127.50 79.00L127.00 78.50L126.50 78.00L126.50 77.00L126.00 76.50L125.50 76.00L125.50 75.00L125.50 74.00L125.50 73.00L125.50 72.00L125.50 71.00L125.50 70.00L125.50 69.00L125.50 68.00L125.50 67.00L125.50 66.00L125.50 65.00L125.50 64.00L125.50 63.00L125.50 62.00L125.50 61.00L125.00 60.50L124.00 60.50L123.00 60.50L122.00 60.50L121.00 60.50L120.00 60.50L119.50 60.00L119.50 59.00L119.50 58.00L119.50 57.00L119.50 56.00L120.00 55.50L121.00 55.50L122.00 55.50L123.00 55.50L124.00 55.50L124.50 55.00L125.00 54.50L125.50 54.00L125.50 53.00L125.50 52.00L125.50 51.00L125.50 50.00L125.50 49.00L125.50 48.00L126.00 47.50L127.00 47.50L128.00 47.50L129.00 47.50L130.00 47.50L131.00 47.50L132.00 47.50L132.50 48.00L132.50 49.00L132.50 50.00L132.50 51.00L132.50 52.00L132.50 53.00L132.50 54.00L132.50 55.00L133.00 55.50L134.00 55.50L135.00 55.50L136.00 55.50L137.00 55.50L138.00 55.50L138.50 56.00L138.50 57.00L138.50 58.00L138.50 59.00L138.50 60.00L138.00 60.50L137.00 60.50L136.00 60.50L135.00 60.50L134.00 60.50L133.00 60.50L132.50 61.00L132.50 62.00L132.50 63.00L132.50 64.00L132.50 65.00L132.50 66.00L132.50 67.00L132.50 68.00L132.50 69.00L132.50 70.00L132.50 71.00L132.50 72.00L132.50 73.00L132.50 74.00L133.00 74.50L133.50 75.00L134.00 75.50L135.00 75.50L136.00 75.50L137.00 75.50L138.00 75.50L139.00 75.50L139.50 76.00L139.50 77.00L140.00 77.50L140.50 78.00L140.50 79.00L140.50 80.00L140.00 80.50L139.50 81.00L139.00 81.50ZM117.00 81.50L116.00 81.50L115.00 81.50L114.00 81.50L113.00 81.50L112.50 81.00L112.00 80.50L111.50 80.00L111.00 79.50L110.50 79.00L110.00 78.50L109.50 79.00L109.00 79.50L108.00 79.50L107.50 80.00L107.00 80.50L106.50 81.00L106.00 81.50L105.00 81.50L104.00 81.50L103.00 81.50L102.00 81.50L101.00 81.50L100.00 81.50L99.00 81.50L98.00 81.50L97.00 81.50L96.50 81.00L96.00 80.50L95.00 80.50L94.50 80.00L94.00 79.50L93.50 79.00L93.00 78.50L92.50 78.00L92.00 77.50L91.50 77.00L91.50 76.00L91.50 75.00L91.50 74.00L91.50 73.00L91.50 72.00L91.50 71.00L92.00 70.50L92.50 70.00L93.00 69.50L93.50 69.00L94.00 68.50L94.50 68.00L95.00 67.50L96.00 67.50L96.50 67.00L97.00 66.50L98.00 66.50L99.00 66.50L99.50 66.00L100.00 65.50L101.00 65.50L102.00 65.50L103.00 65.50L104.00 65.50L105.00 65.50L106.00 65.50L106.50 65.00L107.00 64.50L107.50 64.00L107.50 63.00L107.50 62.00L107.00 61.50L106.00 61.50L105.50 61.00L105.00 60.50L104.00 60.50L103.00 60.50L102.00 60.50L101.00 60.50L100.50 61.00L100.00 61.50L99.50 62.00L99.00 62.50L98.00 62.50L97.00 62.50L96.00 62.50L95.00 62.50L94.00 62.50L93.00 62.50L92.50 62.00L92.50 61.00L93.00 60.50L93.50 60.00L93.50 59.00L94.00 58.50L94.50 58.00L95.00 57.50L95.50 57.00L96.00 56.50L97.00 56.50L97.50 56.00L98.00 55.50L99.00 55.50L100.00 55.50L101.00 55.50L102.00 55.50L103.00 55.50L104.00 55.50L105.00 55.50L106.00 55.50L107.00 55.50L108.00 55.50L108.50 56.00L109.00 56.50L110.00 56.50L110.50 57.00L111.00 57.50L111.50 58.00L112.00 58.50L112.50 59.00L113.00 59.50L113.50 60.00L113.50 61.00L113.50 62.00L114.00 62.50L114.50 63.00L114.50 64.00L114.50 65.00L114.50 66.00L114.50 67.00L114.50 68.00L114.50 69.00L114.50 70.00L114.50 71.00L114.50 72.00L114.50 73.00L114.50 74.00L114.50 75.00L115.00 75.50L115.50 76.00L116.00 76.50L117.00 76.50L117.50 77.00L117.50 78.00L117.50 79.00L117.50 80.00L117.50 81.00L117.00 81.50ZM153.00 81.50L152.00 81.50L151.00 81.50L150.00 81.50L149.00 81.50L148.00 81.50L147.00 81.50L146.50 81.00L146.50 80.00L146.50 79.00L146.50 78.00L146.50 77.00L146.50 76.00L146.50 75.00L146.50 74.00L146.50 73.00L146.50 72.00L146.50 71.00L146.50 70.00L146.50 69.00L146.50 68.00L146.50 67.00L146.50 66.00L146.50 65.00L146.50 64.00L146.50 63.00L146.50 62.00L146.50 61.00L146.50 60.00L146.50 59.00L146.50 58.00L146.50 57.00L146.50 56.00L147.00 55.50L148.00 55.50L149.00 55.50L150.00 55.50L151.00 55.50L152.00 55.50L153.00 55.50L153.50 56.00L153.50 57.00L153.50 58.00L153.50 59.00L153.50 60.00L153.50 61.00L153.50 62.00L153.50 63.00L153.50 64.00L153.50 65.00L153.50 66.00L153.50 67.00L153.50 68.00L153.50 69.00L153.50 70.00L153.50 71.00L153.50 72.00L153.50 73.00L153.50 74.00L153.50 75.00L153.50 76.00L153.50 77.00L153.50 78.00L153.50 79.00L153.50 80.00L153.50 81.00L153.00 81.50ZM235.00 81.50L234.00 81.50L233.00 81.50L232.00 81.50L231.00 81.50L230.50 81.00L230.00 80.50L229.50 80.00L229.00 79.50L228.50 79.00L228.00 78.50L227.50 79.00L227.00 79.50L226.00 79.50L225.50 80.00L225.00 80.50L224.00 80.50L223.50 81.00L223.00 81.50L222.00 81.50L221.00 81.50L220.00 81.50L219.00 81.50L218.00 81.50L217.00 81.50L216.00 81.50L215.00 81.50L214.50 81.00L214.00 80.50L213.00 80.50L212.50 80.00L212.00 79.50L211.00 79.50L210.50 79.00L210.50 78.00L210.00 77.50L209.50 77.00L209.50 76.00L209.50 75.00L209.50 74.00L209.50 73.00L209.50 72.00L209.50 71.00L210.00 70.50L210.50 70.00L211.00 69.50L211.50 69.00L212.00 68.50L212.50 68.00L213.00 67.50L214.00 67.50L214.50 67.00L215.00 66.50L216.00 66.50L217.00 66.50L217.50 66.00L218.00 65.50L219.00 65.50L220.00 65.50L221.00 65.50L222.00 65.50L223.00 65.50L224.00 65.50L224.50 65.00L225.00 64.50L225.50 64.00L225.50 63.00L225.50 62.00L225.00 61.50L224.00 61.50L223.50 61.00L223.00 60.50L222.00 60.50L221.00 60.50L220.00 60.50L219.00 60.50L218.50 61.00L218.00 61.50L217.50 62.00L217.00 62.50L216.00 62.50L215.00 62.50L214.00 62.50L213.00 62.50L212.00 62.50L211.00 62.50L210.50 62.00L210.50 61.00L211.00 60.50L211.50 60.00L211.50 59.00L212.00 58.50L212.50 58.00L213.00 57.50L213.50 57.00L214.00 56.50L215.00 56.50L215.50 56.00L216.00 55.50L217.00 55.50L218.00 55.50L219.00 55.50L220.00 55.50L221.00 55.50L222.00 55.50L223.00 55.50L224.00 55.50L225.00 55.50L226.00 55.50L226.50 56.00L227.00 56.50L228.00 56.50L228.50 57.00L229.00 57.50L229.50 58.00L230.00 58.50L230.50 59.00L231.00 59.50L231.50 60.00L231.50 61.00L231.50 62.00L232.00 62.50L232.50 63.00L232.50 64.00L232.50 65.00L232.50 66.00L232.50 67.00L232.50 68.00L232.50 69.00L232.50 70.00L232.50 71.00L232.50 72.00L232.50 73.00L232.50 74.00L232.50 75.00L233.00 75.50L233.50 76.00L234.00 76.50L235.00 76.50L235.50 77.00L235.50 78.00L235.50 79.00L235.50 80.00L235.50 81.00L235.00 81.50ZM104.50 76.00L105.00 75.50L105.50 75.00L106.00 74.50L106.50 74.00L107.00 73.50L107.50 73.00L107.50 72.00L107.50 71.00L107.50 70.00L107.00 69.50L106.50 70.00L106.00 70.50L105.00 70.50L104.00 70.50L103.00 70.50L102.00 70.50L101.50 71.00L101.00 71.50L100.00 71.50L99.00 71.50L98.50 72.00L98.50 73.00L98.00 73.50L97.50 74.00L98.00 74.50L98.50 75.00L99.00 75.50L99.50 76.00L100.00 76.50L101.00 76.50L102.00 76.50L103.00 76.50L104.00 76.50L104.50 76.00ZM222.50 76.00L223.00 75.50L223.50 75.00L224.00 74.50L224.50 74.00L225.00 73.50L225.50 73.00L225.50 72.00L225.50 71.00L225.50 70.00L225.00 69.50L224.50 70.00L224.00 70.50L223.00 70.50L222.00 70.50L221.00 70.50L220.00 70.50L219.50 71.00L219.00 71.50L218.00 71.50L217.00 71.50L216.50 72.00L216.50 73.00L216.00 73.50L215.50 74.00L216.00 74.50L216.50 75.00L217.00 75.50L217.50 76.00L218.00 76.50L219.00 76.50L220.00 76.50L221.00 76.50L222.00 76.50L222.50 76.00Z"/>
</svg>
