<svg width="262" height="127" viewBox="0 0 262 127" fill="none" xmlns="http://www.w3.org/2000/svg">
<path d="M125.824 54.0175C125.824 68.4138 130.455 75.5498 139.883 75.5498C149.312 75.5498 153.942 68.4138 153.942 54.0175V39.7456C153.942 25.3492 149.312 18.2133 139.883 18.2133C130.455 18.2133 125.824 25.3492 125.824 39.7456V54.0175ZM176.053 54.0175C176.053 80.2794 161.702 93.763 139.925 93.763C118.148 93.763 103.796 80.2794 103.796 54.0175V39.7456C103.796 13.3177 118.023 0 139.925 0C161.827 0 176.053 13.3177 176.053 39.7456V54.0175Z" fill="black"/>
<path d="M70.0042 1.32762L45.2649 47.5453L20.4422 1.32762H0V92.4354H20.7343V41.3221L39.174 77.3752H50.9804L69.8373 40.9487V92.4354H90.5716V1.32762H70.0042Z" fill="black"/>
<path d="M240.717 1.32762H261.41V92.4354H243.638L209.887 41.9859V92.4354H189.195V1.32762H206.717L240.717 52.4409V1.32762Z" fill="black"/>
<path d="M142.386 103.763H119.024V126.996H142.386V103.763Z" fill="#FFCC00"/>
</svg>
