<svg width="300" height="102" viewBox="0 0 300 102" fill="none" xmlns="http://www.w3.org/2000/svg">
<path d="M224.164 51.0483H217.226C216.904 51.0483 216.645 51.3123 216.645 51.6354V93.2349C216.645 93.5599 216.383 93.822 216.063 93.822H212.788C212.466 93.822 212.206 93.558 212.206 93.2349V51.6373C212.206 51.3123 211.944 51.0502 211.624 51.0502H204.686C204.364 51.0502 204.105 51.3142 204.105 51.6373V96.9368C204.105 97.5613 204.351 98.1582 204.786 98.5996L207.473 101.31C207.91 101.752 208.502 101.998 209.121 101.998H219.734C220.353 101.998 220.944 101.75 221.382 101.31L224.067 98.5996C224.504 98.1582 224.748 97.5613 224.748 96.9368V51.6373C224.746 51.3123 224.486 51.0483 224.164 51.0483ZM149.494 96.9368C149.494 97.5593 149.248 98.1582 148.813 98.5996L146.126 101.31C145.689 101.752 145.097 101.998 144.478 101.998H133.865C133.248 101.998 132.654 101.75 132.217 101.31L129.53 98.5996C129.093 98.1582 128.849 97.5613 128.849 96.9368V56.1095C128.849 55.487 129.095 54.8881 129.53 54.4468L132.215 51.7378C132.652 51.2965 133.246 51.0483 133.863 51.0483H144.474C145.091 51.0483 145.685 51.2965 146.122 51.7358L148.807 54.4468C149.244 54.8881 149.49 55.485 149.49 56.1095V67.3689C149.49 67.694 149.229 67.956 148.908 67.956H141.973C141.65 67.956 141.391 67.692 141.391 67.3689V59.8114C141.391 59.4864 141.129 59.2243 140.809 59.2243H137.534C137.212 59.2243 136.952 59.4883 136.952 59.8114V93.2368C136.952 93.5619 137.214 93.8239 137.534 93.8239H140.809C141.131 93.8239 141.391 93.5599 141.391 93.2368V80.6122H139.752C139.43 80.6122 139.171 80.3482 139.171 80.0251V73.0271C139.171 72.7021 139.432 72.44 139.752 72.44H148.91C149.233 72.44 149.492 72.704 149.492 73.0271L149.494 96.9368ZM18.3844 51.7378C17.947 51.2965 17.3553 51.0502 16.7363 51.0502H1.69101C1.36882 51.0502 1.10911 51.3142 1.10911 51.6373V72.4361H0.581894C0.259704 72.4361 0 72.7001 0 73.0232V80.0231C0 80.3482 0.261657 80.6102 0.581894 80.6102H1.10911V101.409C1.10911 101.734 1.37077 101.996 1.69101 101.996H16.7363C17.3534 101.996 17.947 101.748 18.3844 101.307L21.0693 98.5956C21.5067 98.1543 21.7527 97.5573 21.7527 96.9328V81.5815C21.7527 80.9569 21.5067 80.36 21.0693 79.9187L17.7009 76.5202L21.0693 73.1217C21.5067 72.6804 21.7527 72.0834 21.7527 71.4589V56.1056C21.7527 55.4811 21.5067 54.8841 21.0693 54.4428L18.3844 51.7378ZM13.6511 93.2368C13.6511 93.5619 13.3894 93.8239 13.0692 93.8239H9.21073V80.6122H13.0692C13.3914 80.6122 13.6511 80.8762 13.6511 81.1993V93.2368ZM13.6511 71.849C13.6511 72.1741 13.3894 72.4361 13.0692 72.4361H9.21073V59.2224H13.0692C13.3914 59.2224 13.6511 59.4864 13.6511 59.8095V71.849ZM174.578 71.4628V56.1095C174.578 55.485 174.332 54.8881 173.895 54.4468L171.21 51.7358C170.772 51.2945 170.181 51.0483 169.562 51.0483H154.517C154.194 51.0483 153.935 51.3123 153.935 51.6354V72.4361H153.407C153.085 72.4361 152.826 72.7001 152.826 73.0232V80.0231C152.826 80.3482 153.087 80.6102 153.407 80.6102H153.935V101.409C153.935 101.734 154.196 101.996 154.517 101.996H161.452C161.775 101.996 162.034 101.732 162.034 101.409V80.6122H165.893C166.215 80.6122 166.475 80.8762 166.475 81.1993V101.411C166.475 101.736 166.736 101.998 167.057 101.998H173.992C174.315 101.998 174.574 101.734 174.574 101.411V81.5854C174.574 80.9609 174.328 80.3639 173.891 79.9226L170.523 76.5241L173.891 73.1256C174.332 72.6843 174.578 72.0874 174.578 71.4628ZM165.895 72.4361H162.036V59.2224H165.895C166.217 59.2224 166.477 59.4864 166.477 59.8095V71.847C166.477 72.1741 166.215 72.4361 165.895 72.4361ZM274.233 54.4487L271.546 51.7378C271.108 51.2965 270.517 51.0502 269.898 51.0502H254.852C254.53 51.0502 254.27 51.3142 254.27 51.6373V101.411C254.27 101.736 254.532 101.998 254.852 101.998H269.898C270.515 101.998 271.108 101.75 271.546 101.308L274.231 98.5996C274.668 98.1582 274.912 97.5613 274.912 96.9368V56.1095C274.916 55.487 274.67 54.8881 274.233 54.4487ZM266.814 93.2368C266.814 93.5619 266.553 93.8239 266.233 93.8239H262.374V59.2243H266.233C266.555 59.2243 266.814 59.4883 266.814 59.8114V93.2368ZM200.189 72.4361H199.662V56.1095C199.662 55.485 199.416 54.8881 198.981 54.4468L196.294 51.7358C195.856 51.2945 195.265 51.0483 194.646 51.0483H184.035C183.416 51.0483 182.824 51.2965 182.387 51.7358L179.702 54.4468C179.265 54.8881 179.021 55.485 179.021 56.1095V72.4361H178.493C178.171 72.4361 177.911 72.7001 177.911 73.0232V80.0231C177.911 80.3482 178.173 80.6102 178.493 80.6102H179.021V96.9368C179.021 97.5613 179.267 98.1582 179.702 98.5996L182.387 101.31C182.824 101.752 183.418 101.998 184.035 101.998H194.646C195.265 101.998 195.856 101.75 196.294 101.31L198.981 98.5996C199.418 98.1582 199.662 97.5613 199.662 96.9368V80.6102H200.189C200.512 80.6102 200.771 80.3462 200.771 80.0231V73.0232C200.773 72.7001 200.512 72.4361 200.189 72.4361ZM191.561 93.2368C191.561 93.5619 191.299 93.8239 190.979 93.8239H187.704C187.382 93.8239 187.122 93.5599 187.122 93.2368V59.8114C187.122 59.4864 187.384 59.2243 187.704 59.2243H190.979C191.301 59.2243 191.561 59.4883 191.561 59.8114V93.2368ZM108.789 51.0483C108.467 51.0483 108.207 51.3123 108.207 51.6354V72.4361H107.68C107.358 72.4361 107.098 72.7001 107.098 73.0232V80.0231C107.098 80.3482 107.36 80.6102 107.68 80.6102H108.207V101.409C108.207 101.734 108.469 101.996 108.789 101.996H123.828C124.151 101.996 124.41 101.732 124.41 101.409V94.411C124.41 94.086 124.149 93.8239 123.828 93.8239H116.309V80.6122H123.828C124.151 80.6122 124.41 80.3482 124.41 80.0251V73.0252C124.41 72.7001 124.149 72.4381 123.828 72.4381H116.309V59.2243H123.828C124.151 59.2243 124.41 58.9603 124.41 58.6372V51.6393C124.41 51.3142 124.149 51.0522 123.828 51.0522H108.789V51.0483ZM88.1454 51.0483C87.8232 51.0483 87.5635 51.3123 87.5635 51.6354V101.409C87.5635 101.734 87.8251 101.996 88.1454 101.996H103.185C103.507 101.996 103.767 101.732 103.767 101.409V94.411C103.767 94.086 103.505 93.8239 103.185 93.8239H95.6651V51.6373C95.6651 51.3123 95.4034 51.0502 95.0832 51.0502L88.1454 51.0483ZM249.248 51.0483H242.31C241.988 51.0483 241.728 51.3103 241.728 51.6354V74.2683L237.288 51.6354C237.288 51.3103 237.026 51.0483 236.706 51.0483H229.768C229.446 51.0483 229.187 51.3103 229.187 51.6354V101.409C229.187 101.734 229.448 101.996 229.768 101.996H236.706C237.028 101.996 237.288 101.734 237.288 101.409V78.776L241.728 101.409C241.728 101.734 241.99 101.996 242.31 101.996H249.248C249.57 101.996 249.83 101.734 249.83 101.409V51.6373C249.832 51.3123 249.57 51.0483 249.248 51.0483ZM292.48 67.956H299.416C299.738 67.956 299.998 67.692 299.998 67.3689V56.1095C299.998 55.487 299.752 54.8881 299.317 54.4468L296.63 51.7358C296.192 51.2945 295.601 51.0483 294.982 51.0483H284.371C283.752 51.0483 283.16 51.2965 282.723 51.7378L280.038 54.4468C279.6 54.8881 279.356 55.485 279.356 56.1076V69.2543C279.356 69.7567 279.517 70.2453 279.811 70.6511L291.773 85.965C291.853 86.0695 291.898 86.1975 291.898 86.3275V93.2329C291.898 93.558 291.637 93.82 291.316 93.82H288.042C287.72 93.82 287.46 93.556 287.46 93.2329V85.6754C287.46 85.3503 287.198 85.0864 286.876 85.0864H279.94C279.618 85.0864 279.358 85.3503 279.358 85.6735V96.9308C279.358 97.5554 279.604 98.1523 280.042 98.5936L282.727 101.305C283.164 101.746 283.756 101.992 284.375 101.992H294.986C295.605 101.992 296.196 101.744 296.634 101.303L299.319 98.5936C299.756 98.1523 300 97.5554 300 96.9328V83.7861C300 83.2837 299.84 82.7951 299.545 82.3892L287.583 67.0753C287.503 66.9709 287.458 66.8429 287.458 66.7128V59.8075C287.458 59.4824 287.72 59.2204 288.04 59.2204H291.315C291.637 59.2204 291.896 59.4844 291.896 59.8075V67.365C291.898 67.694 292.158 67.956 292.48 67.956ZM82.5412 51.0483H46.8582C46.536 51.0483 46.2763 51.3123 46.2763 51.6354V58.6353C46.2763 58.9603 46.536 59.2224 46.8582 59.2224H52.5463V101.409C52.5463 101.734 52.8079 101.996 53.1282 101.996H60.066C60.3882 101.996 60.6479 101.732 60.6479 101.409V59.2243H68.7495V101.411C68.7495 101.736 69.0112 101.998 69.3314 101.998H76.2692C76.5914 101.998 76.8511 101.734 76.8511 101.411V59.2243H82.5393C82.8614 59.2243 83.1211 58.9603 83.1211 58.6372V51.6373C83.1231 51.3123 82.8614 51.0483 82.5412 51.0483ZM40.4183 101.998H47.3209C47.6763 101.998 47.9497 101.679 47.897 101.324L40.5354 51.5506C40.4925 51.263 40.2484 51.0502 39.9594 51.0502H32.8653C32.5763 51.0502 32.3303 51.265 32.2893 51.5546L25.1796 101.328C25.1289 101.683 25.4022 102 25.7557 102H32.6584C32.9571 102 33.2071 101.771 33.2383 101.472L34.5095 88.7882H38.4656L39.8383 101.478C39.8715 101.773 40.1215 101.998 40.4183 101.998ZM34.8278 80.6122L36.5403 65.5623L38.2528 80.6122H34.8278Z" fill="#F1AA03"/>
<path d="M159.865 24.1953V31.7941C159.865 31.999 159.701 32.1645 159.498 32.1645H157.063V23.8229H159.498C159.701 23.8229 159.865 23.9904 159.865 24.1953ZM159.498 10.3216H157.063V18.6631H159.498C159.701 18.6631 159.865 18.4976 159.865 18.2927V10.6919C159.865 10.4871 159.701 10.3216 159.498 10.3216ZM127.837 10.3216H125.402V18.6631H127.837C128.04 18.6631 128.204 18.4976 128.204 18.2927V10.6919C128.206 10.4871 128.04 10.3216 127.837 10.3216ZM187.79 8.8676V16.6221C187.79 16.827 187.626 16.9925 187.423 16.9925H185.923V25.4897H187.423C187.626 25.4897 187.79 25.6552 187.79 25.86V33.6145C187.79 33.8194 187.626 33.9849 187.423 33.9849H185.923V42.1117C185.923 42.3166 185.759 42.4821 185.556 42.4821H115.555C115.352 42.4821 115.188 42.3166 115.188 42.1117V33.9849H113.688C113.485 33.9849 113.321 33.8194 113.321 33.6145V25.862C113.321 25.6571 113.485 25.4916 113.688 25.4916H115.188V17.0713H113.688C113.485 17.0713 113.321 16.9058 113.321 16.7009V8.8676C113.321 8.6627 113.485 8.49721 113.688 8.49721H115.188V0.370387C115.188 0.165493 115.352 0 115.555 0H185.554C185.757 0 185.921 0.165493 185.921 0.370387V8.49721H187.421C187.624 8.49721 187.79 8.6627 187.79 8.8676ZM133.318 8.35536C133.318 7.96133 133.164 7.58504 132.887 7.30528L131.192 5.59519C130.916 5.3174 130.541 5.15979 130.151 5.15979H120.657C120.454 5.15979 120.29 5.32529 120.29 5.53018V18.6612H119.958C119.755 18.6612 119.591 18.8267 119.591 19.0315V23.4506C119.591 23.6555 119.755 23.821 119.958 23.821H120.29V36.9519C120.29 37.1568 120.454 37.3223 120.657 37.3223H125.035C125.238 37.3223 125.402 37.1568 125.402 36.9519V23.821H130.151C130.541 23.821 130.914 23.6653 131.192 23.3856L132.887 21.6735C133.162 21.3957 133.318 21.0174 133.318 20.6234V8.35536ZM149.148 5.53018C149.148 5.32529 148.984 5.15979 148.781 5.15979H144.403C144.2 5.15979 144.036 5.32529 144.036 5.53018V31.7941C144.036 31.999 143.872 32.1645 143.669 32.1645H141.601C141.398 32.1645 141.234 31.999 141.234 31.7941V5.53018C141.234 5.32529 141.07 5.15979 140.867 5.15979H136.489C136.286 5.15979 136.122 5.32529 136.122 5.53018V34.1307C136.122 34.5247 136.276 34.901 136.554 35.1808L138.249 36.8928C138.524 37.1706 138.899 37.3282 139.289 37.3282H145.987C146.378 37.3282 146.751 37.1726 147.028 36.8928L148.723 35.1808C148.998 34.903 149.154 34.5247 149.154 34.1307V5.53018H149.148ZM164.979 8.35536C164.979 7.96133 164.824 7.58504 164.547 7.30528L162.852 5.59323C162.577 5.31544 162.202 5.15782 161.811 5.15782H152.318C152.114 5.15782 151.95 5.32332 151.95 5.52821V18.6592H151.618C151.415 18.6592 151.251 18.8247 151.251 19.0296V23.4486C151.251 23.6535 151.415 23.819 151.618 23.819H151.95V36.95C151.95 37.1549 152.114 37.3203 152.318 37.3203H161.813C162.204 37.3203 162.577 37.1647 162.854 36.8849L164.549 35.1749C164.824 34.8971 164.981 34.5188 164.981 34.1248V24.4317C164.981 24.0377 164.826 23.6614 164.549 23.3816L162.423 21.2361L164.549 19.0906C164.824 18.8129 164.981 18.4346 164.981 18.0406L164.979 8.35536ZM180.809 8.35536C180.809 7.96133 180.655 7.58504 180.377 7.30528L178.682 5.59519C178.407 5.3174 178.032 5.15979 177.644 5.15979H170.946C170.555 5.15979 170.181 5.31543 169.905 5.59519L168.21 7.30528C167.935 7.58307 167.779 7.96133 167.779 8.35536V34.1307C167.779 34.5247 167.933 34.901 168.21 35.1808L169.905 36.8928C170.181 37.1706 170.555 37.3282 170.944 37.3282H177.642C178.032 37.3282 178.405 37.1726 178.681 36.8928L180.375 35.1808C180.651 34.903 180.807 34.5247 180.807 34.1307V19.0335C180.807 18.8286 180.643 18.6631 180.44 18.6631H174.662C174.459 18.6631 174.295 18.8286 174.295 19.0335V23.4525C174.295 23.6574 174.459 23.8229 174.662 23.8229H175.695V31.7941C175.695 31.999 175.531 32.1645 175.328 32.1645H173.26C173.057 32.1645 172.893 31.999 172.893 31.7941V10.6919C172.893 10.4871 173.057 10.3216 173.26 10.3216H175.328C175.531 10.3216 175.695 10.4871 175.695 10.6919V15.4636C175.695 15.6685 175.859 15.834 176.062 15.834H180.44C180.643 15.834 180.807 15.6685 180.807 15.4636L180.809 8.35536Z" fill="#F1AA03"/>
<path d="M188.659 1.61157V1.12101H188.991C189.233 1.12101 189.356 1.20573 189.356 1.36531C189.356 1.4914 189.276 1.61157 189.03 1.61157H188.659ZM189.846 2.63211L189.639 2.27157C189.46 1.95635 189.411 1.9071 189.258 1.85587V1.84405C189.559 1.80662 189.739 1.61157 189.739 1.34364C189.739 1.05797 189.559 0.84125 189.178 0.84125H188.292V2.63211H188.659V1.89922H188.725C188.882 1.89922 188.946 1.91695 189.016 1.98787C189.089 2.0588 189.196 2.21247 189.258 2.34053L189.401 2.63211H189.846ZM188.971 0.340836C189.735 0.340836 190.356 0.96143 190.356 1.72978C190.356 2.49617 189.737 3.1207 188.971 3.1207C188.212 3.1207 187.601 2.49617 187.601 1.72978C187.601 0.96143 188.212 0.340836 188.971 0.340836ZM188.971 0C188.026 0 187.261 0.772296 187.261 1.73175C187.261 2.68924 188.026 3.45957 188.971 3.45957C189.922 3.45957 190.688 2.68924 190.688 1.73175C190.688 0.770326 189.922 0 188.971 0Z" fill="#F1AA03"/>
</svg>
