<svg width="300" height="222" viewBox="0 0 300 222" fill="none" xmlns="http://www.w3.org/2000/svg">
<path d="M127.023 6.0496C125.996 5.41564 125.149 4.526 124.562 3.46641C123.976 2.40682 123.671 1.213 123.675 0V25.1045C123.674 26.3236 123.983 27.5226 124.574 28.5865C125.165 29.6505 126.017 30.5438 127.049 31.1807L154.027 47.9437C154.247 48.0764 154.428 48.2639 154.554 48.4881C154.68 48.7122 154.746 48.9654 154.746 49.2229C154.746 49.4805 154.68 49.7336 154.554 49.9578C154.428 50.182 154.247 50.3695 154.027 50.5021L127.023 67.2651C125.988 67.9131 125.136 68.8187 124.55 69.8947C123.963 70.9707 123.662 72.1807 123.675 73.408V98.4592C123.675 97.2421 123.985 96.0454 124.576 94.9837C125.167 93.922 126.018 93.0311 127.049 92.3963L165.71 68.4111C168.955 66.3953 171.634 63.577 173.492 60.2242C175.35 56.8715 176.325 53.0958 176.325 49.2562C176.325 45.4167 175.35 41.641 173.492 38.2883C171.634 34.9355 168.955 32.1172 165.71 30.1014L127.023 6.0496Z" fill="#46B2FF"/>
<path d="M80.8418 129.846H26.3966C25.8388 129.797 25.2773 129.871 24.7513 130.064C24.2254 130.257 23.7477 130.564 23.3519 130.962C22.956 131.361 22.6509 131.843 22.4592 132.373C22.2678 132.902 22.1939 133.468 22.2423 134.029V153.111H67.4395V173.912H22.2423V221.176H0V127.234C1.11984e-06 115.388 6.88093 108.459 18.6565 108.459H80.8418V129.846Z" fill="#0032BE"/>
<path d="M186.174 129.846H150.159V221.176H127.918V129.846H91.9025V108.459H186.174V129.846Z" fill="#0032BE"/>
<path d="M240.778 108.459C274.068 108.459 300 129.832 300 164.811C300 199.789 274.028 221.176 240.739 221.176H204.34C202.797 221.182 201.294 220.679 200.061 219.743C198.828 218.808 197.933 217.492 197.513 215.997C197.093 214.501 197.171 212.908 197.734 211.461C198.298 210.014 199.317 208.792 200.635 207.984L213.867 199.789H240.778C261.445 199.789 277.548 186.344 277.548 164.811C277.548 143.277 261.485 129.846 240.818 129.846H213.907L200.675 121.638C199.363 120.826 198.35 119.605 197.791 118.16C197.231 116.716 197.156 115.127 197.575 113.635C197.995 112.144 198.886 110.832 200.114 109.897C201.343 108.963 202.841 108.458 204.38 108.459H240.778Z" fill="#0032BE"/>
</svg>
