<svg width="300" height="40" viewBox="0 0 300 40" fill="none" xmlns="http://www.w3.org/2000/svg">
<path d="M102.891 39.3636V6.36365H127.176V13.8182H111.473V19H126.811V26.3636H111.473V32H127.176V39.3636H102.891Z" fill="#1A1A2E"/>
<path d="M132.197 26V6.36365H140.87V25.7273C140.87 29.6364 143.153 32.4546 147.9 32.4546C152.465 32.4546 154.839 29.6364 154.839 25.7273V6.36365H163.421V26C163.421 34.1818 158.399 40 147.9 40C137.218 40 132.197 34.1818 132.197 26Z" fill="#1A1A2E"/>
<path d="M191.905 39.3636L177.937 20.2727V39.3636H169.446V6.36365H178.211L191.631 24.5455V6.36365H200.213V39.3636H191.905Z" fill="#1A1A2E"/>
<path d="M206.147 39.3636V6.36365H230.432V13.8182H214.729V19H230.067V26.3636H214.729V32H230.432V39.3636H206.147Z" fill="#1A1A2E"/>
<path fill-rule="evenodd" clip-rule="evenodd" d="M253.895 39.3636L248.326 28.2727H243.944V39.3636H235.362V6.36365H251.978C259.282 6.36365 263.481 11.2727 263.481 17.3636C263.481 23.0909 260.012 26.1818 256.908 27.2727L263.664 39.3636H253.895ZM254.808 17.3636C254.808 15.0909 252.891 13.8182 250.7 13.8182H243.944V20.9091H250.7C252.891 20.9091 254.808 19.6364 254.808 17.3636Z" fill="#1A1A2E"/>
<path fill-rule="evenodd" clip-rule="evenodd" d="M268.229 39.3636V6.36365H282.106C292.514 6.36365 300 12.6364 300 22.9091C300 33.0909 292.514 39.3636 282.197 39.3636H268.229ZM291.327 22.9091C291.327 17.8182 288.223 13.8182 282.106 13.8182H276.719V32H282.106C287.949 32 291.327 27.7273 291.327 22.9091Z" fill="#1A1A2E"/>
<path d="M21.5459 17.7273C20.8764 17.7273 20.2982 18.1515 19.8112 19C19.2635 19.8485 18.9896 20.8788 18.9896 22.0909C18.9896 23.3636 19.2635 24.4242 19.8112 25.2727C20.2982 26.1212 20.8764 26.5454 21.5459 26.5454C22.2154 26.5454 22.7936 26.1212 23.2805 25.2727C23.7674 24.4242 24.0109 23.3636 24.0109 22.0909C24.0109 20.8788 23.7674 19.8485 23.2805 19C22.7936 18.1515 22.2154 17.7273 21.5459 17.7273Z" fill="#1A1A2E"/>
<path d="M69.3853 17.7273C68.7158 17.7273 68.1376 18.1515 67.6507 19C67.1637 19.8485 66.9203 20.8788 66.9203 22.0909C66.9203 23.3636 67.1637 24.4242 67.6507 25.2727C68.1376 26.1212 68.7158 26.5454 69.3853 26.5454C70.0548 26.5454 70.633 26.1212 71.1199 25.2727C71.6068 24.4242 71.8503 23.3636 71.8503 22.0909C71.8503 20.8788 71.6068 19.8485 71.1199 19C70.633 18.1515 70.0548 17.7273 69.3853 17.7273Z" fill="#1A1A2E"/>
<path d="M94.583 6.63636H89.9269V2.27273C89.9269 2.21212 89.9573 2.15151 90.0182 2.09091C90.0182 0.90909 89.0139 0 87.9184 0C86.8228 0 85.9099 0.90909 85.9099 2.09091V6.72727H81.4363C81.3755 6.66666 81.3146 6.63636 81.2537 6.63636C80.0669 6.63636 79.1539 7.54545 79.1539 8.72727C79.1539 9.81818 80.0669 10.7273 81.2537 10.7273H85.9099V15.1818C85.9099 15.2424 85.9099 15.303 85.9099 15.3636C85.9099 16.4545 86.8228 17.4545 87.9184 17.4545C89.0139 17.4545 90.0182 16.4545 90.0182 15.3636V10.7273H94.4004C94.4613 10.7273 94.5222 10.7273 94.583 10.7273C95.7699 10.7273 96.6828 9.81818 96.6828 8.72727C96.6828 7.54545 95.7699 6.63636 94.583 6.63636Z" fill="#1A1A2E"/>
<path fill-rule="evenodd" clip-rule="evenodd" d="M89.927 22.1818V28.4545C89.927 30 89.7444 31.9091 88.8314 33.8182C87.3707 36.9091 84.084 39.6363 77.0542 39.6363H64.7291C53.6823 39.6363 51.9477 32.7273 51.8564 28.5454V21.8182C49.7565 20.8182 47.4741 20.2727 44.9178 20.2727C42.4528 20.2727 40.1704 20.8182 38.0706 21.8182V28.4545C38.0706 32.6363 36.336 39.6363 25.1065 39.6363H12.7815C7.48631 39.6363 4.38223 38.0909 2.5563 36L2.37371 35.8182L1.64334 34.7273C0.365186 32.6364 0 30.2727 0 28.4545V17.5454C0 16.7576 0.0912966 15.9091 0.273889 15L0.456482 14.2727C0.730371 13.1818 1.27815 12.1818 1.91722 11.1818L2.19111 10.7273C2.92149 9.90909 3.83445 9.18182 4.93001 8.54545C6.75593 7.45454 9.31223 6.72727 12.7815 6.72727H25.1065C28.1193 6.72727 30.4017 7.18182 32.2276 8C37.0663 10.2727 38.0706 14.9091 38.0706 18V18.9091C40.1704 18.1818 42.5441 17.7273 44.9178 17.7273C47.3828 17.7273 49.7565 18.1818 51.8564 18.9091V17.4545C52.039 14.4545 53.0432 10.2727 57.5167 8.09091C59.3427 7.27273 61.6251 6.72727 64.7291 6.72727H74.224C74.2848 6.66667 74.3457 6.63636 74.4066 6.63636C75.5934 6.63636 76.5064 7.54545 76.5064 8.72727C76.5064 9.81818 75.5934 10.7273 74.4066 10.7273H64.7291C56.969 10.7273 55.9647 14.6364 55.9647 18V28.4545C55.9647 31.7273 56.969 35.6364 64.7291 35.6364H77.0542C84.9057 35.6364 85.9099 31.7273 85.9099 28.4545V22.1818C85.9099 21.0909 86.8229 20.1818 87.9184 20.1818C89.014 20.1818 89.927 21.0909 89.927 22.1818ZM33.9623 18C33.9623 14.6364 32.958 10.7273 25.1065 10.7273H12.7815C5.0213 10.7273 4.01704 14.6364 4.01704 18V28.4545C4.01704 31.7273 5.0213 35.6364 12.7815 35.6364H25.1065C32.958 35.6364 33.9623 31.7273 33.9623 28.4545V18Z" fill="#1A1A2E"/>
</svg>
