<svg width="300" height="162" viewBox="0 0 300 162" fill="none" xmlns="http://www.w3.org/2000/svg">
<g opacity="0.997">
<path fill-rule="evenodd" clip-rule="evenodd" d="M115.283 0C146.9 0 178.515 0 210.132 0C208.979 5.83287 207.807 11.6622 206.616 17.4878C175 17.561 143.384 17.5853 111.768 17.561C112.93 11.7054 114.102 5.85178 115.283 0Z" fill="#1D66C3"/>
<path fill-rule="evenodd" clip-rule="evenodd" d="M109.497 27.1463C141.114 27.1463 172.729 27.1463 204.346 27.1463C203.211 32.9832 202.039 38.8125 200.83 44.6341C169.214 44.7073 137.598 44.7317 105.981 44.7073C107.144 38.8517 108.316 32.998 109.497 27.1463Z" fill="#1D66C3"/>
<path fill-rule="evenodd" clip-rule="evenodd" d="M103.857 55.0976C113.525 55.0854 123.193 55.0976 132.861 55.1342C135.685 55.3428 138.273 56.2208 140.625 57.7683C143.709 60.1561 144.943 63.2902 144.324 67.1707C143.624 71.4377 141.439 74.6934 137.769 76.939C135.466 78.259 133.024 79.2344 130.444 79.8659C133.044 80.2749 135.412 81.2261 137.549 82.7195C139.209 84.0724 140.198 85.8168 140.515 87.9512C140.96 92.8873 139.471 97.1312 136.047 100.683C132.642 104.055 128.528 105.92 123.706 106.28C122.051 106.471 120.391 106.592 118.726 106.646C110.107 106.683 101.49 106.695 92.8711 106.683C96.4958 89.4798 100.158 72.2846 103.857 55.0976ZM116.016 64.3171C118.994 64.3049 121.972 64.3171 124.951 64.3537C128.227 64.5525 129.705 66.272 129.382 69.5122C128.536 73.8585 125.886 75.9198 121.436 75.6951C118.823 75.7559 116.21 75.7442 113.599 75.6585C114.432 71.8838 115.238 68.1033 116.016 64.3171ZM111.621 84.9512C114.453 84.9388 117.285 84.9512 120.117 84.9878C125.471 85.339 127.143 88.0098 125.134 93C124.008 95.1959 122.213 96.5012 119.751 96.9146C119.145 97.0288 118.535 97.102 117.92 97.1342C114.966 97.1707 112.011 97.1832 109.058 97.1707C109.921 93.0995 110.776 89.0261 111.621 84.9512Z" fill="#1D65C4"/>
<path fill-rule="evenodd" clip-rule="evenodd" d="M0 95.6341C0 94.6588 0 93.6827 0 92.7073C0.145222 91.7656 0.291707 90.8144 0.439453 89.8537C5.24903 89.8537 10.0586 89.8537 14.8682 89.8537C13.7949 94.4071 15.5771 96.9315 20.2148 97.4268C22.421 97.6632 24.5695 97.4195 26.6602 96.6951C29.2496 95.5617 30.6412 93.5744 30.835 90.7317C30.7589 89.3963 30.1242 88.4327 28.9307 87.8415C28.4351 87.6029 27.9224 87.4083 27.3926 87.2561C22.9704 86.0971 18.5515 84.9263 14.1357 83.7439C6.0237 81.1815 3.44802 75.9015 6.40869 67.9024C7.56672 65.0882 9.33677 62.7346 11.7188 60.8415C15.3021 58.0654 19.3548 56.3459 23.877 55.6829C27.6718 55.1347 31.4804 55.025 35.3027 55.3537C37.6155 55.5426 39.8615 56.0303 42.041 56.8171C47.333 58.9612 49.5424 62.8758 48.6694 68.561C48.5588 69.3465 48.4244 70.127 48.2666 70.9024C43.4326 70.9024 38.5986 70.9024 33.7646 70.9024C33.8357 70.3887 33.9212 69.8765 34.021 69.3659C34.3778 66.4538 33.1205 64.7343 30.249 64.2073C27.4786 63.747 24.9639 64.3324 22.7051 65.9634C21.1225 67.291 20.4267 68.9861 20.6177 71.0488C20.8118 71.804 21.2146 72.426 21.8262 72.9146C22.3187 73.2827 22.8558 73.5754 23.4375 73.7927C27.3097 74.8756 31.1916 75.9241 35.083 76.939C37.4889 77.569 39.7838 78.4719 41.9678 79.6463C44.6947 81.4354 46.0619 83.9722 46.0693 87.2561C45.7272 94.2863 42.5046 99.5056 36.4014 102.915C31.7369 105.293 26.7809 106.537 21.5332 106.646C17.963 106.823 14.423 106.578 10.9131 105.915C8.22773 105.414 5.81071 104.341 3.66211 102.695C1.52005 100.818 0.299351 98.4637 0 95.6341Z" fill="#1D65C4"/>
<path fill-rule="evenodd" clip-rule="evenodd" d="M58.5205 55.2439C71.6065 55.2439 84.6921 55.2439 97.7783 55.2439C97.106 58.5391 96.4226 61.8318 95.7275 65.1219C87.427 65.1219 79.1257 65.1219 70.8252 65.1219C70.0496 68.6789 69.2928 72.2399 68.5547 75.8049C76.3425 75.8049 84.1311 75.8049 91.9189 75.8049C91.2202 79.0998 90.512 82.3924 89.7949 85.6829C81.9822 85.6588 74.1694 85.6829 66.3574 85.7561C65.5805 89.381 64.7993 93.0029 64.0137 96.6219C72.5098 96.6344 81.0059 96.671 89.502 96.7317C88.7695 100.024 88.0371 103.317 87.3047 106.61C74.0237 106.707 60.7422 106.707 47.4609 106.61C51.1662 89.4915 54.8528 72.3697 58.5205 55.2439Z" fill="#1D65C4"/>
<path fill-rule="evenodd" clip-rule="evenodd" d="M153.296 55.2439C162.94 55.2317 172.583 55.2439 182.227 55.2805C184.834 55.2065 187.349 55.6455 189.771 56.5976C192.809 58.126 194.457 60.6016 194.714 64.0244C194.904 73.2242 190.497 78.7734 181.494 80.6707C180.694 80.8456 179.888 80.992 179.077 81.1098C178.974 81.1368 178.901 81.1976 178.857 81.2927C180.469 81.3673 182.055 81.5985 183.618 81.9878C186.382 82.7159 187.884 84.5085 188.123 87.3659C188.197 88.0954 188.234 88.8271 188.232 89.561C188.068 93.1229 187.885 96.6834 187.683 100.244C187.614 102.32 187.638 104.393 187.756 106.463C198.285 89.5003 208.795 72.5245 219.287 55.5366C225.22 55.4634 231.152 55.4391 237.085 55.4634C240.231 72.5418 243.404 89.6151 246.606 106.683C241.137 106.707 235.668 106.683 230.2 106.61C229.718 103.223 229.255 99.8327 228.809 96.439C221.851 96.4149 214.893 96.439 207.935 96.5122C206.021 99.8846 204.116 103.262 202.222 106.646C192.138 106.683 182.056 106.695 171.973 106.683C171.958 105.34 171.995 103.998 172.083 102.659C172.427 98.7571 172.756 94.8549 173.071 90.9512C173.113 89.929 172.882 88.9778 172.375 88.0976C171.9 87.5246 171.302 87.1463 170.581 86.9634C169.953 86.8185 169.319 86.7205 168.677 86.6707C167.432 86.6583 166.187 86.6466 164.941 86.6342C163.668 86.6349 162.411 86.6832 161.169 86.7805C159.727 93.4127 158.299 100.047 156.885 106.683C152.002 106.707 147.119 106.683 142.236 106.61C145.946 89.4922 149.632 72.3705 153.296 55.2439ZM165.894 64.7561C168.702 64.7286 171.51 64.7652 174.316 64.8659C175.37 64.9192 176.395 65.1143 177.393 65.4512C179.078 66.1702 179.932 67.4507 179.956 69.2927C179.609 74.5061 176.826 77.152 171.606 77.2317C168.823 77.2683 166.04 77.2807 163.257 77.2683C164.136 73.0976 165.015 68.9268 165.894 64.7561ZM225.22 65.561C225.293 65.561 225.366 65.561 225.439 65.561C226.113 72.6839 226.797 79.8059 227.49 86.9268C222.803 86.9393 218.115 86.9268 213.428 86.8903C217.407 79.8059 221.337 72.6962 225.22 65.561Z" fill="#1D65C4"/>
<path fill-rule="evenodd" clip-rule="evenodd" d="M300 55.2439C300 55.3659 300 55.4878 300 55.6098C299.295 58.7673 298.612 61.938 297.949 65.1219C289.649 65.1219 281.347 65.1219 273.047 65.1219C272.29 68.6828 271.533 72.2438 270.776 75.8049C278.564 75.8049 286.353 75.8049 294.141 75.8049C293.47 79.0807 292.762 82.3493 292.017 85.6098C284.205 85.6829 276.392 85.7071 268.579 85.6829C267.803 89.3378 267.047 92.9963 266.309 96.6585C274.781 96.6585 283.252 96.6585 291.724 96.6585C291.015 99.9944 290.282 103.324 289.526 106.646C276.245 106.695 262.964 106.695 249.683 106.646C253.402 89.5207 257.088 72.3867 260.742 55.2439C273.828 55.2439 286.914 55.2439 300 55.2439Z" fill="#1D65C4"/>
<path fill-rule="evenodd" clip-rule="evenodd" d="M90.5273 117.293C122.144 117.293 153.76 117.293 185.376 117.293C184.223 123.126 183.051 128.955 181.86 134.78C150.244 134.854 118.628 134.878 87.0117 134.854C88.1741 128.998 89.3459 123.144 90.5273 117.293Z" fill="#1D66C3"/>
<path fill-rule="evenodd" clip-rule="evenodd" d="M176.074 162C144.458 162 112.842 162 81.2256 162C82.3879 156.144 83.5598 150.29 84.7412 144.439C116.358 144.439 147.973 144.439 179.59 144.439C178.446 150.299 177.274 156.152 176.074 162Z" fill="#1D66C3"/>
</g>
</svg>
