<svg width="239" height="83" viewBox="0 0 239 83" fill="none" xmlns="http://www.w3.org/2000/svg">
<path d="M19.5208 7.61246H1.10231C0.95751 7.61232 0.814109 7.64079 0.680308 7.69624C0.546508 7.75169 0.424934 7.83303 0.322548 7.93561C0.220162 8.03819 0.138973 8.15999 0.083626 8.29404C0.028279 8.42809 -0.000137925 8.57176 5.03317e-07 8.71682V24.4863H2.32378V9.93979H11.229V24.4863H13.4873V9.93979H19.0707C21.2645 9.93979 22.362 11.1037 22.362 13.3984V24.4863H24.7169V13.0107C24.7156 9.42267 22.9737 7.61246 19.5208 7.61246Z" fill="white"/>
<path d="M39.563 7.61246H33.6587C30.1418 7.61246 28.3992 9.42267 28.3992 13.0107V19.0881C28.3992 22.6761 30.1418 24.4863 33.6587 24.4863H43.5321V22.1908H33.9491C31.7871 22.1908 30.7225 21.0923 30.7225 18.8614V17.1482H39.8208C42.6621 17.1482 44.0798 15.9194 44.0798 13.4318V12.0731C44.0798 9.09953 42.5637 7.61246 39.563 7.61246ZM41.7894 13.0107C41.7894 14.4981 40.9182 15.2417 39.1757 15.2415H30.7225V13.0752C30.7225 10.8125 31.8198 9.64881 34.0457 9.64881H39.1436C40.9181 9.64881 41.7892 10.5218 41.7892 12.2355L41.7894 13.0107Z" fill="white"/>
<path d="M61.2808 18.7004C61.2808 20.995 60.1495 22.159 57.9249 22.159H53.3105C51.1167 22.159 49.9873 20.995 49.9873 18.7004V7.64435H47.6317V19.0881C47.6317 22.6761 49.374 24.4863 52.8909 24.4863H58.3445C61.8288 24.4863 63.6038 22.6761 63.6038 19.0881V7.64435H61.2808V18.7004Z" fill="white"/>
<path d="M78.6632 6.9509H73.1123C69.2394 6.9509 67.193 9.04681 67.193 13.0115V30.871H70.8711V13.3984C70.8711 11.4862 71.6921 10.634 73.5334 10.634H78.211C80.0749 10.634 80.9057 11.4862 80.9057 13.3984V18.7004C80.9057 20.6345 80.0749 21.4969 78.211 21.4969H72.6019V25.1486H78.6632C82.536 25.1486 84.5825 23.0527 84.5825 19.0881V13.0107C84.5836 9.04603 82.536 6.9509 78.6632 6.9509Z" fill="white"/>
<path d="M91.2229 0H87.5453V25.1486H91.2229V0Z" fill="white"/>
<path d="M105.544 6.9509H94.9773V10.5692H105.254C107.006 10.5692 107.787 11.3921 107.787 13.2373V19.0225C107.787 20.96 107.001 21.7871 105.156 21.7871H100.026C98.6349 21.7871 98.0414 21.2114 98.0414 19.863V19.0881C98.0414 18.2734 98.2782 17.5196 99.9943 17.5196H106.056V14.2879H99.3813C95.3151 14.2879 94.4617 16.6877 94.4617 18.7004V20.0256C94.4617 23.3772 96.2414 25.1486 99.6073 25.1486H105.544C109.417 25.1486 111.463 23.0527 111.463 19.0881V13.0107C111.464 9.04603 109.416 6.9509 105.544 6.9509Z" fill="white"/>
<path d="M128.417 20.5912H121.044C119.202 20.5912 118.381 19.7987 118.381 18.0214V6.95143H114.704V18.3772C114.704 22.1305 116.751 24.1147 120.623 24.1147H128.416V24.228C128.416 26.3186 127.585 27.2509 125.721 27.2509H117.802V30.8702H126.174C130.047 30.8702 132.093 28.6626 132.093 24.4863V6.9509H128.417V20.5912Z" fill="white"/>
<path d="M146.398 14.1588H139.621C138.506 14.1588 138.282 13.7073 138.282 12.978V11.6527C138.282 10.8473 138.537 10.3109 139.783 10.3109H149.994V6.9509H139.203C136.279 6.9509 134.67 8.50597 134.67 11.3304V13.2381C134.67 15.8954 136.222 17.3591 139.041 17.3591H145.816C146.906 17.3591 147.124 17.8103 147.124 18.5391V20.4457C147.124 21.2744 146.852 21.7878 145.493 21.7878H134.831V25.1484H146.107C149.093 25.1484 150.737 23.5814 150.737 20.7362V18.2797C150.737 15.6224 149.196 14.1588 146.398 14.1588Z" fill="white"/>
<path d="M158.451 1.45439H154.773V25.1486H158.451V10.3755H162.097V6.95011H158.451V1.45439Z" fill="white"/>
<path d="M188.742 1.45439H185.064V25.1486H188.742V10.3755H192.388V6.95011H188.742V1.45439Z" fill="white"/>
<path d="M197.713 7.11141H194.035V25.1486H197.713V7.11141Z" fill="white"/>
<path d="M197.713 0H194.035V5.07427H197.713V0Z" fill="white"/>
<path d="M212.271 6.9509H206.56C202.687 6.9509 200.641 9.04681 200.641 13.0115V19.0881C200.641 23.0527 202.688 25.1486 206.56 25.1486H212.271C216.143 25.1486 218.19 23.0527 218.19 19.0881V13.0107C218.191 9.04603 216.144 6.9509 212.271 6.9509ZM214.514 18.7012C214.514 20.6352 213.683 21.4977 211.819 21.4977H207.011C205.148 21.4977 204.318 20.6352 204.318 18.7012V13.3984C204.318 11.4862 205.148 10.634 207.011 10.634H211.819C213.683 10.634 214.514 11.4862 214.514 13.3984V18.7012Z" fill="white"/>
<path d="M232.622 6.9509H222.254C221.961 6.95097 221.681 7.06726 221.475 7.2742C221.268 7.48115 221.152 7.76181 221.152 8.05447V25.1494H224.83V10.634H232.17C234.034 10.634 234.865 11.4862 234.865 13.3984V25.1486H238.542V13.0107C238.543 9.04603 236.495 6.9509 232.622 6.9509Z" fill="white"/>
<path d="M176.037 6.9509H165.471V10.5692H175.747C177.5 10.5692 178.281 11.3921 178.281 13.2373V19.0225C178.281 20.96 177.494 21.7871 175.65 21.7871H170.52C169.128 21.7871 168.535 21.2114 168.535 19.863V19.0881C168.535 18.2734 168.772 17.5196 170.488 17.5196H176.55V14.2879H169.875C165.809 14.2879 164.955 16.6877 164.955 18.7004V20.0256C164.955 23.3772 166.735 25.1486 170.101 25.1486H176.037C179.91 25.1486 181.957 23.0527 181.957 19.0881V13.0107C181.958 9.04603 179.91 6.9509 176.037 6.9509Z" fill="white"/>
<path d="M111.157 76.513C110.175 76.068 109.208 75.5936 108.255 75.0897C106.282 74.0465 104.394 72.8498 102.608 71.5106C102.529 71.4524 102.436 71.4171 102.339 71.4089C102.242 71.4006 102.144 71.4196 102.057 71.4638C101.97 71.508 101.897 71.5756 101.846 71.659C101.795 71.7425 101.768 71.8385 101.768 71.9363C101.83 77.7786 103.478 81.8914 107.509 81.2087C109.486 80.8737 110.632 79.1265 111.429 77.1948C111.481 77.0681 111.482 76.926 111.431 76.7987C111.381 76.6714 111.282 76.5689 111.157 76.513Z" fill="#2159CA"/>
<path d="M140.882 63.4377C139.661 65.2774 138.265 66.9951 136.716 68.5673C135.839 69.4719 134.916 70.3312 133.958 71.1503C133.855 71.237 133.79 71.3599 133.775 71.4935C133.761 71.6271 133.798 71.7613 133.879 71.8683C135.463 73.9415 137.465 76.1324 139.989 75.7046C144.383 74.96 144.233 69.7642 141.814 63.5315C141.779 63.4412 141.719 63.3624 141.642 63.3038C141.565 63.2452 141.473 63.209 141.377 63.1993C141.28 63.1896 141.183 63.2067 141.096 63.2488C141.009 63.2909 140.935 63.3562 140.882 63.4377Z" fill="#2159CA"/>
<path d="M141.52 77.6213C140.988 77.3871 140.4 77.3144 139.828 77.412C139.144 77.4859 138.489 77.7228 137.916 78.1028C137.775 78.2082 137.63 78.3073 137.481 78.4001C137.472 78.4059 137.463 78.4109 137.454 78.4165C137.308 78.4879 137.159 78.553 137.008 78.6149C136.997 78.6186 136.986 78.6228 136.974 78.6265C136.781 78.6864 136.587 78.7403 136.391 78.7881C136.372 78.7928 136.352 78.7968 136.333 78.8015C135.885 78.878 135.434 78.9317 134.981 78.9626C134.928 78.9644 134.874 78.9665 134.821 78.9676C134.549 78.9729 134.277 78.9721 134.005 78.9652C133.491 78.9523 132.976 78.9191 132.464 78.869C132.341 78.8572 132.217 78.8427 132.094 78.8295C131.804 78.7899 131.514 78.746 131.226 78.6977C130.62 78.5949 130.017 78.4737 129.418 78.3342C128.079 78.0197 126.757 77.6339 125.459 77.1785C121.602 75.7617 117.921 73.9039 114.489 71.6419C114.34 71.5444 114.194 71.4418 114.046 71.343C114.725 71.3064 119.496 71.3406 122.464 70.8377C124.408 70.4527 126.324 69.9443 128.203 69.3159C127.709 69.7769 127.207 70.2305 126.697 70.6764C125.908 71.3617 126.279 72.5069 126.776 73.0805C127.079 73.4738 127.502 73.7576 127.981 73.8888C128.344 73.964 128.814 73.9956 129.152 73.7014C132.508 70.8073 135.509 67.5256 138.095 63.9248C140.206 60.9501 141.975 57.7235 143.01 54.3817C143.839 51.7009 144.18 48.7573 143.321 46.2745C142.849 44.876 142.03 43.6207 140.941 42.6267C139.681 41.4775 137.994 41.0821 136.176 40.924C132.17 40.574 128.873 42.0062 125.124 43.8826C124.489 44.201 120.927 46.1633 122.477 47.2523C123.673 48.0396 124.314 47.5402 124.747 47.3367C125.534 46.9677 130.564 44.6187 133.492 44.0948C134.255 43.9828 135.025 43.9335 135.796 43.9472C135.981 43.9515 136.165 43.9603 136.349 43.9735C136.439 43.9804 136.528 43.9884 136.618 43.9975L136.668 44.003C137.006 44.0684 137.344 44.1243 137.673 44.2165C137.824 44.259 137.972 44.3064 138.118 44.3578C138.181 44.3842 138.244 44.4105 138.306 44.4406C138.45 44.5073 138.589 44.5789 138.726 44.6554C138.772 44.6817 138.817 44.7081 138.862 44.7344C139.057 44.8886 139.249 45.0444 139.435 45.2089C139.513 45.2995 139.592 45.3934 139.665 45.488C139.686 45.5159 139.725 45.5702 139.762 45.6221C139.784 45.6588 139.804 45.6923 139.816 45.7133C139.921 45.8978 140.01 46.0884 140.096 46.2816C140.1 46.2927 140.104 46.3035 140.108 46.3145C140.149 46.436 140.187 46.559 140.222 46.6835C140.285 46.9092 140.332 47.1393 140.378 47.3704C140.381 47.3968 140.385 47.4231 140.388 47.4479C140.404 47.586 140.417 47.7248 140.427 47.8643C140.447 48.1508 140.455 48.4393 140.45 48.7299C140.446 49.0011 140.426 49.2726 140.409 49.5449C140.403 49.5921 140.398 49.6395 140.392 49.6867C140.371 49.8576 140.346 50.0288 140.319 50.2001C140.063 51.6753 139.646 53.1178 139.074 54.5013C138.824 55.0975 138.548 55.6874 138.259 56.2712C137.4 54.7952 136.47 53.3308 135.493 51.9186C135.493 51.9186 134.166 50.2602 134.039 50.1914C133.156 49.717 129.329 49.9089 128.284 50.9497C128.181 51.0525 127.171 52.6416 127.022 52.6666L126.118 52.8197C124.773 52.0271 123.396 51.2913 121.988 50.6123C118.576 48.9737 114.947 47.6298 111.218 46.9308C107.985 46.3246 104.551 46.1329 101.355 47.0531C99.7963 47.4837 98.3456 48.2386 97.0977 49.2687C96.1802 50.0547 95.4871 51.0704 95.089 52.2122C94.3656 54.189 94.8062 56.4821 95.5626 58.3798C96.6286 61.0529 98.3541 63.4696 100.245 65.614C102.694 68.327 105.44 70.7553 108.431 72.8533C111.734 75.2373 115.29 77.2498 119.033 78.8543C122.526 80.389 126.219 81.4214 130.001 81.9209C133.114 82.297 136.447 82.1104 139.34 80.8081C139.977 80.529 140.582 80.1822 141.145 79.7739C141.513 79.5 141.993 79.1133 142.075 78.6168C142.103 78.413 142.064 78.2057 141.964 78.0261C141.863 77.8465 141.708 77.7045 141.52 77.6213ZM101.187 50.2365L101.132 50.2792C101.109 50.2881 101.138 50.2668 101.187 50.2365ZM103.946 57.2654C103.594 58.5345 103.277 59.822 103.002 61.1112C102.476 60.3908 101.989 59.643 101.542 58.8708C100.662 57.2654 99.9476 55.4995 99.8361 53.6576C99.8282 52.9764 99.9349 52.2987 100.152 51.6529C100.289 51.3503 100.455 51.0617 100.647 50.791C100.721 50.707 100.792 50.6202 100.872 50.5409C100.935 50.4779 101 50.417 101.067 50.3564C101.174 50.2789 101.282 50.2025 101.395 50.1313C101.3 50.1872 101.233 50.2252 101.191 50.2483L101.207 50.2341C101.222 50.2209 101.232 50.2114 101.239 50.2043C101.265 50.1901 101.291 50.1756 101.316 50.163C101.365 50.1384 101.414 50.1134 101.463 50.0892C101.531 50.0486 101.599 50.0101 101.666 49.9687C101.595 50.0122 101.535 50.0478 101.479 50.0815C101.613 50.0161 101.751 49.9574 101.889 49.9002C101.97 49.8738 102.051 49.8475 102.133 49.8243C102.295 49.7776 102.459 49.7397 102.623 49.7012C102.73 49.683 102.838 49.6648 102.946 49.6485C103.191 49.6134 103.437 49.586 103.684 49.5644C103.777 49.5565 103.871 49.5501 103.965 49.5438H103.969C104.548 49.5283 105.125 49.5422 105.702 49.5794C105.992 49.5979 106.282 49.6221 106.57 49.6522C106.718 49.6674 106.866 49.6859 107.014 49.702C106.168 49.6092 106.874 49.6859 107.074 49.7151C107.733 49.8116 108.389 49.9326 109.041 50.0739C110.544 50.406 112.026 50.8291 113.479 51.3409C115.515 52.0833 117.5 52.9564 119.424 53.9547L112.191 55.1806C112.043 55.2056 110.567 54.038 110.436 53.9747C109.107 53.3361 105.431 54.4162 104.753 55.155C104.655 55.2623 103.946 57.2654 103.946 57.2654ZM112.067 61.0292C112.079 61.2032 112.032 61.376 111.934 61.52L111.129 62.7C111.099 62.7442 111.06 62.7818 111.014 62.8102C110.969 62.8386 110.918 62.8573 110.865 62.8652C110.812 62.873 110.758 62.8697 110.707 62.8557C110.655 62.8416 110.607 62.8169 110.565 62.7833L109.486 61.9122C109.369 61.8176 109.282 61.691 109.235 61.5476L108.812 60.2472C108.778 60.1409 108.766 60.0285 108.779 59.9175C108.792 59.8065 108.828 59.6995 108.886 59.6039C108.944 59.5083 109.021 59.4263 109.114 59.3634C109.206 59.3006 109.311 59.2584 109.421 59.2398L111.073 58.9594C111.18 58.9412 111.29 58.9457 111.395 58.9727C111.5 58.9996 111.598 59.0482 111.684 59.1156C111.769 59.1829 111.839 59.2674 111.889 59.3636C111.94 59.4597 111.97 59.5655 111.977 59.6739L112.067 61.0292ZM108.87 65.4986L107.572 65.9224C107.466 65.957 107.354 65.9684 107.243 65.9556C107.132 65.9429 107.026 65.9063 106.93 65.8485C106.835 65.7906 106.753 65.7129 106.69 65.6205C106.627 65.5281 106.585 65.4232 106.567 65.313L106.287 63.6573C106.269 63.5501 106.273 63.4403 106.3 63.335C106.327 63.2297 106.375 63.1312 106.443 63.0459C106.51 62.9606 106.594 62.8903 106.69 62.8396C106.786 62.7889 106.891 62.759 107 62.7516L108.352 62.6607C108.526 62.649 108.699 62.6961 108.842 62.7946L110.02 63.6009C110.065 63.6311 110.102 63.6702 110.13 63.7157C110.159 63.7612 110.177 63.812 110.185 63.8651C110.193 63.9181 110.19 63.9722 110.176 64.0239C110.162 64.0757 110.137 64.1239 110.104 64.1657L109.235 65.2463C109.141 65.3642 109.014 65.4519 108.87 65.4986ZM112.628 68.172L110.976 68.4522C110.869 68.4703 110.759 68.4658 110.654 68.4389C110.549 68.412 110.451 68.3633 110.366 68.296C110.281 68.2287 110.21 68.1443 110.16 68.0481C110.109 67.952 110.079 67.8463 110.072 67.7379L109.981 66.3826C109.969 66.2086 110.016 66.0357 110.115 65.8918L110.92 64.7116C110.95 64.6673 110.989 64.6298 111.034 64.6013C111.08 64.5729 111.13 64.5542 111.183 64.5464C111.236 64.5386 111.29 64.5418 111.342 64.5559C111.394 64.57 111.442 64.5946 111.483 64.6283L112.562 65.498C112.679 65.5926 112.766 65.7193 112.813 65.8626L113.236 67.163C113.271 67.2693 113.282 67.3819 113.27 67.493C113.257 67.6042 113.221 67.7113 113.163 67.807C113.105 67.9028 113.028 67.985 112.935 68.048C112.843 68.1109 112.738 68.1532 112.628 68.172ZM113.207 64.6169L112.029 63.8107C111.985 63.7804 111.947 63.7413 111.919 63.6958C111.891 63.6504 111.872 63.5995 111.864 63.5465C111.856 63.4934 111.86 63.4393 111.874 63.3876C111.888 63.3358 111.912 63.2876 111.946 63.2458L112.815 62.1652C112.91 62.0478 113.036 61.9605 113.179 61.9137L114.477 61.4899C114.583 61.4553 114.696 61.444 114.806 61.4567C114.917 61.4695 115.024 61.5061 115.119 61.5639C115.215 61.6218 115.297 61.6996 115.359 61.792C115.422 61.8845 115.464 61.9894 115.483 62.0996L115.763 63.7551C115.781 63.8622 115.776 63.972 115.749 64.0773C115.723 64.1827 115.674 64.2812 115.607 64.3665C115.54 64.4518 115.455 64.5221 115.359 64.5728C115.263 64.6235 115.158 64.6534 115.049 64.6607L113.697 64.7516C113.523 64.7632 113.35 64.7158 113.206 64.6169H113.207ZM132.02 78.8216C131.889 78.8071 131.691 78.7778 132.06 78.826L132.02 78.8216ZM132.143 78.8371L132.131 78.8353L132.324 78.8616C132.262 78.8519 132.203 78.8453 132.143 78.8371H132.143ZM136.569 78.758C136.499 78.7712 136.429 78.7844 136.358 78.7968C136.353 78.7968 136.347 78.7968 136.342 78.7992C136.983 78.6571 136.752 78.7246 136.568 78.7588L136.569 78.758Z" fill="#2159CA"/>
</svg>
