<svg width="300" height="43" viewBox="0 0 300 43" fill="none" xmlns="http://www.w3.org/2000/svg">
<path d="M42.0317 14.0092L21.0118 0L0 14.0092L8.75387 19.846L19.2645 12.8407L14.8814 9.92233L20.579 6.12757L32.8342 14.2986L12.6988 27.7249L17.0709 30.6488L42.0317 14.0092Z" fill="#465EFF"/>
<path d="M42.0317 5.83273V0L33.2765 5.83273L37.6541 8.75387L42.0317 5.83273Z" fill="#465EFF"/>
<path fill-rule="evenodd" clip-rule="evenodd" d="M61.8982 35.0128C64.6436 35.0127 71.4656 34.7048 71.4656 27.6062C71.4655 23.7653 70.2654 21.0851 65.6752 20.4999C69.1902 19.8047 70.9578 17.479 70.9578 14.2604C70.9577 8.28556 66.8778 7.00396 61.9391 7.00392H50.4361V35.0128H61.8982ZM57.4905 11.3119H60.0254C62.3231 11.3121 63.9444 12.8259 63.9444 14.8814C63.9442 17.5962 61.8743 18.4466 60.3871 18.4469H58.012L57.4905 18.4687V11.3119ZM57.4905 22.7986L58.8992 22.7549H59.7974C63.2229 22.7549 64.3102 24.267 64.3102 26.7476C64.3101 30.6705 61.0587 30.7102 59.62 30.7102H57.4905V22.7986Z" fill="#465EFF"/>
<path fill-rule="evenodd" clip-rule="evenodd" d="M211.837 35.0182C214.592 35.0182 221.409 34.7049 221.409 27.6103C221.409 23.7674 220.209 21.0877 215.619 20.5081C219.139 19.811 220.896 17.4792 220.896 14.2645C220.896 8.28569 216.816 7.00938 211.881 7.00938H200.379V35.0182H211.837ZM207.445 11.3529H210.855C212.727 11.3529 214.051 12.8643 214.052 14.9197C214.052 17.637 212.362 18.4947 211.147 18.4947H209.217L207.445 18.5138V11.3529ZM207.445 22.8395L209.217 22.7945H210.674C213.462 22.7946 214.348 24.3117 214.348 26.794C214.348 30.7115 211.699 30.7484 210.528 30.7484H207.445V22.8395Z" fill="#465EFF"/>
<path d="M42.0317 28.0184L33.2765 22.1802L22.7672 29.1841L27.1421 32.1066L21.4527 35.9L9.19341 27.7249L29.3329 14.2986L24.9553 11.3802L0 28.0184L21.0118 42.029L42.0317 28.0184Z" fill="#465EFF"/>
<path d="M123.151 35.6857C128.22 35.6857 131.176 33.6781 131.176 27.4273H125.415C125.343 29.2724 125.316 32.1897 123.151 32.1899C120.702 32.1899 120.35 30.7097 120.35 23.6039C120.35 16.2597 120.908 15.025 123.046 15.0248C124.581 15.0248 125.272 16.1896 125.272 19.2946H130.997C131.209 14.2756 128.425 11.5221 122.906 11.5221C114.684 11.5221 114.445 16.7511 114.445 23.6039C114.445 30.4993 114.231 35.6857 123.151 35.6857Z" fill="#465EFF"/>
<path fill-rule="evenodd" clip-rule="evenodd" d="M141.812 35.6857C150.737 35.6857 150.738 29.7278 150.738 23.6039C150.738 17.4183 150.737 11.5222 141.812 11.5221C132.887 11.5221 132.886 17.4183 132.886 23.6039C132.886 29.7278 132.887 35.6857 141.812 35.6857ZM141.812 32.1899C139.201 32.1899 138.862 29.599 138.862 23.6039C138.862 17.614 139.201 15.0248 141.812 15.0248C144.425 15.0248 144.762 17.614 144.762 23.6039C144.762 29.599 144.425 32.1898 141.812 32.1899Z" fill="#465EFF"/>
<path fill-rule="evenodd" clip-rule="evenodd" d="M185.419 35.6857C194.348 35.6857 194.347 29.7521 194.347 23.6599C194.347 17.4985 194.348 11.6272 185.419 11.6272C176.49 11.6272 176.49 17.4985 176.49 23.6599C176.49 29.7521 176.49 35.6857 185.419 35.6857ZM185.419 32.2022C182.806 32.2022 182.469 29.6233 182.469 23.6599C182.469 17.6923 182.806 15.108 185.419 15.108C188.03 15.108 188.367 17.6923 188.367 23.6599C188.367 29.6233 188.03 32.2022 185.419 32.2022Z" fill="#465EFF"/>
<path fill-rule="evenodd" clip-rule="evenodd" d="M165.787 35.0114C174.924 35.0111 174.324 26.921 174.324 23.3855C174.324 16.2177 173.01 12.0149 165.995 12.0149H157.076V35.0114H165.787ZM162.885 15.5899H165.253C168.444 15.5899 168.445 19.3149 168.445 23.5548C168.445 29.3174 167.892 31.5142 165.101 31.5142H162.885V15.5899Z" fill="#465EFF"/>
<path fill-rule="evenodd" clip-rule="evenodd" d="M268.213 35.0114C272.052 35.0113 275.941 34.5001 275.941 28.563C275.941 21.7102 266.007 22.3895 266.007 18.0415C266.007 16.4558 266.975 15.5954 268.611 15.5954H273.928V12.0681H266.455C260.314 12.0682 258.797 14.8402 258.797 18.4278C258.797 25.2527 269.804 25.091 269.804 28.9302C269.804 30.488 268.972 31.5347 267.267 31.5347H259.393L253.55 12.0832H246.564L240.1 32.9516L236.045 23.9793C239.017 23.4239 240.201 21.5439 240.208 18.0851C240.223 14.1788 237.891 12.0832 234.272 12.0832H223.338V35.0087H229.317V15.6076H231.296C232.988 15.6076 234.452 16.8384 234.452 19.0898C234.452 21.0037 233.497 22.573 231.959 22.4723L230.297 22.4969L235.738 35.0087H245.295L246.731 29.9308H252.92L254.328 35.0087L268.213 35.0114ZM249.692 17.0368L252.002 26.42H247.583L249.692 17.0368Z" fill="#465EFF"/>
<path fill-rule="evenodd" clip-rule="evenodd" d="M78.8272 29.9308H85.0121L86.4153 35.0114H92.5265L85.6441 12.0873H78.6511L71.6226 35.0114H77.3871L78.8272 29.9308ZM81.7783 17.0259L84.0989 26.4077H79.6667L81.7783 17.0259Z" fill="#465EFF"/>
<path d="M98.8261 19.7218L105.206 35.0114H112.083V12.0873H107.136V26.9073L100.93 12.0873H93.8806V35.0114H98.8261V19.7218Z" fill="#465EFF"/>
<path d="M283.941 12.0873H278.106V35.0128H283.941V12.0873Z" fill="#465EFF"/>
<path d="M300 31.5442H293.197V12.0873H287.359V35.0114H300V31.5442Z" fill="#465EFF"/>
<path d="M8.75387 36.1894L4.37625 33.2696L0 36.1894V42.029L8.75387 36.1894Z" fill="#465EFF"/>
</svg>
