<svg width="300" height="103" viewBox="0 0 300 103" fill="none" xmlns="http://www.w3.org/2000/svg">
<path d="M7.90456 0.127056C11.4283 -0.503895 14.8491 1.28159 16.989 4.00826C18.3437 5.73076 19.0557 7.88512 20.4432 9.54884C22.1329 11.5852 24.7808 12.4353 27.3414 12.1155C28.598 11.9548 30.6047 11.5345 31.9944 10.2736C30.411 12.5614 28.5222 14.4914 26.4993 16.2258C20.0029 21.8037 7.34524 23.198 1.71659 15.1463C-2.22134 9.51224 0.939 1.39063 7.90456 0.127056Z" fill="#E51636"/>
<path d="M283.013 4.00866C285.156 1.28092 288.577 -0.504541 292.099 0.127451C299.062 1.3894 302.222 9.51209 298.282 15.1467C292.655 23.1968 279.999 21.8044 273.506 16.227C271.482 14.4921 269.589 12.5609 268.007 10.2721C269.4 11.5356 271.4 11.9558 272.662 12.1143C275.22 12.4362 277.87 11.5876 279.559 9.54963C280.946 7.88374 281.661 5.73117 283.013 4.00866Z" fill="#E51636"/>
<path d="M150.907 88.6683C152.069 88.7271 153.2 89.7369 153.238 90.9589C153.238 90.9855 153.23 91.617 153.237 91.6063C154.219 90.2571 154.931 89.1832 156.373 89.1238C160.203 88.9658 159.857 94.8622 156.615 94.8622C154.355 94.8621 155.373 92.4789 154.387 92.4698C153.691 92.4645 153.313 93.5463 153.24 94.4123L153.241 100.319H153.23C153.147 101.579 151.936 102.634 150.71 102.574C149.546 102.517 148.416 101.507 148.379 100.284H148.383V90.9589C148.444 89.6819 149.669 88.607 150.907 88.6683Z" fill="#472380"/>
<path d="M104.528 81.7504C106.17 81.7504 107.529 82.6174 108.081 83.7424C108.6 84.7536 108.492 85.8797 108.504 86.9809C108.504 87.0061 108.509 100.095 108.504 100.264C108.442 101.541 107.217 102.617 105.979 102.555C104.815 102.497 103.683 101.487 103.646 100.264C103.639 100.087 103.648 85.5308 103.647 85.4014C103.62 84.9936 103.567 84.5879 103.466 84.1753C103.093 83.1825 102.27 82.8861 102.258 82.8821C102.272 82.8646 103.113 81.7505 104.528 81.7504Z" fill="#472380"/>
<path d="M254.924 81.7524C256.088 81.8112 257.22 82.8208 257.257 84.0449C257.263 84.2181 257.255 98.7819 257.256 98.9054C257.283 99.3147 257.336 99.7193 257.437 100.132C257.812 101.131 258.644 101.426 258.644 101.426C258.644 101.426 257.801 102.557 256.375 102.557C254.732 102.557 253.374 101.691 252.822 100.566C252.303 99.553 252.411 98.4273 252.399 97.3266C252.399 97.2725 252.393 84.2113 252.399 84.0449C252.461 82.7668 253.687 81.691 254.924 81.7524Z" fill="#472380"/>
<path d="M113.457 88.6395C114.622 88.6962 115.753 89.6106 115.79 90.8337C115.79 90.8638 115.791 91.4185 115.793 92.1198L115.806 92.1091C116.23 91.4145 117.725 89.2909 120.25 89.2909C123.764 89.2747 123.403 93.4283 123.403 96.889L123.41 100.255C123.348 101.53 122.123 102.605 120.887 102.544C119.723 102.486 118.591 101.476 118.555 100.255L118.565 93.8143C118.559 93.8 118.493 92.6073 117.415 92.6072C116.577 92.6072 116.021 93.6145 115.813 94.6004L115.793 94.6142C115.794 97.1805 115.793 100.16 115.79 100.255C115.727 101.53 114.502 102.605 113.267 102.544C112.103 102.486 110.971 101.477 110.934 100.255C110.929 100.131 110.929 91.0061 110.934 90.8337C110.995 89.5577 112.222 88.577 113.457 88.6395Z" fill="#472380"/>
<path d="M162.764 88.6395C163.927 88.6962 165.058 89.6106 165.096 90.8337C165.096 90.8638 165.098 91.4185 165.098 92.1198L165.113 92.1091C165.536 91.4145 167.031 89.2909 169.557 89.2909C173.07 89.2747 172.71 93.4283 172.71 96.889L172.716 100.255C172.654 101.53 171.429 102.605 170.193 102.544C169.029 102.486 167.898 101.476 167.86 100.255L167.871 93.8143C167.865 93.8009 167.799 92.6073 166.721 92.6072C165.883 92.6072 165.328 93.6145 165.119 94.6004L165.099 94.6142C165.1 97.1805 165.098 100.16 165.096 100.255C165.034 101.531 163.809 102.606 162.573 102.544C161.408 102.486 160.278 101.477 160.24 100.255C160.236 100.131 160.236 91.0058 160.24 90.8337C160.301 89.5578 161.528 88.5771 162.764 88.6395Z" fill="#472380"/>
<path d="M224.84 88.6395C226.003 88.6962 227.134 89.6106 227.172 90.8337C227.172 90.8638 227.174 91.4185 227.175 92.1198L227.189 92.1091C227.612 91.4145 229.108 89.2909 231.633 89.2909C235.147 89.2747 234.785 93.4283 234.785 96.889L234.792 100.255C234.73 101.53 233.505 102.605 232.269 102.544C231.105 102.486 229.973 101.476 229.936 100.255L229.946 93.8143C229.941 93.7971 229.873 92.6074 228.797 92.6072C227.959 92.6072 227.403 93.6145 227.195 94.6004L227.175 94.6142C227.176 97.1805 227.175 100.16 227.172 100.255C227.11 101.531 225.884 102.606 224.648 102.544C223.485 102.486 222.353 101.477 222.316 100.255C222.312 100.131 222.312 91.0061 222.316 90.8337C222.377 89.5578 223.604 88.577 224.84 88.6395Z" fill="#472380"/>
<path d="M128.571 85.6139C129.732 85.6721 130.89 86.6778 130.927 87.8977V89.6831H132.983C133.267 89.6831 133.926 89.8694 133.926 90.7737C133.926 91.6774 133.268 91.8508 132.912 91.8508H130.927V97.2749C130.927 99.0351 132.442 99.9487 134.071 99.9541L134.006 100.067C133.732 100.556 132.51 102.514 130.468 102.514C128.547 102.514 126.182 100.817 126.084 98.3611C126.082 98.3312 126.07 94.8015 126.061 91.8508H125.409C125.068 91.8507 124.465 91.6473 124.465 90.7598C124.465 89.8727 125.144 89.6843 125.479 89.6843H126.056C126.053 88.6517 126.052 87.9422 126.054 87.8977C126.115 86.624 127.338 85.552 128.571 85.6139Z" fill="#472380"/>
<path fill-rule="evenodd" clip-rule="evenodd" d="M185.736 88.267C186.954 88.328 188.158 89.3863 188.198 90.6666C188.202 90.7901 188.204 99.9388 188.198 100.113C188.133 101.451 186.85 102.575 185.555 102.511C184.514 102.459 183.501 101.68 183.202 100.658C182.714 101.452 181.64 102.074 180.911 102.264C179.621 102.598 177.916 102.413 176.784 101.688C172.775 99.1126 173.145 88.7007 178.992 88.7007C181.118 88.7008 182.464 90.1413 183.079 90.9945C183.079 90.9584 183.09 90.7595 183.092 90.6666C183.157 89.3292 184.44 88.2029 185.736 88.267ZM180.765 92.1107C180.759 92.1107 180.755 92.1091 180.749 92.1091V92.1107C179.617 92.1356 178.79 93.4435 178.79 95.578C178.79 97.7146 179.443 99.0251 180.749 99.0456V99.0472C180.755 99.0472 180.759 99.0464 180.765 99.0464C180.769 99.0464 180.775 99.0472 180.778 99.0472V99.0456C182.085 99.0251 182.741 97.7146 182.741 95.578C182.741 93.4435 181.91 92.1355 180.778 92.1107V92.1091C180.775 92.1091 180.769 92.1107 180.765 92.1107Z" fill="#472380"/>
<path d="M193.542 85.6139C194.703 85.6721 195.86 86.6778 195.898 87.8977V89.6831H197.954C198.238 89.6831 198.897 89.8695 198.897 90.7737C198.897 91.6775 198.238 91.8508 197.882 91.8508H195.898V97.2749C195.898 99.0351 197.413 99.9487 199.042 99.9541L198.977 100.067C198.703 100.556 197.481 102.514 195.439 102.514C193.518 102.514 191.154 100.817 191.055 98.3611C191.053 98.3328 191.042 94.8021 191.032 91.8508H190.38C190.039 91.8508 189.436 91.6473 189.436 90.7598C189.436 89.8728 190.115 89.6843 190.451 89.6843H191.027C191.023 88.6517 191.023 87.9421 191.025 87.8977C191.086 86.6239 192.309 85.5519 193.542 85.6139Z" fill="#472380"/>
<path d="M203.18 89.6941C203.249 89.6942 203.315 89.7086 203.387 89.7163C204.582 89.8171 205.529 90.7629 205.587 91.9693C205.589 91.9968 205.571 95.2571 205.587 96.6555H205.582L205.587 100.397C205.587 101.578 204.226 102.514 203.145 102.514C203.075 102.514 203.01 102.501 202.938 102.492C201.745 102.391 200.797 101.445 200.738 100.238C200.737 100.21 200.753 97.6865 200.738 96.2897H200.744L200.738 91.8113C200.738 90.6292 202.1 89.6941 203.18 89.6941Z" fill="#472380"/>
<path fill-rule="evenodd" clip-rule="evenodd" d="M247.761 88.267C248.981 88.328 250.186 89.3864 250.224 90.6666C250.227 90.7904 250.23 99.9388 250.224 100.113C250.159 101.451 248.876 102.575 247.581 102.511C246.541 102.459 245.527 101.68 245.229 100.658C244.741 101.452 243.665 102.074 242.936 102.264C241.647 102.598 239.942 102.413 238.81 101.688C234.8 99.1126 235.172 88.7007 241.018 88.7007C243.143 88.7008 244.492 90.1413 245.104 90.9945C245.104 90.9584 245.116 90.7595 245.118 90.6666C245.183 89.3292 246.466 88.2028 247.761 88.267ZM242.792 92.1107C242.785 92.1107 242.782 92.1091 242.775 92.1091V92.1107C241.644 92.1355 240.815 93.4434 240.815 95.578C240.815 97.7146 241.469 99.0251 242.775 99.0456V99.0472C242.782 99.0472 242.785 99.0464 242.792 99.0464C242.796 99.0464 242.8 99.0472 242.806 99.0472V99.0456C244.111 99.025 244.767 97.7145 244.767 95.578C244.767 93.4435 243.938 92.1356 242.806 92.1107V92.1091C242.8 92.1091 242.796 92.1107 242.792 92.1107Z" fill="#472380"/>
<path fill-rule="evenodd" clip-rule="evenodd" d="M214.029 88.681C217.848 88.6811 220.946 91.7764 220.946 95.5973C220.946 99.4187 217.848 102.513 214.029 102.513C210.209 102.513 207.111 99.4187 207.111 95.5973C207.111 91.7764 210.209 88.681 214.029 88.681ZM214.063 91.6178C214.057 91.6172 214.052 91.6178 214.05 91.6178C212.917 91.6448 212.089 93.1468 212.089 95.5973C212.089 98.0515 212.743 99.5502 214.05 99.5757V99.5789C214.052 99.5789 214.057 99.5777 214.063 99.5777C214.068 99.5777 214.073 99.5789 214.079 99.5789V99.5757C215.385 99.5502 216.038 98.0515 216.038 95.5973C216.038 93.1469 215.209 91.6444 214.079 91.6174C214.073 91.6174 214.068 91.6172 214.063 91.6178Z" fill="#472380"/>
<path fill-rule="evenodd" clip-rule="evenodd" d="M140.912 88.7422C143.205 88.7423 147.072 89.8705 147.072 93.2917C147.072 96.7136 143.527 96.9972 139.299 96.9972C139.299 96.9972 139.924 99.251 142.824 99.251C145.706 99.251 146.462 98.2396 146.47 98.2276C146.469 98.2578 146.199 102.512 140.952 102.512C137.961 102.512 134.358 100.236 134.358 95.7466C134.358 91.7612 137.126 88.7422 140.912 88.7422ZM142.396 92.7881C142.378 91.7684 141.235 91.1647 140.42 91.6948C139.436 92.3317 139.173 93.7086 139.026 94.8006C139.011 94.9078 140.644 94.8261 140.747 94.8046C141.717 94.6001 142.414 93.8661 142.396 92.7881Z" fill="#472380"/>
<path d="M67.8083 33.118C69.9763 33.118 72.8295 33.8505 74.2759 35.6685C69.9556 38.4319 69.6588 47.9268 69.9365 53.4093C70.2591 59.7552 71.8969 69.3029 77.1329 75.0442C80.1325 78.3328 84.126 80.6275 88.6889 80.9032C88.6728 80.9463 85.7935 88.6206 77.3782 88.6206C68.9463 88.6205 59.3043 80.6613 61.2404 52.5857C61.2045 52.6201 49.4854 68.4471 49.4854 68.4471L39.1038 52.5221C38.8459 57.9188 37.7282 64.4266 35.9971 69.5676C33.3238 77.4769 23.8639 81.3964 20.1907 71.4763C20.1907 71.4763 27.3618 69.924 29.9909 53.0711C30.8672 47.4565 30.9681 39.2324 26.932 36.0031C29.2737 32.7896 33.5757 33.0094 35.234 33.2516C39.085 33.8136 41.2763 37.0602 42.4466 38.8269C43.2933 40.1072 50.1825 50.7656 50.1825 50.7656C50.1825 50.7656 58.3736 39.466 58.9237 38.6954C60.5896 36.3624 62.9376 33.1181 67.8083 33.118Z" fill="#472380"/>
<path d="M203.162 83.5042C204.491 83.5042 205.569 84.5823 205.569 85.9133C205.569 87.2415 204.491 88.318 203.162 88.318C201.832 88.3179 200.756 87.2414 200.756 85.9133C200.756 84.5823 201.832 83.5043 203.162 83.5042Z" fill="#472380"/>
<path d="M277.815 45.5141C277.815 45.5141 279.024 46.4209 279.424 47.9919L279.419 47.9453C281.599 54.5419 274.12 59.6347 269.961 63.1644C268.373 64.5105 263.583 68.549 263.107 68.549H269.581C274.95 68.549 277.28 66.2964 277.293 66.2837C281.374 70.8871 276.244 81.3306 267.707 75.991C266.234 75.0699 264.422 74.2002 262.718 73.8442C258.167 72.894 252.188 74.8487 249.909 76.8683C249.24 73.6142 251.002 69.372 252.647 66.6206C255.53 61.8269 261.207 58.6871 265.961 56.036L255.705 55.9708C253.296 55.9384 251.415 54.1139 251.443 51.8392C251.476 49.5839 253.468 47.6718 255.845 47.6747C255.845 47.6747 273.423 47.6839 273.942 47.6747C274.568 47.6375 275.197 47.5227 275.825 47.3706C277.362 46.7968 277.815 45.5141 277.815 45.5141Z" fill="#472380"/>
<path fill-rule="evenodd" clip-rule="evenodd" d="M91.7366 46.3993C100.262 46.3993 107.176 53.31 107.176 61.8384C107.176 70.3652 100.262 77.2755 91.7366 77.2756C83.2093 77.2756 76.2984 70.3652 76.2983 61.8384C76.2983 53.31 83.2092 46.3993 91.7366 46.3993ZM91.816 52.955C91.8043 52.9539 91.7932 52.955 91.784 52.955C89.2591 53.015 87.4079 56.3689 87.4079 61.8384C87.4079 67.3159 88.8692 70.6653 91.784 70.7183V70.7262C91.7937 70.7262 91.8038 70.7214 91.816 70.7214C91.8273 70.7214 91.8378 70.7262 91.85 70.7262V70.7183C94.7664 70.6653 96.2253 67.3159 96.2253 61.8384C96.2253 56.3689 94.3717 53.0139 91.85 52.9538C91.8372 52.9538 91.8267 52.9539 91.816 52.955Z" fill="#472380"/>
<path d="M112.39 45.5141C117.599 45.5141 121.009 48.6497 121.144 52.9716C122.09 51.4215 125.428 46.6809 131.062 46.6809C139.404 46.6811 138.256 57.5008 138.082 63.6514C138.082 65.4322 138.082 67.3672 138.093 68.7457C138.16 69.7008 138.283 70.6473 138.516 71.6094C139.384 73.9351 141.319 74.6266 141.337 74.633C141.337 74.633 139.362 77.2756 136.041 77.2756C132.2 77.2755 129.341 75.5639 128.049 72.9381C127.754 72.3578 127.549 71.7256 127.429 71.0461C127.355 70.6471 127.301 70.2405 127.29 69.8161L127.301 56.7797C127.29 56.7783 127.153 54.0859 124.731 54.0859C122.864 54.0859 121.625 56.3326 121.156 58.5339V72.0012C121.156 74.6351 119.069 77.2203 115.706 77.2203C112.343 77.2202 110.463 74.6974 110.335 72.0063C110.33 71.9422 110.37 56.7578 110.335 53.6383C110.335 49.283 107.094 48.159 107.094 48.159C107.098 48.1527 109.071 45.5142 112.39 45.5141Z" fill="#472380"/>
<path fill-rule="evenodd" clip-rule="evenodd" d="M167.144 30.7979C170.282 30.7979 172.826 33.3417 172.826 36.4798L172.819 68.7457C172.881 69.7008 173.005 70.6473 173.241 71.6094C174.116 73.9429 176.057 74.6312 176.062 74.633C176.062 74.633 174.091 77.2756 170.761 77.2756C166.924 77.2755 163.749 75.251 162.461 72.6241C162.374 72.4548 162.297 72.2843 162.226 72.1134C161.722 74.4453 158.588 76.3982 156.6 76.9165C153.721 77.6645 149.916 77.2481 147.394 75.6296C138.445 69.8811 139.27 46.6442 152.319 46.6442C157.062 46.6442 160.073 49.8599 161.439 51.7625L161.462 36.4798C161.462 33.3418 164.006 30.7979 167.144 30.7979ZM156.276 54.2569C156.262 54.2569 156.256 54.2522 156.241 54.2522V54.2569C153.716 54.3104 151.866 57.2296 151.866 61.9952C151.866 66.7647 153.325 69.6875 156.241 69.7308V69.7355C156.256 69.7355 156.262 69.7343 156.276 69.7343C156.286 69.7343 156.295 69.7355 156.307 69.7355V69.7308C159.222 69.6876 160.685 66.7648 160.685 61.9952C160.685 57.2295 158.835 54.3103 156.307 54.2569V54.2522C156.295 54.2522 156.286 54.2569 156.276 54.2569Z" fill="#472380"/>
<path fill-rule="evenodd" clip-rule="evenodd" d="M190.412 46.579C195.524 46.579 204.145 49.0947 204.145 56.7213C204.145 64.3496 196.242 64.981 186.821 64.981C186.829 65.0093 188.227 70.0065 194.674 70.0065C201.138 70.0065 202.804 67.723 202.804 67.723C202.804 67.723 202.241 77.2756 190.501 77.2756C183.835 77.2755 175.805 72.202 175.805 62.1955C175.805 53.3106 181.972 46.5791 190.412 46.579ZM193.719 55.6003C193.68 53.3255 191.133 51.9804 189.314 53.162C187.124 54.5831 186.541 57.6517 186.21 60.0866C186.178 60.3251 189.815 60.1432 190.045 60.0941C192.207 59.639 193.761 58.0028 193.719 55.6003Z" fill="#472380"/>
<path d="M212.613 30.7979C215.751 30.7979 218.295 33.3417 218.295 36.4798L218.285 68.7457C218.347 69.7008 218.473 70.6473 218.707 71.6094C219.582 73.9419 221.521 74.6306 221.528 74.633C221.528 74.633 219.558 77.2756 216.228 77.2756C212.39 77.2755 209.215 75.251 207.928 72.6241C206.713 70.2593 206.966 67.6293 206.938 65.0552L206.931 36.4798C206.931 33.3418 209.474 30.7979 212.613 30.7979Z" fill="#472380"/>
<path fill-rule="evenodd" clip-rule="evenodd" d="M235.87 46.579C240.981 46.579 249.602 49.0947 249.602 56.7213C249.602 64.3496 241.699 64.981 232.278 64.981C232.286 65.0093 233.684 70.0065 240.131 70.0065C246.595 70.0065 248.262 67.723 248.262 67.723C248.262 67.723 247.699 77.2756 235.959 77.2756C229.292 77.2755 221.263 72.202 221.262 62.1955C221.262 53.3106 227.429 46.5791 235.87 46.579ZM239.177 55.6003C239.138 53.3255 236.591 51.9804 234.772 53.162C232.582 54.5831 231.998 57.6517 231.667 60.0866C231.636 60.3251 235.272 60.1432 235.502 60.0941C237.665 59.639 239.218 58.0028 239.177 55.6003Z" fill="#472380"/>
<path d="M227.441 35.4817C227.597 35.4761 244.219 35.476 244.394 35.4821C246.299 35.5749 247.902 37.4006 247.809 39.246C247.724 40.9819 246.217 42.6683 244.394 42.7239C244.241 42.73 227.619 42.73 227.441 42.7239C225.536 42.6322 223.934 40.8035 224.026 38.9596C224.112 37.2242 225.619 35.5367 227.441 35.4817Z" fill="#472380"/>
</svg>
