<svg width="300" height="58" viewBox="0 0 300 58" fill="none" xmlns="http://www.w3.org/2000/svg">
<path d="M30.7321 34.8C34.1267 34.8 36.8785 32.2032 36.8785 29C36.8785 25.7967 34.1267 23.2 30.7321 23.2C27.3375 23.2 24.5857 25.7967 24.5857 29C24.5857 32.2032 27.3375 34.8 30.7321 34.8Z" fill="#FC8B66"/>
<path fill-rule="evenodd" clip-rule="evenodd" d="M59.3338 29.4202C59.0869 29.1879 59.0869 28.8114 59.3338 28.5791L65.8341 22.4625C66.8768 21.4812 66.9477 19.9097 65.9991 18.8466C56.6973 8.42168 45.2256 0 30.7321 0C13.759 0 0 12.9836 0 29C0 45.0164 13.759 58 30.7321 58C45.2256 58 56.6973 49.5783 65.9998 39.1534C66.9484 38.0903 66.8775 36.5188 65.8348 35.5375L59.3338 29.4202ZM59.85 37.9082C58.6259 39.1933 57.3888 40.4076 56.1729 41.5176C54.899 42.6805 53.6074 43.7661 52.3342 44.7436C51.0119 45.7591 49.6692 46.6896 48.3428 47.5088C46.9748 48.3543 45.5829 49.1073 44.2054 49.7476C42.7896 50.4052 41.3466 50.9638 39.9166 51.4072C38.4449 51.8634 36.9412 52.2116 35.4457 52.4426C33.8991 52.682 32.3128 52.803 30.7314 52.803C29.0163 52.803 27.3039 52.6402 25.642 52.319C24.0251 52.0069 22.4341 51.541 20.9147 50.9342C19.4213 50.3383 17.9803 49.6002 16.6321 48.7405C15.2955 47.8884 14.0379 46.909 12.895 45.8311C11.752 44.7532 10.7148 43.566 9.8119 42.3047C8.90082 41.0324 8.11862 39.6727 7.48713 38.2634C6.84405 36.829 6.35032 35.3283 6.01958 33.8026C5.67928 32.2343 5.50675 30.6184 5.50675 29C5.50675 27.3816 5.67928 25.7657 6.01958 24.1974C6.35032 22.6717 6.84405 21.1704 7.48713 19.7366C8.11862 18.3273 8.90082 16.9676 9.8119 15.6953C10.7148 14.434 11.7527 13.2474 12.895 12.1689C14.0379 11.0903 15.2955 10.1115 16.6321 9.25954C17.9803 8.3998 19.4213 7.66169 20.9147 7.0658C22.4348 6.45896 24.0251 5.99305 25.642 5.68095C27.3039 5.35984 29.0163 5.19703 30.7314 5.19703C32.3128 5.19703 33.8991 5.31801 35.4457 5.55739C36.9406 5.78841 38.4449 6.1372 39.9166 6.59281C41.3466 7.03619 42.7896 7.59412 44.2054 8.25243C45.5822 8.89274 46.9741 9.64565 48.3428 10.4912C49.6692 11.3111 51.0119 12.2409 52.3342 13.2564C53.6074 14.2339 54.899 15.3195 56.1729 16.4823C57.3888 17.5924 58.6259 18.8067 59.85 20.0918L59.8534 20.095C60.0382 20.2894 60.0293 20.5854 59.8336 20.7701L55.8272 24.5398C55.6158 24.7386 55.2707 24.7296 55.0723 24.5192C53.8809 23.2592 52.6997 22.0944 51.5391 21.0352C49.2518 18.9477 46.9536 17.1857 44.7093 15.7983C40.0775 12.9359 35.5255 11.5447 30.7914 11.5447C28.2887 11.5447 25.8677 12.0048 23.5948 12.9115C21.3935 13.7899 19.4138 15.0505 17.7116 16.6567C16.0088 18.2636 14.6735 20.1317 13.7427 22.2083C12.7811 24.3532 12.2942 26.6377 12.2942 28.9994C12.2942 31.3611 12.7818 33.6455 13.7427 35.7904C14.6735 37.8676 16.0095 39.7358 17.7116 41.342C19.4144 42.9488 21.3941 44.2088 23.5948 45.0872C25.8677 45.9946 28.2887 46.454 30.7914 46.454C35.5248 46.454 40.0775 45.0628 44.7093 42.2004C46.9536 40.8136 49.2518 39.0517 51.5391 36.9635C52.6997 35.9043 53.8809 34.7389 55.0723 33.4795C55.2707 33.2697 55.6158 33.2601 55.8272 33.4589L59.8329 37.2286C60.0287 37.4127 60.0375 37.71 59.8527 37.9037L59.85 37.9082ZM51.5527 28.6087C51.7593 28.8327 51.7593 29.166 51.5527 29.39C50.2502 30.7999 48.964 32.085 47.7106 33.2292C45.6722 35.0902 43.6475 36.6456 41.6924 37.8535C40.7281 38.4494 39.7625 38.9719 38.8227 39.4069C37.9103 39.8291 36.9917 40.1824 36.0922 40.4571C34.3294 40.9958 32.5959 41.2577 30.7921 41.2577C29.0306 41.2577 27.3312 40.9359 25.7409 40.3014C24.1963 39.6849 22.8051 38.7988 21.6062 37.6675C20.4074 36.5362 19.4683 35.2234 18.815 33.7659C18.1426 32.2652 17.8016 30.6616 17.8016 28.9994C17.8016 27.3372 18.1426 25.7335 18.815 24.2328C19.4683 22.7753 20.4074 21.4625 21.6062 20.3312C22.8051 19.1999 24.1963 18.3138 25.7409 17.6973C27.3312 17.0628 29.0306 16.741 30.7921 16.741C32.5959 16.741 34.3294 17.0029 36.0922 17.5416C36.9917 17.8164 37.9103 18.1696 38.8227 18.5918C39.7631 19.0268 40.7288 19.5493 41.6924 20.1452C43.6469 21.3531 45.6716 22.9091 47.7106 24.7695C48.964 25.9143 50.2502 27.1994 51.5527 28.6087Z" fill="#FC8B66"/>
<path fill-rule="evenodd" clip-rule="evenodd" d="M119.556 41.3431C120.758 43.2803 122.431 44.7913 124.573 45.8761C126.715 46.9616 129.121 47.5033 131.79 47.5033C134.492 47.5033 136.914 46.9616 139.057 45.8761C141.198 44.7913 142.87 43.2803 144.073 41.3431C145.277 39.4059 145.878 37.213 145.878 34.7643C145.878 32.3163 145.276 30.1309 144.073 28.2088C142.87 26.2874 141.198 24.7846 139.057 23.6992C136.914 22.6144 134.491 22.072 131.79 22.072C129.121 22.072 126.714 22.6144 124.573 23.6992C122.431 24.7846 120.758 26.2874 119.556 28.2088C118.352 30.1309 117.751 32.3163 117.751 34.7643C117.751 37.2136 118.353 39.4065 119.556 41.3431ZM139.649 34.7649C139.649 37.0892 138.908 38.9652 137.425 40.3903C135.942 41.8161 134.064 42.5289 131.79 42.5289C129.516 42.5289 127.646 41.8161 126.179 40.3903C124.712 38.9652 123.979 37.0892 123.979 34.7649C123.979 32.4406 124.712 30.5653 126.179 29.1395C127.646 27.7144 129.516 27.0009 131.79 27.0009C134.064 27.0009 135.942 27.7144 137.425 29.1395C138.908 30.5653 139.649 32.4406 139.649 34.7649Z" fill="#FC8B66"/>
<path d="M212.73 24.7922C214.674 26.605 215.647 29.3252 215.647 32.9515V46.2979C215.647 46.7841 215.228 47.1775 214.711 47.1775H210.403C209.887 47.1775 209.468 46.7835 209.468 46.2979V33.6953C209.468 31.5263 208.957 29.8909 207.936 28.7904C206.914 27.6904 205.447 27.1398 203.537 27.1398C201.461 27.1398 199.796 27.7832 198.544 29.0695C197.291 30.3557 196.665 32.1925 196.665 34.5787V46.2979C196.665 46.7841 196.247 47.1775 195.73 47.1775H191.422C190.906 47.1775 190.487 46.7835 190.487 46.2979V33.6953C190.487 31.5263 189.976 29.8909 188.955 28.7904C187.933 27.6904 186.466 27.1398 184.556 27.1398C182.446 27.1398 180.774 27.7757 179.539 29.0461C178.303 30.3172 177.685 32.1609 177.685 34.5787V46.2979C177.685 46.7841 177.266 47.1775 176.75 47.1775H172.442C171.926 47.1775 171.507 46.7835 171.507 46.2979V23.2313C171.507 22.7457 171.926 22.3517 172.442 22.3517H176.453C176.97 22.3517 177.388 22.7457 177.388 23.2313V24.9349C177.388 25.1332 177.646 25.231 177.791 25.0871C178.706 24.1778 179.807 23.4681 181.096 22.956C182.579 22.3675 184.226 22.0726 186.039 22.0726C188.016 22.0726 189.771 22.4212 191.303 23.1189C192.739 23.7724 193.892 24.7183 194.764 25.9559C194.851 26.079 195.038 26.0898 195.139 25.9767C196.196 24.7871 197.529 23.8501 199.139 23.1656C200.852 22.4376 202.747 22.0733 204.823 22.0733C208.15 22.0726 210.785 22.9794 212.73 24.7922Z" fill="#FC8B66"/>
<path fill-rule="evenodd" clip-rule="evenodd" d="M222.847 41.3431C224.049 43.2803 225.721 44.7913 227.864 45.8761C230.005 46.9616 232.411 47.5033 235.081 47.5033C237.783 47.5033 240.205 46.9616 242.347 45.8761C244.489 44.7913 246.161 43.2803 247.364 41.3431C248.567 39.4059 249.169 37.213 249.169 34.7643C249.169 32.3163 248.567 30.1309 247.364 28.2088C246.161 26.2874 244.489 24.7846 242.347 23.6992C240.204 22.6144 237.782 22.072 235.081 22.072C232.411 22.072 230.005 22.6144 227.864 23.6992C225.721 24.7846 224.049 26.2874 222.847 28.2088C221.643 30.1309 221.042 32.3163 221.042 34.7643C221.042 37.2136 221.644 39.4065 222.847 41.3431ZM242.94 34.7649C242.94 37.0892 242.199 38.9652 240.716 40.3903C239.233 41.8161 237.355 42.5289 235.081 42.5289C232.807 42.5289 230.936 41.8161 229.47 40.3903C228.003 38.9652 227.27 37.0892 227.27 34.7649C227.27 32.4406 228.003 30.5653 229.47 29.1395C230.936 27.7144 232.807 27.0009 235.081 27.0009C237.355 27.0009 239.233 27.7144 240.716 29.1395C242.199 30.5653 242.94 32.4406 242.94 34.7649Z" fill="#FC8B66"/>
<path fill-rule="evenodd" clip-rule="evenodd" d="M300 25.2569V46.2979C300 46.7841 299.581 47.1775 299.065 47.1775H295.053C294.537 47.1775 294.118 46.7835 294.118 46.2979V44.2344C294.118 44.0722 293.901 44.0021 293.794 44.1283C292.823 45.2687 291.683 46.0915 290.337 46.6199C288.837 47.2084 287.181 47.5033 285.369 47.5033C282.798 47.5033 280.499 46.9767 278.473 45.9229C276.446 44.8696 274.865 43.382 273.728 41.4599C272.592 39.5385 272.023 37.307 272.023 34.7649C272.023 32.2241 272.592 29.9995 273.728 28.0933C274.865 26.187 276.447 24.7076 278.473 23.6531C280.5 22.5999 282.799 22.0726 285.369 22.0726C287.082 22.0726 288.656 22.3517 290.09 22.9093C291.373 23.4087 292.549 24.2694 293.498 25.3643C293.607 25.4893 293.822 25.4186 293.822 25.2575C293.822 23.6525 295.205 22.3517 296.911 22.3517C298.617 22.3511 300 23.6525 300 25.2569ZM291.696 40.3903C293.179 38.9652 293.92 37.0892 293.92 34.7649C293.92 32.4406 293.179 30.5653 291.696 29.1395C290.213 27.7144 288.335 27.0009 286.061 27.0009C283.787 27.0009 281.917 27.7144 280.45 29.1395C278.983 30.5653 278.25 32.4406 278.25 34.7649C278.25 37.0892 278.983 38.9652 280.45 40.3903C281.917 41.8161 283.787 42.5289 286.061 42.5289C288.335 42.5289 290.213 41.8161 291.696 40.3903Z" fill="#FC8B66"/>
<path d="M266.922 28.6931C268.563 28.4999 269.789 27.1802 269.789 25.625C269.789 23.5653 267.689 22.0802 265.586 22.6529C263.702 23.165 262.212 24.078 261.112 25.4198C260.976 25.5859 260.694 25.4937 260.694 25.2847V23.2313C260.694 22.7457 260.275 22.3517 259.759 22.3517H255.451C254.934 22.3517 254.516 22.7457 254.516 23.2313V46.2979C254.516 46.7835 254.934 47.1775 255.451 47.1775H259.759C260.275 47.1775 260.694 46.7841 260.694 46.2979V36.2361C260.694 33.7565 261.405 31.8288 262.721 30.5407C263.896 29.3909 265.209 28.8952 266.922 28.6931Z" fill="#FC8B66"/>
<path d="M166.499 25.625C166.499 27.1802 165.272 28.4999 163.631 28.6931C161.919 28.8952 160.605 29.3909 159.43 30.5407C158.114 31.8288 157.403 33.7565 157.403 36.2361V46.2979C157.403 46.7841 156.984 47.1775 156.468 47.1775H152.16C151.644 47.1775 151.225 46.7835 151.225 46.2979V23.2313C151.225 22.7457 151.644 22.3517 152.16 22.3517H156.468C156.984 22.3517 157.403 22.7457 157.403 23.2313V25.2847C157.403 25.4937 157.685 25.5859 157.821 25.4198C158.921 24.078 160.411 23.165 162.295 22.6529C164.399 22.0802 166.499 23.5653 166.499 25.625Z" fill="#FC8B66"/>
<path d="M110.781 39.0927C111.144 38.7631 111.716 38.7568 112.081 39.0839L114.899 41.609C115.275 41.9461 115.288 42.5068 114.927 42.8579C113.435 44.3064 111.662 45.4367 109.606 46.248C107.249 47.1781 104.654 47.6429 101.82 47.6429C98.3272 47.6429 95.1719 46.9218 92.3542 45.4809C89.5366 44.04 87.3285 42.0484 85.7307 39.5069C84.1322 36.9661 83.3333 34.0988 83.3333 30.9063C83.3333 27.7144 84.1403 24.8471 85.7555 22.3056C87.3695 19.7648 89.5863 17.7732 92.4039 16.3317C95.2216 14.8902 98.3762 14.1697 101.87 14.1697C103.215 14.1697 104.504 14.2751 105.737 14.4848C105.898 14.5126 106.038 14.3787 106.007 14.2278C105.951 13.9537 105.901 13.6772 105.857 13.3981C105.607 11.7955 106.926 10.3571 108.648 10.3571C110.037 10.3571 111.223 11.3074 111.434 12.5981C111.878 15.3119 113.136 17.0951 114.701 18.7393C114.776 18.8094 114.85 18.8801 114.924 18.9515C115.287 19.3032 115.271 19.8671 114.891 20.2023L112.048 22.7173C111.686 23.0374 111.122 23.0356 110.763 22.7135C110.552 22.5254 110.336 22.3265 110.187 22.1768C107.923 20.3716 105.25 19.4686 102.167 19.4686C99.7948 19.4686 97.6693 19.9567 95.7909 20.9329C93.9124 21.9097 92.4455 23.266 91.3915 25.0012C90.3368 26.7376 89.8098 28.7051 89.8098 30.9057C89.8098 33.1068 90.3362 35.075 91.3915 36.8101C92.4455 38.5465 93.9124 39.9022 95.7909 40.8784C97.6693 41.8546 99.7948 42.3427 102.167 42.3427C105.525 42.3427 108.395 41.2598 110.781 39.0927Z" fill="#FC8B66"/>
</svg>
