<svg width="261" height="36" viewBox="0 0 261 36" fill="none" xmlns="http://www.w3.org/2000/svg">
<path d="M0 0.569012H9.911C9.85763 0.740962 9.82407 0.918446 9.81099 1.09801C9.83614 1.45553 9.91295 1.80751 10.039 2.14301L17.873 25.969L26.119 2.08901C26.2386 1.77716 26.3062 1.44777 26.319 1.11401C26.3101 0.930178 26.2833 0.747648 26.239 0.569012H31.013C30.663 1.0498 30.3863 1.57992 30.192 2.14201L19.72 32.985C19.5588 33.4847 19.4706 34.0051 19.458 34.53H11.296C11.2665 34.0055 11.1725 33.4865 11.016 32.985L0.815994 2.26001C0.609572 1.66699 0.335786 1.09961 0 0.569012ZM35.38 24.875H46.906L49.762 32.961C49.9121 33.352 49.9982 33.7646 50.017 34.183C50.017 34.267 50.006 34.377 49.991 34.531H60.051C59.6496 34.065 59.3297 33.5345 59.105 32.962L47.545 1.96201C47.3663 1.51898 47.2714 1.04666 47.265 0.569012H39.825V0.869012C39.8015 1.27057 39.7155 1.666 39.57 2.04101L28.29 32.964C28.0908 33.5284 27.8039 34.0579 27.44 34.533H32.216C32.198 34.354 32.192 34.22 32.192 34.133C32.211 33.7313 32.2969 33.3355 32.446 32.962L35.379 24.876L35.38 24.875ZM36.741 21.096L41.157 8.43401L45.574 21.095L36.741 21.096ZM66.807 10.496V32.866C66.8082 33.4319 66.9039 33.9936 67.09 34.528H62.576C62.7703 33.9958 62.8652 33.4325 62.856 32.866V2.23501C62.8581 1.6678 62.7634 1.10438 62.576 0.569012H70.349C70.5211 1.09756 70.7927 1.58836 71.149 2.01501L88.178 24.502V2.23501C88.176 1.66822 88.0818 1.10553 87.899 0.569012H92.386C92.1775 1.09872 92.0825 1.66628 92.107 2.23501V32.918C92.1095 33.469 92.2111 34.015 92.407 34.53H84.783C84.559 33.9913 84.2579 33.488 83.889 33.036L66.807 10.496ZM126.257 1.76501V7.38801C123.624 5.25332 120.356 4.05695 116.967 3.98801C115.581 3.92903 114.198 4.17715 112.919 4.71462C111.64 5.25208 110.495 6.06561 109.567 7.09701C108.445 8.39858 107.625 9.93271 107.167 11.589C106.626 13.6781 106.374 15.8314 106.417 17.989C106.417 22.481 107.285 25.904 109.009 28.236C109.727 29.2177 110.68 30.0045 111.779 30.525C112.906 31.0727 114.144 31.3536 115.397 31.346C116.646 31.3445 117.872 31.0011 118.94 30.353V17.563C118.943 16.9961 118.848 16.433 118.657 15.899H127.642C127.463 16.4358 127.368 16.9972 127.362 17.563V30.525C127.361 31.2939 127.481 32.0581 127.72 32.789C125.361 33.5446 122.962 34.1719 120.535 34.668C118.633 34.9646 116.71 35.1004 114.785 35.074C111.7 35.189 108.627 34.6119 105.794 33.385C102.932 32.0556 100.6 29.8012 99.175 26.985C97.7919 24.1554 97.1129 21.0335 97.196 17.885C97.196 11.8797 99.1563 7.25401 103.077 4.00801C106.292 1.33135 110.586 -0.00465448 115.959 1.2183e-05C119.465 0.032067 122.942 0.627671 126.259 1.76401L126.257 1.76501ZM162.601 0.565011C162.42 1.10195 162.325 1.66433 162.321 2.23101V22.831C162.407 25.5117 161.583 28.1426 159.981 30.294C157.499 33.4793 153.306 35.07 147.403 35.066C144.497 35.2031 141.603 34.6054 138.989 33.328C135.034 31.1573 133.057 27.61 133.057 22.686V2.23501C133.07 1.66696 132.975 1.10163 132.777 0.569012H142.092C141.898 1.10262 141.803 1.66725 141.812 2.23501V23.161C141.719 24.9973 142.265 26.8091 143.357 28.288C144.792 30.0987 146.956 31.0023 149.849 30.999C150.997 31.0734 152.148 30.917 153.235 30.5391C154.322 30.1613 155.322 29.5696 156.176 28.799C156.952 27.9516 157.549 26.9557 157.93 25.8714C158.311 24.787 158.468 23.6368 158.392 22.49V2.23501C158.401 1.66724 158.306 1.10259 158.112 0.569012L162.601 0.565011ZM171.593 24.871L168.657 32.96C168.508 33.3338 168.422 33.7294 168.402 34.131C168.404 34.2647 168.413 34.3982 168.429 34.531H163.65C164.018 34.0584 164.305 33.5282 164.5 32.962L175.783 2.03901C175.928 1.66385 176.013 1.26847 176.037 0.867011V0.567012H183.475C183.484 1.04443 183.58 1.51626 183.756 1.96001L195.318 32.96C195.541 33.5329 195.86 34.0636 196.262 34.529H186.202C186.217 34.4136 186.225 34.2974 186.227 34.181C186.209 33.7626 186.123 33.3499 185.973 32.959L183.119 24.873L171.593 24.871ZM172.952 21.092H181.786L177.369 8.43101L172.952 21.092ZM207.929 19.226V32.867C207.916 33.4337 208.011 33.9976 208.208 34.529H198.867C199.062 33.9971 199.157 33.4336 199.147 32.867V2.23501C199.152 1.66756 199.057 1.10365 198.867 0.569012H212.857C215.335 0.477772 217.781 1.15693 219.857 2.51301C221.077 3.32812 222.066 4.44266 222.732 5.74992C223.397 7.05717 223.716 8.51335 223.657 9.97901C223.722 11.9976 223.046 13.9702 221.757 15.525C220.732 16.725 218.865 17.7787 216.157 18.686L225.233 33.006C225.568 33.5769 225.992 34.0904 226.489 34.527H215.934C215.849 33.9797 215.676 33.4498 215.421 32.958L207.926 19.226H207.929ZM207.903 16.566H209.695C210.871 16.622 212.024 16.2202 212.91 15.445C213.563 14.7941 214.07 14.0115 214.397 13.1493C214.723 12.2871 214.863 11.3652 214.805 10.445C214.892 8.78881 214.403 7.15357 213.421 5.81701C212.974 5.2569 212.402 4.80973 211.751 4.51164C211.099 4.21354 210.387 4.07287 209.671 4.10101H207.902V16.568L207.903 16.566ZM229.243 0.566012H241.975C246.666 0.566012 250.493 1.55435 253.458 3.53101C255.738 5.01338 257.512 7.15657 258.541 9.67401C259.524 12.0654 260.02 14.6286 260.002 17.214C260.117 21.0155 259.058 24.7602 256.97 27.939C255.595 30.0085 253.716 31.6946 251.511 32.839C249.258 33.9829 246.761 34.5625 244.235 34.528H229.24C229.433 33.9956 229.528 33.4324 229.519 32.866V2.23501C229.525 1.66756 229.431 1.10352 229.24 0.569012L229.243 0.566012ZM238.281 30.545H241.39C242.585 30.6092 243.78 30.3958 244.879 29.9215C245.978 29.4472 246.953 28.7248 247.726 27.811C249.783 25.3397 250.811 21.8493 250.812 17.34C250.812 12.678 249.526 9.16201 246.954 6.79201C245.276 5.25974 243.064 4.44654 240.793 4.52701H238.282V30.548L238.281 30.545Z" fill="white"/>
<path d="M0 0.569012H9.911C9.85763 0.740962 9.82407 0.918446 9.81099 1.09801C9.83614 1.45553 9.91295 1.80751 10.039 2.14301L17.873 25.969L26.119 2.08901C26.2386 1.77716 26.3062 1.44777 26.319 1.11401C26.3101 0.930178 26.2833 0.747648 26.239 0.569012H31.013C30.663 1.0498 30.3863 1.57992 30.192 2.14201L19.72 32.985C19.5588 33.4847 19.4706 34.0051 19.458 34.53H11.296C11.2665 34.0055 11.1725 33.4865 11.016 32.985L0.815994 2.26001C0.609572 1.66699 0.335786 1.09961 0 0.569012ZM35.38 24.875H46.906L49.762 32.961C49.9121 33.352 49.9982 33.7646 50.017 34.183C50.017 34.267 50.006 34.377 49.991 34.531H60.051C59.6496 34.065 59.3297 33.5345 59.105 32.962L47.545 1.96201C47.3663 1.51898 47.2714 1.04666 47.265 0.569012H39.825V0.869012C39.8015 1.27057 39.7155 1.666 39.57 2.04101L28.29 32.964C28.0908 33.5284 27.8039 34.0579 27.44 34.533H32.216C32.198 34.354 32.192 34.22 32.192 34.133C32.211 33.7313 32.2969 33.3355 32.446 32.962L35.379 24.876L35.38 24.875ZM36.741 21.096L41.157 8.43401L45.574 21.095L36.741 21.096ZM66.807 10.496V32.866C66.8082 33.4319 66.9039 33.9936 67.09 34.528H62.576C62.7703 33.9958 62.8652 33.4325 62.856 32.866V2.23501C62.8581 1.6678 62.7634 1.10438 62.576 0.569012H70.349C70.5211 1.09756 70.7927 1.58836 71.149 2.01501L88.178 24.502V2.23501C88.176 1.66822 88.0818 1.10553 87.899 0.569012H92.386C92.1775 1.09872 92.0825 1.66628 92.107 2.23501V32.918C92.1095 33.469 92.2111 34.015 92.407 34.53H84.783C84.559 33.9913 84.2579 33.488 83.889 33.036L66.807 10.496ZM126.257 1.76501V7.38801C123.624 5.25332 120.356 4.05695 116.967 3.98801C115.581 3.92903 114.198 4.17715 112.919 4.71462C111.64 5.25208 110.495 6.06561 109.567 7.09701C108.445 8.39858 107.625 9.93271 107.167 11.589C106.626 13.6781 106.374 15.8314 106.417 17.989C106.417 22.481 107.285 25.904 109.009 28.236C109.727 29.2177 110.68 30.0045 111.779 30.525C112.906 31.0727 114.144 31.3536 115.397 31.346C116.646 31.3445 117.872 31.0011 118.94 30.353V17.563C118.943 16.9961 118.848 16.433 118.657 15.899H127.642C127.463 16.4358 127.368 16.9972 127.362 17.563V30.525C127.361 31.2939 127.481 32.0581 127.72 32.789C125.361 33.5446 122.962 34.1719 120.535 34.668C118.633 34.9646 116.71 35.1004 114.785 35.074C111.7 35.189 108.627 34.6119 105.794 33.385C102.932 32.0556 100.6 29.8012 99.175 26.985C97.7919 24.1554 97.1129 21.0335 97.196 17.885C97.196 11.8797 99.1563 7.25401 103.077 4.00801C106.292 1.33135 110.586 -0.00465448 115.959 1.2183e-05C119.465 0.032067 122.942 0.627671 126.259 1.76401L126.257 1.76501ZM162.601 0.565011C162.42 1.10195 162.325 1.66433 162.321 2.23101V22.831C162.407 25.5117 161.583 28.1426 159.981 30.294C157.499 33.4793 153.306 35.07 147.403 35.066C144.497 35.2031 141.603 34.6054 138.989 33.328C135.034 31.1573 133.057 27.61 133.057 22.686V2.23501C133.07 1.66696 132.975 1.10163 132.777 0.569012H142.092C141.898 1.10262 141.803 1.66725 141.812 2.23501V23.161C141.719 24.9973 142.265 26.8091 143.357 28.288C144.792 30.0987 146.956 31.0023 149.849 30.999C150.997 31.0734 152.148 30.917 153.235 30.5391C154.322 30.1613 155.322 29.5696 156.176 28.799C156.952 27.9516 157.549 26.9557 157.93 25.8714C158.311 24.787 158.468 23.6368 158.392 22.49V2.23501C158.401 1.66724 158.306 1.10259 158.112 0.569012L162.601 0.565011ZM171.593 24.871L168.657 32.96C168.508 33.3338 168.422 33.7294 168.402 34.131C168.404 34.2647 168.413 34.3982 168.429 34.531H163.65C164.018 34.0584 164.305 33.5282 164.5 32.962L175.783 2.03901C175.928 1.66385 176.013 1.26847 176.037 0.867011V0.567012H183.475C183.484 1.04443 183.58 1.51626 183.756 1.96001L195.318 32.96C195.541 33.5329 195.86 34.0636 196.262 34.529H186.202C186.217 34.4136 186.225 34.2974 186.227 34.181C186.209 33.7626 186.123 33.3499 185.973 32.959L183.119 24.873L171.593 24.871ZM172.952 21.092H181.786L177.369 8.43101L172.952 21.092ZM207.929 19.226V32.867C207.916 33.4337 208.011 33.9976 208.208 34.529H198.867C199.062 33.9971 199.157 33.4336 199.147 32.867V2.23501C199.152 1.66756 199.057 1.10365 198.867 0.569012H212.857C215.335 0.477772 217.781 1.15693 219.857 2.51301C221.077 3.32812 222.066 4.44266 222.732 5.74992C223.397 7.05717 223.716 8.51335 223.657 9.97901C223.722 11.9976 223.046 13.9702 221.757 15.525C220.732 16.725 218.865 17.7787 216.157 18.686L225.233 33.006C225.568 33.5769 225.992 34.0904 226.489 34.527H215.934C215.849 33.9797 215.676 33.4498 215.421 32.958L207.926 19.226H207.929ZM207.903 16.566H209.695C210.871 16.622 212.024 16.2202 212.91 15.445C213.563 14.7941 214.07 14.0115 214.397 13.1493C214.723 12.2871 214.863 11.3652 214.805 10.445C214.892 8.78881 214.403 7.15357 213.421 5.81701C212.974 5.2569 212.402 4.80973 211.751 4.51164C211.099 4.21354 210.387 4.07287 209.671 4.10101H207.902V16.568L207.903 16.566ZM229.243 0.566012H241.975C246.666 0.566012 250.493 1.55435 253.458 3.53101C255.738 5.01338 257.512 7.15657 258.541 9.67401C259.524 12.0654 260.02 14.6286 260.002 17.214C260.117 21.0155 259.058 24.7602 256.97 27.939C255.595 30.0085 253.716 31.6946 251.511 32.839C249.258 33.9829 246.761 34.5625 244.235 34.528H229.24C229.433 33.9956 229.528 33.4324 229.519 32.866V2.23501C229.525 1.66756 229.431 1.10352 229.24 0.569012L229.243 0.566012ZM238.281 30.545H241.39C242.585 30.6092 243.78 30.3958 244.879 29.9215C245.978 29.4472 246.953 28.7248 247.726 27.811C249.783 25.3397 250.811 21.8493 250.812 17.34C250.812 12.678 249.526 9.16201 246.954 6.79201C245.276 5.25974 243.064 4.44654 240.793 4.52701H238.282V30.548L238.281 30.545Z" fill="#8F162B"/>
</svg>
