<svg width="300" height="123" viewBox="0 0 300 123" fill="none" xmlns="http://www.w3.org/2000/svg">
<path d="M39.5853 0.160181C15.9185 -1.46855 4.51549 9.538 3.56252 23.4074C1.32706 55.7744 49.1477 43.7325 47.2774 62.3339C46.7044 68.0092 40.4492 70.439 30.495 69.7507C22.5358 69.2018 16.245 66.0334 11.7414 60.984C11.6751 60.909 11.5929 60.8496 11.5009 60.81C11.4088 60.7704 11.3092 60.7517 11.2091 60.7551C11.1089 60.7585 11.0108 60.7839 10.9216 60.8297C10.8325 60.8754 10.7546 60.9403 10.6935 61.0196L0.142525 74.6102C0.0355849 74.7485 -0.0141777 74.9225 0.00349809 75.0964C0.0211738 75.2703 0.10494 75.4307 0.237525 75.5447C7.98596 82.1783 18.433 85.3616 30.0764 86.1626C54.2777 87.8299 66.9245 78.1525 68.0289 62.1529C70.1397 31.566 23.5333 37.1137 24.4655 23.5855C24.8217 18.4293 29.9013 16.0974 38.7986 16.7115C46.461 17.2396 52.0986 20.4823 56.0174 24.4577C56.0853 24.5272 56.1674 24.5813 56.2581 24.6164C56.3488 24.6515 56.4459 24.6668 56.543 24.6611C56.6401 24.6555 56.7348 24.6292 56.8208 24.5838C56.9068 24.5385 56.9821 24.4752 57.0416 24.3983L67.3788 11.0866C67.4878 10.9453 67.5373 10.767 67.5167 10.5897C67.4962 10.4124 67.4073 10.2501 67.2689 10.1373C60.4853 4.68147 51.3208 0.970098 39.5853 0.160181Z" fill="black"/>
<path d="M257.444 27.9968L240.172 2.26041C240.109 2.16843 240.024 2.09329 239.926 2.04157C239.827 1.98985 239.717 1.96313 239.605 1.96374H215.261C215.134 1.96387 215.01 1.99943 214.902 2.06642C214.794 2.13341 214.707 2.22917 214.65 2.34292C214.594 2.45667 214.57 2.58391 214.582 2.71032C214.594 2.83673 214.641 2.9573 214.718 3.05846L244.109 41.8899C244.199 42.0088 244.249 42.1543 244.249 42.3038C244.249 42.4533 244.199 42.5988 244.109 42.7177L214.718 81.0122C214.64 81.1133 214.593 81.2342 214.58 81.3611C214.568 81.4879 214.591 81.6157 214.648 81.73C214.704 81.8443 214.792 81.9404 214.9 82.0076C215.009 82.0747 215.134 82.1101 215.261 82.1098H239.237C239.348 82.1095 239.457 82.0823 239.555 82.0306C239.654 81.979 239.738 81.9044 239.801 81.8132L256.539 57.2338C256.602 57.1421 256.686 57.067 256.784 57.0151C256.882 56.9632 256.992 56.936 257.103 56.936C257.214 56.936 257.324 56.9632 257.422 57.0151C257.52 57.067 257.604 57.1421 257.667 57.2338L274.405 81.8132C274.468 81.9044 274.552 81.979 274.65 82.0306C274.749 82.0823 274.858 82.1095 274.969 82.1098H299.268C299.397 82.1104 299.523 82.0744 299.632 82.0062C299.741 81.938 299.828 81.8403 299.884 81.7244C299.939 81.6085 299.961 81.4793 299.946 81.3516C299.931 81.224 299.88 81.1032 299.799 81.0033L257.477 28.0413L257.444 27.9968Z" fill="black"/>
<path d="M299.304 1.95781H275.328C275.217 1.95771 275.107 1.98465 275.008 2.03633C274.909 2.088 274.824 2.16286 274.761 2.25448L258.377 26.6558C258.308 26.7585 258.268 26.878 258.262 27.0014C258.256 27.1249 258.283 27.2477 258.341 27.3567C258.4 27.4658 258.486 27.557 258.592 27.6206C258.698 27.6842 258.82 27.7178 258.944 27.7179H280.615C280.72 27.7181 280.823 27.6941 280.917 27.6478C281.011 27.6015 281.092 27.5341 281.156 27.4509L299.859 3.0555C299.937 2.95355 299.985 2.83158 299.997 2.70363C300.009 2.57567 299.985 2.44693 299.927 2.33224C299.869 2.21754 299.779 2.12154 299.669 2.0553C299.559 1.98906 299.432 1.95527 299.304 1.95781Z" fill="black"/>
<path d="M155.895 37.5496L156.056 24.3269C156.056 17.7497 156.148 10.1994 155.999 2.71133C155.997 2.62073 156.013 2.53065 156.047 2.44634C156.08 2.36203 156.13 2.28518 156.193 2.22028C156.256 2.15538 156.332 2.10373 156.415 2.06834C156.499 2.03294 156.588 2.01452 156.679 2.01415H177.968C178.058 2.01415 178.147 2.03192 178.23 2.06643C178.312 2.10094 178.388 2.15152 178.451 2.21523C178.514 2.27895 178.564 2.35454 178.598 2.43766C178.632 2.52077 178.649 2.60975 178.648 2.69947C178.627 13.7535 178.398 69.8454 178.398 69.8454C178.398 105.366 166.788 122.422 134.995 122.68C130.777 122.712 122.711 122.715 116.438 122.715C116.31 122.716 116.185 122.68 116.076 122.612C115.967 122.545 115.88 122.448 115.824 122.334C115.768 122.219 115.745 122.091 115.758 121.964C115.771 121.837 115.819 121.716 115.897 121.615L129.218 104.458C129.306 104.346 129.417 104.256 129.545 104.194C129.672 104.132 129.812 104.099 129.954 104.099C138.445 104.099 132.564 104.099 133.567 104.099C144.733 104.099 155.192 97.344 155.833 89.1588C156.008 86.9159 156.023 76.7193 155.996 65.7216C155.97 54.724 155.895 42.9639 155.895 37.5407V37.5496Z" fill="black"/>
<path d="M153.505 68.5578C153.636 68.55 153.767 68.5803 153.881 68.645C153.995 68.7097 154.088 68.8061 154.149 68.9225C154.21 69.0389 154.235 69.1703 154.223 69.3009C154.21 69.4316 154.16 69.5557 154.078 69.6585C151.406 73.0376 148.824 76.4019 145.57 80.5523C144.976 81.2465 144.602 81.6856 144.252 82.1188C143.326 83.269 142.156 84.1992 140.826 84.842C139.496 85.4849 138.04 85.8244 136.563 85.8361C134.14 85.8272 131.72 85.6707 129.316 85.3673C110.346 83.2906 103.191 69.6437 103.191 42.6287V2.70543C103.191 2.52446 103.263 2.3509 103.391 2.22294C103.519 2.09497 103.693 2.02308 103.874 2.02308H124.596C124.777 2.02308 124.95 2.09497 125.079 2.22294C125.207 2.3509 125.279 2.52446 125.279 2.70543V42.0947C125.279 61.5504 124.213 68.9406 142.346 68.9406C146.339 68.9406 151.11 68.6973 153.505 68.5578Z" fill="black"/>
</svg>
