<svg xmlns="http://www.w3.org/2000/svg" viewBox="0 0 128 128" role="img" aria-label="Logo Matilha monocromático branco sobre fundo escuro">
  <path fill="#111111" d="M0 0H128V128H0Z"/>
  <path fill="#FFFFFF" fill-rule="evenodd" d="M83.00 83.50L82.00 83.50L81.00 83.50L80.00 83.50L79.00 83.50L78.00 83.50L77.00 83.50L76.50 83.00L76.50 82.00L76.50 81.00L76.50 80.00L76.50 79.00L76.50 78.00L76.50 77.00L76.50 76.00L76.50 75.00L76.50 74.00L76.50 73.00L76.50 72.00L76.50 71.00L76.50 70.00L76.50 69.00L76.50 68.00L76.50 67.00L76.50 66.00L76.50 65.00L76.50 64.00L76.50 63.00L76.50 62.00L76.50 61.00L76.50 60.00L76.00 59.50L75.50 60.00L75.00 60.50L74.50 61.00L74.50 62.00L74.00 62.50L73.50 63.00L73.50 64.00L73.50 65.00L73.00 65.50L72.50 66.00L72.50 67.00L72.50 68.00L72.00 68.50L71.50 69.00L71.50 70.00L71.50 71.00L71.00 71.50L70.50 72.00L70.50 73.00L70.50 74.00L70.00 74.50L69.50 75.00L69.50 76.00L69.50 77.00L69.00 77.50L68.50 78.00L68.50 79.00L68.50 80.00L68.00 80.50L67.00 80.50L66.00 80.50L65.00 80.50L64.00 80.50L63.00 80.50L62.00 80.50L61.00 80.50L60.00 80.50L59.00 80.50L58.50 80.00L58.50 79.00L58.50 78.00L58.00 77.50L57.50 77.00L57.50 76.00L57.50 75.00L57.00 74.50L56.50 74.00L56.50 73.00L56.50 72.00L56.00 71.50L55.50 71.00L55.50 70.00L55.50 69.00L55.00 68.50L54.50 68.00L54.50 67.00L54.50 66.00L54.00 65.50L53.50 65.00L53.50 64.00L53.50 63.00L53.00 62.50L52.50 62.00L52.50 61.00L52.00 60.50L51.50 61.00L51.50 62.00L51.50 63.00L51.50 64.00L51.50 65.00L51.50 66.00L51.50 67.00L51.50 68.00L51.50 69.00L51.50 70.00L51.50 71.00L51.50 72.00L51.50 73.00L51.50 74.00L51.50 75.00L51.50 76.00L51.50 77.00L51.50 78.00L51.50 79.00L51.50 80.00L51.50 81.00L51.50 82.00L51.00 82.50L50.50 83.00L50.00 83.50L49.00 83.50L48.00 83.50L47.00 83.50L46.00 83.50L45.00 83.50L44.00 83.50L43.50 83.00L43.50 82.00L43.50 81.00L43.50 80.00L43.50 79.00L43.50 78.00L43.50 77.00L43.50 76.00L43.50 75.00L43.50 74.00L43.50 73.00L43.50 72.00L43.50 71.00L43.50 70.00L43.50 69.00L43.50 68.00L43.50 67.00L43.50 66.00L43.50 65.00L43.50 64.00L43.50 63.00L43.50 62.00L43.50 61.00L43.50 60.00L43.50 59.00L43.50 58.00L43.50 57.00L43.50 56.00L43.50 55.00L43.50 54.00L43.50 53.00L43.50 52.00L43.50 51.00L43.50 50.00L43.50 49.00L43.50 48.00L43.50 47.00L43.50 46.00L43.50 45.00L43.50 44.00L44.00 43.50L45.00 43.50L46.00 43.50L47.00 43.50L48.00 43.50L49.00 43.50L50.00 43.50L51.00 43.50L52.00 43.50L53.00 43.50L53.50 44.00L53.50 45.00L54.00 45.50L54.50 46.00L54.50 47.00L54.50 48.00L55.00 48.50L55.50 49.00L55.50 50.00L55.50 51.00L56.00 51.50L56.50 52.00L56.50 53.00L56.50 54.00L57.00 54.50L57.50 55.00L57.50 56.00L57.50 57.00L58.00 57.50L58.50 58.00L58.50 59.00L58.50 60.00L59.00 60.50L59.50 61.00L59.50 62.00L59.50 63.00L60.00 63.50L60.50 64.00L60.50 65.00L60.50 66.00L61.00 66.50L61.50 67.00L61.50 68.00L62.00 68.50L62.50 69.00L62.50 70.00L62.50 71.00L63.00 71.50L64.00 71.50L64.50 71.00L64.50 70.00L65.00 69.50L65.50 69.00L65.50 68.00L65.50 67.00L66.00 66.50L66.50 66.00L66.50 65.00L66.50 64.00L67.00 63.50L67.50 63.00L67.50 62.00L67.50 61.00L68.00 60.50L68.50 60.00L68.50 59.00L68.50 58.00L69.00 57.50L69.50 57.00L69.50 56.00L69.50 55.00L70.00 54.50L70.50 54.00L70.50 53.00L70.50 52.00L71.00 51.50L71.50 51.00L71.50 50.00L71.50 49.00L72.00 48.50L72.50 48.00L72.50 47.00L72.50 46.00L73.00 45.50L73.50 45.00L73.50 44.00L74.00 43.50L75.00 43.50L76.00 43.50L77.00 43.50L78.00 43.50L79.00 43.50L80.00 43.50L81.00 43.50L82.00 43.50L83.00 43.50L83.50 44.00L83.50 45.00L83.50 46.00L83.50 47.00L83.50 48.00L83.50 49.00L83.50 50.00L83.50 51.00L83.50 52.00L83.50 53.00L83.50 54.00L83.50 55.00L83.50 56.00L83.50 57.00L83.50 58.00L83.50 59.00L83.50 60.00L83.50 61.00L83.50 62.00L83.50 63.00L83.50 64.00L83.50 65.00L83.50 66.00L83.50 67.00L83.50 68.00L83.50 69.00L83.50 70.00L83.50 71.00L83.50 72.00L83.50 73.00L83.50 74.00L83.50 75.00L83.50 76.00L83.50 77.00L83.50 78.00L83.50 79.00L83.50 80.00L83.50 81.00L83.50 82.00L83.50 83.00L83.00 83.50Z"/>
</svg>
