<svg width="248" height="248" viewBox="0 0 248 248" fill="none" xmlns="http://www.w3.org/2000/svg">
<path fill-rule="evenodd" clip-rule="evenodd" d="M73.3977 134.011L14.0039 134L14 114L73.3977 113.989L18.5294 91.1447L26.1445 72.666L81.0252 95.4895L39.0358 53.292L53.1106 39.1473L95.1191 81.3312L72.4008 26.2036L90.7926 18.5464L113.534 73.669L113.546 14.0039L133.454 14L133.466 73.669L156.206 18.55L174.601 26.2L151.881 81.3311L193.886 39.1501L207.967 53.2892L165.975 95.4895L220.852 72.6675L228.474 91.1432L228.467 91.1462L173.602 113.989L232.996 114L233 134L173.602 134.011L228.471 156.855L220.855 175.334L165.975 152.511L207.964 194.708L193.889 208.852L151.881 166.669L174.599 221.796L156.207 229.454L133.466 174.331L133.454 233.996L113.546 234L113.534 174.331L90.7956 229.446L90.7925 229.454L72.3993 221.8L95.1191 166.669L53.1134 208.85L39.0331 194.711L81.0251 152.511L26.1481 175.333L18.5257 156.857L73.3977 134.011Z" fill="black"/>
</svg>
