<svg width="146" height="239" viewBox="0 0 146 239" fill="none" xmlns="http://www.w3.org/2000/svg">
<path d="M73 239C53.64 239 35.071 231.315 21.3812 217.634C7.691 203.954 0 185.4 0 166.054C0 136.091 13.8696 113.633 30.768 86.27C43.912 64.9877 58.888 40.7377 70.597 7.6816C71.281 5.7496 72.989 0 72.989 0C72.989 0 72.993 0.0124998 73 0.0363998C73.007 0.0124998 73.011 0 73.011 0C73.011 0 74.719 5.7496 75.403 7.6816C87.112 40.7377 102.088 64.9877 115.232 86.27C132.13 113.633 146 136.091 146 166.054C146 185.4 138.309 203.954 124.619 217.634C111.025 231.218 92.225 239 73 239Z" fill="black"/>
</svg>
