<svg width="253" height="242" viewBox="0 0 253 242" fill="none" xmlns="http://www.w3.org/2000/svg">
<line x1="240" y1="14.8915" y2="14.8915" stroke="black"/>
<line x1="240" y1="41.4604" y2="41.4604" stroke="black"/>
<line x1="240" y1="68.0298" y2="68.0298" stroke="black"/>
<line x1="240" y1="94.5986" y2="94.5986" stroke="black"/>
<line x1="240" y1="121.168" y2="121.168" stroke="black"/>
<line x1="240" y1="147.737" y2="147.737" stroke="black"/>
<line x1="240" y1="174.306" y2="174.306" stroke="black"/>
<line x1="240" y1="200.875" y2="200.875" stroke="black"/>
<line x1="240" y1="227.444" y2="227.444" stroke="black"/>
<line x1="14.0081" y1="4.37114e-08" x2="14.008" y2="241.059" stroke="black" stroke-width="2"/>
<line x1="40.5771" y1="0.000122114" x2="40.5771" y2="241.059" stroke="black" stroke-width="2"/>
<line x1="67.146" y1="0.000122114" x2="67.146" y2="241.059" stroke="black" stroke-width="2"/>
<line x1="93.7151" y1="0.000122114" x2="93.7151" y2="241.059" stroke="black" stroke-width="2"/>
<line x1="120.284" y1="0.000122114" x2="120.284" y2="241.059" stroke="black" stroke-width="2"/>
<line x1="146.853" y1="0.000122114" x2="146.853" y2="241.059" stroke="black" stroke-width="2"/>
<line x1="173.422" y1="0.000122114" x2="173.422" y2="241.059" stroke="black" stroke-width="2"/>
<line x1="199.991" y1="0.000122114" x2="199.991" y2="241.059" stroke="black" stroke-width="2"/>
<line x1="226.561" y1="0.000122114" x2="226.561" y2="241.059" stroke="black" stroke-width="2"/>
</svg>
