<svg width="270" height="57" viewBox="0 0 270 57" fill="none" xmlns="http://www.w3.org/2000/svg">
<path d="M1.5 1.5C14.8547 1.5 14.8547 55.5 28.2094 55.5C41.5641 55.5 41.5641 1.5 54.9188 1.5C68.2735 1.5 68.2735 55.5 81.5969 55.5C94.952 55.5 94.952 1.5 108.275 1.5C121.63 1.5 121.63 55.5 134.953 55.5C148.308 55.5 148.308 1.5 161.662 1.5C175.017 1.5 175.017 55.5 188.372 55.5C201.726 55.5 201.726 1.5 215.081 1.5C228.436 1.5 228.436 55.5 241.791 55.5C255.145 55.5 255.145 1.5 268.5 1.5" stroke="black" stroke-width="3" stroke-miterlimit="10" stroke-linecap="round"/>
</svg>
