<svg width="229" height="229" viewBox="0 0 229 229" fill="none" xmlns="http://www.w3.org/2000/svg">
<path fill-rule="evenodd" clip-rule="evenodd" d="M114.191 203.382C162.898 203.382 202.382 163.898 202.382 115.191C202.382 66.4845 162.898 27 114.191 27C65.4845 27 26 66.4845 26 115.191C26 163.898 65.4845 203.382 114.191 203.382ZM148.653 90.3643C148.653 107.76 143.178 121.861 136.424 121.861C129.671 121.861 124.196 107.76 124.196 90.3643C124.196 72.969 129.671 58.8674 136.424 58.8674C143.178 58.8674 148.653 72.969 148.653 90.3643ZM104.187 90.3643C104.187 107.76 98.7118 121.861 91.9584 121.861C85.2049 121.861 79.7302 107.76 79.7302 90.3643C79.7302 72.969 85.2049 58.8674 91.9584 58.8674C98.7118 58.8674 104.187 72.969 104.187 90.3643ZM52.8693 133.814C54.1072 132.33 56.1414 130.633 58.5743 129.011C62.396 137.519 69.3398 149.33 79.1653 158.704C87.6151 166.765 98.3892 173.186 111.216 173.892C111.936 174.012 112.632 174.086 113.283 174.081C115.707 174.06 118.061 173.834 120.342 173.43C120.555 173.397 120.769 173.363 120.984 173.326C121.115 173.304 121.243 173.274 121.367 173.235C131.539 171.176 140.242 165.578 147.315 158.829C157.141 149.456 164.085 137.645 167.906 129.137C170.339 130.758 172.373 132.456 173.611 133.939C174.66 135.197 176.529 135.365 177.786 134.317C179.044 133.268 179.212 131.398 178.164 130.141C175.837 127.353 172.005 124.53 168.11 122.297C164.21 120.059 159.852 118.186 156.313 117.539C154.702 117.245 153.158 118.312 152.864 119.922C152.569 121.533 153.636 123.077 155.247 123.371C157.273 123.742 159.956 124.742 162.749 126.143C159.209 134.191 152.567 145.625 143.223 154.54C136.458 160.993 128.422 166.005 119.191 167.608C104.832 169.731 92.7849 163.503 83.2578 154.414C73.9137 145.5 67.2719 134.066 63.7316 126.018C66.5247 124.616 69.2076 123.616 71.2334 123.246C72.8439 122.952 73.9109 121.407 73.6166 119.797C73.3223 118.186 71.7781 117.119 70.1676 117.414C66.6284 118.06 62.2703 119.934 58.3701 122.171C54.4757 124.405 50.6429 127.228 48.3168 130.016C47.268 131.273 47.4368 133.142 48.694 134.191C49.9511 135.24 51.8205 135.071 52.8693 133.814Z" fill="black"/>
</svg>
