<svg width="237" height="251" viewBox="0 0 237 251" fill="none" xmlns="http://www.w3.org/2000/svg">
<path d="M125.793 132.663C126.03 135.333 121.068 136.795 118.496 132.663C115.716 129.013 117.76 120.537 125.793 118.09C133.359 115.193 145.331 120.754 147.684 132.663C150.682 144.114 141.629 159.562 125.793 161.811C110.449 164.906 91.435 152.372 89.308 132.663C86.084 113.435 102.179 90.969 125.793 88.942C148.949 85.625 174.945 105.172 176.872 132.663C180.301 159.673 157.219 189.154 125.793 190.958C94.831 194.497 61.8299 167.932 60.1203 132.663C56.4787 97.853 86.561 61.3955 125.793 59.7948C164.53 56.0565 204.578 89.594 206.06 132.663C209.924 175.251 172.814 218.727 125.793 220.105C79.245 224.066 32.211 183.514 30.9323 132.663C26.8691 82.294 70.962 31.8086 125.793 30.6474C180.134 26.465 234.192 74.0353 235.248 132.663C239.538 190.833 188.413 248.295 125.793 249.253C63.6645 253.639 2.57818 199.091 1.74428 132.663C-2.74972 66.7161 55.3714 2.2356 125.793 1.5" stroke="black" stroke-width="3" stroke-linecap="round"/>
</svg>
