<svg width="122" height="257" viewBox="0 0 122 257" fill="none" xmlns="http://www.w3.org/2000/svg">
<path d="M77.761 1.5C35.643 1.5 1.5 14.2135 1.5 29.8964C1.5 45.5793 35.643 58.2929 77.761 58.2929C101.365 58.2929 120.5 52.9111 120.5 46.2723C120.5 39.6335 101.365 34.2517 77.761 34.2517C35.643 34.2517 1.5 46.9652 1.5 62.6481C1.5 78.3311 35.643 91.045 77.761 91.045C101.365 91.045 120.5 85.663 120.5 79.024C120.5 72.3852 101.365 67.0034 77.761 67.0034C35.643 67.0034 1.5 79.795 1.5 95.574C1.5 111.353 35.643 124.145 77.761 124.145C101.365 124.145 120.5 118.763 120.5 112.124C120.5 105.485 101.365 100.104 77.761 100.104C35.643 100.104 1.5 112.817 1.5 128.5C1.5 144.183 35.643 156.896 77.761 156.896C101.365 156.896 120.5 151.515 120.5 144.876C120.5 138.237 101.365 132.855 77.761 132.855C35.643 132.855 1.5 145.569 1.5 161.252C1.5 176.935 35.643 189.648 77.761 189.648C101.365 189.648 120.5 184.266 120.5 177.628C120.5 170.989 101.365 165.607 77.761 165.607C35.643 165.607 1.5 178.321 1.5 194.003C1.5 209.686 35.643 222.4 77.761 222.4C101.365 222.4 120.5 217.018 120.5 210.379C120.5 203.741 101.365 198.359 77.761 198.359C35.643 198.359 1.5 211.15 1.5 226.929C1.5 242.708 35.643 255.5 77.761 255.5" stroke="black" stroke-width="3" stroke-linecap="round"/>
</svg>
