<svg width="255" height="261" viewBox="0 0 255 261" fill="none" xmlns="http://www.w3.org/2000/svg">
<path d="M130.071 133.037C131.015 132.954 131.524 134.703 130.071 135.616C128.788 136.589 125.788 135.882 124.932 133.037C123.913 130.35 125.871 126.146 130.071 125.301C134.103 124.249 139.561 127.428 140.349 133.037C141.445 138.461 137.016 145.181 130.071 145.932C123.292 147.067 115.368 141.388 114.653 133.037C113.469 124.858 120.39 115.663 130.071 114.985C139.585 113.776 150.005 121.931 150.627 133.037C151.88 143.987 142.502 155.639 130.071 156.248C117.791 157.54 104.948 146.905 104.375 133.037C103.069 119.357 114.874 105.185 130.071 104.669C145.101 103.303 160.406 116.414 160.905 133.037C162.3 149.479 148.008 166.122 130.071 166.564C112.304 167.998 94.508 152.416 94.097 133.037C92.629 113.84 109.387 94.722 130.071 94.353C150.583 92.826 170.845 110.913 171.183 133.037C172.725 154.98 153.5 176.599 130.071 176.879C106.813 178.476 84.084 157.923 83.819 133.037C82.204 108.319 103.901 84.264 130.071 84.038C156.069 82.387 181.285 105.376 181.461 133.037C183.164 160.512 158.981 187.043 130.071 187.195C101.331 188.919 73.6439 163.454 73.5412 133.037C71.7645 102.812 98.414 73.7906 130.071 73.7218C161.556 71.8994 191.71 99.889 191.739 133.037C193.589 166.018 164.473 197.521 130.071 197.511C95.845 199.397 63.2044 168.961 63.2631 133.037C61.3249 97.301 92.932 63.3275 130.071 63.4061C167.062 61.4412 202.13 94.373 202.017 133.037C204.009 171.525 169.979 207.994 130.071 207.827C90.329 209.875 52.8039 174.463 52.985 133.037C50.9245 91.794 87.417 52.8496 130.071 53.0903C172.548 50.9633 212.569 88.871 212.295 133.037C214.444 177.051 175.465 218.452 130.071 218.142C84.847 220.338 42.3594 179.974 42.7069 133.037C40.4849 86.278 81.93 42.3767 130.071 42.7746C178.04 40.4904 222.994 83.355 222.573 133.037C224.869 182.573 180.957 228.91 130.071 228.458C79.365 230.796 31.9199 185.5 32.4289 133.037C30.0404 80.741 76.4484 31.9381 130.071 32.4588C183.526 30.0469 233.429 77.8186 232.851 133.037C235.313 188.079 186.438 239.388 130.071 238.774C73.8691 241.269 21.4999 191.007 22.1508 133.037C19.6204 75.2397 70.957 21.4603 130.071 22.1431C189.008 19.569 243.868 72.3169 243.129 133.037C245.753 193.591 191.92 249.851 130.071 249.09C68.3679 251.737 11.0798 196.514 11.8727 133.037C9.20036 69.7527 65.4508 10.9726 130.071 11.8273C194.524 9.09605 254.274 66.8103 253.407 133.037C256.153 199.093 197.436 260.329 130.071 259.405C62.8813 262.215 0.640264 202.02 1.59466 133.037C-1.23924 64.2264 59.9643 0.514353 130.071 1.51155" stroke="black" stroke-width="3" stroke-linecap="round"/>
</svg>
