<svg width="266" height="151" viewBox="0 0 266 151" fill="none" xmlns="http://www.w3.org/2000/svg">
<path d="M4.8659 39.509C4.8659 36.819 2.6873 34.638 0 34.638V0C21.7973 0 39.4675 17.6888 39.4675 39.509V111.491C39.4675 114.181 41.646 116.362 44.3333 116.362C47.0207 116.362 49.1992 114.181 49.1992 111.491V39.509C49.1992 17.6888 66.8694 0 88.667 0C110.464 0 128.134 17.6888 128.134 39.509V111.491C128.134 114.181 130.313 116.362 133 116.362C135.687 116.362 137.866 114.181 137.866 111.491V39.509C137.866 17.6888 155.536 0 177.333 0C199.131 0 216.801 17.6888 216.801 39.509V111.491C216.801 114.181 218.979 116.362 221.667 116.362C224.354 116.362 226.533 114.181 226.533 111.491V39.509C226.533 17.6888 244.203 0 266 0V34.638C263.313 34.638 261.134 36.819 261.134 39.509V111.491C261.134 133.311 243.464 151 221.667 151C199.869 151 182.199 133.311 182.199 111.491V39.509C182.199 36.819 180.021 34.638 177.333 34.638C174.646 34.638 172.467 36.819 172.467 39.509V111.491C172.467 133.311 154.797 151 133 151C111.203 151 93.533 133.311 93.533 111.491V39.509C93.533 36.819 91.354 34.638 88.667 34.638C85.979 34.638 83.801 36.819 83.801 39.509V111.491C83.801 133.311 66.1306 151 44.3333 151C22.536 151 4.8659 133.311 4.8659 111.491V39.509Z" fill="black"/>
</svg>
