<svg width="330" height="26" viewBox="0 0 330 26" fill="none" xmlns="http://www.w3.org/2000/svg">
<path d="M1.83325 1.83333C18.1557 1.83333 18.1557 23.8333 34.4781 23.8333C50.8005 23.8333 50.8005 1.83333 67.1229 1.83333C83.4453 1.83333 83.4453 23.8333 99.7295 23.8333C116.052 23.8333 116.052 1.83333 132.336 1.83333C148.659 1.83333 148.659 23.8333 164.942 23.8333C181.265 23.8333 181.265 1.83333 197.587 1.83333C213.91 1.83333 213.91 23.8333 230.232 23.8333C246.554 23.8333 246.554 1.83333 262.877 1.83333C279.199 1.83333 279.199 23.8333 295.522 23.8333C311.844 23.8333 311.844 1.83333 328.167 1.83333" stroke="black" stroke-width="3.66667" stroke-miterlimit="10" stroke-linecap="round"/>
</svg>
