<svg width="1329" height="532" viewBox="0 0 1329 532" fill="none" xmlns="http://www.w3.org/2000/svg">
<g clip-path="url(#clip0_umSonAoFaz)">
<path d="M86.9688 384.594V397.406C86.9688 398.75 86.8125 399.969 86.5 401.062C86.1875 402.146 85.7604 403.062 85.2188 403.812C84.6771 404.562 84.026 405.193 83.2656 405.703C82.5052 406.203 81.6823 406.573 80.7969 406.812C79.9115 407.042 78.9688 407.156 77.9688 407.156C76.9688 407.156 76.026 407.042 75.1406 406.812C74.2552 406.573 73.4271 406.203 72.6562 405.703C71.8958 405.193 71.2396 404.562 70.6875 403.812C70.1354 403.062 69.7031 402.146 69.3906 401.062C69.0781 399.969 68.9219 398.75 68.9219 397.406V384.594H73.375V397.078C73.375 398.932 73.7604 400.375 74.5312 401.406C75.3125 402.427 76.4583 402.938 77.9688 402.938C79.4792 402.938 80.6146 402.427 81.375 401.406C82.1354 400.385 82.5156 398.943 82.5156 397.078V384.594H86.9688ZM108.375 390.812C110.385 390.802 111.896 391.474 112.906 392.828C113.917 394.172 114.422 396.005 114.422 398.328V407H110.172V399.281C110.172 397.938 110.135 397.057 110.062 396.641C109.854 395.38 109.234 394.682 108.203 394.547C107.974 394.526 107.724 394.526 107.453 394.547C107.234 394.568 107.031 394.604 106.844 394.656C106.656 394.698 106.411 394.818 106.109 395.016C105.807 395.214 105.552 395.479 105.344 395.812C105.135 396.135 104.953 396.615 104.797 397.25C104.641 397.885 104.562 398.63 104.562 399.484V407H100.344V399.281C100.344 397.938 100.307 397.057 100.234 396.641C100.026 395.38 99.4062 394.682 98.375 394.547C98.1458 394.526 97.8958 394.526 97.625 394.547C95.7083 394.703 94.75 396.349 94.75 399.484V407H90.5156V391H93.7812L94.2656 392.734H94.7812C95.1562 392.234 95.6719 391.797 96.3281 391.422C96.9844 391.047 97.7604 390.854 98.6562 390.844C100.438 390.812 101.896 391.547 103.031 393.047H103.516C104.703 391.578 106.323 390.833 108.375 390.812ZM134.781 395.703C134.698 395.328 134.479 394.99 134.125 394.688C133.771 394.385 133.234 394.234 132.516 394.234C131.891 394.234 131.411 394.365 131.078 394.625C130.755 394.885 130.594 395.203 130.594 395.578C130.594 395.839 130.667 396.068 130.812 396.266C130.958 396.453 131.172 396.609 131.453 396.734C131.734 396.849 131.979 396.938 132.188 397C132.396 397.052 132.661 397.109 132.984 397.172C133.536 397.286 134.01 397.401 134.406 397.516C134.802 397.62 135.24 397.766 135.719 397.953C136.198 398.13 136.599 398.339 136.922 398.578C137.255 398.807 137.562 399.083 137.844 399.406C138.135 399.729 138.354 400.115 138.5 400.562C138.646 401 138.719 401.495 138.719 402.047C138.719 403.641 138.146 404.891 137 405.797C135.854 406.703 134.422 407.156 132.703 407.156C130.839 407.156 129.276 406.641 128.016 405.609C126.755 404.568 126.078 403.208 125.984 401.531H129.922C129.984 402.115 130.224 402.63 130.641 403.078C131.068 403.516 131.724 403.734 132.609 403.734C133.339 403.734 133.854 403.583 134.156 403.281C134.469 402.979 134.625 402.62 134.625 402.203C134.625 401.672 134.427 401.281 134.031 401.031C133.646 400.771 133.109 400.562 132.422 400.406C130.953 400.083 129.875 399.76 129.188 399.438C127.375 398.583 126.469 397.297 126.469 395.578C126.469 394.578 126.766 393.714 127.359 392.984C127.953 392.245 128.703 391.703 129.609 391.359C130.516 391.016 131.505 390.844 132.578 390.844C134.328 390.844 135.766 391.307 136.891 392.234C138.016 393.161 138.625 394.318 138.719 395.703H134.781ZM149 384.922H153.609L149.812 389.234H146.984L149 384.922ZM149.141 407.156C148.047 407.156 147.005 406.969 146.016 406.594C145.036 406.208 144.172 405.677 143.422 405C142.682 404.312 142.094 403.453 141.656 402.422C141.219 401.391 141 400.26 141 399.031C141 397.792 141.229 396.651 141.688 395.609C142.146 394.557 142.76 393.693 143.531 393.016C144.302 392.328 145.182 391.797 146.172 391.422C147.161 391.036 148.193 390.844 149.266 390.844C150.714 390.844 152.047 391.167 153.266 391.812C154.484 392.448 155.469 393.396 156.219 394.656C156.979 395.906 157.359 397.344 157.359 398.969C157.359 400.208 157.13 401.349 156.672 402.391C156.224 403.432 155.62 404.297 154.859 404.984C154.109 405.672 153.24 406.208 152.25 406.594C151.26 406.969 150.224 407.156 149.141 407.156ZM149.266 403.453C150.453 403.453 151.401 403.031 152.109 402.188C152.818 401.344 153.172 400.281 153.172 399C153.172 397.719 152.818 396.656 152.109 395.812C151.401 394.969 150.453 394.547 149.266 394.547C148.068 394.547 147.089 394.974 146.328 395.828C145.578 396.672 145.203 397.729 145.203 399C145.203 400.271 145.578 401.333 146.328 402.188C147.089 403.031 148.068 403.453 149.266 403.453ZM179.078 390.844C181.078 390.844 182.599 391.521 183.641 392.875C184.693 394.219 185.219 396.036 185.219 398.328V407H180.969V399.281C180.969 399.271 180.969 399.172 180.969 398.984C180.979 398.797 180.984 398.63 180.984 398.484C180.984 398.328 180.974 398.12 180.953 397.859C180.943 397.589 180.911 397.344 180.859 397.125C180.807 396.906 180.74 396.667 180.656 396.406C180.583 396.146 180.479 395.917 180.344 395.719C180.208 395.521 180.047 395.333 179.859 395.156C179.682 394.969 179.458 394.828 179.188 394.734C178.917 394.63 178.615 394.568 178.281 394.547C177.948 394.526 177.609 394.552 177.266 394.625C176.922 394.688 176.552 394.828 176.156 395.047C175.771 395.266 175.427 395.552 175.125 395.906C174.833 396.26 174.589 396.745 174.391 397.359C174.193 397.974 174.094 398.682 174.094 399.484V407H169.859V391H173.125L173.672 392.953H174.219C175.406 391.547 177.026 390.844 179.078 390.844ZM193.531 388.312C193.312 388.292 193.104 388.323 192.906 388.406C192.708 388.49 192.547 388.599 192.422 388.734C192.297 388.87 192.182 389.005 192.078 389.141C191.984 389.276 191.917 389.391 191.875 389.484L191.812 389.625L189.594 388.219C189.635 388.125 189.693 388 189.766 387.844C189.839 387.677 190.005 387.401 190.266 387.016C190.536 386.62 190.828 386.281 191.141 386C191.464 385.708 191.885 385.474 192.406 385.297C192.927 385.109 193.474 385.068 194.047 385.172C194.589 385.266 195.234 385.542 195.984 386C196.745 386.458 197.281 386.698 197.594 386.719C197.802 386.74 198.005 386.708 198.203 386.625C198.411 386.542 198.583 386.432 198.719 386.297C198.854 386.161 198.974 386.026 199.078 385.891C199.182 385.755 199.26 385.641 199.312 385.547L199.391 385.406L201.594 386.875C201.562 386.969 201.51 387.094 201.438 387.25C201.365 387.406 201.193 387.682 200.922 388.078C200.661 388.464 200.37 388.797 200.047 389.078C199.734 389.349 199.312 389.573 198.781 389.75C198.26 389.917 197.708 389.948 197.125 389.844C196.677 389.76 196.224 389.599 195.766 389.359C195.307 389.109 194.891 388.88 194.516 388.672C194.141 388.453 193.812 388.333 193.531 388.312ZM202.047 401.625C202.047 402.51 202.198 403.115 202.5 403.438C202.802 403.76 203.281 403.922 203.938 403.922V407H202.969C201.042 407 199.807 406.318 199.266 404.953C198.203 406.422 196.516 407.156 194.203 407.156C192.401 407.156 190.964 406.729 189.891 405.875C188.818 405.01 188.281 403.859 188.281 402.422C188.281 401.88 188.365 401.38 188.531 400.922C188.698 400.464 188.911 400.068 189.172 399.734C189.432 399.391 189.766 399.078 190.172 398.797C190.578 398.516 190.979 398.281 191.375 398.094C191.781 397.906 192.25 397.74 192.781 397.594C193.323 397.438 193.802 397.318 194.219 397.234C194.646 397.151 195.135 397.083 195.688 397.031C196.24 396.969 196.677 396.927 197 396.906C197.333 396.875 197.724 396.849 198.172 396.828C198.12 395.141 197.214 394.297 195.453 394.297C195.026 394.297 194.651 394.344 194.328 394.438C194.016 394.531 193.776 394.646 193.609 394.781C193.453 394.917 193.328 395.052 193.234 395.188C193.141 395.323 193.083 395.438 193.062 395.531L193.031 395.672H189.031C189.177 394.214 189.818 393.047 190.953 392.172C192.099 391.286 193.63 390.844 195.547 390.844C197.557 390.844 199.141 391.375 200.297 392.438C201.464 393.5 202.047 395.146 202.047 397.375V401.625ZM192.312 402.297C192.312 402.953 192.661 403.417 193.359 403.688C194.109 403.979 194.927 403.948 195.812 403.594C196.833 403.188 197.526 402.469 197.891 401.438C198.016 401.083 198.089 400.698 198.109 400.281V399.953C197.609 400.005 197.193 400.052 196.859 400.094C196.536 400.135 196.151 400.193 195.703 400.266C195.255 400.339 194.885 400.411 194.594 400.484C194.312 400.557 194.01 400.656 193.688 400.781C193.375 400.896 193.125 401.026 192.938 401.172C192.76 401.307 192.609 401.474 192.484 401.672C192.37 401.859 192.312 402.068 192.312 402.297ZM213.766 407.156C212.672 407.156 211.63 406.969 210.641 406.594C209.661 406.208 208.797 405.677 208.047 405C207.307 404.312 206.719 403.453 206.281 402.422C205.844 401.391 205.625 400.26 205.625 399.031C205.625 397.792 205.854 396.651 206.312 395.609C206.771 394.557 207.385 393.693 208.156 393.016C208.927 392.328 209.807 391.797 210.797 391.422C211.786 391.036 212.818 390.844 213.891 390.844C215.339 390.844 216.672 391.167 217.891 391.812C219.109 392.448 220.094 393.396 220.844 394.656C221.604 395.906 221.984 397.344 221.984 398.969C221.984 400.208 221.755 401.349 221.297 402.391C220.849 403.432 220.245 404.297 219.484 404.984C218.734 405.672 217.865 406.208 216.875 406.594C215.885 406.969 214.849 407.156 213.766 407.156ZM213.891 403.453C215.078 403.453 216.026 403.031 216.734 402.188C217.443 401.344 217.797 400.281 217.797 399C217.797 397.719 217.443 396.656 216.734 395.812C216.026 394.969 215.078 394.547 213.891 394.547C212.693 394.547 211.714 394.974 210.953 395.828C210.203 396.672 209.828 397.729 209.828 399C209.828 400.271 210.203 401.333 210.953 402.188C211.714 403.031 212.693 403.453 213.891 403.453ZM243.219 388.625C242.615 388.229 241.995 388.031 241.359 388.031C240.776 388.031 240.276 388.229 239.859 388.625C239.453 389.01 239.25 389.474 239.25 390.016V391H243.859V394.359H239.25V407H235.219V394.359H232.531V391H235.219V389.75C235.219 388.177 235.776 386.901 236.891 385.922C238.005 384.932 239.359 384.438 240.953 384.438C241.411 384.438 241.854 384.484 242.281 384.578C242.719 384.672 243.078 384.786 243.359 384.922C243.651 385.047 243.906 385.177 244.125 385.312C244.344 385.438 244.5 385.547 244.594 385.641L244.75 385.781L243.219 388.625ZM259.203 401.625C259.203 402.51 259.354 403.115 259.656 403.438C259.958 403.76 260.438 403.922 261.094 403.922V407H260.125C258.198 407 256.964 406.318 256.422 404.953C255.359 406.422 253.672 407.156 251.359 407.156C249.557 407.156 248.12 406.729 247.047 405.875C245.974 405.01 245.438 403.859 245.438 402.422C245.438 401.88 245.521 401.38 245.688 400.922C245.854 400.464 246.068 400.068 246.328 399.734C246.589 399.391 246.922 399.078 247.328 398.797C247.734 398.516 248.135 398.281 248.531 398.094C248.938 397.906 249.406 397.74 249.938 397.594C250.479 397.438 250.958 397.318 251.375 397.234C251.802 397.151 252.292 397.083 252.844 397.031C253.396 396.969 253.833 396.927 254.156 396.906C254.49 396.875 254.88 396.849 255.328 396.828C255.276 395.141 254.37 394.297 252.609 394.297C252.182 394.297 251.807 394.344 251.484 394.438C251.172 394.531 250.932 394.646 250.766 394.781C250.609 394.917 250.484 395.052 250.391 395.188C250.297 395.323 250.24 395.438 250.219 395.531L250.188 395.672H246.188C246.333 394.214 246.974 393.047 248.109 392.172C249.255 391.286 250.786 390.844 252.703 390.844C254.714 390.844 256.297 391.375 257.453 392.438C258.62 393.5 259.203 395.146 259.203 397.375V401.625ZM249.469 402.297C249.469 402.953 249.818 403.417 250.516 403.688C251.266 403.979 252.083 403.948 252.969 403.594C253.99 403.188 254.682 402.469 255.047 401.438C255.172 401.083 255.245 400.698 255.266 400.281V399.953C254.766 400.005 254.349 400.052 254.016 400.094C253.693 400.135 253.307 400.193 252.859 400.266C252.411 400.339 252.042 400.411 251.75 400.484C251.469 400.557 251.167 400.656 250.844 400.781C250.531 400.896 250.281 401.026 250.094 401.172C249.917 401.307 249.766 401.474 249.641 401.672C249.526 401.859 249.469 402.068 249.469 402.297ZM268.672 403.422H276.703V407H263.109V404.891L270.812 394.578H263.422V391H276.391V393.109L268.672 403.422ZM311.891 384.594V407H307.703V393.344H307.438L303.25 405.406H298.094L293.938 393.344H293.688V407H289.484V384.594H294.969L300.438 400.469H300.953L306.422 384.594H311.891ZM328.828 401.625C328.828 402.51 328.979 403.115 329.281 403.438C329.583 403.76 330.062 403.922 330.719 403.922V407H329.75C327.823 407 326.589 406.318 326.047 404.953C324.984 406.422 323.297 407.156 320.984 407.156C319.182 407.156 317.745 406.729 316.672 405.875C315.599 405.01 315.062 403.859 315.062 402.422C315.062 401.88 315.146 401.38 315.312 400.922C315.479 400.464 315.693 400.068 315.953 399.734C316.214 399.391 316.547 399.078 316.953 398.797C317.359 398.516 317.76 398.281 318.156 398.094C318.562 397.906 319.031 397.74 319.562 397.594C320.104 397.438 320.583 397.318 321 397.234C321.427 397.151 321.917 397.083 322.469 397.031C323.021 396.969 323.458 396.927 323.781 396.906C324.115 396.875 324.505 396.849 324.953 396.828C324.901 395.141 323.995 394.297 322.234 394.297C321.807 394.297 321.432 394.344 321.109 394.438C320.797 394.531 320.557 394.646 320.391 394.781C320.234 394.917 320.109 395.052 320.016 395.188C319.922 395.323 319.865 395.438 319.844 395.531L319.812 395.672H315.812C315.958 394.214 316.599 393.047 317.734 392.172C318.88 391.286 320.411 390.844 322.328 390.844C324.339 390.844 325.922 391.375 327.078 392.438C328.245 393.5 328.828 395.146 328.828 397.375V401.625ZM319.094 402.297C319.094 402.953 319.443 403.417 320.141 403.688C320.891 403.979 321.708 403.948 322.594 403.594C323.615 403.188 324.307 402.469 324.672 401.438C324.797 401.083 324.87 400.698 324.891 400.281V399.953C324.391 400.005 323.974 400.052 323.641 400.094C323.318 400.135 322.932 400.193 322.484 400.266C322.036 400.339 321.667 400.411 321.375 400.484C321.094 400.557 320.792 400.656 320.469 400.781C320.156 400.896 319.906 401.026 319.719 401.172C319.542 401.307 319.391 401.474 319.266 401.672C319.151 401.859 319.094 402.068 319.094 402.297ZM342.359 402.969L343.906 405.812C343.865 405.844 343.807 405.891 343.734 405.953C343.672 406.016 343.516 406.125 343.266 406.281C343.026 406.438 342.771 406.573 342.5 406.688C342.229 406.802 341.875 406.906 341.438 407C341 407.104 340.552 407.156 340.094 407.156C338.5 407.156 337.146 406.667 336.031 405.688C334.917 404.698 334.359 403.417 334.359 401.844V394.422H331.156V391.281H332.766C333.318 391.281 333.76 391.115 334.094 390.781C334.427 390.438 334.594 389.979 334.594 389.406V386.203H338.453V391H342.484V394.422H338.453V401.594C338.453 402.135 338.646 402.594 339.031 402.969C339.427 403.333 339.917 403.516 340.5 403.516C340.781 403.516 341.078 403.474 341.391 403.391C341.703 403.297 341.943 403.203 342.109 403.109L342.359 402.969ZM348.016 389.203C347.266 389.203 346.62 388.938 346.078 388.406C345.536 387.865 345.266 387.234 345.266 386.516C345.266 385.755 345.531 385.115 346.062 384.594C346.604 384.062 347.255 383.797 348.016 383.797C348.755 383.797 349.391 384.062 349.922 384.594C350.453 385.115 350.719 385.755 350.719 386.516C350.719 387.234 350.448 387.865 349.906 388.406C349.375 388.938 348.745 389.203 348.016 389.203ZM350.078 391V407H345.969V391H350.078ZM353.891 384.281H358.062V407H353.891V384.281ZM371.297 390.844C373.297 390.844 374.812 391.521 375.844 392.875C376.885 394.219 377.406 396.036 377.406 398.328V407H373.125V399.281C373.125 399.208 373.125 399.094 373.125 398.938C373.115 398.698 373.115 398.443 373.125 398.172C373.135 397.901 373.12 397.625 373.078 397.344C373.047 397.062 373 396.786 372.938 396.516C372.885 396.245 372.792 395.99 372.656 395.75C372.531 395.51 372.375 395.302 372.188 395.125C372.01 394.948 371.776 394.807 371.484 394.703C371.193 394.599 370.865 394.547 370.5 394.547C370.177 394.547 369.849 394.583 369.516 394.656C369.193 394.719 368.833 394.859 368.438 395.078C368.052 395.297 367.708 395.583 367.406 395.938C367.115 396.281 366.87 396.76 366.672 397.375C366.474 397.99 366.375 398.693 366.375 399.484V407H362.078V384.281H366.141V392.656H366.688C367.844 391.448 369.38 390.844 371.297 390.844ZM396.656 403.25L398.969 404.469C398.948 404.542 398.911 404.641 398.859 404.766C398.818 404.88 398.698 405.094 398.5 405.406C398.312 405.708 398.094 405.979 397.844 406.219C397.594 406.458 397.24 406.677 396.781 406.875C396.333 407.062 395.833 407.156 395.281 407.156C394.469 407.156 393.75 406.953 393.125 406.547C392.51 406.141 392.036 405.557 391.703 404.797C390.734 406.37 389.068 407.156 386.703 407.156C384.891 407.156 383.448 406.719 382.375 405.844C381.312 404.958 380.781 403.766 380.781 402.266C380.781 401.557 380.911 400.917 381.172 400.344C381.443 399.771 381.771 399.302 382.156 398.938C382.552 398.562 383.057 398.24 383.672 397.969C384.297 397.688 384.88 397.474 385.422 397.328C385.964 397.182 386.599 397.068 387.328 396.984C388.057 396.891 388.646 396.833 389.094 396.812C389.542 396.792 390.068 396.776 390.672 396.766C390.609 395.078 389.703 394.234 387.953 394.234C387.526 394.234 387.151 394.286 386.828 394.391C386.505 394.484 386.26 394.604 386.094 394.75C385.927 394.885 385.792 395.026 385.688 395.172C385.583 395.307 385.521 395.427 385.5 395.531L385.453 395.672H381.531C381.677 394.214 382.323 393.047 383.469 392.172C384.625 391.286 386.12 390.844 387.953 390.844C388.891 390.844 389.745 390.969 390.516 391.219C391.286 391.469 391.969 391.849 392.562 392.359C393.156 392.87 393.62 393.552 393.953 394.406C394.286 395.26 394.453 396.25 394.453 397.375V401.625C394.453 403.177 394.849 403.953 395.641 403.953C395.88 403.953 396.083 403.896 396.25 403.781C396.417 403.667 396.526 403.552 396.578 403.438L396.656 403.25ZM384.812 402.109C384.812 402.828 385.177 403.333 385.906 403.625C386.656 403.938 387.469 403.917 388.344 403.562C389.354 403.167 390.036 402.458 390.391 401.438C390.516 401.083 390.589 400.698 390.609 400.281V399.797C389.911 399.839 389.333 399.88 388.875 399.922C388.417 399.964 387.901 400.036 387.328 400.141C386.766 400.245 386.318 400.375 385.984 400.531C385.661 400.677 385.385 400.885 385.156 401.156C384.927 401.427 384.812 401.745 384.812 402.109ZM405.188 406.406C404.688 406.906 404.083 407.156 403.375 407.156C402.667 407.156 402.062 406.906 401.562 406.406C401.062 405.906 400.812 405.302 400.812 404.594C400.812 403.875 401.062 403.271 401.562 402.781C402.062 402.292 402.667 402.047 403.375 402.047C404.083 402.047 404.688 402.292 405.188 402.781C405.688 403.271 405.938 403.875 405.938 404.594C405.938 405.302 405.688 405.906 405.188 406.406Z" fill="white"/>
<path data-draw="shape" fill-rule="evenodd" clip-rule="evenodd" d="M767.151 80.8821C766.914 81.5 766.74 82.3696 766.764 82.8145C766.788 83.2587 767.106 82.8768 767.47 81.9656C767.834 81.0537 768.009 80.1847 767.857 80.0332C767.706 79.8817 767.388 80.2636 767.151 80.8821ZM934.01 89.1701C927.16 90.4874 921.852 92.7131 916.037 96.7073C914.326 97.8821 912.823 99.0777 912.696 99.3627C912.137 100.622 910.575 99.6499 908.49 96.7454C905.093 92.0109 901.52 90.2362 901.52 93.2846C901.52 94.5639 898.631 99.8816 897.935 99.8816C897.626 99.8816 897.372 100.193 897.372 100.574C897.372 101.429 895.284 103.557 892.93 105.1C891.778 105.856 890.532 106.103 889.358 105.808C886.405 105.067 883.206 106.547 881.743 109.332C881.024 110.7 878.879 113.428 876.976 115.395C875.073 117.36 872.924 120.284 872.199 121.891C871.031 124.485 870.992 125.023 871.857 126.683C873.363 129.571 874.622 130.556 878.721 132.054C883.768 133.897 895.934 133.915 901.425 132.087C907.124 130.19 912.526 131.19 912.57 134.151C912.576 134.544 911.748 134.934 910.732 135.018C909.577 135.114 907.791 136.312 905.973 138.211C904.374 139.882 902.387 141.465 901.56 141.727C899.538 142.37 894.541 147.515 893.094 150.446C890.581 155.534 889.077 159.367 889.077 160.688C889.077 161.447 888.784 162.25 888.426 162.471C888.068 162.693 887.564 164.279 887.307 165.996C886.848 169.053 886.742 169.163 882.255 171.2C879.734 172.345 876.116 174.09 874.215 175.078C872.313 176.067 868.656 177.944 866.086 179.251C863.517 180.557 860.328 182.652 859.001 183.905C856.916 185.872 856.587 186.622 856.587 189.398C856.587 191.165 856.863 193.152 857.201 193.813C857.539 194.474 858.395 196.26 859.102 197.782C861.783 203.549 869.628 212.643 874.684 215.845C877.524 217.643 886.74 220.267 890.216 220.267C894.559 220.267 906.723 222.396 909.044 223.561C911.166 224.627 913.963 229.117 913.963 231.456C913.963 231.838 914.896 234.169 916.037 236.636C917.178 239.102 918.111 241.245 918.111 241.398C918.111 241.551 919.511 244.046 921.222 246.942C922.933 249.838 924.332 252.468 924.332 252.785C924.332 253.102 924.565 253.466 924.851 253.593C925.461 253.864 928.444 258.009 931.366 262.645C932.505 264.453 933.722 265.931 934.07 265.931C934.418 265.931 934.702 266.398 934.702 266.969C934.702 267.54 934.96 268.007 935.275 268.007C935.591 268.007 936.87 269.429 938.118 271.168C939.366 272.907 941.052 275.054 941.865 275.94C942.678 276.826 943.965 278.291 944.725 279.194C951.894 287.716 953.802 289.953 954.721 290.913C955.852 292.094 956.724 293.128 961.662 299.151C963.373 301.239 965.344 303.569 966.041 304.33C966.739 305.091 968.09 307.037 969.045 308.654C969.999 310.271 970.984 311.597 971.233 311.6C971.481 311.603 972.014 312.304 972.415 313.157C972.817 314.01 973.821 315.953 974.645 317.476C978.378 324.366 978.992 329.335 980.329 363.485C980.679 372.428 981.142 381.145 981.358 382.858C981.573 384.57 982.038 393.91 982.391 403.614C982.744 413.317 983.248 425.071 983.511 429.732L983.99 438.207H981.983C979.495 438.207 971.428 440.476 969.392 441.748C967.533 442.91 967.325 447.09 969 449.648L970.116 451.353H900.162H830.208L830.716 449.104C831.205 446.944 831.31 438.742 830.874 436.807C830.72 436.123 831.408 435.919 833.456 436.045C835.51 436.171 836.576 435.855 837.485 434.85C838.702 433.504 838.638 433.469 833.407 432.624C828.042 431.758 824.912 429.898 824.701 427.452C824.654 426.899 824.537 426.134 824.442 425.754C824.347 425.373 824.231 423.762 824.183 422.174L824.097 419.285L822.368 420.911C821.131 422.074 820.64 422.248 820.64 421.524C820.64 420.426 822.815 415.883 824.059 414.383C824.877 413.397 829.325 412.041 834.466 411.213C838.949 410.49 845.901 408.54 848.114 407.384C849.162 406.837 850.409 406.388 850.884 406.385C851.359 406.383 851.748 406.095 851.748 405.744C851.748 405.394 852.681 404.902 853.822 404.652C854.962 404.401 855.896 403.909 855.896 403.559C855.896 403.208 856.285 402.914 856.76 402.903C857.235 402.893 858.712 401.98 860.043 400.875C862.33 398.976 862.455 398.65 862.327 394.95C861.999 385.469 854.535 378.282 845.181 378.439C839.822 378.53 834.866 380.042 827.36 383.875C822.62 386.296 820.968 386.837 819.737 386.367C817.236 385.416 816.27 383.8 816.754 381.378C817.337 378.458 816.168 374.426 814.37 373.164C813.563 372.597 812.441 371.808 811.875 371.409C810.997 370.789 810.961 369.839 811.628 364.836C813.473 351.006 815.773 338.558 817.694 332.005C818.53 329.15 819.713 327.579 824.466 323.011C828.813 318.833 830.83 316.259 832.691 312.516C834.048 309.788 835.157 307.043 835.157 306.416C835.157 305.79 835.501 304.635 835.92 303.85C837.193 301.47 837.953 295.26 838.574 282.19C839.224 268.491 839.857 266.114 844.599 259.587C847.072 256.181 849.674 249.584 849.674 246.716C849.674 245.78 850.212 243.496 850.871 241.641C852.027 238.383 852.022 238.178 850.712 235.667C848.774 231.95 846.935 229.37 843.971 226.211C842.545 224.691 841.379 222.859 841.379 222.138C841.379 221.418 842.778 218.741 844.489 216.188C846.2 213.636 847.6 211.286 847.6 210.968C847.6 209.839 845.152 208.549 842.968 208.528C839.809 208.496 833.839 210.168 831.009 211.876C824.681 215.697 823.79 215.595 826.463 211.357C828.108 208.749 834.567 202.971 835.838 202.971C837.263 202.971 842.83 196.657 844.762 192.849C848.285 185.904 849.674 180.622 849.674 174.168V168.377H854.062C858.571 168.377 861.399 167.022 861.447 164.837C861.461 164.179 861.688 164.258 862.172 165.091C863.036 166.574 864.191 166.673 864.191 165.264C864.191 164.693 864.466 164.226 864.803 164.226C865.139 164.226 865.909 162.713 866.513 160.863C867.514 157.801 867.515 157.253 866.525 154.731L865.438 151.962L867.882 148.756C872.745 142.381 872.138 134.395 866.075 124.976C865.038 123.366 864.191 121.765 864.191 121.418C864.191 121.07 863.722 120.606 863.149 120.386C862.293 120.057 862.167 120.505 862.445 122.906C862.718 125.271 862.675 125.432 862.219 123.751C861.437 120.862 859.352 116.995 858.036 115.99C857.429 115.526 856.14 115.137 855.17 115.125C853.365 115.102 847.6 118.402 847.6 119.458C847.6 119.781 847.092 120.553 846.471 121.175C844.9 122.747 846.473 123.158 848.635 121.741C849.56 121.134 850.745 120.638 851.27 120.638C853.001 120.638 855.743 123.71 856.211 126.173C856.493 127.662 856.433 128.252 856.055 127.705C855.042 126.244 850.893 125.933 848.085 127.108C846.678 127.696 845.526 128.441 845.526 128.763C845.526 129.085 846.887 129.91 848.549 130.596C850.211 131.282 852.486 132.825 853.603 134.024C857.154 137.836 857.113 137.925 851.947 137.517C847.604 137.174 847.355 137.228 848.596 138.233C849.335 138.83 850.208 139.318 850.538 139.318C852.212 139.318 850.004 140.642 847.672 141.036C844.325 141.602 841.613 143.818 837.602 149.262C835.885 151.594 833.31 154.277 831.88 155.225C830.451 156.173 829.126 157.107 828.936 157.301C828.745 157.495 825.479 159.194 821.677 161.077C813.985 164.887 804.049 171.003 804.049 171.928C804.049 172.258 803.724 172.528 803.325 172.528C801.906 172.528 793.68 182.535 793.68 184.262C793.68 184.658 793.426 184.982 793.117 184.982C792.524 184.982 787.459 194.813 787.459 195.963C787.459 196.633 785.343 200.936 784.693 201.586C784.503 201.777 782.956 204.657 781.254 207.987C779.552 211.317 777.919 214.041 777.624 214.041C777.33 214.041 777.089 214.366 777.089 214.762C777.089 215.409 774.897 217.599 768.448 223.396C767.308 224.421 765.052 226.213 763.437 227.378C761.821 228.543 760.499 229.732 760.499 230.02C760.499 230.309 760.11 230.675 759.634 230.834C759.16 230.993 759.704 230.978 760.844 230.801C761.985 230.624 763.758 230.049 764.785 229.525C765.812 229 767.176 228.57 767.816 228.57C769.149 228.57 768.657 229.041 755.482 240.41C752.981 242.569 753.392 244.094 756.188 243.029C757.213 242.64 758.212 242.106 758.411 241.845C758.609 241.583 760.17 240.656 761.881 239.786C763.592 238.916 765.458 237.912 766.029 237.555C771.117 234.369 778.041 230.676 778.35 230.985C778.56 231.196 776.807 233.167 774.455 235.367C772.102 237.566 770.176 239.59 770.176 239.863C770.176 240.472 778.724 236.119 779.048 235.347C779.175 235.045 779.595 234.797 779.983 234.797C780.837 234.797 794.509 225.833 795.225 224.803C796.379 223.144 795.629 225.581 793.873 229.195C792.145 232.754 791.984 233.795 791.89 242.061C791.757 253.761 791.793 253.477 790.451 253.477C789.816 253.477 788.699 254.018 787.97 254.678C786.8 255.738 785.164 255.862 774.09 255.736C760.569 255.581 757.258 256.101 750.463 259.443C746.71 261.289 734.03 270.368 733.654 271.479C733.527 271.852 733.157 272.158 732.831 272.158C732.024 272.158 721.095 283.149 721.095 283.962C721.095 284.319 720.827 284.612 720.498 284.612C720.17 284.612 719.004 285.935 717.908 287.552C716.812 289.169 715.758 290.648 715.567 290.839C715.169 291.234 714.243 292.862 711.513 297.961C709.132 302.408 704.495 315.924 704.514 318.365C704.524 319.795 702.695 328.467 701.272 333.735C699.648 339.741 698.304 341.792 692.523 347.083C685.626 353.396 682.505 357.672 681.231 362.556C679.703 368.413 681.153 373.674 686.161 380.436C689.896 385.479 696.019 390.923 700.504 393.187C702.374 394.131 702.376 394.137 701.097 395.933C700.392 396.923 699.131 398.352 698.294 399.108C695.257 401.856 689.988 415.151 689.988 420.067C689.988 424.111 690.774 425.335 694.067 426.423L696.849 427.342L693.917 429.203C689.999 431.69 688.605 433.985 688.605 437.949C688.605 439.736 688.076 442.88 687.429 444.935C686.484 447.934 686.417 448.936 687.089 450.012C687.914 451.334 687.17 451.353 632.962 451.353C578.407 451.353 578 451.363 578 452.741C578 454.12 578.347 454.127 634.167 453.952L690.333 453.775L690.105 451.699C689.659 447.657 689.822 443.737 690.471 442.88C690.832 442.403 691.184 440.356 691.251 438.331C691.319 436.305 691.663 434.11 692.015 433.452C692.366 432.794 695.398 430.882 698.753 429.203L704.85 426.151L700.929 425.638C698.772 425.356 695.894 424.66 694.534 424.091C692.402 423.199 692.063 422.742 692.071 420.773C692.09 415.711 697.196 403.041 700.434 400.02C701.532 398.996 702.431 397.983 702.431 397.772C702.431 397.56 703.053 396.764 703.813 396.003C705.905 393.91 705.509 393.051 701.578 391.16C697.994 389.436 687.914 380.327 687.914 378.812C687.914 378.373 687.68 378.014 687.394 378.014C687.109 378.014 686.097 376.548 685.147 374.754C683.729 372.078 683.424 370.541 683.439 366.159C683.453 362.097 683.742 360.507 684.649 359.505C685.304 358.78 685.84 357.865 685.84 357.471C685.84 357.078 688.873 353.829 692.58 350.251C696.287 346.673 699.864 342.905 700.53 341.878C702.269 339.192 703.538 335.088 705.183 326.816C707.151 316.919 708.583 311.081 709.85 307.789C712.888 299.892 713.901 297.817 717.054 293.053C718.136 291.416 719.022 289.97 719.022 289.837C719.022 289.257 723.256 284.528 728.354 279.414C734.376 273.374 736.255 271.716 741.488 267.828C743.389 266.415 745.256 265.019 745.636 264.724C748.042 262.859 755.387 259.696 759.716 258.66C763.696 257.706 765.964 257.559 770.085 257.987C779.09 258.922 785.15 258.216 788.673 255.823C790.012 254.913 791.668 254.169 792.354 254.169C793.038 254.169 793.794 253.853 794.033 253.466C794.272 253.08 794.756 252.942 795.11 253.161C795.955 253.684 795.948 249.798 795.102 248.946C793.442 247.272 794.519 230.086 796.379 228.57C796.613 228.38 797.578 227.044 798.525 225.603C799.472 224.161 801.896 221.877 803.911 220.527C806.815 218.581 807.414 217.877 806.796 217.133C806.149 216.352 805.531 216.445 803.133 217.681C801.546 218.498 800.144 219.415 800.017 219.717C799.89 220.02 799.421 220.267 798.974 220.267C798.527 220.267 795.52 222.064 792.291 224.26C789.063 226.456 785.228 228.989 783.77 229.888C781.312 231.405 781.128 231.429 781.258 230.219C781.648 226.552 781.452 226.406 778.299 228.025C776.684 228.854 775.206 229.706 775.015 229.917C774.825 230.128 773.114 231.054 771.213 231.974C769.312 232.895 767.541 233.975 767.276 234.375C767.012 234.775 766.615 234.922 766.395 234.701C766.174 234.481 767.512 232.777 769.368 230.916C771.224 229.055 773.315 226.638 774.014 225.545L775.285 223.557L773.11 224.035C771.053 224.488 771.189 224.258 775.615 219.796C778.189 217.201 781.051 213.522 781.975 211.619C782.899 209.716 783.864 208.001 784.12 207.807C784.375 207.612 784.798 206.601 785.059 205.558C785.32 204.516 785.739 203.663 785.988 203.663C786.237 203.663 787.178 202.028 788.079 200.03C791.673 192.059 794.02 187.361 794.821 186.535C795.285 186.056 795.86 185.045 796.101 184.286C796.342 183.527 796.828 182.906 797.183 182.906C797.537 182.906 797.828 182.466 797.828 181.926C797.828 181.387 798.064 180.842 798.351 180.715C798.639 180.589 799.876 179.204 801.099 177.64C803.914 174.039 813.245 167.785 823.06 162.92C827.242 160.847 830.767 158.892 830.894 158.575C831.021 158.258 831.39 157.999 831.714 157.999C832.789 157.999 838.512 152.362 840.782 149.066C844.194 144.112 845.611 143.328 852.011 142.842C856.121 142.531 857.573 142.173 857.434 141.507C857.304 140.885 857.686 140.739 858.643 141.043C859.73 141.388 860.043 141.178 860.043 140.106C860.043 139.347 859.577 138.258 859.006 137.688C858.436 137.117 857.958 136.394 857.944 136.081C857.903 135.125 854.977 131.855 852.431 129.919L850.02 128.085L852.093 128.564C855.19 129.279 858.212 132.494 859.761 136.724C860.266 138.102 862.117 138.379 862.117 137.077C862.117 136.604 861.123 133.161 859.908 129.424C858.113 123.907 857.217 122.195 855.141 120.317C852.702 118.111 852.655 117.99 854.146 117.705C855.005 117.541 856.14 117.744 856.667 118.157C858.801 119.828 861.775 128.372 862.499 134.91C862.757 137.241 863.219 139.556 863.527 140.054C864.446 141.543 866.214 139.537 866.707 136.446C867.311 132.672 868.102 132.563 868.644 136.179C869.485 141.79 867.971 146.239 864.078 149.594L862.19 151.221L863.536 153.735C864.962 156.399 865.249 159.116 864.267 160.667C863.852 161.322 863.529 161.374 863.2 160.84C862.94 160.419 862.123 160.075 861.385 160.075C860.371 160.075 860.043 160.556 860.043 162.043C860.043 165.096 858.159 166.301 853.387 166.301C851.098 166.301 848.889 166.672 848.43 167.132C847.935 167.626 847.6 170.008 847.6 173.022C847.6 178.853 845.873 185.697 843.01 191.209C840.388 196.256 839.102 197.686 833.774 201.473C826.793 206.437 823.308 210.472 822.509 214.517C822.098 216.603 822.196 216.736 824.295 216.939C825.843 217.089 827.66 216.47 830.29 214.898C834.701 212.261 837.833 211.282 841.88 211.277L844.8 211.273L842.059 215.597C838.488 221.231 838.457 223.453 841.897 227.357C843.323 228.975 844.722 230.403 845.008 230.53C845.293 230.657 845.526 231.059 845.526 231.424C845.526 231.789 846.133 232.739 846.874 233.536C849.498 236.354 849.411 239.133 846.347 250.364C845.724 252.647 843.945 256.383 842.394 258.666C837.686 265.597 837.138 267.666 836.444 281.132C835.254 304.183 832.805 311.451 823.029 320.935C817.196 326.594 815.503 329.379 814.408 335.118C814.081 336.831 813.51 339.633 813.14 341.345C812.442 344.576 811.134 352.408 809.217 364.843C808.16 371.694 808.166 372.129 809.318 372.972C809.987 373.463 810.894 373.863 811.333 373.863C813.039 373.863 814.419 376.422 814.419 379.585C814.419 381.34 814.114 382.964 813.741 383.195C812.87 383.734 814.425 386.317 815.622 386.317C816.1 386.317 816.492 386.616 816.492 386.981C816.492 387.346 817.715 388.012 819.209 388.46C822.084 389.322 821.609 389.467 829.281 385.382C837.104 381.216 845.683 379.744 850.736 381.699C853.926 382.934 855.504 384.282 857.876 387.801C859.648 390.428 860.039 391.691 860.022 394.72C859.998 398.625 859.014 399.987 855.377 401.139C854.521 401.409 853.822 401.897 853.822 402.222C853.822 402.546 852.888 403.017 851.748 403.268C850.607 403.518 849.674 403.934 849.674 404.191C849.674 405.051 837.615 408.562 831.701 409.425C827.634 410.018 823.885 411.336 822.612 412.618C821.647 413.591 819.695 417.444 817.921 421.881C817.192 423.703 817.307 424.088 819.166 426.033C820.953 427.901 821.678 429.93 821.408 432.311C821.366 432.682 818.855 430.521 815.827 427.509C810.444 422.154 810.292 422.061 808.945 423.281C807.589 424.51 807.717 424.678 817.234 434.204C825.294 442.27 827.07 443.738 827.919 443.034C828.788 442.312 828.932 442.628 828.913 445.215C828.891 448.396 828.01 450.099 825.998 450.856C824.49 451.422 824.419 453.139 825.881 453.701C827.31 454.249 971.582 454.249 973.011 453.701C974.237 453.23 974.524 450.661 973.351 450.661C972.078 450.661 970.004 447.647 969.98 445.762C969.965 444.589 970.491 443.706 971.513 443.191C973.917 441.977 981.274 440.283 984.137 440.283H986.712L986.305 434.575C985.726 426.455 983.588 383.582 982.363 355.529C981.365 332.667 980.304 323.974 977.885 318.859C975.185 313.148 965.52 299.141 964.28 299.141C963.98 299.141 963.736 298.674 963.736 298.103C963.736 297.532 963.488 297.065 963.186 297.065C962.885 297.065 961.507 295.582 960.125 293.769C958.743 291.955 956.191 288.964 954.452 287.123C952.714 285.281 951.292 283.651 951.292 283.501C951.292 283.351 950.748 282.672 950.083 281.994C949.418 281.315 947.629 279.233 946.108 277.367C944.587 275.501 942.798 273.41 942.133 272.72C941.468 272.031 940.923 271.18 940.923 270.832C940.923 270.483 940.627 270.094 940.267 269.967C939.905 269.84 937.425 266.779 934.755 263.164C932.085 259.549 929.581 256.214 929.19 255.755C928.8 255.296 928.48 254.738 928.48 254.517C928.48 254.124 925.733 250.019 925.006 249.326C924.646 248.982 917.812 235.02 916.71 232.375C916.393 231.614 915.783 229.844 915.355 228.44C914.449 225.475 912.398 222.664 910.331 221.557C908.076 220.349 901.723 219.053 895.644 218.559C888.729 217.997 880.457 216.298 877.458 214.82C874.948 213.585 866.265 205.468 866.265 204.356C866.265 203.975 865.99 203.663 865.654 203.663C864.666 203.663 860.393 195.986 859.4 192.428C858.375 188.753 859.192 185.452 861.31 184.71C861.944 184.488 863.396 183.685 864.537 182.924C867.127 181.2 869.512 180.139 870.803 180.139C871.348 180.139 871.795 179.902 871.795 179.611C871.795 179.321 872.412 178.776 873.165 178.4C873.919 178.025 876.952 176.527 879.905 175.073C888.563 170.81 888.697 170.711 889.208 168.25C889.696 165.899 891.123 161.05 892.684 156.442C893.167 155.016 893.798 153.848 894.085 153.848C894.372 153.848 894.607 153.408 894.607 152.872C894.607 151.336 899.693 145.304 901.922 144.197C903.032 143.647 905.268 141.941 906.893 140.406C908.723 138.677 910.955 137.348 912.762 136.911C915.9 136.152 917.102 134.089 915.071 132.952C914.462 132.61 913.963 131.755 913.963 131.05C913.963 130.033 913.152 129.63 910.026 129.09C906.762 128.528 905.254 128.646 901.212 129.777C894.497 131.656 884.415 131.764 879.745 130.006C874.652 128.09 873.664 127.033 874.078 123.946C874.345 121.952 875.382 120.392 878.639 117.08C880.959 114.724 882.866 112.458 882.878 112.046C882.891 111.634 883.485 110.597 884.199 109.741C885.26 108.467 886.199 108.184 889.361 108.184C893.162 108.184 893.293 108.116 897.372 104.033C899.654 101.75 901.52 99.4146 901.52 98.8438C901.52 98.273 901.795 97.806 902.131 97.806C902.467 97.806 902.905 97.1819 903.104 96.4195C903.476 94.997 905.668 95.1451 905.668 96.5932C905.668 96.9861 906.107 97.6531 906.644 98.0758C907.18 98.4979 908.236 100.023 908.989 101.463C910.126 103.636 910.519 103.929 911.297 103.183C914.061 100.533 919.1 97.1702 923.296 95.1762C931.252 91.3944 931.961 91.2332 940.623 91.2332C945.437 91.2332 949.716 91.5674 950.67 92.0178C959.042 95.9746 963.263 98.2647 963.547 99.0036C963.732 99.4866 964.239 99.8941 964.674 99.9086C966.354 99.966 975.441 114.859 975.477 117.615C975.483 118.046 976.654 119.285 978.08 120.369C981.925 123.293 984.811 126.33 986.915 129.666C988.55 132.259 988.787 133.334 988.767 138.056C988.739 144.46 987.266 148.123 983.007 152.386C979.618 155.778 976.515 156.872 971.468 156.453C967.901 156.157 967.377 155.88 964.633 152.847C961.733 149.641 961.662 149.447 961.662 144.762C961.662 141.427 962.023 139.388 962.844 138.083C967.097 131.326 972.728 130.018 977.921 134.581C980.142 136.532 980.324 136.994 980.304 140.601C980.279 144.698 979.492 146.214 976.197 148.507C973.922 150.09 971.92 150.007 969.67 148.235C968.067 146.973 967.842 146.345 968.022 143.635C968.185 141.168 968.627 140.199 970.086 139.113C971.721 137.896 972.197 137.836 974.061 138.609C975.804 139.331 976.171 139.869 976.135 141.651C976.094 143.656 976.045 143.699 975.46 142.244C974.632 140.18 973.017 139.616 971.703 140.931C969.418 143.218 970.944 147.621 974.022 147.621C979.379 147.621 980.548 137.266 975.431 135.144C972.351 133.867 968.729 134.745 966.426 137.326C963.172 140.974 963.012 145.007 965.955 149.188C969.96 154.879 977.467 154.277 981.849 147.913C986.879 140.606 983.547 131.524 974.783 128.656C969.921 127.064 961.948 127.209 958.335 128.956C955.76 130.202 955.44 130.622 955.44 132.762C955.44 134.085 955.709 135.167 956.037 135.167C956.366 135.167 957.522 136.448 958.606 138.015L960.578 140.862L958.747 142.439C957.739 143.306 956.539 144.141 956.078 144.295C955.556 144.469 956.407 146.128 958.333 148.692C960.034 150.957 962.643 154.834 964.13 157.307C965.617 159.781 966.992 161.96 967.186 162.15C967.38 162.34 968.257 163.897 969.135 165.61C972.083 171.36 975.017 176.331 975.601 176.564C975.919 176.691 976.179 177.113 976.179 177.502C976.179 178.576 980.152 183.51 984.283 187.566C986.312 189.559 990.683 192.983 993.996 195.177C1001.46 200.121 1001.2 199.963 1007.75 203.316C1010.73 204.838 1013.32 206.292 1013.51 206.548C1013.71 206.803 1014.72 207.226 1015.76 207.488C1016.8 207.749 1017.66 208.241 1017.66 208.58C1017.66 208.92 1018.02 209.198 1018.46 209.198C1018.9 209.198 1021.46 210.253 1024.16 211.544C1026.86 212.834 1030.46 214.433 1032.17 215.097C1033.88 215.761 1036.26 216.729 1037.46 217.248C1038.66 217.767 1040.02 218.192 1040.48 218.192C1040.94 218.192 1042.76 218.637 1044.52 219.182C1052.01 221.494 1056.4 222.102 1077.45 223.733C1082.01 224.087 1093.37 224.384 1102.68 224.394C1121.66 224.413 1147.88 225.962 1156.26 227.558C1164.52 229.132 1175.97 232.169 1179.96 233.843C1181.21 234.368 1182.69 234.797 1183.25 234.797C1183.81 234.797 1184.81 235.097 1185.47 235.464C1187.05 236.339 1193.07 238.948 1193.51 238.948C1195.52 238.948 1208.45 248.743 1208.45 250.268C1208.45 250.473 1209.35 251.979 1210.44 253.616C1211.54 255.252 1213.06 257.992 1213.83 259.704C1214.6 261.417 1216.08 264.686 1217.12 266.969C1218.5 270.026 1219.09 272.627 1219.34 276.838C1219.56 280.489 1219.97 282.523 1220.46 282.464C1222.27 282.25 1222.97 282.609 1222.97 283.757C1222.97 284.428 1223.62 286.685 1224.42 288.773C1225.22 290.86 1226.29 293.658 1226.78 294.99C1228.04 298.329 1231.28 304.084 1232.63 305.368C1232.83 305.558 1234.74 307.893 1236.87 310.557C1242.58 317.685 1251.29 326.391 1259.54 333.216C1260.34 333.882 1261.28 334.426 1261.61 334.426C1261.95 334.426 1262.37 334.825 1262.56 335.312C1262.75 335.799 1264.1 336.811 1265.57 337.561C1267.04 338.311 1268.4 339.11 1268.59 339.338C1268.78 339.566 1272.2 341.32 1276.2 343.234C1289.95 349.83 1297.4 353.086 1298.92 353.167C1299.54 353.199 1299.27 353.461 1298.32 353.749C1296.59 354.271 1295.45 354.251 1281.73 353.47C1268.04 352.69 1250.25 348.315 1237.48 342.586C1235.01 341.477 1232.52 340.276 1231.95 339.918C1231.38 339.56 1230.18 338.95 1229.28 338.564C1227.07 337.611 1215.07 329.523 1214.79 328.788C1214.66 328.464 1214.12 328.2 1213.58 328.2C1212.31 328.2 1212.33 331.278 1213.63 337.194C1215.33 344.919 1214.51 363.32 1211.96 374.808C1211.35 377.556 1211.68 378.256 1215.41 382.092C1216 382.703 1217.71 384.76 1219.21 386.662C1220.7 388.564 1222.35 390.56 1222.85 391.096C1225.68 394.08 1227.01 397.41 1227.74 403.32C1229.39 416.857 1227.97 445.413 1225.41 449.738C1223.25 453.404 1224.15 454.12 1230.94 454.12C1235.49 454.12 1236.76 454.323 1236.38 454.985C1236.11 455.461 1236.89 454.916 1238.12 453.775L1240.35 451.699L1234.01 451.499C1228.35 451.32 1227.73 451.174 1228.16 450.115C1229.84 445.972 1231.43 424.095 1230.88 412.608C1230.41 402.978 1229.08 395.16 1227.83 394.743C1227.44 394.611 1227.11 394.206 1227.11 393.842C1227.11 392.901 1224.26 388.957 1220.17 384.241C1219.34 383.29 1217.66 381.266 1216.43 379.744C1213.93 376.664 1213.96 377.804 1216.05 362.447C1217.08 354.86 1216.7 336.168 1215.47 333.908C1214.76 332.6 1214.79 332.351 1215.68 332.351C1216.27 332.351 1216.74 332.635 1216.74 332.983C1216.74 333.517 1220 335.795 1225.2 338.901C1226.96 339.953 1236.81 344.811 1239.21 345.815C1240.35 346.29 1242.46 347.192 1243.9 347.818C1245.34 348.444 1247.07 348.956 1247.74 348.956C1248.41 348.956 1249.27 349.264 1249.64 349.641C1250.02 350.019 1251.72 350.62 1253.41 350.978C1255.11 351.337 1257.89 351.969 1259.6 352.384C1267.67 354.34 1269.32 354.653 1274.81 355.262C1284.42 356.327 1297.78 356.78 1303.58 356.236L1309 355.727L1307.38 354.417C1306.49 353.697 1305.35 353.107 1304.83 353.107C1304.32 353.107 1302.72 352.595 1301.28 351.969C1299.84 351.343 1297.66 350.4 1296.43 349.875C1282.76 344.032 1271.47 338.669 1270.1 337.367C1269.59 336.892 1268.88 336.502 1268.5 336.502C1267.57 336.502 1258.22 329.47 1258.22 328.766C1258.22 328.455 1257.93 328.2 1257.57 328.2C1256.12 328.2 1238.92 310.131 1233.92 303.354C1232.21 301.042 1227.11 291.448 1227.11 290.549C1227.11 290.327 1227.71 290.147 1228.45 290.147C1230.37 290.147 1232.64 286.902 1232.64 284.172C1232.64 282.15 1232.42 281.844 1230.92 281.844C1229.4 281.844 1229.19 282.144 1229.19 284.266C1229.19 286.368 1228.97 286.687 1227.51 286.687C1226.07 286.687 1225.67 286.147 1224.73 282.908C1224.13 280.828 1223.45 278.649 1223.23 278.064C1222.91 277.249 1223.32 277.001 1224.97 277.001C1226.81 277.001 1227.11 276.751 1227.11 275.218C1227.11 273.584 1226.9 273.454 1224.55 273.657L1221.99 273.877L1220.36 269.385C1219.47 266.915 1217.29 261.936 1215.54 258.32C1209.66 246.24 1206.21 242.782 1194.28 237.025C1191.62 235.741 1188.97 234.454 1188.4 234.166C1187 233.457 1172.47 228.962 1167.32 227.646C1152.74 223.916 1143.03 223.034 1108.56 222.309C1066.95 221.433 1049.28 219.579 1037.7 214.872C1036.75 214.486 1034.26 213.477 1032.17 212.631C1030.08 211.784 1026.76 210.354 1024.79 209.452C1022.81 208.551 1020.87 207.814 1020.46 207.814C1020.06 207.814 1019.73 207.502 1019.73 207.122C1019.73 206.741 1019.37 206.43 1018.94 206.43C1018.12 206.43 1012.03 203.599 1011.43 202.936C1011.24 202.726 1009.41 201.684 1007.35 200.622C996.944 195.247 980.333 182.336 980.328 179.62C980.327 179.145 980.053 178.755 979.719 178.755C979.385 178.755 978.725 177.821 978.253 176.68C977.78 175.538 977.12 174.604 976.786 174.604C976.452 174.604 976.179 174.318 976.179 173.968C976.179 173.619 974.312 170.169 972.031 166.301C967.556 158.714 967.125 157.544 969.22 158.667C973.048 160.717 979.448 158.805 984.103 154.222C989.558 148.851 990.881 145.76 990.969 138.193C991.041 131.944 991.014 131.838 988.368 127.992C986.897 125.855 983.852 122.477 981.6 120.485C978.622 117.851 977.187 115.965 976.335 113.562C975.69 111.746 974.925 110.26 974.634 110.26C974.343 110.26 974.105 109.833 974.105 109.312C974.105 107.667 967.556 99.2949 964.372 96.8678C962.691 95.5879 959.916 93.8347 958.205 92.9726C956.494 92.1105 954.524 91.1135 953.826 90.7579C952.32 89.9892 941.867 88.0817 939.886 88.2139C939.126 88.2651 936.482 88.6954 934.01 89.1701ZM863.979 128.062C863.803 128.735 863.648 128.352 863.634 127.211C863.621 126.069 863.764 125.518 863.953 125.987C864.143 126.455 864.154 127.389 863.979 128.062ZM948.053 129.011C945.065 129.876 944.63 131.725 946.657 134.954C947.566 136.403 948.224 137.9 948.119 138.281C948.014 138.661 949.362 140.021 951.115 141.303C954.006 143.418 954.379 143.528 955.143 142.482C956.111 141.158 955.826 139.446 953.974 135.456C953.093 133.555 952.807 131.913 953.102 130.44C953.497 128.461 953.38 128.255 951.897 128.311C950.995 128.345 949.264 128.66 948.053 129.011ZM935.739 130.013C933.077 130.518 929.091 130.95 926.879 130.974C922.436 131.02 920.047 131.926 920.594 133.354C920.791 133.868 920.019 135.074 918.879 136.035C916.515 138.025 916.724 138.857 919.338 137.862C920.315 137.49 926.272 137.224 932.574 137.27L944.034 137.353L943.882 135.741C943.422 130.869 942.801 128.943 941.712 129.018C941.088 129.061 938.4 129.508 935.739 130.013ZM967.192 130.324C968.093 130.907 968.081 130.996 967.099 131.006C966.479 131.011 964.846 132.261 963.472 133.783C962.098 135.306 960.79 136.551 960.565 136.551C959.885 136.551 957.562 133.5 957.537 132.575C957.484 130.595 964.928 128.859 967.192 130.324ZM950.496 131.881C950.251 133.156 951.303 136.03 952.522 137.42C953.615 138.665 953.31 139.792 952.085 139.035C951.292 138.545 947.836 132.514 947.836 131.621C947.836 131.288 948.472 131.016 949.249 131.016C950.026 131.016 950.587 131.405 950.496 131.881ZM940.923 132.343C940.923 132.692 941.093 133.419 941.299 133.958C941.611 134.773 940.107 134.942 932.37 134.96C924.785 134.977 923.132 134.806 923.427 134.036C923.68 133.377 925.177 133.076 928.381 133.04C930.907 133.012 934.373 132.739 936.084 132.435C940.535 131.642 940.923 131.635 940.923 132.343ZM989.313 241.024V244.483H992.769H996.226V241.024V237.564H992.769H989.313V241.024ZM995.535 241.024V243.791H992.769H990.004V241.024V238.256H992.769H995.535V241.024ZM1118.93 309.761C1116.29 311.211 1103.37 316.784 1097.5 319.003C1095.98 319.578 1094.01 320.332 1093.12 320.678C1089.72 322.002 1080.73 324.748 1071.92 327.155C1061.14 330.101 1045.89 333.187 1035.97 334.429C1032.93 334.81 1028.95 335.432 1027.13 335.812C1025.3 336.191 1022.42 336.502 1020.73 336.502H1017.66V339.432C1017.66 341.043 1017.17 345.947 1016.58 350.329C1015.09 361.429 1013.58 373.064 1013.27 375.939C1012.86 379.638 1011.53 388.694 1010.32 396.003C1004.47 431.513 1000.97 445.574 997.142 448.931C995.591 450.292 995.392 451.547 996.459 453.256C996.887 453.941 1018.06 454.12 1098.58 454.12C1179.34 454.12 1200.17 453.943 1200.23 453.256C1200.27 452.78 1200.24 451.51 1200.17 450.434C1200.03 448.37 1201.8 445.818 1203.37 445.818C1203.88 445.818 1204.3 445.584 1204.3 445.299C1204.3 445.013 1206.25 444.169 1208.62 443.423C1211 442.676 1213.12 441.821 1213.33 441.523C1213.54 441.225 1213.48 439.033 1213.19 436.654C1212.91 434.273 1212.34 429.524 1211.93 426.1C1210.72 415.879 1209.89 411.254 1208.97 409.514C1208.5 408.608 1206.55 406.701 1204.65 405.275C1194.44 397.617 1187 391.164 1177.51 381.738C1171.72 375.976 1166.97 370.912 1166.97 370.486C1166.97 370.061 1166.71 369.712 1166.38 369.712C1166.05 369.712 1164.43 367.844 1162.77 365.561C1161.11 363.278 1159.51 361.41 1159.21 361.41C1158.92 361.41 1158.68 360.943 1158.68 360.372C1158.68 359.801 1158.41 359.334 1158.09 359.334C1156.93 359.334 1153.08 352.295 1153.78 351.449C1154.6 350.463 1154.26 349.956 1150.74 346.929C1148.14 344.701 1145.06 340.918 1143.92 338.578C1143.64 338.007 1143.04 336.914 1142.58 336.149C1138.71 329.712 1135.17 323.294 1135.17 322.697C1135.17 322.299 1134.86 321.973 1134.48 321.973C1134.1 321.973 1133.79 321.605 1133.79 321.156C1133.79 319.807 1128.23 311.69 1126.04 309.85C1123.59 307.787 1122.54 307.773 1118.93 309.761ZM1125.61 312.475C1126.54 313.34 1127.52 314.507 1127.79 315.069C1128.06 315.632 1128.89 317.026 1129.64 318.167C1130.39 319.309 1131.34 321.015 1131.75 321.959C1132.16 322.902 1132.71 323.836 1132.97 324.035C1133.23 324.232 1134.16 325.795 1135.04 327.508C1135.91 329.22 1137.23 331.555 1137.97 332.697C1138.7 333.838 1139.64 335.545 1140.05 336.488C1140.46 337.431 1141 338.365 1141.27 338.564C1141.53 338.762 1142.47 340.265 1143.36 341.905C1144.77 344.486 1144.88 345.153 1144.16 346.879C1143.32 348.915 1143.74 350.681 1144.9 349.964C1145.25 349.745 1145.54 348.895 1145.54 348.075C1145.54 346.669 1145.61 346.651 1146.72 347.765C1147.65 348.687 1147.72 349.129 1147.07 349.781C1145.71 351.146 1146.11 351.903 1147.96 351.439C1148.96 351.189 1149.69 351.303 1149.69 351.71C1149.69 352.098 1149.38 352.415 1149 352.415C1148.62 352.415 1148.31 352.882 1148.31 353.453C1148.31 354.426 1149.05 354.765 1150.77 354.573C1151.17 354.528 1153.33 356.982 1155.57 360.026C1157.8 363.07 1159.89 365.561 1160.19 365.561C1160.5 365.561 1160.75 366.028 1160.75 366.599C1160.75 367.169 1161.01 367.636 1161.32 367.636C1161.64 367.636 1162.9 369.034 1164.13 370.742C1167.86 375.946 1184.09 391.961 1192.2 398.436C1194.09 399.952 1196.27 401.761 1197.04 402.456C1197.8 403.152 1199.28 404.23 1200.33 404.854C1201.37 405.478 1202.23 406.232 1202.23 406.531C1202.23 406.829 1202.54 407.073 1202.91 407.073C1205.28 407.073 1208.45 412.416 1208.45 416.422C1208.45 417.665 1208.89 421.129 1209.43 424.121C1210.86 432.092 1211.3 440.277 1210.3 440.307C1209.85 440.32 1208.24 440.931 1206.72 441.667C1205.2 442.402 1203.57 443.014 1203.09 443.027C1202.62 443.04 1202.23 443.362 1202.23 443.742C1202.23 444.123 1201.81 444.434 1201.3 444.434C1199.72 444.434 1197.87 447.093 1197.93 449.275L1197.99 451.353H1098.02H998.058L999.434 449.796C1002.64 446.172 1007.04 429.97 1010.39 409.495C1011.01 405.689 1011.82 401.162 1012.2 399.436C1012.57 397.708 1013.13 394.128 1013.46 391.479C1014.25 384.904 1015.46 376.202 1016.65 368.298C1017.2 364.666 1017.66 360.619 1017.67 359.303C1017.68 357.988 1018.13 354.422 1018.68 351.377C1019.23 348.333 1019.69 344.208 1019.71 342.21L1019.73 338.578H1022.37C1025.84 338.578 1046.1 335.399 1055.68 333.351C1063.73 331.63 1073.08 329.327 1077.8 327.906C1079.89 327.275 1082.84 326.442 1084.36 326.056C1085.89 325.669 1087.43 325.059 1087.79 324.701C1088.15 324.342 1089.08 324.046 1089.86 324.044C1090.64 324.041 1092.17 323.574 1093.26 323.006C1094.35 322.438 1095.63 321.973 1096.11 321.973C1096.59 321.973 1098.49 321.33 1100.35 320.544C1104.71 318.699 1105.78 318.253 1109.94 316.556C1111.84 315.781 1115.26 314.197 1117.55 313.034C1122.53 310.497 1123.41 310.435 1125.61 312.475ZM776.509 332.351C775.261 333.492 774.08 334.426 773.887 334.426C773.693 334.426 773.124 334.837 772.623 335.338C772.122 335.841 770.703 337.101 769.47 338.138C767.31 339.957 767.245 340.164 767.672 343.8C768.182 348.148 767.036 356.694 765.556 359.571C764.999 360.653 764.645 361.617 764.768 361.714C766.999 363.465 772.709 365.531 776.052 365.797C778.334 365.978 780.9 366.347 781.755 366.616C783.301 367.103 783.311 367.061 783.28 359.934C783.264 355.989 782.945 350.426 782.573 347.572C782.2 344.718 781.729 340.359 781.526 337.886C780.822 329.327 780.367 328.824 776.509 332.351ZM780.218 347.69C780.779 352.131 781.237 357.605 781.237 359.854V363.945L777.262 363.672C775.076 363.522 772.118 362.874 770.689 362.231C767.853 360.956 767.839 360.856 769.57 354.084C769.968 352.528 770.19 348.921 770.062 346.067C769.805 340.283 769.73 340.423 775.361 336.158L778.818 333.54L779.008 336.578C779.113 338.248 779.657 343.249 780.218 347.69ZM704.632 361.157C702.079 363.171 698.974 367.701 698.974 369.415C698.974 372.174 704.512 377.701 710.526 380.943C712.674 382.101 714.874 381.982 714.874 380.708C714.874 380.368 715.263 380.08 715.738 380.067C717.466 380.021 719.834 377.41 719.396 376.031C719.165 375.3 719.501 373.383 720.145 371.773C721.307 368.866 721.304 368.837 719.65 367.561C718.734 366.854 717.363 366.073 716.602 365.825C715.842 365.577 715.064 365.182 714.874 364.946C714.684 364.711 713.207 363.621 711.59 362.524C709.974 361.427 708.652 360.26 708.652 359.932C708.652 358.818 706.934 359.342 704.632 361.157ZM709.647 364.109C709.857 364.448 711.352 365.411 712.969 366.248C717.53 368.608 718.356 369.555 717.596 371.555C717.239 372.493 716.948 374.118 716.948 375.164C716.948 376.63 716.433 377.311 714.701 378.134C712.159 379.342 710.245 378.823 707.277 376.122C706.33 375.26 705.345 374.555 705.087 374.555C704.829 374.555 703.939 373.456 703.109 372.112C701.277 369.146 701.608 367.357 704.548 364.349C706.285 362.57 706.972 362.263 707.992 362.81C708.693 363.186 709.438 363.77 709.647 364.109ZM808.44 434.717C807.624 435.061 806.745 435.686 806.485 436.105C806.21 436.552 805.11 436.696 803.823 436.456C802.616 436.23 800.074 436.407 798.173 436.849C793.816 437.861 783.518 439.202 768.466 440.714C758.217 441.744 755.154 441.787 744.271 441.05C737.417 440.585 727.837 439.748 722.981 439.187L714.151 438.168L711.014 440.566C709.288 441.885 707.523 443.082 707.091 443.226C706.623 443.381 706.374 444.775 706.472 446.677C706.599 449.135 706.352 450.03 705.398 450.573C704.41 451.136 704.314 451.532 704.926 452.527C705.645 453.698 707.782 453.785 739.835 453.946C764.597 454.07 773.924 454.33 773.779 454.891C773.669 455.317 774.082 456.433 774.695 457.37C775.309 458.308 775.642 459.517 775.435 460.057C774.921 461.397 776.086 461.292 777.773 459.848C779.463 458.4 779.536 457.064 778.019 455.386C776.92 454.17 777.095 454.12 782.512 454.12C785.81 454.12 788.15 454.408 788.15 454.812C788.15 455.783 791.433 455.68 791.759 454.699C791.935 454.17 793.675 453.943 796.829 454.039C800.854 454.161 801.823 454.43 802.827 455.709C803.486 456.548 803.885 457.623 803.713 458.099C803.509 458.664 804.098 458.964 805.413 458.964C807.892 458.964 808.407 458.221 807.528 455.908C807.155 454.925 807.074 454.108 807.35 454.092C807.626 454.076 809.818 453.999 812.222 453.919C816.393 453.781 816.716 453.642 819.307 450.861C821.438 448.574 822.023 447.404 822.023 445.425C822.023 443.409 821.803 442.987 820.929 443.322C820.328 443.554 819.55 443.742 819.201 443.742C818.852 443.742 818.566 444.493 818.566 445.411C818.566 447.82 814.774 450.9 812.986 449.942C811.958 449.392 811.653 448.48 811.653 445.958C811.653 443.275 811.342 442.453 809.922 441.386C807.818 439.804 808.69 438.207 811.658 438.207C813.044 438.207 813.675 437.79 813.965 436.681C814.184 435.841 814.275 435.066 814.168 434.958C813.556 434.346 809.706 434.184 808.44 434.717ZM827.859 436.286C828.451 437.132 828.936 438.431 828.936 439.174C828.936 440.44 828.828 440.423 827.207 438.899C825.511 437.304 824.848 434.748 826.131 434.748C826.49 434.748 827.267 435.44 827.859 436.286ZM803.428 439.072C803.467 439.548 803.44 440.985 803.368 442.266C803.277 443.906 803.869 445.473 805.372 447.568C806.546 449.203 807.506 450.658 807.506 450.799C807.506 450.942 804.858 451.132 801.623 451.222C795.932 451.382 795.714 451.33 794.944 449.641C793.952 447.46 793.361 447.457 790.789 449.623L788.735 451.353H748.694H708.652V447.894C708.652 445.28 708.906 444.434 709.689 444.434C710.26 444.434 710.726 444.153 710.726 443.811C710.726 443.468 711.738 442.597 712.973 441.876C714.719 440.858 715.864 440.679 718.111 441.072C719.701 441.351 725.456 441.913 730.9 442.322C736.343 442.731 744.277 443.367 748.53 443.736C753.629 444.178 758.575 444.169 763.047 443.708C766.778 443.324 772.942 442.711 776.744 442.346C780.546 441.982 784.743 441.368 786.071 440.983C787.4 440.598 789.888 440.253 791.601 440.217C793.315 440.18 796.272 439.75 798.173 439.261C802.777 438.077 803.346 438.056 803.428 439.072ZM808.863 443.366C809.322 443.92 809.486 444.717 809.227 445.137C808.771 445.876 806.888 444.097 806.837 442.878C806.8 442.012 807.976 442.296 808.863 443.366ZM781.237 456.196C780.287 456.941 779.863 457.556 780.296 457.565C780.73 457.573 781.818 456.968 782.716 456.219C784.839 454.448 783.496 454.428 781.237 456.196Z" fill="#FBD951" stroke="#FBD951" stroke-width="0.5"/>
<path data-draw="line" d="M578 451C493.039 440.712 407.38 442.273 321.753 442.273C262.941 442.273 204.128 442.273 145.316 442.273C105.169 442.273 65.0221 442.273 24.875 442.273C10.0135 442.273 0.49592 440.915 -12 435" stroke="#FBD951" stroke-width="3" stroke-linecap="round"/>
<path data-draw="line" d="M1239 453C1323.96 442.712 1409.62 444.273 1495.25 444.273C1554.06 444.273 1612.87 444.273 1671.68 444.273C1711.83 444.273 1751.98 444.273 1792.13 444.273C1806.99 444.273 1816.5 442.915 1829 437" stroke="#FBD951" stroke-width="3" stroke-linecap="round"/>
</g>
<defs>
<clipPath id="clip0_umSonAoFaz">
<rect width="1329" height="532" fill="white"/>
</clipPath>
</defs>
</svg>
