<svg width="300" height="101" viewBox="0 0 300 101" fill="none" xmlns="http://www.w3.org/2000/svg">
<path fill-rule="evenodd" clip-rule="evenodd" d="M234.874 26.6448C234.874 26.5877 234.874 24.6864 234.881 24.615C235.491 13.7636 246.183 12.012 247.677 11.8801V0.0083404C244.064 -0.198559 220.678 3.30089 220.916 26.6198C220.927 26.6198 220.941 26.6448 220.941 26.6448H214.246V38.0849H220.87V82.4861H234.881V38.0849H249.708L263.626 63.7618L243.478 100.893H259.512L279.674 63.751L259.537 26.6591H234.859L234.874 26.6448ZM283.93 26.6448L275.298 42.6866L283.26 57.3336L300 26.6198H283.941L283.93 26.6448ZM134.612 57.6582C133.944 60.6137 132.449 63.3155 130.303 65.4448C128.157 67.5744 125.45 69.0423 122.5 69.6762C110.687 72.2803 100.354 62.0209 102.984 50.3062C103.652 47.3518 105.146 44.6511 107.291 42.5218C109.435 40.3925 112.141 38.9235 115.089 38.2882C126.898 35.6841 137.239 45.9435 134.612 57.6582ZM130.377 26.7197C114.858 20.8338 102.448 30.0372 102.448 30.0372L99.9846 26.7411H88.5546V101H102.363V77.7132C102.363 77.7132 109.86 83.2424 119.87 83.2424C137.122 83.2424 150.958 68.4491 149.187 50.9768C148.087 40.0932 140.686 30.6365 130.391 26.7304L130.377 26.7197ZM168.572 45.7045C168.657 45.5261 172.253 38.1705 183.516 38.1705C194.861 38.1705 198.461 45.6902 198.461 45.7045H168.572ZM183.577 24.4474C167.266 24.4474 154.043 37.6033 154.043 53.8413C154.043 70.0722 167.266 83.2281 183.577 83.2281C192.557 83.2281 204.2 78.7477 210.405 66.0341H193.704C192.781 66.8403 191.706 67.5822 190.449 68.1958C188.283 69.2096 185.917 69.7194 183.527 69.6869C173.35 69.6869 169.335 61.946 169.119 59.7843H212.496C212.553 59.2385 212.631 58.6892 212.709 58.1362C212.833 57.2623 212.958 56.3812 213 55.4858C213.944 37.5926 199.621 24.4581 183.598 24.4581L183.577 24.4474ZM66.9688 82.5681H80.8055V26.7304H66.9723V82.5681H66.9688ZM33.9565 69.6762C36.9042 69.0409 39.6098 67.5719 41.7541 65.4426C43.8989 63.3134 45.3933 60.6126 46.061 57.6582C48.6878 45.9435 38.3475 35.6841 26.5341 38.2882C23.5864 38.9235 20.8808 40.3925 18.7363 42.5218C16.5917 44.6511 15.0974 47.3518 14.4296 50.3062C11.8028 62.0209 22.1431 72.2803 33.9601 69.6762H33.9565ZM13.8936 30.0337C13.8936 30.0337 26.3069 20.8302 41.8262 26.7161L41.8369 26.7304C52.131 30.6365 59.5357 40.0932 60.6326 50.9768C62.4039 68.4491 48.5706 83.2388 31.3155 83.2388C21.2947 83.2388 13.7977 77.7132 13.7977 77.7132V101H0V26.7411H11.4301L13.8936 30.0337Z" fill="black"/>
</svg>
