<svg width="300" height="41" viewBox="0 0 300 41" fill="none" xmlns="http://www.w3.org/2000/svg">
<path fill-rule="evenodd" clip-rule="evenodd" d="M0 1.75933V7.20049H8.98462L26.5672 39.9551H48.2036L65.7862 7.14611L74.7694 7.08986L74.7889 1.75933H47.9104V7.10849H55.0684L42.6525 30.3944L29.2249 7.18969L39.0188 7.14611L39.0015 1.75933H0Z" fill="#0D3896"/>
<path fill-rule="evenodd" clip-rule="evenodd" d="M173.402 1.75933V7.20049H182.384L199.967 39.9551H221.604L239.187 7.14611L248.171 7.08986L248.187 1.75933H221.313V7.10849H228.468L216.053 30.3944L202.624 7.18969L212.421 7.14611L212.402 1.75933H173.402Z" fill="#0D3896"/>
<path fill-rule="evenodd" clip-rule="evenodd" d="M129.193 1.75933V7.20049H138.176L138.191 33.9418H128.721V39.9022L138.198 39.9555H183.052V22.1759H177.209C176.889 31.5894 168.668 33.9545 165.206 33.9545C162.033 33.9545 155.885 33.9422 155.885 33.9422V7.18969L164.733 7.14573L164.721 1.75896L129.193 1.75933Z" fill="#0D3896"/>
<path fill-rule="evenodd" clip-rule="evenodd" d="M98.553 35.0638C93.1699 35.0638 88.8083 28.6586 88.8083 20.7533C88.8083 12.8462 93.1699 6.43612 98.553 6.43612C103.935 6.43612 108.298 12.8462 108.298 20.7533C108.298 28.6586 103.935 35.0638 98.553 35.0638ZM98.949 0.661942C83.679 0.661942 71.3006 9.69404 71.3006 20.8312C71.3006 31.969 83.6786 41 98.949 41C114.218 41 126.598 31.969 126.598 20.8312C126.598 9.69404 114.218 0.661942 98.949 0.661942Z" fill="#0D3896"/>
<path fill-rule="evenodd" clip-rule="evenodd" d="M271.956 34.9621C266.574 34.9621 262.213 28.4507 262.213 20.4147C262.213 12.3817 266.575 5.8688 271.956 5.8688C277.338 5.8688 281.698 12.3817 281.698 20.4147C281.699 28.4503 277.338 34.9621 271.956 34.9621ZM272.354 0C257.08 0 244.705 9.17924 244.705 20.4981C244.705 31.8167 257.08 40.994 272.354 40.994C287.621 40.994 300 31.8167 300 20.4981C300 9.17924 287.621 0 272.354 0Z" fill="#0D3896"/>
</svg>
