<svg width="300" height="145" viewBox="0 0 300 145" fill="none" xmlns="http://www.w3.org/2000/svg">
<path d="M154.74 51.1172V64.2383H150.546V51.1172C148.541 51.1172 145.924 51.1081 144.935 51.0712L131.019 51.108C129.843 51.1693 128.631 50.8965 127.538 50.2681C125.426 49.0483 124.287 46.7894 124.379 44.5213C124.382 44.1872 124.422 43.8929 124.462 43.66C124.955 40.8832 125.931 38.1461 127.416 35.5747C128.903 32.9879 130.795 30.7658 132.966 28.9452C134.42 27.8663 136.458 27.33 138.332 27.6579C138.862 25.8649 140.104 24.3845 141.721 23.5386C142.03 23.3608 142.315 23.2413 142.553 23.1555C145.706 22.0122 149.107 21.3931 152.64 21.3931C156.194 21.3931 159.607 22.0184 162.779 23.1739C164.604 23.9677 166.229 25.6259 166.912 27.6028C168.699 27.1921 170.551 27.5936 172.012 28.7001C174.176 30.5238 176.383 32.9849 177.871 35.5717C179.352 38.1432 180.329 40.8772 180.825 43.657C180.868 43.89 180.901 44.1842 180.901 44.5183C180.996 46.7863 179.86 49.0453 177.745 50.2651C176.652 50.8935 175.443 51.1662 174.265 51.105L160.351 51.0682C159.359 51.1081 156.748 51.1172 154.74 51.1172ZM169.627 32.1573C169.602 32.1388 169.578 32.1206 169.56 32.1022C168.895 31.5995 167.968 31.5106 167.202 31.955C166.801 32.188 166.504 32.5312 166.324 32.9266L159.274 45.2233C159.057 45.5451 159.035 45.9803 159.243 46.342C159.451 46.7067 159.853 46.9029 160.247 46.8661L174.405 46.9059C174.822 46.9427 175.259 46.8508 175.648 46.624C176.389 46.1979 176.772 45.398 176.707 44.598C176.714 44.5429 176.714 44.4754 176.695 44.3927C176.282 42.0879 175.474 39.8136 174.237 37.6712C172.994 35.5196 171.427 33.6714 169.627 32.1573ZM135.73 32.1052C135.709 32.1205 135.688 32.1388 135.666 32.1603C133.866 33.6744 132.296 35.5226 131.053 37.6742C129.816 39.8166 129.008 42.0908 128.598 44.3957C128.579 44.4784 128.576 44.5428 128.583 44.601C128.515 45.401 128.904 46.2009 129.642 46.627C130.034 46.8538 130.465 46.9457 130.888 46.909L145.042 46.8691C145.437 46.9059 145.838 46.7097 146.05 46.345C146.258 45.9833 146.227 45.5481 146.013 45.2263L138.966 32.9296C138.788 32.5343 138.492 32.191 138.087 31.958C137.322 31.5167 136.395 31.6025 135.73 32.1052ZM161.447 27.1583C161.417 27.146 161.38 27.1307 161.346 27.1185C158.631 26.1315 155.698 25.5921 152.643 25.5921C149.603 25.5921 146.689 26.1254 143.983 27.1062C143.888 27.143 143.815 27.1767 143.757 27.2196C142.866 27.6365 142.254 28.5407 142.254 29.5919C142.254 30.1467 142.425 30.6647 142.719 31.0907L151.462 46.161C151.67 46.6054 152.12 46.915 152.644 46.915C153.155 46.915 153.599 46.6208 153.81 46.1886L162.559 31.1152C162.868 30.6799 163.048 30.1527 163.048 29.5796C163.048 28.4946 162.393 27.5567 161.447 27.1583ZM152.643 0C176.264 0 195.414 19.1718 195.414 42.8206C195.414 66.4733 176.264 85.6412 152.643 85.6412C129.02 85.638 109.876 66.4725 109.876 42.8206C109.876 19.171 129.021 0 152.643 0ZM152.643 4.07947C131.27 4.07947 113.947 21.4246 113.947 42.8207C113.947 64.2167 131.271 81.565 152.643 81.565C174.017 81.565 191.337 64.2199 191.337 42.8207C191.334 21.4238 174.013 4.07947 152.643 4.07947ZM229.534 107.104L226.115 107.104V119.915H229.534C233.416 119.915 236.554 116.771 236.554 112.89C236.554 109.01 233.003 107.104 229.534 107.104ZM252.074 133.938V134.29C252.074 134.174 252.08 134.057 252.074 133.938ZM252.074 134.293V144.997H236.542V134.637C236.548 134.524 236.554 134.41 236.554 134.294C236.554 130.414 233.41 127.269 229.535 127.269H226.115V144.997H210.056V102.188H241.385C247.287 102.188 252.075 106.979 252.075 112.888C252.075 118.798 247.29 123.588 241.385 123.588C247.173 123.588 251.891 128.192 252.075 133.939C252.081 134.058 252.075 134.175 252.075 134.294L252.074 134.293ZM300 127.122H273.797V137.972H300V145H258V102.176H300V109.204H273.797V120.094H300V127.122ZM178.338 120.094H204.523V127.122H178.338V144.999H162.545V102.176H204.523V109.204H178.338V120.094ZM134.528 107.096L131.102 107.096V119.911H134.528C138.495 119.911 141.547 116.766 141.547 112.886C141.547 109.002 138.088 107.096 134.528 107.096ZM144.602 102.192C151.487 102.192 157.071 107.779 157.071 114.673C157.071 121.566 151.487 127.154 144.602 127.154H130.836V144.992H115.046V102.193L144.602 102.192ZM83.7765 108.59L77.3633 130.943H90.1896L83.7765 108.59ZM57.5423 144.998L69.8238 102.175H97.7293L110.014 144.998H94.221L92.2067 137.97H75.3519L73.3345 144.998H57.5423ZM0 144.999V102.176H15.793L26.2342 123.585L36.6755 102.176L52.4685 102.179V145H36.6755V123.585L26.2342 145L15.793 123.585V145L0 144.999Z" fill="#BE002F"/>
</svg>
