<svg width="220" height="112" viewBox="0 0 220 112" fill="none" xmlns="http://www.w3.org/2000/svg">
<path d="M16.614 66.5273L16.9169 67.1081C16.8324 67.1392 16.7558 67.1888 16.6929 67.2533C16.6299 67.3178 16.5822 67.3955 16.5531 67.4808C16.524 67.566 16.5144 67.6567 16.5248 67.7462C16.5353 67.8357 16.5656 67.9218 16.6136 67.998C16.6437 68.0767 16.6909 68.1477 16.7517 68.206C16.8124 68.2643 16.8853 68.3084 16.9651 68.3353C17.0449 68.3622 17.1297 68.3711 17.2134 68.3615C17.297 68.3518 17.3775 68.3238 17.4491 68.2794C18.2329 67.8707 17.4161 66.195 18.589 65.5832C18.727 65.5095 18.879 65.4655 19.0351 65.4542C19.1911 65.4428 19.3479 65.4643 19.4951 65.5172C19.6424 65.5702 19.7769 65.6534 19.89 65.7616C20.0031 65.8697 20.0923 66.0004 20.1517 66.1451C20.2377 66.2876 20.2923 66.4468 20.3119 66.612C20.3315 66.7773 20.3156 66.9448 20.2653 67.1035C20.215 67.2621 20.1314 67.4081 20.0201 67.5319C19.9089 67.6557 19.7725 67.7542 19.6201 67.8211L19.3172 67.2403C19.394 67.2126 19.4637 67.1682 19.5214 67.1105C19.5791 67.0528 19.6234 66.9831 19.6511 66.9063C19.6788 66.8295 19.6893 66.7476 19.6818 66.6663C19.6743 66.5851 19.649 66.5064 19.6077 66.4361C19.5825 66.3667 19.5424 66.3038 19.4904 66.2515C19.4383 66.1993 19.3754 66.1591 19.3061 66.1338C19.2369 66.1084 19.1629 66.0985 19.0894 66.1047C19.0159 66.1109 18.9446 66.1331 18.8806 66.1698C18.1081 66.5728 18.9729 68.2305 17.7493 68.8688C17.4403 69.0081 17.0892 69.0213 16.7706 68.9058C16.452 68.7903 16.191 68.555 16.0431 68.25C15.8953 67.9451 15.8722 67.5945 15.9788 67.2728C16.0854 66.9511 16.3133 66.6836 16.614 66.5273Z" fill="#8A0538"/>
<path d="M18.2619 69.4046L19.7732 68.3703C19.9074 68.2488 20.0668 68.1585 20.24 68.1059C20.4132 68.0532 20.5959 68.0394 20.775 68.0656C20.9541 68.0917 21.1252 68.1571 21.2762 68.2571C21.4271 68.357 21.554 68.4891 21.648 68.6438C21.7591 68.7865 21.838 68.9515 21.8793 69.1275C21.9205 69.3036 21.9231 69.4865 21.8868 69.6636C21.8506 69.8408 21.7764 70.008 21.6693 70.1537C21.5622 70.2994 21.4249 70.4202 21.2666 70.5077L20.9077 69.9828C21.3164 69.6568 21.3814 69.3351 21.1407 68.9834C20.9288 68.6738 20.584 68.6091 20.143 68.9108L18.6316 69.9452C18.1961 70.2434 18.1315 70.5881 18.3506 70.9082C18.5947 71.2651 18.9236 71.3175 19.3685 71.0669L19.7276 71.5918C19.5868 71.7062 19.4229 71.7889 19.2472 71.8342C19.0715 71.8794 18.888 71.8862 18.7095 71.854C18.5309 71.8218 18.3614 71.7515 18.2125 71.6477C18.0636 71.544 17.9389 71.4093 17.8469 71.253C17.7364 71.1098 17.6588 70.944 17.6196 70.7674C17.5805 70.5908 17.5807 70.4078 17.6204 70.2313C17.66 70.0548 17.738 69.8892 17.8489 69.7463C17.9598 69.6035 18.1008 69.4868 18.2619 69.4046Z" fill="#8A0538"/>
<path d="M23.0876 70.6422L19.6864 73.5145L19.272 73.0238L22.6731 70.1516L23.0876 70.6422Z" fill="#8A0538"/>
<path d="M22.5178 75.5388L22.0991 75.9741L20.4818 74.4175L23.5686 71.2105L25.1398 72.723L24.7211 73.1582L23.6123 72.091L22.7172 73.0211L23.7387 74.0045L23.3287 74.4306L22.307 73.4472L21.3634 74.4276L22.5178 75.5388Z" fill="#8A0538"/>
<path d="M27.6967 74.5791L25.1414 78.225L24.6154 77.8564L25.0549 75.5004C25.1354 75.1529 25.2509 74.6668 25.3267 74.3703L25.3037 74.3698C25.0846 74.7599 24.7272 75.3251 24.4864 75.6688L23.5008 77.0751L22.9798 76.7101L25.5354 73.0641L26.0613 73.4328L25.5965 75.88C25.5344 76.2015 25.4326 76.635 25.3679 76.9157L25.3907 76.9162C25.6009 76.5277 25.9529 75.9589 26.1793 75.636L27.1761 74.214L27.6967 74.5791Z" fill="#8A0538"/>
<path d="M29.9569 76.4143L29.1265 75.9988L27.4079 79.4336L26.8219 79.1405L28.5408 75.7057L27.7161 75.2931L27.9894 74.7471L30.2299 75.8684L29.9569 76.4143Z" fill="#8A0538"/>
<path d="M31.2006 76.2159L29.588 80.3659L28.9893 80.1332L30.6016 75.9832L31.2006 76.2159Z" fill="#8A0538"/>
<path d="M32.5261 80.3593L31.394 80.038L30.9533 80.8453L30.3048 80.6612L32.5975 76.6834L33.2645 76.8728L33.1256 81.4618L32.4832 81.2794L32.5261 80.3593ZM32.5608 79.7477L32.6181 78.5209C32.6368 78.222 32.6858 77.7929 32.7194 77.5579L32.701 77.5527C32.6063 77.7704 32.4287 78.1629 32.2814 78.4253L31.6918 79.5011L32.5608 79.7477Z" fill="#8A0538"/>
<path d="M34.4318 81.0638L33.7819 82.4505L33.4079 82.3749L33.8336 80.9429L34.4318 81.0638Z" fill="#8A0538"/>
<path d="M36.6186 77.5725L37.2901 77.6315L37.6074 80.1238C37.6616 80.5244 37.6936 80.9613 37.7255 81.3217L37.7509 81.3239C37.8455 80.9748 37.9593 80.5506 38.0764 80.165L38.8298 77.7669L39.4949 77.8252L38.0155 82.1643L37.3187 82.1032L36.6186 77.5725Z" fill="#8A0538"/>
<path d="M40.5114 77.8218L40.4853 82.2728L39.8432 82.269L39.8693 77.8179L40.5114 77.8218Z" fill="#8A0538"/>
<path d="M43.5516 78.3727L42.6235 78.4064L42.7625 82.2456L42.1077 82.2692L41.9689 78.43L41.0471 78.4633L41.0251 77.853L43.5296 77.7624L43.5516 78.3727Z" fill="#8A0538"/>
<path d="M45.7991 81.0687L44.6314 81.2125L44.539 82.1274L43.87 82.2097L44.4368 77.6544L45.1249 77.5697L46.7799 81.8515L46.117 81.9331L45.7991 81.0687ZM45.5935 80.4917L45.1696 79.3392C45.071 79.0565 44.9493 78.6422 44.8891 78.4125L44.8701 78.4149C44.8673 78.6522 44.8561 79.0829 44.8225 79.3819L44.6971 80.602L45.5935 80.4917Z" fill="#8A0538"/>
<path d="M51.0983 80.0937L51.2749 80.6713L49.1282 81.3275L47.8271 77.0709L49.9128 76.4333L50.0894 77.0109L48.6179 77.4608L48.9952 78.6953L50.3512 78.2807L50.5241 78.8462L49.1681 79.2607L49.5659 80.562L51.0983 80.0937Z" fill="#8A0538"/>
<path d="M52.655 75.8727L51.811 76.2599L53.4127 79.7515L52.8172 80.0246L51.2155 76.533L50.3774 76.9175L50.1227 76.3626L52.4004 75.3178L52.655 75.8727Z" fill="#8A0538"/>
<path d="M54.6491 74.5612L55.4459 75.6251L56.5202 74.8204L56.8711 75.2887L55.797 76.0933L56.9562 77.6406L56.4423 78.0258L53.7727 74.4629L55.4524 73.2044L55.8148 73.688L54.6491 74.5612Z" fill="#8A0538"/>
<path d="M56.2314 72.4404L59.2799 75.6838L58.8121 76.1236L55.7635 72.8804L56.2314 72.4404Z" fill="#8A0538"/>
<path d="M56.7551 71.9568L57.4646 71.1076C57.5703 70.9536 57.7089 70.8251 57.8702 70.7312C58.0316 70.6373 58.2119 70.5803 58.3979 70.5645C58.584 70.5487 58.7712 70.5744 58.9461 70.6397C59.1211 70.705 59.2793 70.8083 59.4095 70.9422L60.6883 72.0106C60.844 72.1143 60.9748 72.2512 61.0713 72.4114C61.1678 72.5716 61.2276 72.7513 61.2465 72.9374C61.2653 73.1235 61.2427 73.3115 61.1802 73.4878C61.1178 73.6641 61.017 73.8244 60.8853 73.9572L60.1717 74.8113L56.7551 71.9568ZM60.4167 73.5658C60.4879 73.4906 60.5413 73.4002 60.5726 73.3015C60.604 73.2028 60.6126 73.0982 60.5977 72.9957C60.5829 72.8932 60.545 72.7953 60.487 72.7095C60.4289 72.6238 60.3522 72.5522 60.2625 72.5003L59.0034 71.4483C58.9367 71.3699 58.8531 71.3077 58.7587 71.2665C58.6644 71.2253 58.5619 71.2062 58.4591 71.2106C58.3563 71.215 58.2558 71.2429 58.1654 71.292C58.0749 71.3412 57.9969 71.4103 57.9373 71.4942L57.6356 71.8554L60.1151 73.9269L60.4167 73.5658Z" fill="#8A0538"/>
<path d="M63.1061 69.7038L63.6196 70.022L62.4375 71.9304L58.6531 69.5862L59.8017 67.7318L60.3154 68.05L59.505 69.3583L60.6025 70.0381L61.3492 68.8326L61.8519 69.144L61.1051 70.3496L62.262 71.0663L63.1061 69.7038Z" fill="#8A0538"/>
<path d="M62.878 68.8325L63.1546 68.2389C63.2307 68.2871 63.3166 68.3177 63.4061 68.3285C63.4956 68.3393 63.5863 68.3299 63.6717 68.3011C63.757 68.2723 63.8349 68.2248 63.8995 68.162C63.9642 68.0993 64.014 68.0229 64.0453 67.9384C64.0894 67.8667 64.1171 67.7861 64.1264 67.7024C64.1357 67.6187 64.1265 67.534 64.0993 67.4543C64.0721 67.3746 64.0276 67.3019 63.9691 67.2414C63.9106 67.1809 63.8394 67.134 63.7606 67.1042C62.9596 66.7309 62.1266 68.3981 60.9275 67.8395C60.7851 67.7747 60.6578 67.6809 60.5539 67.5639C60.45 67.4469 60.3717 67.3095 60.3242 67.1604C60.2766 67.0114 60.2609 66.854 60.2779 66.6985C60.295 66.5429 60.3445 66.3927 60.4231 66.2575C60.4839 66.1026 60.577 65.9624 60.6962 65.8464C60.8155 65.7303 60.9581 65.641 61.1146 65.5845C61.271 65.5279 61.4378 65.5054 61.6037 65.5184C61.7695 65.5314 61.9307 65.5797 62.0765 65.66L61.7998 66.2536C61.7311 66.2096 61.6535 66.1813 61.5726 66.1706C61.4917 66.16 61.4095 66.1672 61.3317 66.1919C61.2539 66.2166 61.1825 66.2581 61.1226 66.3134C61.0626 66.3688 61.0156 66.4366 60.9848 66.5122C60.9451 66.5744 60.9195 66.6444 60.9098 66.7176C60.9 66.7907 60.9064 66.865 60.9284 66.9354C60.9504 67.0058 60.9875 67.0705 61.0371 67.1251C61.0868 67.1796 61.1477 67.2226 61.2158 67.2512C62.0054 67.6192 62.795 65.9246 64.0457 66.5075C64.3447 66.6676 64.5694 66.9382 64.6719 67.2616C64.7744 67.585 64.7465 67.9356 64.5943 68.2388C64.442 68.5419 64.1774 68.7736 63.8568 68.8845C63.5362 68.9954 63.185 68.9768 62.878 68.8325Z" fill="#8A0538"/>
<path d="M40.3593 12.4215C40.727 12.6765 43.5863 14.5348 45.8578 12.3258C45.8739 12.3099 45.8865 12.291 45.8951 12.2701C45.9036 12.2493 45.9079 12.2269 45.9075 12.2043C45.9072 12.1818 45.9023 12.1596 45.8931 12.1389C45.884 12.1183 45.8708 12.0998 45.8543 12.0844C44.5687 10.8811 43.1709 9.80344 41.6801 8.8663C41.6698 8.86004 41.6614 8.85127 41.6555 8.84082C41.6497 8.83036 41.6466 8.81857 41.6466 8.80659V5.82477C41.6466 5.81551 41.6484 5.80634 41.652 5.79779C41.6555 5.78924 41.6607 5.78147 41.6672 5.77492C41.6738 5.76838 41.6816 5.76319 41.6901 5.75965C41.6987 5.75611 41.7078 5.75428 41.7171 5.75429H44.0199C44.0649 5.75429 44.108 5.73643 44.1398 5.70464C44.1716 5.67286 44.1894 5.62975 44.1894 5.58479V3.27029C44.1894 3.22533 44.1716 3.18222 44.1398 3.15043C44.108 3.11864 44.0649 3.10078 44.0199 3.10078H41.717C41.6983 3.10078 41.6804 3.09336 41.6672 3.08014C41.654 3.06692 41.6465 3.049 41.6465 3.0303V0.169493C41.6465 0.124543 41.6287 0.081434 41.5969 0.0496482C41.5651 0.0178625 41.522 3.53603e-06 41.477 0H39.1626C39.1176 0 39.0745 0.0178576 39.0427 0.0496438C39.011 0.0814299 38.9931 0.124541 38.9931 0.169493V3.0303C38.9931 3.049 38.9857 3.06692 38.9724 3.08014C38.9592 3.09336 38.9413 3.10078 38.9226 3.10078H36.6196C36.5747 3.10078 36.5316 3.11864 36.4998 3.15043C36.468 3.18222 36.4501 3.22533 36.4501 3.27029V5.58481C36.4501 5.62976 36.468 5.67286 36.4998 5.70465C36.5315 5.73643 36.5746 5.75429 36.6196 5.75429H38.9226C38.9319 5.75428 38.941 5.75611 38.9496 5.75965C38.9581 5.76319 38.9659 5.76838 38.9724 5.77492C38.979 5.78147 38.9842 5.78924 38.9877 5.79779C38.9913 5.80634 38.9931 5.81551 38.9931 5.82477V8.80666C38.9931 8.81864 38.99 8.83041 38.9841 8.84085C38.9782 8.8513 38.9698 8.86006 38.9596 8.8663C37.469 9.80325 36.0715 10.8806 34.7861 12.0837C34.7695 12.0992 34.7562 12.1178 34.747 12.1385C34.7378 12.1592 34.7328 12.1815 34.7325 12.2042C34.7321 12.2269 34.7364 12.2493 34.7449 12.2703C34.7535 12.2913 34.7662 12.3103 34.7823 12.3263C37.0537 14.5345 39.9127 12.6765 40.2803 12.4215C40.2919 12.4134 40.3057 12.409 40.3198 12.409C40.3339 12.409 40.3477 12.4134 40.3593 12.4215Z" fill="#8A0538"/>
<path d="M40.3538 18.8879C40.8162 19.1432 45.8964 21.8281 49.6768 18.733C49.7053 18.7096 49.7253 18.6773 49.7338 18.6414C49.7422 18.6054 49.7386 18.5676 49.7235 18.5339C49.23 17.4616 48.6574 16.4275 48.0106 15.44C47.9951 15.4162 47.9739 15.3967 47.9489 15.3831C47.924 15.3695 47.896 15.3624 47.8676 15.3623H32.7719C32.7435 15.3624 32.7156 15.3695 32.6906 15.3831C32.6656 15.3967 32.6444 15.4162 32.6289 15.44C31.9821 16.4275 31.4096 17.4616 30.916 18.5339C30.9009 18.5676 30.8973 18.6054 30.9057 18.6414C30.9142 18.6774 30.9342 18.7096 30.9628 18.7331C34.7431 21.828 39.8234 19.1432 40.2857 18.8879C40.2962 18.8821 40.3079 18.8791 40.3198 18.8791C40.3317 18.8791 40.3434 18.8821 40.3538 18.8879Z" fill="#8A0538"/>
<path d="M29.8473 22.2578C29.8172 22.2577 29.7879 22.2479 29.7638 22.2298C29.7397 22.2118 29.7221 22.1864 29.7135 22.1576C29.4651 21.3483 28.951 20.6463 28.2545 20.1653L19.6115 14.1771C18.934 13.7078 18.0978 13.5268 17.2869 13.6739C16.476 13.8211 15.7567 14.2843 15.2873 14.9618L14.4805 16.1263L11.0906 13.9757C11.075 13.9658 11.0576 13.9591 11.0393 13.9559C11.0211 13.9527 11.0024 13.9532 10.9844 13.9572C10.9663 13.9612 10.9492 13.9688 10.9341 13.9794C10.9189 13.9901 10.906 14.0036 10.8961 14.0192L9.53662 16.1619C9.5267 16.1775 9.51996 16.195 9.51678 16.2132C9.5136 16.2314 9.51404 16.2501 9.51808 16.2682C9.52212 16.2863 9.52968 16.3034 9.54033 16.3185C9.55097 16.3336 9.5645 16.3465 9.58013 16.3565L12.8734 18.4458L5.50348 29.0833C5.49294 29.0985 5.48549 29.1157 5.48158 29.1337C5.47766 29.1518 5.47734 29.1705 5.48065 29.1887C5.48395 29.2069 5.49081 29.2243 5.50083 29.2399C5.51086 29.2555 5.52385 29.2689 5.53906 29.2794L13.9513 35.1077C13.982 35.129 14.0199 35.1372 14.0567 35.1305C14.0935 35.1238 14.1261 35.1029 14.1474 35.0722L23.3786 21.7697C23.8301 21.2576 24.4596 20.9366 25.1392 20.872C25.8189 20.8074 26.4976 21.004 27.0375 21.4219C27.5311 21.7642 27.904 22.2537 28.1029 22.8205C28.3019 23.3873 28.3167 24.0025 28.1453 24.5782C28.1392 24.5994 28.1283 24.6188 28.1135 24.635C28.0986 24.6512 28.0802 24.6637 28.0596 24.6716C28.0391 24.6794 28.017 24.6824 27.9951 24.6803C27.9733 24.6781 27.9522 24.671 27.9335 24.6593L24.8287 22.6897C24.798 22.6702 24.7609 22.6633 24.7253 22.6705C24.6896 22.6777 24.6581 22.6984 24.6374 22.7283L23.1887 24.8159C23.1779 24.8315 23.1703 24.8492 23.1665 24.8678C23.1626 24.8864 23.1626 24.9056 23.1664 24.9242C23.1701 24.9428 23.1776 24.9605 23.1884 24.9762C23.1992 24.9918 23.213 25.0051 23.229 25.0153L34.7461 32.3218C34.759 32.3299 34.7689 32.3421 34.7743 32.3564C34.7797 32.3706 34.7803 32.3863 34.7761 32.401C34.7718 32.4156 34.7629 32.4285 34.7507 32.4377C34.7385 32.4468 34.7237 32.4518 34.7084 32.4518H22.7031C22.6846 32.4518 22.6662 32.4554 22.6491 32.4625C22.632 32.4696 22.6165 32.48 22.6034 32.4931C22.5903 32.5062 22.5799 32.5217 22.5728 32.5388C22.5657 32.5559 22.5621 32.5742 22.5621 32.5928V43.7489C22.5621 43.7608 22.5591 43.7725 22.5534 43.7829C22.5476 43.7933 22.5394 43.8021 22.5294 43.8084L14.5046 48.8989C14.4922 48.9068 14.4776 48.9105 14.4629 48.9097C14.4482 48.9089 14.4342 48.9034 14.4227 48.8942C14.4113 48.885 14.403 48.8724 14.399 48.8582C14.3951 48.8441 14.3957 48.829 14.4007 48.8152C14.7259 47.8764 14.8044 46.8698 14.6285 45.892C14.4527 44.9141 14.0285 43.9979 13.3966 43.2312C12.7647 42.4645 11.9464 41.8731 11.0201 41.5137C10.0939 41.1544 9.0908 41.0391 8.10718 41.179C7.12356 41.3189 6.19241 41.7093 5.4031 42.3127C4.61379 42.9161 3.99281 43.7122 3.59977 44.6247C3.20672 45.5371 3.05481 46.5353 3.1586 47.5234C3.26239 48.5115 3.61841 49.4563 4.19248 50.2672C4.19896 50.2761 4.20319 50.2865 4.20479 50.2975C4.2064 50.3084 4.20534 50.3196 4.20171 50.33C4.19808 50.3404 4.19198 50.3498 4.18393 50.3574C4.17589 50.365 4.16613 50.3705 4.15549 50.3735C3.30002 50.626 2.51437 51.0725 1.85968 51.6783C1.205 52.284 0.698954 53.0328 0.380937 53.8661C0.0629195 54.6994 -0.058488 55.5949 0.0261653 56.4828C0.110819 57.3708 0.399249 58.2272 0.869003 58.9854C1.33876 59.7436 1.97716 60.3832 2.73452 60.8544C3.49188 61.3256 4.34775 61.6156 5.23552 61.7019C6.12329 61.7882 7.019 61.6684 7.85293 61.352C8.68685 61.0355 9.43649 60.5308 10.0435 59.8773C10.0509 59.8691 10.0603 59.8628 10.0707 59.859C10.0811 59.8551 10.0923 59.8539 10.1033 59.8553C10.1143 59.8567 10.1248 59.8607 10.1339 59.8671C10.143 59.8734 10.1504 59.8819 10.1556 59.8917C10.6253 60.7649 11.3111 61.503 12.1475 62.0354C12.9839 62.5679 13.9429 62.8769 14.9328 62.9329C15.9227 62.9889 16.9104 62.7901 17.8015 62.3554C18.6927 61.9207 19.4574 61.2647 20.0226 60.4501C20.5878 59.6354 20.9346 58.6895 21.0298 57.7025C21.125 56.7156 20.9655 55.7208 20.5665 54.8131C20.1675 53.9055 19.5423 53.1153 18.7507 52.5183C17.9591 51.9212 17.0277 51.5372 16.0453 51.4029C16.0309 51.4012 16.0174 51.3951 16.0066 51.3854C15.9958 51.3757 15.9883 51.3629 15.9851 51.3488C15.9818 51.3347 15.983 51.3199 15.9886 51.3065C15.9941 51.2931 16.0036 51.2817 16.0158 51.2739L22.4539 47.19C22.4645 47.1832 22.4768 47.1795 22.4894 47.1791C22.502 47.1787 22.5145 47.1817 22.5256 47.1877C22.5367 47.1938 22.5459 47.2028 22.5523 47.2136C22.5587 47.2245 22.5621 47.2369 22.5621 47.2495V54.5562C22.5368 56.8961 22.9742 59.218 23.8492 61.3884C24.7242 63.5588 26.0195 65.5348 27.6607 67.2029C29.3019 68.871 31.2567 70.1983 33.4125 71.1084C35.5684 72.0186 37.8829 72.4937 40.2229 72.5064C42.563 72.5191 44.8825 72.0691 47.0481 71.1824C49.2138 70.2957 51.1828 68.9898 52.842 67.3396C54.5012 65.6894 55.8179 63.7276 56.7164 61.5668C57.6149 59.4061 58.0775 57.0891 58.0776 54.749V47.2495C58.0776 47.2369 58.081 47.2245 58.0874 47.2137C58.0938 47.2028 58.1031 47.1939 58.1141 47.1878C58.1252 47.1817 58.1377 47.1787 58.1503 47.1791C58.1629 47.1795 58.1752 47.1833 58.1858 47.19L64.6239 51.2739C64.6361 51.2817 64.6456 51.2931 64.6511 51.3065C64.6566 51.3199 64.6579 51.3347 64.6546 51.3488C64.6514 51.3629 64.6439 51.3757 64.6331 51.3854C64.6223 51.3951 64.6088 51.4012 64.5944 51.4029C63.6119 51.5371 62.6802 51.921 61.8885 52.5181C61.0968 53.1151 60.4714 53.9053 60.0723 54.813C59.6731 55.7208 59.5135 56.7157 59.6087 57.7028C59.7039 58.6898 60.0507 59.6359 60.6159 60.4507C61.1812 61.2654 61.946 61.9215 62.8373 62.3563C63.7285 62.791 64.7163 62.9898 65.7064 62.9338C66.6964 62.8777 67.6555 62.5686 68.492 62.036C69.3284 61.5035 70.0143 60.7652 70.484 59.8919C70.4891 59.882 70.4966 59.8736 70.5057 59.8672C70.5148 59.8609 70.5253 59.8568 70.5364 59.8554C70.5474 59.854 70.5586 59.8553 70.569 59.8591C70.5795 59.8629 70.5888 59.8692 70.5963 59.8774C71.2033 60.5309 71.953 61.0354 72.7869 61.3518C73.6208 61.6681 74.5164 61.7878 75.4041 61.7014C76.2918 61.6151 77.1476 61.325 77.9049 60.8538C78.6621 60.3827 79.3005 59.7431 79.7702 58.9849C80.2399 58.2267 80.5282 57.3704 80.6129 56.4825C80.6975 55.5946 80.5761 54.6992 80.2581 53.8659C79.9401 53.0326 79.4341 52.284 78.7795 51.6782C78.1249 51.0725 77.3393 50.626 76.4839 50.3735C76.4733 50.3705 76.4635 50.365 76.4555 50.3574C76.4475 50.3498 76.4414 50.3405 76.4378 50.33C76.4341 50.3196 76.4331 50.3085 76.4347 50.2976C76.4363 50.2867 76.4405 50.2763 76.447 50.2674C77.1307 49.305 77.5025 48.156 77.5124 46.9756C77.5207 46.1306 77.3442 45.2941 76.9952 44.5245C76.6461 43.755 76.1331 43.071 75.492 42.5206C74.8508 41.9702 74.0971 41.5666 73.2836 41.3381C72.47 41.1097 71.6164 41.0618 70.7824 41.198C69.9485 41.3341 69.1544 41.6509 68.4557 42.1263C67.7571 42.6016 67.1708 43.2239 66.738 43.9496C66.3052 44.6754 66.0363 45.4869 65.9501 46.3275C65.8639 47.1681 65.9626 48.0174 66.2391 48.8159C66.2442 48.8296 66.2448 48.8446 66.2408 48.8588C66.2369 48.8729 66.2287 48.8855 66.2172 48.8947C66.2058 48.9039 66.1918 48.9093 66.1771 48.9101C66.1625 48.9109 66.1479 48.9072 66.1356 48.8993L58.1103 43.8086C58.1003 43.8022 58.0921 43.7934 58.0863 43.783C58.0806 43.7726 58.0776 43.7609 58.0776 43.749V32.5927C58.0776 32.5742 58.074 32.5559 58.0669 32.5388C58.0598 32.5217 58.0494 32.5061 58.0363 32.4931C58.0232 32.48 58.0077 32.4696 57.9906 32.4625C57.9735 32.4554 57.9552 32.4518 57.9366 32.4518H45.9313C45.9161 32.4518 45.9012 32.4468 45.889 32.4376C45.8768 32.4285 45.8679 32.4156 45.8636 32.4009C45.8594 32.3863 45.86 32.3706 45.8654 32.3564C45.8708 32.3421 45.8807 32.3299 45.8936 32.3218L57.4106 25.0154C57.4267 25.0052 57.4405 24.9919 57.4513 24.9762C57.462 24.9605 57.4695 24.9429 57.4733 24.9242C57.477 24.9056 57.477 24.8864 57.4732 24.8678C57.4693 24.8492 57.4617 24.8316 57.4509 24.8159L56.0022 22.7284C55.9815 22.6985 55.95 22.6778 55.9144 22.6706C55.8787 22.6634 55.8416 22.6703 55.8109 22.6898L52.7061 24.6594C52.6875 24.6711 52.6664 24.6782 52.6445 24.6804C52.6226 24.6825 52.6006 24.6795 52.58 24.6717C52.5595 24.6638 52.5411 24.6513 52.5262 24.6351C52.5113 24.6189 52.5004 24.5995 52.4943 24.5783C52.3229 24.0026 52.3378 23.3874 52.5367 22.8206C52.7356 22.2538 53.1085 21.7643 53.6022 21.422C54.1421 21.0041 54.8208 20.8075 55.5004 20.8721C56.18 20.9367 56.8095 21.2577 57.261 21.7698L66.4923 35.0722C66.5136 35.1029 66.5462 35.1239 66.583 35.1305C66.6198 35.1372 66.6577 35.129 66.6884 35.1077L75.1007 29.2794C75.1314 29.2581 75.1524 29.2255 75.1591 29.1887C75.1657 29.1519 75.1575 29.114 75.1362 29.0833L67.8079 18.5061C67.8025 18.4983 67.7987 18.4895 67.7968 18.4802C67.7949 18.4709 67.7949 18.4613 67.7968 18.452C67.7986 18.4427 67.8024 18.4338 67.8078 18.426C67.8132 18.4182 67.8201 18.4115 67.8281 18.4065L71.0594 16.3565C71.075 16.3466 71.0886 16.3337 71.0992 16.3185C71.1098 16.3034 71.1174 16.2863 71.1214 16.2682C71.1255 16.2502 71.1259 16.2315 71.1227 16.2132C71.1196 16.195 71.1128 16.1776 71.1029 16.1619L69.7434 14.0193C69.7335 14.0036 69.7206 13.9901 69.7055 13.9795C69.6903 13.9688 69.6732 13.9612 69.6551 13.9572C69.637 13.9532 69.6184 13.9527 69.6001 13.9559C69.5819 13.9591 69.5644 13.9658 69.5488 13.9758L66.2162 16.09C66.2008 16.0998 66.1823 16.1032 66.1644 16.0996C66.1466 16.096 66.1309 16.0856 66.1205 16.0707L65.3522 14.9618C64.8829 14.2843 64.1636 13.821 63.3526 13.6739C62.5417 13.5267 61.7055 13.7077 61.0281 14.1771L52.3852 20.1653C51.6886 20.6464 51.1745 21.3483 50.9261 22.1576C50.9175 22.1865 50.8998 22.2118 50.8757 22.2299C50.8516 22.2479 50.8223 22.2578 50.7922 22.2579L29.8473 22.2578ZM62.1233 24.9565L63.7595 23.8229C63.7671 23.8176 63.7736 23.8109 63.7786 23.8031C63.7836 23.7953 63.7871 23.7866 63.7887 23.7775C63.7904 23.7684 63.7902 23.7591 63.7882 23.75C63.7863 23.741 63.7826 23.7324 63.7773 23.7248L62.3009 21.5937C62.2796 21.563 62.2714 21.5251 62.2781 21.4883C62.2847 21.4515 62.3058 21.4188 62.3365 21.3975L63.7937 20.388C63.8089 20.3774 63.8261 20.37 63.8442 20.3661C63.8623 20.3621 63.8809 20.3618 63.8992 20.3651C63.9174 20.3684 63.9348 20.3753 63.9503 20.3853C63.9659 20.3954 63.9793 20.4083 63.9899 20.4236L65.4663 22.5545C65.4716 22.5622 65.4783 22.5686 65.4861 22.5737C65.4938 22.5787 65.5025 22.5821 65.5116 22.5838C65.5208 22.5854 65.5301 22.5853 65.5391 22.5833C65.5482 22.5813 65.5568 22.5776 65.5644 22.5723L67.2006 21.4387C67.2313 21.4174 67.2693 21.4092 67.306 21.4159C67.3428 21.4226 67.3755 21.4436 67.3968 21.4743L68.4063 22.9316C68.4169 22.9469 68.4243 22.964 68.4283 22.9821C68.4322 23.0002 68.4325 23.0189 68.4292 23.0371C68.4259 23.0553 68.419 23.0727 68.409 23.0882C68.399 23.1038 68.386 23.1172 68.3708 23.1278L66.7346 24.2614C66.7269 24.2667 66.7204 24.2734 66.7154 24.2812C66.7104 24.2889 66.707 24.2976 66.7053 24.3067C66.7037 24.3159 66.7038 24.3252 66.7058 24.3342C66.7078 24.3433 66.7115 24.3519 66.7168 24.3595L68.7769 27.3329C68.7874 27.3482 68.7949 27.3653 68.7988 27.3834C68.8027 27.4015 68.803 27.4202 68.7997 27.4384C68.7964 27.4566 68.7896 27.474 68.7795 27.4896C68.7695 27.5051 68.7565 27.5186 68.7413 27.5291L67.284 28.5387C67.2688 28.5493 67.2517 28.5567 67.2336 28.5606C67.2155 28.5646 67.1968 28.5649 67.1786 28.5616C67.1604 28.5583 67.143 28.5514 67.1274 28.5414C67.1119 28.5314 67.0984 28.5184 67.0879 28.5031L65.0278 25.5297C65.0225 25.522 65.0158 25.5156 65.008 25.5105C65.0002 25.5055 64.9915 25.5021 64.9824 25.5004C64.9733 25.4988 64.964 25.4989 64.9549 25.5009C64.9459 25.5029 64.9373 25.5066 64.9297 25.5119L63.2935 26.6455C63.2627 26.6668 63.2248 26.675 63.188 26.6683C63.1512 26.6616 63.1186 26.6406 63.0973 26.6099L62.0876 25.1527C62.0771 25.1375 62.0696 25.1203 62.0657 25.1022C62.0618 25.0842 62.0615 25.0655 62.0648 25.0472C62.0681 25.029 62.075 25.0116 62.085 24.9961C62.095 24.9805 62.1081 24.967 62.1233 24.9565ZM18.552 25.1527L17.5424 26.6099C17.5211 26.6407 17.4884 26.6617 17.4516 26.6684C17.4149 26.675 17.3769 26.6668 17.3462 26.6455L15.71 25.5119C15.7024 25.5066 15.6938 25.5029 15.6848 25.501C15.6757 25.499 15.6664 25.4988 15.6573 25.5005C15.6482 25.5021 15.6395 25.5056 15.6317 25.5106C15.6239 25.5156 15.6172 25.5221 15.6119 25.5297L13.5518 28.5032C13.5305 28.5339 13.4978 28.555 13.4611 28.5616C13.4243 28.5683 13.3863 28.5601 13.3556 28.5388L11.8984 27.5292C11.8832 27.5186 11.8702 27.5052 11.8602 27.4896C11.8501 27.4741 11.8433 27.4567 11.84 27.4384C11.8367 27.4202 11.837 27.4015 11.8409 27.3834C11.8448 27.3654 11.8523 27.3482 11.8628 27.333L13.9229 24.3595C13.9282 24.3519 13.9319 24.3433 13.9339 24.3343C13.9358 24.3253 13.936 24.3159 13.9344 24.3068C13.9327 24.2977 13.9293 24.289 13.9243 24.2812C13.9192 24.2734 13.9127 24.2667 13.9051 24.2614L12.2689 23.1278C12.2536 23.1173 12.2407 23.1038 12.2306 23.0883C12.2206 23.0727 12.2137 23.0553 12.2104 23.0371C12.2071 23.0189 12.2075 23.0002 12.2114 22.9821C12.2153 22.964 12.2227 22.9469 12.2333 22.9317L13.2429 21.4744C13.2642 21.4437 13.2969 21.4227 13.3336 21.416C13.3704 21.4093 13.4084 21.4175 13.4391 21.4388L15.0753 22.5725C15.0829 22.5777 15.0915 22.5815 15.1005 22.5834C15.1096 22.5854 15.1189 22.5855 15.128 22.5839C15.1372 22.5822 15.1458 22.5788 15.1536 22.5738C15.1614 22.5688 15.1681 22.5623 15.1734 22.5547L16.6498 20.4237C16.6711 20.3929 16.7037 20.3719 16.7405 20.3652C16.7773 20.3586 16.8153 20.3668 16.846 20.3881L18.3032 21.3977C18.3339 21.419 18.3549 21.4516 18.3616 21.4884C18.3683 21.5252 18.3601 21.5631 18.3388 21.5938L16.8624 23.7249C16.8517 23.7403 16.8476 23.7592 16.851 23.7776C16.8543 23.796 16.8648 23.8123 16.8802 23.823L18.5164 24.9566C18.5471 24.9779 18.5681 25.0105 18.5748 25.0473C18.5814 25.0841 18.5732 25.122 18.552 25.1527ZM6.07846 59.3849C5.3717 59.4424 4.66431 59.2817 4.05182 58.9243C3.43933 58.567 2.95125 58.0303 2.65351 57.3868C2.35577 56.7432 2.26271 56.0238 2.3869 55.3256C2.51108 54.6275 2.84653 53.9843 3.34794 53.4829C3.84935 52.9815 4.49256 52.646 5.1907 52.5218C5.88884 52.3976 6.60828 52.4907 7.25184 52.7884C7.8954 53.0862 8.43209 53.5743 8.78941 54.1867C9.14673 54.7992 9.30747 55.5066 9.24993 56.2134C9.18315 57.0322 8.82757 57.8007 8.24665 58.3816C7.66573 58.9625 6.89729 59.3181 6.07846 59.3849ZM9.20433 50.3712C8.49757 50.4288 7.79017 50.268 7.17768 49.9107C6.5652 49.5534 6.07713 49.0167 5.77939 48.3731C5.48166 47.7296 5.3886 47.0101 5.51279 46.312C5.63699 45.6138 5.97244 44.9706 6.47385 44.4692C6.97527 43.9678 7.61848 43.6324 8.31662 43.5082C9.01476 43.384 9.7342 43.4771 10.3778 43.7748C11.0213 44.0726 11.558 44.5607 11.9153 45.1732C12.2726 45.7856 12.4334 46.493 12.3758 47.1998C12.309 48.0186 11.9535 48.7871 11.3725 49.368C10.7916 49.9489 10.0232 50.3045 9.20433 50.3712ZM18.7126 56.8655C18.7702 57.5722 18.6094 58.2796 18.2521 58.8921C17.8948 59.5046 17.3581 59.9927 16.7145 60.2904C16.071 60.5882 15.3515 60.6812 14.6534 60.557C13.9553 60.4328 13.312 60.0974 12.8106 59.596C12.3092 59.0946 11.9738 58.4514 11.8496 57.7532C11.7254 57.0551 11.8185 56.3357 12.1162 55.6921C12.4139 55.0485 12.902 54.5118 13.5145 54.1545C14.127 53.7972 14.8344 53.6365 15.5411 53.694C16.36 53.7608 17.1284 54.1164 17.7093 54.6973C18.2903 55.2782 18.6458 56.0466 18.7126 56.8655ZM31.8655 26.9918C33.2709 27.4306 34.7572 27.5471 36.2139 27.3327C37.6706 27.1184 39.0603 26.5786 40.2797 25.7535C40.2914 25.745 40.3054 25.7405 40.3198 25.7405C40.3342 25.7405 40.3482 25.745 40.3599 25.7535C41.5793 26.5786 42.969 27.1184 44.4257 27.3327C45.8824 27.5471 47.3686 27.4306 48.7741 26.9918C48.7903 26.9864 48.808 26.987 48.8237 26.9937C48.8395 27.0004 48.8523 27.0127 48.8596 27.0281C48.867 27.0436 48.8684 27.0612 48.8636 27.0777C48.8589 27.0941 48.8483 27.1082 48.8338 27.1174L40.5143 32.3953C40.4562 32.4322 40.3887 32.4518 40.3198 32.4518C40.2509 32.4518 40.1834 32.4322 40.1252 32.3953L31.8057 27.1174C31.7912 27.1082 31.7806 27.0941 31.7759 27.0776C31.7711 27.0612 31.7725 27.0436 31.7799 27.0281C31.7872 27.0126 31.8 27.0004 31.8158 26.9937C31.8316 26.987 31.8492 26.9863 31.8655 26.9918ZM55.964 54.748C55.9638 56.8095 55.5562 58.8507 54.7646 60.7541C53.973 62.6576 52.8129 64.3858 51.3512 65.8395C49.8895 67.2932 48.1549 68.4436 46.2471 69.2247C44.3393 70.0058 42.2959 70.4022 40.2344 70.391C38.173 70.3798 36.134 69.9613 34.2348 69.1595C32.3356 68.3577 30.6136 67.1885 29.1677 65.7191C27.7219 64.2496 26.5807 62.5089 25.8098 60.5969C25.0389 58.685 24.6534 56.6395 24.6756 54.5782V34.7063C24.6756 34.6878 24.6793 34.6695 24.6864 34.6524C24.6934 34.6352 24.7038 34.6197 24.7169 34.6066C24.73 34.5935 24.7455 34.5831 24.7626 34.5761C24.7798 34.569 24.7981 34.5653 24.8166 34.5653H55.823C55.8415 34.5653 55.8599 34.569 55.877 34.5761C55.8941 34.5831 55.9096 34.5935 55.9227 34.6066C55.9358 34.6197 55.9462 34.6352 55.9533 34.6524C55.9603 34.6695 55.964 34.6878 55.964 34.7063V54.748ZM65.6605 60.5991C64.9538 60.6566 64.2464 60.4958 63.6339 60.1385C63.0214 59.7812 62.5333 59.2445 62.2356 58.601C61.9379 57.9574 61.8448 57.238 61.969 56.5398C62.0932 55.8417 62.4286 55.1985 62.93 54.6971C63.4314 54.1957 64.0747 53.8602 64.7728 53.736C65.4709 53.6118 66.1904 53.7049 66.8339 54.0026C67.4775 54.3004 68.0142 54.7885 68.3715 55.4009C68.7288 56.0134 68.8896 56.7208 68.832 57.4276C68.7652 58.2464 68.4097 59.0149 67.8287 59.5958C67.2478 60.1767 66.4794 60.5323 65.6605 60.5991ZM68.2637 47.1998C68.2062 46.493 68.367 45.7856 68.7243 45.1731C69.0816 44.5606 69.6183 44.0726 70.2618 43.7748C70.9054 43.4771 71.6248 43.384 72.323 43.5082C73.0211 43.6324 73.6643 43.9678 74.1657 44.4693C74.6671 44.9707 75.0026 45.6139 75.1268 46.312C75.251 47.0102 75.1579 47.7296 74.8602 48.3731C74.5624 49.0167 74.0743 49.5534 73.4619 49.9107C72.8494 50.268 72.142 50.4288 71.4352 50.3712C70.6164 50.3045 69.8479 49.9489 69.267 49.368C68.6861 48.787 68.3305 48.0186 68.2637 47.1998ZM75.1232 59.3849C74.4165 59.4424 73.7091 59.2817 73.0966 58.9243C72.4841 58.567 71.996 58.0303 71.6983 57.3868C71.4005 56.7432 71.3075 56.0238 71.4317 55.3256C71.5558 54.6275 71.8913 53.9843 72.3927 53.4829C72.8941 52.9815 73.5373 52.646 74.2355 52.5218C74.9336 52.3976 75.653 52.4907 76.2966 52.7884C76.9402 53.0862 77.4769 53.5743 77.8342 54.1867C78.1915 54.7992 78.3522 55.5066 78.2947 56.2134C78.2279 57.0322 77.8723 57.8007 77.2914 58.3816C76.7105 58.9625 75.9421 59.3181 75.1232 59.3849Z" fill="#8A0538"/>
<path d="M102.241 42.3694V16.9995H111.768C117.131 16.9995 121.119 20.7044 121.119 25.7149C121.119 30.5842 117.131 34.3244 111.768 34.3244H108.769V42.3694H102.241ZM108.769 28.2553H111.662C112.019 28.2898 112.379 28.2486 112.718 28.1343C113.058 28.0199 113.37 27.8351 113.633 27.5919C113.896 27.3487 114.105 27.0526 114.246 26.7231C114.386 26.3935 114.456 26.038 114.45 25.6797C114.457 25.3196 114.388 24.962 114.248 24.6301C114.108 24.2983 113.9 23.9996 113.637 23.7533C113.375 23.5071 113.063 23.3189 112.723 23.2009C112.382 23.0829 112.021 23.0378 111.662 23.0684H108.769V28.2553Z" fill="#8A0538"/>
<path d="M123.377 30.7959V16.9995H129.94V30.7959C129.896 31.5299 130.002 32.2652 130.252 32.9566C130.503 33.648 130.892 34.2809 131.396 34.8163C131.9 35.3518 132.508 35.7784 133.183 36.07C133.858 36.3617 134.586 36.5121 135.321 36.5121C136.056 36.5121 136.784 36.3617 137.459 36.07C138.134 35.7784 138.742 35.3518 139.246 34.8163C139.75 34.2809 140.139 33.648 140.39 32.9566C140.64 32.2652 140.746 31.5299 140.702 30.7959V16.9995H147.23V30.7959C147.211 33.9468 145.946 36.9623 143.712 39.1838C141.477 41.4053 138.454 42.6523 135.303 42.6523C132.152 42.6523 129.129 41.4053 126.895 39.1838C124.66 36.9623 123.396 33.9468 123.377 30.7959Z" fill="#8A0538"/>
<path d="M149.912 29.6668C149.897 27.9292 150.236 26.2069 150.906 24.6038C151.576 23.0007 152.564 21.5501 153.811 20.3397C155.058 19.1294 156.537 18.1843 158.159 17.5617C159.781 16.9391 161.513 16.6518 163.249 16.7173C166.248 16.6018 169.181 17.6078 171.478 19.539C173.774 21.4702 175.269 24.1879 175.67 27.1617H169.142C168.77 25.8956 167.992 24.7875 166.926 24.0092C165.861 23.2308 164.568 22.8258 163.249 22.8568C162.365 22.8453 161.487 23.0157 160.671 23.3576C159.855 23.6995 159.118 24.2054 158.506 24.844C157.894 25.4827 157.42 26.2403 157.113 27.07C156.806 27.8996 156.673 28.7835 156.722 29.6668C156.672 30.5519 156.805 31.4378 157.111 32.2696C157.417 33.1015 157.891 33.8616 158.503 34.5032C159.115 35.1447 159.851 35.654 160.668 35.9995C161.484 36.3451 162.363 36.5195 163.249 36.5122C164.568 36.5601 165.864 36.1609 166.927 35.3795C167.991 34.598 168.759 33.4802 169.107 32.2073H175.705C175.304 35.1873 173.804 37.9102 171.5 39.8422C169.196 41.7742 166.254 42.7762 163.249 42.6517C161.511 42.7133 159.778 42.4222 158.155 41.796C156.532 41.1697 155.053 40.2213 153.807 39.008C152.561 37.7946 151.573 36.3414 150.903 34.7359C150.234 33.1305 149.897 31.4061 149.912 29.6668Z" fill="#8A0538"/>
<path d="M178.881 42.3694V16.9995H188.408C193.771 16.9995 197.758 20.7044 197.758 25.7149C197.758 30.5842 193.771 34.3244 188.408 34.3244H185.408V42.3694H178.881ZM185.408 28.2553H188.302C188.658 28.2898 189.018 28.2486 189.358 28.1343C189.698 28.0199 190.009 27.8351 190.272 27.5919C190.536 27.3487 190.744 27.0526 190.885 26.7231C191.026 26.3935 191.096 26.038 191.089 25.6797C191.096 25.3196 191.028 24.962 190.888 24.6301C190.748 24.2983 190.54 23.9996 190.277 23.7533C190.014 23.5071 189.702 23.3189 189.362 23.2009C189.022 23.0829 188.661 23.0378 188.302 23.0684H185.408V28.2553Z" fill="#8A0538"/>
<path d="M200.687 42.3694V16.9995H210.073C215.366 16.9995 219.388 20.7397 219.388 25.5031C219.382 26.9871 218.968 28.4408 218.19 29.7045C217.412 30.9682 216.3 31.9929 214.978 32.666L219.706 42.3694H212.613L208.838 33.9011H207.179V42.3694H200.687ZM207.179 28.4671H209.755C210.15 28.5047 210.549 28.459 210.925 28.333C211.301 28.207 211.647 28.0035 211.939 27.7356C212.232 27.4678 212.465 27.1416 212.624 26.778C212.783 26.4144 212.864 26.0215 212.861 25.6248C212.859 25.2281 212.773 24.8363 212.61 24.4747C212.446 24.1131 212.209 23.7898 211.913 23.5257C211.617 23.2615 211.269 23.0623 210.891 22.9411C210.513 22.8198 210.115 22.779 209.72 22.8215H207.179V28.4671Z" fill="#8A0538"/>
<path d="M47.4369 45.8651L41.2572 49.4778C41.2324 49.4923 41.2043 49.4999 41.1757 49.5001C41.147 49.5002 41.1188 49.4927 41.094 49.4785C41.0691 49.4642 41.0485 49.4436 41.0341 49.4188C41.0197 49.394 41.0122 49.3659 41.0122 49.3372V42.6143C41.0122 42.5858 41.0196 42.5579 41.0338 42.5332C41.0479 42.5086 41.0683 42.488 41.0928 42.4737L47.2725 38.861C47.2972 38.8465 47.3254 38.8388 47.354 38.8387C47.3827 38.8386 47.4109 38.846 47.4357 38.8603C47.4606 38.8745 47.4812 38.8951 47.4956 38.9199C47.51 38.9447 47.5175 38.9729 47.5175 39.0015V45.7245C47.5175 45.7529 47.5101 45.7809 47.4959 45.8055C47.4818 45.8302 47.4614 45.8507 47.4369 45.8651Z" fill="#8A0538"/>
<path d="M33.2027 45.8651L39.3824 49.4778C39.4072 49.4923 39.4353 49.4999 39.4639 49.5001C39.4926 49.5002 39.5208 49.4927 39.5456 49.4785C39.5705 49.4642 39.5911 49.4436 39.6055 49.4188C39.6199 49.394 39.6274 49.3659 39.6274 49.3372V42.6143C39.6274 42.5858 39.62 42.5579 39.6058 42.5332C39.5917 42.5086 39.5713 42.488 39.5468 42.4737L33.3671 38.861C33.3423 38.8465 33.3142 38.8388 33.2856 38.8387C33.2569 38.8386 33.2287 38.846 33.2039 38.8603C33.179 38.8745 33.1584 38.8951 33.144 38.9199C33.1296 38.9447 33.1221 38.9729 33.1221 39.0015V45.7245C33.1221 45.7529 33.1295 45.7809 33.1437 45.8055C33.1578 45.8302 33.1782 45.8507 33.2027 45.8651Z" fill="#8A0538"/>
<path d="M52.319 57.6204L41.2572 64.0849C41.2324 64.0994 41.2043 64.107 41.1756 64.1072C41.147 64.1073 41.1188 64.0998 41.094 64.0856C41.0691 64.0713 41.0485 64.0507 41.0341 64.0259C41.0197 64.0011 41.0122 63.973 41.0122 63.9443V51.0986C41.0122 51.0702 41.0196 51.0423 41.0338 51.0176C41.0479 50.9929 41.0683 50.9724 41.0929 50.9581L52.1546 44.4935C52.1793 44.479 52.2074 44.4714 52.2361 44.4713C52.2648 44.4711 52.2929 44.4786 52.3178 44.4929C52.3426 44.5071 52.3633 44.5277 52.3777 44.5525C52.392 44.5773 52.3996 44.6054 52.3996 44.6341V57.4798C52.3996 57.5082 52.3921 57.5361 52.378 57.5608C52.3638 57.5855 52.3435 57.606 52.319 57.6204Z" fill="#8A0538"/>
<path d="M28.3206 57.6204L39.3824 64.0849C39.4072 64.0994 39.4353 64.107 39.4639 64.1072C39.4926 64.1073 39.5208 64.0998 39.5456 64.0856C39.5705 64.0713 39.5911 64.0507 39.6055 64.0259C39.6199 64.0011 39.6274 63.973 39.6274 63.9443V51.0986C39.6274 51.0702 39.62 51.0423 39.6058 51.0176C39.5917 50.9929 39.5713 50.9724 39.5467 50.9581L28.4849 44.4935C28.4602 44.479 28.4321 44.4714 28.4034 44.4713C28.3748 44.4711 28.3466 44.4786 28.3217 44.4929C28.2969 44.5071 28.2762 44.5277 28.2619 44.5525C28.2475 44.5773 28.24 44.6054 28.24 44.6341V57.4798C28.24 57.5082 28.2474 57.5362 28.2616 57.5608C28.2757 57.5855 28.2961 57.606 28.3206 57.6204Z" fill="#8A0538"/>
<path d="M59.7777 103.019L59.8552 104.092C59.8877 104.42 59.9001 104.642 59.9001 104.757L59.7009 104.794C59.4475 104.168 59.0437 103.614 58.5253 103.182C58.0264 102.817 57.42 102.628 56.8019 102.646C56.1426 102.618 55.4843 102.722 54.8657 102.951C54.1596 103.271 53.5623 103.791 53.1471 104.445C52.6558 105.212 52.4063 106.109 52.431 107.02C52.4226 107.552 52.5112 108.081 52.6924 108.582C52.8706 109.049 53.1206 109.485 53.4334 109.874C53.7529 110.275 54.1325 110.624 54.5587 110.908C54.8683 111.114 55.212 111.263 55.5737 111.348C55.8994 111.411 56.231 111.438 56.5626 111.428C56.8806 111.425 57.1971 111.384 57.505 111.304C57.7828 111.255 58.0462 111.145 58.2763 110.982C58.4392 110.868 58.5646 110.709 58.6368 110.524C58.7159 110.201 58.7476 109.868 58.7309 109.537C58.781 109.056 58.7256 108.571 58.5685 108.114C58.4592 107.972 58.1182 107.892 57.5445 107.847L57.2625 107.826L57.0725 107.832C57.04 107.826 57.0054 107.822 56.9567 107.815L56.8473 107.633C56.8585 107.6 56.8764 107.569 56.8999 107.542C57.4316 107.491 57.9659 107.472 58.4999 107.485C58.6823 107.485 58.98 107.493 59.3984 107.497L60.1221 107.531L60.783 107.525C60.9107 107.525 61.0612 107.531 61.242 107.538C61.2788 107.542 61.2934 107.548 61.3026 107.56C61.3141 107.577 61.3193 107.598 61.3172 107.619C61.3152 107.688 61.3049 107.756 61.2864 107.822C61.1346 107.858 60.9796 107.879 60.8236 107.884L60.3651 107.877C60.2945 107.874 60.2241 107.887 60.1591 107.915C60.0942 107.943 60.0364 107.985 59.9901 108.038C59.9208 108.206 59.896 108.389 59.9181 108.57L59.9224 109.5C59.9432 109.905 59.9189 110.311 59.8499 110.711C59.8185 110.819 59.7562 110.916 59.6708 110.989C59.4996 111.116 59.3099 111.216 59.1083 111.286C58.7486 111.436 58.3737 111.546 57.9901 111.615C57.3953 111.722 56.7921 111.777 56.1877 111.777C55.4061 111.803 54.6267 111.682 53.8894 111.421C53.3148 111.2 52.7914 110.863 52.3511 110.433C51.9635 110.066 51.6505 109.628 51.4293 109.143C51.1549 108.531 51.0134 107.868 51.0142 107.197C51.0216 106.347 51.2457 105.513 51.6653 104.773C52.1575 103.932 52.8937 103.261 53.7763 102.848C54.6536 102.465 55.6069 102.289 56.5628 102.333C57.2308 102.314 57.8983 102.383 58.5481 102.539C58.9777 102.643 59.3911 102.804 59.7777 103.019ZM61.9121 111.385C62.3024 111.351 62.6903 111.294 63.0737 111.214C63.1138 111.192 63.1492 111.162 63.1778 111.127C63.2064 111.091 63.2277 111.05 63.2404 111.007V110.924C63.2404 110.809 63.2626 110.382 63.3016 109.649C63.3097 109.442 63.3134 109.233 63.3134 109.041L63.2913 108.195L63.3069 107.246L63.3016 105.473L63.3069 104.201C63.3431 103.869 63.3007 103.534 63.1829 103.222C62.9975 103.058 62.7587 102.968 62.5112 102.968C62.3061 102.949 62.1031 102.912 61.9044 102.857C61.8858 102.846 61.8707 102.829 61.8606 102.81C61.8505 102.79 61.8458 102.769 61.847 102.747C61.8492 102.702 61.8576 102.657 61.8719 102.615C61.9714 102.559 62.0857 102.536 62.1989 102.549C62.2206 102.549 62.2839 102.539 62.3916 102.529C62.4901 102.518 62.5891 102.512 62.6882 102.512H63.2685L65.1314 102.493C65.8759 102.456 66.6215 102.533 67.3426 102.722C67.7518 102.872 68.1023 103.149 68.3434 103.512C68.5265 103.779 68.6472 104.084 68.6963 104.403C68.7455 104.723 68.7219 105.05 68.6273 105.359C68.5328 105.669 68.3697 105.953 68.1501 106.19C67.9306 106.428 67.6603 106.613 67.3594 106.732C67.234 106.798 67.1121 106.871 66.9941 106.95C67.1928 107.37 67.4151 107.779 67.6599 108.174L68.5594 109.712C68.7776 110.087 69.0254 110.444 69.3004 110.779C69.4443 110.928 69.6135 111.049 69.8001 111.138C70.119 111.263 70.4506 111.354 70.789 111.408C70.7911 111.453 70.7911 111.491 70.7911 111.519C70.7911 111.55 70.7911 111.584 70.789 111.623C70.1416 111.634 69.3853 111.634 68.5145 111.634C68.4297 111.635 68.345 111.631 68.2606 111.623C67.924 110.982 67.5353 110.279 67.0796 109.504L66.0322 107.596C65.9421 107.45 65.8249 107.323 65.6868 107.221C65.571 107.17 65.4457 107.146 65.3194 107.148L64.7223 107.156L64.5205 107.148C64.5101 107.298 64.5004 107.605 64.5004 108.074V110.491C64.4992 110.617 64.5172 110.743 64.5539 110.864C64.5958 110.955 64.6635 111.033 64.7488 111.087C65.0077 111.191 65.276 111.27 65.5499 111.324L65.8352 111.402C65.8761 111.455 65.8963 111.521 65.892 111.588C65.8038 111.609 65.7136 111.62 65.623 111.623C65.2013 111.623 64.9026 111.623 64.7326 111.608C64.6395 111.608 64.5676 111.602 64.5128 111.602L63.5505 111.615L62.6102 111.608C62.5676 111.608 62.3564 111.615 61.9694 111.628L61.8314 111.602L61.8173 111.532C61.8217 111.502 61.8324 111.473 61.8487 111.448C61.8651 111.422 61.8867 111.401 61.9121 111.385ZM64.5355 106.759C64.6617 106.763 64.7542 106.768 64.817 106.768C65.2116 106.765 65.6049 106.724 65.9916 106.645C66.2642 106.605 66.5236 106.501 66.7488 106.342C66.9607 106.183 67.1272 105.971 67.2317 105.728C67.3603 105.466 67.4275 105.178 67.4281 104.886C67.4182 104.524 67.3133 104.172 67.1239 103.864C66.9345 103.564 66.661 103.327 66.3374 103.182C65.9197 102.989 65.4627 102.896 65.0027 102.91C64.8382 102.908 64.6738 102.915 64.5101 102.931C64.4863 103.174 64.4776 103.364 64.4776 103.49L64.5145 104.811L64.5101 105.356C64.5101 105.724 64.5172 106.186 64.5355 106.759ZM74.6872 102.524C74.7077 102.584 74.7192 102.647 74.7212 102.711C74.7188 102.752 74.7119 102.793 74.7007 102.832C74.6044 102.864 74.5038 102.881 74.4024 102.882C74.3466 102.882 74.2909 102.878 74.2357 102.87C74.1611 102.87 74.0956 102.866 74.0496 102.866C73.8708 102.858 73.6934 102.9 73.5375 102.988C73.4984 103.011 73.4643 103.041 73.4372 103.076C73.41 103.112 73.3904 103.153 73.3795 103.197L73.3085 104.002L73.3296 107.503C73.3015 108.304 73.3437 109.106 73.4557 109.899C73.5253 110.186 73.6643 110.452 73.8607 110.672C74.0983 110.908 74.3911 111.082 74.7126 111.177C75.0673 111.306 75.4415 111.373 75.819 111.376C76.4521 111.41 77.0841 111.29 77.661 111.027C78.0652 110.821 78.3887 110.485 78.58 110.073C78.7964 109.478 78.8906 108.846 78.8572 108.214C78.8572 108.189 78.8501 108.001 78.8371 107.645V107.444C78.8371 107.369 78.8399 107.221 78.8501 107C78.8604 106.784 78.8685 106.653 78.8685 106.617L78.7613 104.582C78.7587 104.177 78.7186 103.773 78.6417 103.376C78.6068 103.266 78.5386 103.169 78.4464 103.1C78.1237 102.915 77.7681 102.795 77.3995 102.747C77.3794 102.679 77.3658 102.609 77.3589 102.539C77.5419 102.524 77.7259 102.512 77.9067 102.512C78.1048 102.511 78.3028 102.52 78.4999 102.539C78.8074 102.557 78.9784 102.569 79.007 102.569L80.127 102.539H80.3468L80.3343 102.795C79.9735 102.806 79.6194 102.896 79.2972 103.058C79.2328 103.136 79.1845 103.226 79.1554 103.323C79.1262 103.419 79.1166 103.521 79.1273 103.621C79.1273 103.771 79.1376 104.086 79.1586 104.574L79.2025 106.04L79.1982 106.62L79.2177 107.356C79.2319 107.988 79.2058 108.62 79.1398 109.249C79.0906 109.632 78.9823 110.006 78.8188 110.357C78.6729 110.642 78.4679 110.893 78.2174 111.092C77.9038 111.343 77.5425 111.527 77.1555 111.634C76.7363 111.776 76.2973 111.85 75.8548 111.854C75.3646 111.871 74.8743 111.824 74.3966 111.712C73.9288 111.583 73.4909 111.363 73.1073 111.066C72.8277 110.855 72.5993 110.584 72.4393 110.273C72.2511 109.785 72.1661 109.264 72.1898 108.742V108.248L72.1698 106.277L72.1898 104.68V103.6C72.2057 103.402 72.1677 103.205 72.0799 103.027C72.0549 102.99 72.021 102.96 71.9812 102.94C71.9415 102.919 71.8973 102.909 71.8526 102.91L71.4326 102.918C71.2312 102.937 71.0281 102.904 70.8437 102.82C70.8276 102.786 70.818 102.749 70.8156 102.711C70.8153 102.691 70.8195 102.671 70.8279 102.652C70.8363 102.634 70.8487 102.618 70.8642 102.605C70.9227 102.572 70.9892 102.555 71.0565 102.557H71.2334L71.7084 102.549H72.8322L74.6872 102.524ZM81.1262 102.581C81.1815 102.572 81.2373 102.566 81.2933 102.564C81.452 102.564 81.7139 102.569 82.0793 102.589C82.2774 102.594 82.4079 102.594 82.4826 102.594C82.5816 102.594 82.7971 102.589 83.1332 102.569L84.3391 102.499C84.6547 102.467 85.0184 102.452 85.4396 102.452C86.0452 102.43 86.6486 102.538 87.2094 102.767C87.6454 102.975 88.0011 103.321 88.2222 103.75C88.4495 104.161 88.5718 104.622 88.5784 105.092C88.5823 105.445 88.5158 105.796 88.3828 106.124C88.2498 106.451 88.053 106.749 87.8039 107C87.5301 107.273 87.2024 107.486 86.8417 107.625C86.481 107.764 86.0952 107.826 85.709 107.808C85.2864 107.825 84.8705 107.698 84.5291 107.448C84.452 107.406 84.3934 107.336 84.3645 107.253C84.3833 107.223 84.4103 107.198 84.4425 107.182C84.5125 107.183 84.5816 107.199 84.6455 107.227C84.8428 107.29 85.0493 107.317 85.256 107.309C85.6258 107.312 85.99 107.217 86.3115 107.035C86.6371 106.859 86.9004 106.586 87.0656 106.255C87.232 105.922 87.3189 105.556 87.3194 105.184C87.3182 104.81 87.2268 104.442 87.053 104.112C86.8876 103.782 86.6447 103.496 86.3451 103.28C86.114 103.135 85.8577 103.034 85.5894 102.983C85.3299 102.917 85.0645 102.878 84.7971 102.866C84.4459 102.832 84.0915 102.873 83.7578 102.988L83.7475 103.092L83.7735 103.886L83.7654 104.032C83.7578 104.157 83.7475 104.35 83.7475 104.612C83.7475 105.577 83.7654 106.175 83.793 106.409V106.808L83.8834 110.032C83.8834 110.08 83.8774 110.17 83.8655 110.3C83.8568 110.421 83.8509 110.536 83.8509 110.628C83.8445 110.8 83.8623 110.973 83.9039 111.141C84.0175 111.177 84.3527 111.253 84.8961 111.376C85.1467 111.441 85.2913 111.476 85.3129 111.486C85.3549 111.505 85.3899 111.536 85.4124 111.576C85.4044 111.629 85.3777 111.677 85.3372 111.712C85.2801 111.737 85.2181 111.748 85.1559 111.745C85.1024 111.745 84.9659 111.73 84.7608 111.712C84.444 111.673 84.1252 111.651 83.8059 111.647L82.5654 111.694L81.8185 111.672C81.774 111.672 81.6398 111.68 81.4091 111.685L81.4022 111.506L82.325 111.324C82.4252 111.307 82.5195 111.265 82.5989 111.201C82.6555 111.081 82.6798 110.948 82.6692 110.815C82.6692 110.77 82.6735 110.679 82.6741 110.536C82.6817 110.433 82.6817 110.3 82.6817 110.125C82.6817 109.569 82.6588 108.385 82.613 106.574C82.5918 105.724 82.5837 104.864 82.5837 103.988V103.864C82.6155 103.639 82.559 103.411 82.4262 103.227C82.0288 102.994 81.5795 102.863 81.119 102.847C81.1029 102.806 81.0924 102.762 81.0876 102.718C81.09 102.67 81.1033 102.623 81.1262 102.581ZM89.6267 107.084C89.6196 106.651 89.6766 106.219 89.796 105.802C89.941 105.373 90.1373 104.963 90.3807 104.582C90.641 104.159 90.9761 103.788 91.3696 103.486C91.8589 103.14 92.4018 102.876 92.9766 102.706C93.5686 102.532 94.184 102.452 94.8007 102.467C95.291 102.469 95.7788 102.536 96.2514 102.667C96.7055 102.791 97.1401 102.978 97.5428 103.222C97.9926 103.513 98.3866 103.881 98.706 104.311C98.9671 104.638 99.171 105.007 99.3091 105.402C99.4884 105.914 99.5787 106.453 99.5759 106.996C99.5877 107.517 99.5291 108.037 99.4016 108.543C99.2658 108.977 99.0619 109.386 98.7976 109.756C98.4711 110.169 98.0862 110.531 97.655 110.832C97.2504 111.127 96.798 111.35 96.3175 111.491C95.7601 111.663 95.1793 111.749 94.5956 111.745C94.0294 111.753 93.4649 111.68 92.9199 111.526C92.4869 111.409 92.0738 111.228 91.6944 110.989C91.3107 110.733 90.9692 110.419 90.6823 110.057C90.3376 109.659 90.0707 109.2 89.8952 108.703C89.7118 108.183 89.6208 107.635 89.6267 107.084ZM94.5329 111.486C94.9488 111.482 95.3624 111.426 95.7642 111.318C96.1781 111.216 96.5655 111.026 96.9009 110.763C97.2135 110.527 97.4766 110.231 97.675 109.893C97.884 109.496 98.0338 109.071 98.1199 108.63C98.2323 108.123 98.2892 107.604 98.2898 107.085C98.2902 106.441 98.1958 105.8 98.0095 105.184C97.866 104.712 97.6223 104.276 97.295 103.907C96.9662 103.534 96.5585 103.239 96.1015 103.042C95.6316 102.832 95.1219 102.725 94.6071 102.728C94.1795 102.729 93.755 102.802 93.3513 102.943C92.9851 103.064 92.6428 103.248 92.3397 103.486C92.0412 103.75 91.7914 104.065 91.6014 104.415C91.3725 104.836 91.2001 105.286 91.0888 105.752C90.9793 106.171 90.9195 106.602 90.9107 107.035C90.9192 107.483 90.9789 107.929 91.0888 108.363C91.1898 108.813 91.3518 109.246 91.5705 109.651C91.7734 110.008 92.0281 110.332 92.3261 110.614C92.6186 110.893 92.963 111.112 93.3399 111.259C93.7191 111.411 94.1243 111.488 94.5329 111.486Z" fill="#555555"/>
<path fill-rule="evenodd" clip-rule="evenodd" d="M104.063 111.556L104.083 111.073C104.486 111.066 104.878 110.94 105.21 110.711C105.363 110.442 105.446 110.139 105.453 109.829L105.54 107.304L105.65 104.738C105.655 104.582 105.66 104.489 105.66 104.453C105.698 104.064 105.659 103.671 105.544 103.297C105.272 103.121 104.96 103.017 104.637 102.996C104.505 102.968 104.4 102.943 104.323 102.922C104.313 102.825 104.308 102.727 104.309 102.629V102.399C104.483 102.395 104.692 102.382 104.928 102.382L107.002 102.452C107.045 102.46 107.114 102.467 107.197 102.474L107.525 102.484C107.616 102.601 107.697 102.726 107.768 102.857C107.94 103.209 108.17 103.713 108.458 104.376L108.537 104.568L109.639 106.97C109.67 107.027 109.709 107.109 109.762 107.221C109.834 107.383 109.906 107.548 109.986 107.697C110.059 107.854 110.137 108.021 110.223 108.208C110.312 108.39 110.385 108.557 110.45 108.697C110.522 108.576 110.588 108.451 110.645 108.323C110.838 107.892 111.013 107.493 111.198 107.124C111.509 106.478 111.934 105.5 112.469 104.176C112.553 103.962 112.692 103.645 112.893 103.222C113.084 102.787 113.194 102.564 113.212 102.539C113.288 102.494 113.378 102.474 113.466 102.484C113.513 102.484 113.585 102.478 113.683 102.478C113.932 102.46 114.229 102.446 114.571 102.439C115.065 102.434 115.461 102.422 115.76 102.395C116.067 102.369 116.233 102.357 116.27 102.357C116.319 102.357 116.374 102.363 116.44 102.369C116.444 102.434 116.444 102.492 116.444 102.524L116.433 102.736C116.433 102.783 116.433 102.847 116.427 102.931C116.052 102.974 115.686 103.074 115.341 103.227C115.148 103.325 115.052 103.441 115.052 103.583V103.691L115.171 105.857C115.188 106.052 115.224 107.042 115.287 108.817C115.303 109.211 115.335 109.708 115.381 110.324C115.39 110.398 115.395 110.462 115.395 110.5C115.403 110.614 115.421 110.683 115.468 110.718C115.514 110.751 115.939 110.884 116.741 111.129C116.746 111.209 116.749 111.259 116.749 111.298C116.749 111.402 116.746 111.501 116.741 111.594C116.615 111.594 116.291 111.576 115.777 111.519C115.296 111.463 114.812 111.435 114.327 111.436C113.643 111.436 112.981 111.458 112.332 111.519C112.249 111.532 112.165 111.537 112.084 111.542L112.099 111.054C112.348 110.96 112.608 110.894 112.872 110.859C113.035 110.851 113.189 110.783 113.304 110.667C113.39 110.427 113.422 110.171 113.397 109.918C113.397 109.763 113.393 109.626 113.388 109.504C113.365 109.006 113.35 108.323 113.344 107.444L113.226 104.937C113.212 104.582 113.193 104.336 113.175 104.205L111.412 108.253C111.369 108.344 111.306 108.485 111.222 108.66C111.115 108.891 111.038 109.054 111.003 109.136C110.636 110.012 110.385 110.679 110.241 111.144C110.202 111.259 110.148 111.416 110.07 111.609L109.524 111.594L109.144 110.512C109.028 110.227 108.836 109.802 108.566 109.22C108.4 108.882 108.278 108.615 108.186 108.406C108.151 108.345 108.121 108.281 108.098 108.214L108.009 108.038C108.006 108.014 107.998 107.991 107.985 107.97L106.934 105.697L106.29 104.311L106.227 107.665L106.181 109.841C106.156 110.113 106.227 110.384 106.383 110.608C106.631 110.817 106.933 110.953 107.254 111.001L107.593 111.087V111.609C107.297 111.603 107.001 111.581 106.707 111.543C106.398 111.511 105.976 111.491 105.459 111.491C105.35 111.491 104.883 111.511 104.063 111.556ZM116.815 111.556H116.945C117.279 111.556 117.613 111.529 117.944 111.477L118.235 111.421C119.343 111.501 120.038 111.543 120.336 111.543C120.345 111.487 120.35 111.432 120.35 111.376C120.35 111.311 120.348 111.196 120.341 111.022C120.045 110.982 119.877 110.955 119.831 110.945C119.611 110.937 119.398 110.872 119.211 110.756C119.176 110.722 119.149 110.681 119.132 110.635C119.115 110.589 119.11 110.54 119.115 110.491C119.135 110.318 119.18 110.148 119.249 109.987C119.563 109.097 119.772 108.543 119.872 108.318L122.576 108.323L123.135 109.708L123.416 110.41C123.44 110.471 123.452 110.536 123.452 110.602C123.451 110.662 123.428 110.72 123.386 110.763C123.254 110.827 123.114 110.875 122.971 110.905L122.181 111.073C122.165 111.231 122.159 111.391 122.161 111.55L122.511 111.537L123.715 111.477C123.879 111.458 124.15 111.453 124.517 111.453C124.856 111.453 125.239 111.477 125.656 111.506C126.074 111.537 126.461 111.556 126.815 111.556C126.818 111.486 126.818 111.437 126.818 111.402C126.815 111.285 126.803 111.169 126.781 111.054C126.581 110.973 126.372 110.916 126.159 110.884C126.012 110.878 125.869 110.829 125.749 110.744C125.654 110.647 125.581 110.53 125.536 110.402C125.388 110.107 125.258 109.803 125.148 109.492C124.978 109.046 124.849 108.717 124.758 108.493C124.596 108.123 124.406 107.645 124.186 107.067C123.958 106.479 123.709 105.878 123.431 105.261L122.199 102.342L122.139 102.214H121.366L118.254 110.37C118.185 110.523 118.087 110.66 117.966 110.776C117.758 110.875 117.536 110.941 117.307 110.97C117.075 111.01 116.922 111.048 116.832 111.073L116.815 111.556ZM120.153 107.576L121.177 104.834C121.32 105.134 121.498 105.556 121.728 106.11C121.954 106.673 122.141 107.163 122.284 107.588L122.103 107.596C121.901 107.596 121.255 107.588 120.153 107.576ZM127.127 111.126C127.115 111.198 127.108 111.271 127.107 111.344C127.107 111.376 127.113 111.453 127.121 111.57H127.426C127.699 111.569 127.973 111.552 128.244 111.519L129.218 111.453C129.274 111.453 129.362 111.448 129.485 111.448C129.675 111.448 130.276 111.491 131.292 111.584L131.578 111.57C131.605 111.57 131.661 111.576 131.752 111.576C131.774 111.403 131.784 111.229 131.781 111.054C131.472 110.935 131.153 110.843 130.828 110.779C130.647 110.748 130.471 110.688 130.309 110.602L130.354 109.265L130.322 107.69C130.319 107.529 130.326 107.367 130.341 107.207C130.565 107.197 130.73 107.189 130.822 107.189C131.075 107.168 131.33 107.219 131.556 107.337C131.759 107.573 131.926 107.838 132.051 108.123C132.557 109.125 132.909 109.853 133.121 110.319C133.198 110.491 133.34 110.756 133.541 111.112L133.777 111.576C133.852 111.563 133.959 111.556 134.083 111.543C134.357 111.511 134.529 111.491 134.577 111.491L135.287 111.501C135.474 111.498 135.661 111.51 135.846 111.537H136.136L136.507 111.584L136.649 111.576H136.842C136.845 111.511 136.847 111.453 136.847 111.416C136.846 111.343 136.832 111.27 136.805 111.202C136.652 111.103 136.488 111.023 136.316 110.963C136.121 110.904 135.939 110.809 135.779 110.683C135.562 110.421 135.374 110.138 135.218 109.837L134.089 107.995C133.965 107.796 133.805 107.556 133.606 107.272C133.524 107.16 133.447 107.044 133.378 106.924C133.932 106.783 134.431 106.477 134.808 106.045C135.102 105.676 135.264 105.218 135.267 104.745C135.26 104.416 135.18 104.092 135.031 103.798C134.882 103.504 134.669 103.248 134.407 103.048C133.753 102.526 132.931 102.261 132.096 102.304C131.511 102.304 130.927 102.334 130.346 102.395L129.461 102.434L129.087 102.452C129.059 102.452 128.875 102.439 128.532 102.41C128.205 102.41 127.983 102.422 127.877 102.422C127.659 102.423 127.441 102.442 127.225 102.478L127.196 102.557L127.21 102.983C127.334 103.002 127.592 103.027 127.969 103.053L128.39 103.138C128.414 103.406 128.425 104.039 128.425 105.021C128.425 105.473 128.42 105.948 128.406 106.466L128.39 106.849L128.406 107.51L128.378 108.358L128.386 109.937C128.393 110.165 128.386 110.393 128.365 110.62C128.358 110.69 128.346 110.759 128.33 110.827C128.116 110.901 127.896 110.953 127.672 110.982C127.483 110.997 127.299 111.045 127.127 111.126ZM130.321 106.535V106.338C130.324 105.991 130.328 105.712 130.341 105.5L130.336 104.726L130.354 104.143L130.341 103.19L130.354 103.053C130.539 103.025 130.726 103.012 130.914 103.014C131.249 103.003 131.585 103.037 131.911 103.117C132.169 103.201 132.404 103.346 132.595 103.539C132.741 103.708 132.846 103.908 132.902 104.124C132.987 104.396 133.028 104.679 133.025 104.964C133.034 105.181 132.994 105.398 132.908 105.598C132.821 105.798 132.691 105.976 132.525 106.118C132.022 106.454 131.418 106.606 130.816 106.549C130.707 106.549 130.548 106.541 130.321 106.535ZM137.238 111.563C137.33 111.556 137.536 111.542 137.841 111.511C138.32 111.467 138.683 111.441 138.936 111.441L140.186 111.453C140.75 111.511 141.062 111.543 141.131 111.556C141.191 111.566 141.253 111.573 141.315 111.576C141.336 111.576 141.424 111.576 141.572 111.563C141.62 111.556 141.667 111.554 141.715 111.556C141.721 111.448 141.723 111.361 141.723 111.311C141.723 111.225 141.711 111.104 141.697 110.963C141.447 110.924 141.305 110.908 141.268 110.905C141.027 110.878 140.769 110.832 140.481 110.776C140.459 110.725 140.445 110.67 140.441 110.614L140.457 110.344L140.438 108.925L140.468 107.977L140.457 106.105C140.457 105.678 140.468 105.061 140.481 104.267C140.468 104.136 140.457 103.969 140.457 103.771C140.453 103.59 140.468 103.41 140.502 103.232C140.698 103.161 140.898 103.101 141.101 103.053C141.319 103.002 141.534 102.939 141.745 102.866C141.758 102.764 141.765 102.661 141.767 102.557C141.767 102.492 141.763 102.41 141.757 102.333C141.666 102.333 141.447 102.348 141.106 102.369C140.493 102.407 140.044 102.428 139.769 102.428C139.704 102.428 139.55 102.422 139.297 102.41L137.275 102.333L137.293 102.951C137.373 102.966 137.454 102.975 137.536 102.977C137.857 102.975 138.177 103.031 138.478 103.144C138.499 103.218 138.515 103.292 138.525 103.368L138.539 103.678L138.577 104.475L138.557 104.864L138.571 105.808C138.571 105.834 138.55 106.316 138.516 107.253L138.522 107.633L138.504 109.256L138.516 110.085C138.526 110.297 138.481 110.508 138.386 110.698C138.169 110.804 137.939 110.881 137.702 110.93C137.484 110.982 137.33 111.022 137.238 111.054V111.563ZM148.39 102.589C148.042 102.462 147.685 102.363 147.322 102.292C146.991 102.225 146.656 102.183 146.319 102.168C145.451 102.105 144.594 102.388 143.933 102.956C143.674 103.203 143.469 103.501 143.331 103.831C143.192 104.161 143.123 104.516 143.128 104.874C143.135 105.279 143.233 105.678 143.416 106.04C143.594 106.426 143.868 106.759 144.212 107.008C144.777 107.356 145.384 107.633 146.018 107.832C146.587 107.99 147.126 108.239 147.615 108.57C147.748 108.669 147.86 108.795 147.944 108.939C148.027 109.082 148.081 109.242 148.101 109.407C148.121 109.572 148.108 109.739 148.061 109.899C148.015 110.059 147.937 110.208 147.832 110.336C147.644 110.587 147.384 110.774 147.087 110.872C146.818 110.975 146.533 111.03 146.245 111.035C145.973 111.04 145.702 110.996 145.446 110.905C145.217 110.823 145.004 110.703 144.815 110.551C144.622 110.382 144.459 110.184 144.33 109.963C144.262 109.853 144.117 109.537 143.893 109.006L143.232 109.024V109.29C143.232 109.422 143.235 109.639 143.245 109.943C143.272 110.543 143.284 110.865 143.284 110.916V110.998C143.29 111.047 143.312 111.093 143.346 111.129C143.481 111.215 143.632 111.274 143.789 111.304L144.642 111.556C145.031 111.641 145.427 111.69 145.825 111.699C146.239 111.708 146.652 111.664 147.056 111.57C147.384 111.48 147.697 111.34 147.983 111.156C148.219 111.011 148.439 110.843 148.641 110.654C148.83 110.472 148.977 110.251 149.073 110.008C149.237 109.59 149.32 109.145 149.32 108.697C149.328 108.351 149.275 108.007 149.164 107.68C149.026 107.362 148.826 107.074 148.578 106.832C148.308 106.569 147.991 106.359 147.643 106.215C147.306 106.054 146.956 105.918 146.599 105.808C145.981 105.676 145.403 105.402 144.909 105.008C144.788 104.896 144.691 104.761 144.623 104.612C144.555 104.462 144.518 104.3 144.513 104.136C144.509 103.965 144.543 103.795 144.612 103.639C144.681 103.483 144.785 103.344 144.914 103.232C145.223 102.975 145.617 102.844 146.018 102.866C146.258 102.865 146.496 102.915 146.714 103.013C146.933 103.111 147.129 103.255 147.288 103.434C147.578 103.812 147.789 104.243 147.907 104.704L147.998 104.716L148.505 104.751L148.577 104.732C148.593 104.642 148.601 104.552 148.603 104.461C148.597 104.078 148.57 103.697 148.522 103.317C148.497 103.071 148.453 102.828 148.39 102.589ZM150.571 101.991C150.533 102.078 150.482 102.265 150.405 102.539C150.242 103.164 150.039 103.778 149.798 104.376C149.922 104.489 150.063 104.583 150.216 104.653C150.271 104.653 150.359 104.574 150.475 104.426C150.727 104.057 151.035 103.73 151.389 103.457C151.675 103.354 151.979 103.311 152.282 103.331C153.092 103.331 153.566 103.343 153.713 103.364C153.75 103.365 153.786 103.379 153.813 103.404C153.839 103.43 153.858 103.463 153.867 103.499C153.903 103.943 153.916 104.389 153.905 104.834L153.943 107.518C153.943 108.75 153.925 109.659 153.893 110.222C153.887 110.344 153.858 110.464 153.808 110.576C153.48 110.719 153.137 110.827 152.786 110.9C152.561 110.93 152.354 111.037 152.198 111.202V111.259L152.205 111.421C152.209 111.458 152.215 111.511 152.222 111.584C152.3 111.584 152.474 111.576 152.743 111.556C153.434 111.501 153.85 111.477 153.99 111.477C154.883 111.477 155.502 111.486 155.841 111.526C156.182 111.556 156.595 111.576 157.081 111.576C157.149 111.576 157.232 111.576 157.338 111.57C157.351 111.509 157.359 111.447 157.362 111.385C157.362 111.348 157.348 111.247 157.326 111.073C157.212 111.035 157.089 110.998 156.946 110.963C156.632 110.884 156.456 110.855 156.418 110.849C156.276 110.833 156.137 110.802 156.002 110.756C155.932 110.518 155.902 110.27 155.913 110.023L155.919 109.097L155.897 106.849V104.761L155.887 103.814C155.891 103.663 155.904 103.513 155.927 103.364C156.126 103.343 156.29 103.331 156.423 103.331C156.926 103.318 157.43 103.33 157.932 103.368C158.008 103.388 158.077 103.431 158.129 103.491C158.24 103.675 158.332 103.87 158.402 104.074C158.512 104.352 158.646 104.619 158.802 104.874C158.976 104.852 159.148 104.812 159.313 104.754C159.335 104.651 159.344 104.546 159.342 104.441L159.352 104.079L159.342 103.446C159.342 102.787 159.339 102.3 159.333 101.973C159.242 101.971 159.172 101.963 159.124 101.963L158.81 101.973C158.774 102.053 158.754 102.11 158.733 102.149C158.697 102.28 158.628 102.401 158.534 102.499L158.118 102.557H155.927L154.327 102.553L153.467 102.557L153.324 102.569C153.04 102.574 152.717 102.574 152.351 102.574C151.77 102.574 151.444 102.569 151.381 102.557C151.266 102.416 151.165 102.263 151.078 102.103C151.062 102.078 151.043 102.041 151.008 101.991L150.571 101.991ZM158.527 111.556H158.652C158.987 111.556 159.323 111.529 159.654 111.477L159.945 111.421C161.05 111.501 161.751 111.543 162.043 111.543C162.054 111.488 162.059 111.432 162.058 111.376C162.058 111.311 162.054 111.196 162.052 111.022C161.761 110.982 161.588 110.955 161.548 110.945C161.325 110.938 161.109 110.873 160.92 110.756C160.885 110.722 160.859 110.68 160.842 110.634C160.826 110.589 160.82 110.54 160.825 110.491C160.846 110.318 160.891 110.148 160.958 109.987C161.276 109.097 161.481 108.543 161.581 108.318L164.289 108.323L164.842 109.708L165.123 110.41C165.147 110.471 165.159 110.536 165.159 110.602C165.16 110.632 165.154 110.663 165.141 110.691C165.129 110.718 165.111 110.743 165.088 110.763C164.96 110.829 164.823 110.877 164.682 110.905L163.891 111.073C163.879 111.225 163.87 111.385 163.87 111.55L164.218 111.537L165.421 111.477C165.589 111.458 165.86 111.453 166.231 111.453C166.567 111.453 166.944 111.477 167.367 111.506C167.788 111.537 168.169 111.556 168.524 111.556C168.527 111.486 168.529 111.436 168.529 111.402C168.525 111.285 168.513 111.169 168.493 111.054C168.292 110.973 168.083 110.916 167.869 110.884C167.72 110.877 167.577 110.829 167.455 110.744C167.362 110.646 167.291 110.529 167.247 110.402C167.098 110.107 166.968 109.803 166.856 109.492C166.687 109.046 166.56 108.717 166.468 108.493C166.309 108.123 166.116 107.645 165.894 107.067C165.671 106.478 165.421 105.878 165.138 105.261L163.91 102.342L163.847 102.214H163.076L159.968 110.37C159.898 110.522 159.8 110.66 159.679 110.776C159.47 110.875 159.248 110.94 159.019 110.97C158.788 111.01 158.633 111.048 158.541 111.073L158.527 111.556ZM161.859 107.576L162.887 104.834C163.03 105.134 163.21 105.556 163.441 106.11C163.666 106.673 163.853 107.163 163.996 107.588L163.815 107.596C163.619 107.596 162.966 107.588 161.859 107.576Z" fill="#555555"/>
<path d="M168.691 92.4507H51.1764V93.1251H168.691V92.4507Z" fill="#555555"/>
</svg>
