<svg width="300" height="97" viewBox="0 0 300 97" fill="none" xmlns="http://www.w3.org/2000/svg">
<path d="M195.402 0C174.102 0 155.066 11.0188 155.066 31.3724C155.066 54.7166 188.826 56.3289 188.826 68.0579C188.826 72.9965 183.156 77.4166 173.468 77.4166C159.724 77.4166 149.45 71.2404 149.45 71.2404L145.054 91.7828C145.054 91.7828 156.889 97 172.601 97C195.889 97 214.216 85.4417 214.216 64.7376C214.216 40.0688 180.315 38.5045 180.315 27.6205C180.315 23.7518 184.97 19.5145 194.628 19.5145C205.526 19.5145 214.414 24.0065 214.414 24.0065L218.718 4.1684C218.718 4.1684 209.042 0 195.399 0H195.402ZM0.516517 1.49835L0 4.49204C0 4.49204 8.96096 6.12824 17.033 9.39464C27.4264 13.1375 28.1652 15.3191 29.9159 22.0856L48.988 95.4537H74.5556L113.943 1.49835H88.4354L63.1261 65.3789L52.7988 11.2286C51.8529 5.03145 47.0541 1.49535 41.1832 1.49535H0.51952L0.516517 1.49835ZM124.201 1.49835L104.192 95.4537H128.517L148.453 1.49835H124.201ZM259.865 1.49835C254 1.49835 250.892 4.63289 248.613 10.1079L212.976 95.4537H238.483L243.417 81.2284H274.492L277.492 95.4537H300L280.366 1.49835H259.865ZM263.183 26.8833L270.745 62.1395H250.489L263.186 26.8833H263.183Z" fill="#1434CB"/>
</svg>
