<svg width="300" height="280" viewBox="0 0 300 280" fill="none" xmlns="http://www.w3.org/2000/svg">
<path fill-rule="evenodd" clip-rule="evenodd" d="M254.977 22.1076C275.961 18.9719 295.958 35.597 299.469 59.1246C302.979 82.6522 288.721 104.405 267.737 107.521C257.719 109.02 247.937 106.002 240.068 99.9084L240.62 112.293L178.932 121.503L178.557 113.26C172.305 119.866 164.082 124.461 154.675 125.862C140.672 127.952 127.104 122.529 117.579 112.491C101.013 148.778 51.2361 158.047 21.871 131.324L18.8536 87.6811L2.18907 97.4235L0 52.3405C23.212 38.2397 52.7743 26.4069 78.2938 22.0485C106.633 17.197 120.399 26.8605 126.69 38.6736C130.989 36.2084 135.781 34.4926 140.909 33.7235C153.708 31.8105 166.152 36.169 175.461 44.6097L173.863 9.20987L235.532 0L236.913 30.5681C241.961 26.1505 248.114 23.1331 254.977 22.1076Z" fill="black"/>
<path d="M104.03 150.277L106.101 137.202L107.56 136.985L113.615 148.837L112.076 149.074L110.321 145.465L106.042 146.096L105.489 150.04L104.03 150.277ZM106.219 144.696L109.69 144.183L108.112 140.889C107.619 139.884 107.264 139.055 107.008 138.405C107.008 139.233 106.929 140.041 106.811 140.87L106.219 144.696ZM122.075 144.183L123.337 144.203C123.357 145.307 123.12 146.175 122.627 146.826C122.154 147.476 121.503 147.871 120.694 147.989C119.728 148.127 118.86 147.851 118.111 147.161C117.362 146.451 116.869 145.327 116.632 143.769C116.395 142.191 116.533 140.968 117.046 140.081C117.559 139.193 118.328 138.681 119.314 138.543C120.083 138.424 120.754 138.562 121.365 138.976C121.957 139.371 122.41 140.041 122.686 140.968L121.503 141.382C121.286 140.791 121.01 140.357 120.675 140.101C120.339 139.844 119.965 139.746 119.551 139.805C118.939 139.903 118.466 140.239 118.131 140.85C117.815 141.461 117.736 142.369 117.914 143.552C118.091 144.775 118.427 145.642 118.9 146.135C119.373 146.628 119.906 146.826 120.517 146.727C120.99 146.648 121.365 146.411 121.661 145.997C121.957 145.583 122.095 144.972 122.075 144.183ZM129.49 143.493H130.812C130.733 144.498 130.457 145.268 129.964 145.859C129.47 146.431 128.8 146.786 127.972 146.904C126.926 147.062 126.019 146.786 125.23 146.096C124.461 145.386 123.968 144.301 123.751 142.783C123.515 141.225 123.672 139.982 124.205 139.055C124.737 138.128 125.506 137.596 126.512 137.458C127.479 137.32 128.327 137.596 129.096 138.306C129.865 139.016 130.358 140.14 130.575 141.659L130.634 142.073L125.092 142.901C125.309 143.907 125.645 144.636 126.138 145.09C126.631 145.544 127.183 145.721 127.794 145.642C128.741 145.504 129.313 144.775 129.49 143.493ZM124.994 141.619L129.135 141.008C128.958 140.239 128.701 139.667 128.366 139.331C127.873 138.819 127.321 138.621 126.69 138.72C126.138 138.799 125.684 139.115 125.349 139.627C125.033 140.16 124.915 140.83 124.994 141.619ZM132.803 145.978L131.462 136.925L132.586 136.748L132.784 138.128C132.981 137.458 133.178 136.985 133.395 136.748C133.612 136.511 133.849 136.354 134.164 136.314C134.578 136.255 135.032 136.354 135.525 136.61L135.308 138.109C134.953 137.931 134.637 137.872 134.342 137.911C134.066 137.951 133.849 138.089 133.651 138.306C133.454 138.523 133.336 138.819 133.296 139.154C133.218 139.765 133.237 140.396 133.336 141.047L134.046 145.78L132.803 145.978ZM140.159 143.473L140.534 144.794C140.199 144.932 139.903 145.031 139.627 145.07C139.193 145.13 138.818 145.11 138.523 144.972C138.227 144.834 138.01 144.636 137.872 144.341C137.734 144.065 137.596 143.473 137.458 142.566L136.688 137.359L135.762 137.497L135.584 136.314L136.511 136.176L136.176 133.928L137.3 132.823L137.773 135.979L139.035 135.782L139.213 136.965L137.951 137.162L138.74 142.447C138.818 142.94 138.897 143.256 138.996 143.374C139.134 143.572 139.351 143.631 139.647 143.591C139.765 143.591 139.943 143.552 140.159 143.473ZM146.194 140.988C146.017 142.29 145.445 143 144.498 143.138C143.887 143.236 143.354 143.039 142.842 142.585C142.349 142.132 141.994 141.402 141.796 140.396L147.338 139.568L147.279 139.154C147.042 137.635 146.549 136.511 145.8 135.801C145.031 135.091 144.183 134.815 143.216 134.953C142.21 135.111 141.441 135.644 140.909 136.551C140.376 137.478 140.219 138.7 140.455 140.278C140.672 141.777 141.185 142.881 141.954 143.591C142.723 144.301 143.63 144.558 144.695 144.4C145.524 144.281 146.194 143.927 146.687 143.355C147.18 142.783 147.456 141.994 147.535 140.988H146.194ZM141.678 139.134C141.599 138.326 141.717 137.675 142.053 137.142C142.388 136.61 142.822 136.314 143.394 136.215C144.025 136.117 144.577 136.334 145.07 136.827C145.405 137.162 145.662 137.734 145.839 138.503L141.678 139.134ZM148.857 143.572L148.659 142.329L152.406 135.012C151.874 135.131 151.401 135.21 150.986 135.269L147.969 135.722L147.792 134.48L153.866 133.573L154.024 134.579L150.868 140.929L150.257 142.092C150.809 141.954 151.341 141.856 151.834 141.777L155.266 141.264L155.463 142.585L148.857 143.572ZM161.32 140.574C160.965 141.067 160.571 141.461 160.157 141.757C159.743 142.053 159.269 142.23 158.796 142.29C158.027 142.408 157.376 142.27 156.844 141.875C156.311 141.481 155.996 140.889 155.877 140.101C155.798 139.568 155.838 139.095 155.996 138.661C156.153 138.227 156.41 137.872 156.745 137.576C157.08 137.3 157.633 137.044 158.382 136.827C159.388 136.531 160.098 136.235 160.551 135.959L160.512 135.565C160.413 134.953 160.236 134.519 159.979 134.302C159.624 133.987 159.112 133.869 158.461 133.967C157.869 134.046 157.455 134.243 157.199 134.519C156.942 134.796 156.804 135.289 156.765 135.979L155.503 135.959C155.542 134.953 155.779 134.204 156.252 133.691C156.725 133.159 157.455 132.823 158.461 132.685C159.25 132.567 159.881 132.626 160.354 132.843C160.847 133.08 161.182 133.395 161.36 133.809C161.537 134.224 161.695 134.835 161.814 135.683L162.129 137.734C162.346 139.154 162.504 140.061 162.622 140.416C162.721 140.771 162.898 141.126 163.095 141.461L161.774 141.659C161.557 141.363 161.419 140.988 161.32 140.574ZM160.709 137.162C160.275 137.458 159.624 137.754 158.737 138.05C158.224 138.207 157.869 138.385 157.672 138.523C157.475 138.661 157.337 138.858 157.258 139.095C157.179 139.331 157.159 139.568 157.199 139.864C157.258 140.298 157.455 140.613 157.751 140.83C158.047 141.047 158.441 141.126 158.914 141.047C159.368 140.988 159.762 140.811 160.078 140.515C160.413 140.219 160.63 139.884 160.768 139.45C160.887 139.036 160.887 138.464 160.788 137.714L160.709 137.162ZM173.39 139.903L173.212 138.76C173.055 139.233 172.798 139.608 172.483 139.884C172.167 140.16 171.792 140.337 171.378 140.396C170.511 140.534 169.682 140.239 168.933 139.489C168.164 138.76 167.671 137.635 167.454 136.137C167.296 135.111 167.316 134.224 167.493 133.454C167.671 132.685 167.967 132.113 168.4 131.699C168.815 131.285 169.327 131.029 169.899 130.95C170.313 130.891 170.708 130.93 171.102 131.108C171.497 131.265 171.832 131.542 172.128 131.896L171.457 127.42L172.719 127.223L174.593 139.706L173.39 139.903ZM168.736 135.979C168.913 137.162 169.248 137.99 169.741 138.503C170.235 139.016 170.747 139.213 171.28 139.134C171.812 139.055 172.226 138.72 172.542 138.109C172.857 137.517 172.936 136.649 172.759 135.545C172.562 134.283 172.226 133.376 171.753 132.863C171.28 132.33 170.747 132.113 170.136 132.212C169.603 132.291 169.189 132.626 168.893 133.257C168.617 133.888 168.558 134.796 168.736 135.979ZM181.18 135.762H182.501C182.422 136.768 182.146 137.537 181.653 138.128C181.16 138.7 180.49 139.055 179.661 139.174C178.616 139.331 177.709 139.055 176.92 138.365C176.151 137.675 175.658 136.551 175.421 135.052C175.185 133.494 175.342 132.251 175.875 131.325C176.407 130.398 177.176 129.865 178.182 129.727C179.149 129.589 180.016 129.865 180.766 130.575C181.535 131.285 182.028 132.409 182.245 133.928L182.304 134.342L176.762 135.17C176.959 136.176 177.314 136.906 177.808 137.359C178.301 137.813 178.853 137.99 179.464 137.911C180.43 137.773 181.002 137.063 181.18 135.762ZM176.683 133.908L180.825 133.297C180.647 132.528 180.391 131.956 180.056 131.62C179.563 131.108 179.011 130.91 178.379 131.009C177.827 131.088 177.374 131.403 177.038 131.916C176.723 132.449 176.605 133.099 176.683 133.908ZM193.131 135.821C192.776 136.314 192.382 136.708 191.967 137.004C191.553 137.3 191.1 137.478 190.607 137.557C189.838 137.675 189.187 137.537 188.654 137.142C188.122 136.748 187.806 136.156 187.688 135.367C187.609 134.835 187.648 134.362 187.806 133.928C187.964 133.494 188.201 133.139 188.556 132.843C188.891 132.567 189.443 132.311 190.193 132.094C191.198 131.798 191.908 131.502 192.362 131.226L192.322 130.832C192.224 130.22 192.046 129.786 191.79 129.569C191.435 129.254 190.922 129.135 190.271 129.234C189.68 129.313 189.266 129.51 189.009 129.786C188.753 130.062 188.615 130.555 188.575 131.246L187.313 131.226C187.353 130.22 187.589 129.471 188.063 128.958C188.536 128.426 189.266 128.09 190.271 127.952C191.06 127.834 191.691 127.893 192.165 128.11C192.658 128.327 192.993 128.662 193.17 129.076C193.348 129.49 193.506 130.102 193.624 130.93L193.92 132.981C194.137 134.421 194.295 135.308 194.413 135.663C194.531 136.038 194.689 136.373 194.886 136.708L193.585 136.906C193.387 136.61 193.249 136.235 193.131 135.821ZM192.52 132.409C192.086 132.705 191.435 133.001 190.548 133.297C190.035 133.454 189.68 133.632 189.483 133.77C189.285 133.928 189.147 134.105 189.068 134.342C188.99 134.579 188.97 134.835 189.009 135.111C189.068 135.545 189.266 135.86 189.561 136.077C189.857 136.294 190.252 136.373 190.725 136.294C191.179 136.235 191.573 136.058 191.908 135.762C192.244 135.486 192.46 135.131 192.579 134.697C192.697 134.283 192.717 133.711 192.599 132.961L192.52 132.409ZM196.937 139.923L195.064 127.42L196.208 127.242L196.385 128.426C196.602 127.893 196.858 127.499 197.174 127.223C197.489 126.946 197.864 126.789 198.318 126.71C198.89 126.631 199.462 126.71 199.974 126.986C200.487 127.262 200.96 127.735 201.355 128.386C201.749 129.057 202.025 129.885 202.163 130.871C202.4 132.409 202.242 133.652 201.73 134.579C201.217 135.505 200.507 136.038 199.639 136.156C199.245 136.215 198.87 136.176 198.515 136.018C198.16 135.86 197.825 135.624 197.509 135.308L198.16 139.706L196.937 139.923ZM196.878 131.818C197.056 132.981 197.371 133.829 197.844 134.322C198.318 134.815 198.83 135.032 199.383 134.934C199.915 134.855 200.349 134.5 200.665 133.869C200.98 133.238 201.059 132.311 200.862 131.127C200.684 129.944 200.349 129.096 199.876 128.583C199.402 128.071 198.89 127.873 198.318 127.952C197.805 128.031 197.391 128.406 197.075 129.076C196.779 129.747 196.72 130.654 196.878 131.818ZM204.372 135.269L203.031 126.217L204.155 126.059L204.352 127.439C204.55 126.769 204.747 126.296 204.964 126.059C205.181 125.822 205.437 125.665 205.733 125.625C206.147 125.566 206.601 125.665 207.094 125.921L206.877 127.42C206.522 127.242 206.206 127.183 205.91 127.223C205.634 127.262 205.417 127.4 205.22 127.617C205.023 127.834 204.905 128.13 204.865 128.465C204.806 129.076 204.806 129.707 204.905 130.358L205.615 135.091L204.372 135.269ZM213.779 130.891H215.101C215.041 131.896 214.746 132.685 214.253 133.257C213.76 133.829 213.089 134.184 212.261 134.302C211.215 134.46 210.308 134.184 209.539 133.494C208.77 132.804 208.277 131.68 208.04 130.181C207.804 128.623 207.961 127.38 208.494 126.473C209.026 125.546 209.796 125.014 210.801 124.856C211.768 124.718 212.616 124.994 213.385 125.704C214.154 126.414 214.647 127.538 214.864 129.057L214.923 129.471L209.381 130.299C209.598 131.305 209.934 132.035 210.427 132.488C210.92 132.942 211.472 133.119 212.083 133.04C213.03 132.902 213.602 132.192 213.779 130.891ZM209.283 129.037L213.424 128.426C213.247 127.656 212.99 127.084 212.655 126.749C212.162 126.256 211.61 126.039 210.979 126.138C210.427 126.217 209.973 126.532 209.638 127.065C209.322 127.558 209.204 128.228 209.283 129.037ZM217.092 133.376L215.732 124.323L216.856 124.146L217.053 125.428C217.25 124.895 217.526 124.462 217.881 124.166C218.236 123.85 218.67 123.673 219.183 123.594C219.577 123.535 219.972 123.554 220.327 123.673C220.682 123.771 220.997 123.949 221.234 124.166C221.471 124.383 221.688 124.698 221.845 125.073C222.003 125.467 222.161 126.079 222.279 126.907L223.107 132.468L221.845 132.666L221.017 127.163C220.918 126.493 220.8 126.02 220.623 125.724C220.465 125.428 220.248 125.231 219.991 125.093C219.715 124.955 219.439 124.915 219.124 124.955C218.532 125.053 218.078 125.349 217.783 125.842C217.487 126.335 217.428 127.144 217.585 128.228L218.315 133.159L217.092 133.376ZM229.852 131.463L229.675 130.319C229.517 130.792 229.261 131.167 228.945 131.443C228.629 131.719 228.255 131.896 227.841 131.956C226.973 132.094 226.145 131.798 225.395 131.048C224.626 130.319 224.133 129.195 223.916 127.696C223.758 126.67 223.778 125.783 223.955 125.014C224.133 124.264 224.429 123.673 224.863 123.259C225.277 122.844 225.79 122.588 226.361 122.509C226.776 122.45 227.17 122.509 227.564 122.667C227.959 122.825 228.294 123.101 228.59 123.456L227.919 118.979L229.182 118.782L231.055 131.265L229.852 131.463ZM225.198 127.538C225.375 128.702 225.711 129.55 226.204 130.062C226.697 130.575 227.21 130.792 227.742 130.693C228.274 130.615 228.689 130.279 229.004 129.668C229.32 129.076 229.379 128.209 229.221 127.104C229.024 125.842 228.689 124.935 228.215 124.422C227.742 123.89 227.21 123.673 226.598 123.771C226.066 123.85 225.651 124.185 225.356 124.817C225.08 125.448 225.02 126.355 225.198 127.538ZM237.642 127.321H238.963C238.885 128.327 238.608 129.096 238.115 129.688C237.622 130.26 236.952 130.615 236.124 130.733C235.078 130.891 234.171 130.615 233.382 129.924C232.613 129.214 232.12 128.11 231.883 126.611C231.647 125.053 231.805 123.811 232.337 122.884C232.87 121.957 233.639 121.424 234.644 121.286C235.611 121.148 236.459 121.424 237.228 122.134C237.997 122.844 238.49 123.969 238.707 125.487L238.766 125.901L233.225 126.729C233.422 127.735 233.777 128.465 234.27 128.919C234.763 129.372 235.315 129.55 235.926 129.471C236.893 129.333 237.445 128.623 237.642 127.321ZM233.146 125.467L237.287 124.856C237.11 124.087 236.853 123.535 236.518 123.18C236.025 122.687 235.473 122.47 234.842 122.568C234.289 122.647 233.836 122.963 233.501 123.495C233.185 124.008 233.047 124.659 233.146 125.467ZM240.955 129.806L239.594 120.754L240.719 120.576L240.916 121.957C241.113 121.286 241.31 120.813 241.527 120.576C241.744 120.34 241.981 120.182 242.296 120.143C242.71 120.083 243.164 120.182 243.657 120.438L243.44 121.937C243.085 121.76 242.77 121.701 242.474 121.74C242.198 121.779 241.981 121.917 241.784 122.134C241.586 122.351 241.468 122.647 241.429 122.982C241.35 123.594 241.369 124.225 241.468 124.876L242.178 129.609L240.955 129.806ZM254.366 126.67C254.011 127.183 253.616 127.558 253.202 127.854C252.788 128.149 252.334 128.327 251.841 128.386C251.072 128.504 250.422 128.366 249.889 127.972C249.357 127.578 249.041 126.986 248.923 126.197C248.844 125.665 248.883 125.191 249.041 124.757C249.199 124.323 249.455 123.968 249.79 123.673C250.126 123.397 250.678 123.14 251.427 122.904C252.433 122.608 253.143 122.312 253.597 122.036L253.537 121.641C253.439 121.03 253.261 120.596 253.005 120.379C252.65 120.064 252.137 119.965 251.486 120.044C250.895 120.123 250.481 120.32 250.224 120.596C249.968 120.872 249.83 121.365 249.79 122.056L248.528 122.036C248.568 121.03 248.804 120.281 249.278 119.768C249.751 119.235 250.481 118.9 251.486 118.762C252.256 118.644 252.906 118.703 253.38 118.92C253.873 119.137 254.208 119.472 254.386 119.886C254.563 120.3 254.721 120.912 254.839 121.74L255.135 123.791C255.352 125.231 255.51 126.118 255.628 126.473C255.746 126.828 255.904 127.183 256.101 127.518L254.78 127.716C254.602 127.459 254.464 127.084 254.366 126.67ZM253.735 123.259C253.301 123.554 252.65 123.85 251.763 124.146C251.25 124.304 250.895 124.481 250.698 124.619C250.5 124.757 250.362 124.955 250.283 125.191C250.205 125.408 250.185 125.665 250.224 125.96C250.283 126.394 250.481 126.71 250.777 126.927C251.072 127.144 251.467 127.223 251.94 127.144C252.394 127.084 252.788 126.907 253.104 126.611C253.439 126.335 253.656 125.98 253.794 125.566C253.912 125.152 253.912 124.58 253.814 123.83L253.735 123.259ZM266.435 126L266.258 124.856C266.1 125.329 265.863 125.704 265.528 125.98C265.213 126.276 264.838 126.434 264.424 126.493C263.556 126.631 262.728 126.335 261.978 125.605C261.209 124.876 260.716 123.752 260.499 122.253C260.341 121.227 260.361 120.34 260.539 119.571C260.716 118.821 261.012 118.23 261.446 117.815C261.86 117.401 262.373 117.145 262.945 117.066C263.359 117.007 263.753 117.046 264.148 117.224C264.542 117.382 264.877 117.658 265.173 118.013L264.503 113.536L265.765 113.339L267.638 125.822L266.435 126ZM261.781 122.075C261.959 123.239 262.294 124.087 262.787 124.6C263.28 125.112 263.793 125.329 264.325 125.231C264.858 125.152 265.272 124.817 265.587 124.205C265.903 123.594 265.982 122.746 265.804 121.641C265.607 120.379 265.291 119.472 264.798 118.959C264.325 118.427 263.793 118.21 263.181 118.308C262.649 118.387 262.235 118.742 261.939 119.354C261.663 119.985 261.604 120.892 261.781 122.075ZM267.974 114.818L267.717 113.063L268.96 112.865L269.216 114.64L267.974 114.818ZM269.571 125.526L268.21 116.474L269.472 116.277L270.833 125.329L269.571 125.526ZM272.746 125.053L271.405 116.001L272.549 115.824L272.746 117.204C272.943 116.534 273.141 116.06 273.357 115.824C273.574 115.587 273.811 115.429 274.127 115.39C274.541 115.331 274.994 115.429 275.487 115.686L275.27 117.184C274.915 117.007 274.6 116.948 274.304 116.987C274.028 117.027 273.811 117.165 273.614 117.382C273.417 117.599 273.298 117.894 273.259 118.23C273.18 118.841 273.2 119.472 273.298 120.123L274.008 124.856L272.746 125.053ZM275.901 113.615L275.645 111.86L276.907 111.682L277.164 113.437L275.901 113.615ZM277.519 124.343L276.178 115.291L277.44 115.094L278.781 124.146L277.519 124.343ZM280.556 124.659L281.818 124.698C281.956 125.172 282.173 125.507 282.488 125.704C282.804 125.901 283.218 125.96 283.731 125.881C284.283 125.803 284.697 125.605 284.993 125.29C285.289 124.974 285.447 124.56 285.486 124.008C285.506 123.673 285.447 123.002 285.289 121.977C285.072 122.411 284.816 122.746 284.5 123.002C284.184 123.259 283.829 123.416 283.415 123.475C282.528 123.614 281.739 123.337 281.049 122.687C280.26 121.917 279.747 120.813 279.53 119.373C279.392 118.407 279.412 117.539 279.589 116.77C279.767 116.001 280.082 115.409 280.516 114.995C280.95 114.581 281.463 114.325 282.055 114.246C282.488 114.187 282.903 114.226 283.297 114.384C283.691 114.542 284.066 114.818 284.401 115.212L284.244 114.128L285.407 113.95L286.571 121.76C286.788 123.16 286.807 124.166 286.669 124.797C286.531 125.428 286.235 125.941 285.762 126.375C285.309 126.789 284.697 127.065 283.968 127.163C283.001 127.301 282.232 127.163 281.64 126.71C281.029 126.256 280.674 125.566 280.556 124.659ZM280.792 119.058C280.97 120.241 281.285 121.069 281.759 121.562C282.232 122.056 282.745 122.253 283.317 122.154C283.889 122.075 284.323 121.74 284.638 121.148C284.954 120.557 285.033 119.669 284.855 118.506C284.677 117.362 284.362 116.553 283.869 116.06C283.376 115.567 282.843 115.37 282.252 115.449C281.739 115.528 281.305 115.863 281.009 116.494C280.714 117.125 280.635 117.973 280.792 119.058ZM287.044 111.958L286.788 110.203L288.03 110.006L288.286 111.781L287.044 111.958ZM288.641 122.687L287.281 113.654L288.543 113.457L289.884 122.509L288.641 122.687ZM291.817 122.213L290.476 113.161L291.6 112.984L291.797 114.364C291.994 113.694 292.191 113.22 292.408 112.984C292.625 112.747 292.862 112.589 293.177 112.55C293.592 112.491 294.045 112.589 294.538 112.846L294.321 114.325C293.966 114.147 293.651 114.088 293.355 114.128C293.079 114.167 292.862 114.305 292.665 114.522C292.467 114.739 292.349 115.035 292.31 115.37C292.231 115.981 292.251 116.612 292.349 117.263L293.059 121.996L291.817 122.213ZM296.195 121.543L295.938 119.788L297.378 119.571L297.634 121.326L296.195 121.543Z" fill="black"/>
<path fill-rule="evenodd" clip-rule="evenodd" d="M258.271 179.821C273.298 177.572 286.492 191.654 289.115 209.166C291.738 226.679 281.601 242.791 266.573 245.039C251.703 247.248 240.285 236.401 237.741 219.382C235.118 201.869 243.243 182.069 258.271 179.821ZM262.747 193.271C255.49 194.355 251.585 203.9 252.828 212.341C254.05 220.565 259.572 225.791 266.731 224.726C273.989 223.642 278.86 215.871 277.617 207.431C276.355 198.97 269.985 192.186 262.747 193.271ZM208.435 163.058L226.993 160.277L230.779 251.528L213.109 254.17L208.435 163.058ZM184.611 166.607L201.217 164.123L205.891 255.235L188.398 257.858L184.611 166.607ZM148.186 207.056C151.263 207.233 153.945 210.409 155.759 214.964L138.878 218.593C140.574 211.355 144.005 206.819 148.186 207.056ZM141.994 192.304C124.619 194.908 113.595 211.671 115.685 232.063C117.756 252.454 134.835 267.167 152.466 262.394C166.31 258.647 175.047 247.307 177.137 234.054L157.514 238.295C151.913 254.348 137.438 253.776 137.477 230.485L177.137 221.236C174.297 204.216 158.836 189.78 141.994 192.304ZM113.812 207.845C111.11 214.392 103.478 222.34 92.9663 229.085C105.825 237.94 113.24 250.344 103.399 265.175C91.5464 283.023 67.2694 283.437 38.6537 270.283L36.2675 222.794L54.1744 214.688L54.8252 223.937C58.099 222.202 63.4632 218.83 66.0664 216.936C96.1415 194.947 70.2473 200.193 44.1166 210.428C30.8835 215.595 17.6899 222.695 11.458 226.876L10.4719 206.504C26.8801 193.369 136.649 152.546 113.812 207.845ZM64.0943 247.504C58.8287 254.367 58.0398 262.67 62.3588 265.983C66.6778 269.296 74.4874 266.397 79.7728 259.534C85.0384 252.671 85.8272 244.369 81.5082 241.036C77.1893 237.723 69.3796 240.622 64.0943 247.504Z" fill="#F4640D"/>
</svg>
