<svg width="257" height="108" viewBox="0 0 257 108" fill="none" xmlns="http://www.w3.org/2000/svg">
<path d="M127.314 44.5019C120.007 44.5019 114.083 38.5779 114.083 31.2718C114.083 23.9657 120.007 18.0417 127.314 18.0417H160.801C161.318 18.0417 161.646 17.4843 161.39 17.0371C155.617 6.92181 143.883 0 130.343 0C111.09 0 95.48 14.0009 95.48 31.2718C95.48 48.5426 111.09 62.5435 130.343 62.5435C143.881 62.5435 155.614 55.6217 161.39 45.5087C161.646 45.0615 161.318 44.5041 160.801 44.5041H127.314V44.5019Z" fill="#7A1777"/>
<path d="M11.4794 101.743C17.8193 101.743 22.9588 96.6037 22.9588 90.2638C22.9588 83.9238 17.8193 78.7843 11.4794 78.7843C5.13951 78.7843 0 83.9238 0 90.2638C0 96.6037 5.13951 101.743 11.4794 101.743Z" fill="#808083"/>
<path d="M66.2921 73.8761V106.604C66.2921 107.117 65.8741 107.535 65.3617 107.535H58.9366C58.6129 107.535 58.3096 107.364 58.141 107.085L43.5423 82.9532L43.8164 91.2728V106.602C43.8164 107.114 43.3984 107.532 42.886 107.532H37.8453C37.3329 107.532 36.9148 107.114 36.9148 106.602V73.8761C36.9148 73.3637 37.3329 72.9457 37.8453 72.9457H44.2255C44.5491 72.9457 44.8525 73.1165 45.021 73.393L59.7052 97.6103L59.3905 88.9805V73.8761C59.3905 73.3637 59.8085 72.9457 60.3209 72.9457H65.3617C65.8764 72.948 66.2921 73.3637 66.2921 73.8761ZM95.7143 72.948H73.4791C72.9667 72.948 72.5487 73.366 72.5487 73.8784V106.606C72.5487 107.119 72.9667 107.537 73.4791 107.537H95.7143C96.2267 107.537 96.6447 107.119 96.6447 106.606V102.242C96.6447 101.73 96.2267 101.312 95.7143 101.312H79.4818C79.4638 101.312 79.4503 101.298 79.4503 101.28V92.628C79.4503 92.61 79.4638 92.5965 79.4818 92.5965H93.413C93.9254 92.5965 94.3434 92.1785 94.3434 91.6661V87.6389C94.3434 87.1265 93.9254 86.7085 93.413 86.7085H79.4818C79.4638 86.7085 79.4503 86.695 79.4503 86.677V79.2023C79.4503 79.1866 79.4638 79.1709 79.4818 79.1709H95.7143C96.2267 79.1709 96.6447 78.7529 96.6447 78.2405V73.8761C96.6447 73.3637 96.2267 72.948 95.7143 72.948ZM127.307 77.4517C130.258 80.6316 131.755 84.9241 131.755 90.2076C131.755 95.6551 130.24 100.026 127.256 103.197C124.262 106.375 120.206 107.986 115.194 107.986C110.122 107.986 106.041 106.359 103.063 103.15C100.137 99.9004 98.6561 95.572 98.6561 90.2772C98.6561 84.8589 100.171 80.5035 103.155 77.3325C106.149 74.1548 110.198 72.5435 115.194 72.5435C120.3 72.5412 124.375 74.193 127.307 77.4517ZM105.92 90.2076C105.92 93.7696 106.773 96.6102 108.457 98.6531C110.142 100.698 112.347 101.694 115.194 101.694C118.102 101.694 120.323 100.696 121.986 98.6441C123.649 96.5923 124.492 93.7764 124.492 90.2727C124.492 86.7152 123.624 83.8903 121.914 81.8767C120.222 79.7934 118.026 78.7866 115.194 78.7866C112.318 78.7866 110.1 79.7956 108.414 81.8699C106.76 83.9555 105.92 86.7624 105.92 90.2076ZM161.166 77.7303C163.901 80.8339 165.29 85.0567 165.29 90.275C165.29 95.4776 163.901 99.6936 161.161 102.802C158.393 105.941 154.498 107.535 149.588 107.535H136.531C136.018 107.535 135.6 107.117 135.6 106.604V73.8761C135.6 73.3637 136.018 72.9457 136.531 72.9457H149.588C154.561 72.948 158.456 74.5571 161.166 77.7303ZM142.531 101.309H148.797C151.743 101.309 154.04 100.375 155.619 98.534C157.217 96.6709 158.026 93.855 158.026 90.1626C158.026 86.4882 157.213 83.7038 155.611 81.8857C154.022 80.0855 151.729 79.1731 148.794 79.1731H142.529C142.511 79.1731 142.497 79.1866 142.497 79.2046V101.282C142.502 101.296 142.515 101.309 142.531 101.309ZM192.074 72.948H169.838C169.326 72.948 168.908 73.366 168.908 73.8784V106.606C168.908 107.119 169.326 107.537 169.838 107.537H192.074C192.586 107.537 193.004 107.119 193.004 106.606V102.242C193.004 101.73 192.586 101.312 192.074 101.312H175.841C175.823 101.312 175.81 101.298 175.81 101.28V92.628C175.81 92.61 175.823 92.5965 175.841 92.5965H189.772C190.285 92.5965 190.703 92.1785 190.703 91.6661V87.6389C190.703 87.1265 190.285 86.7085 189.772 86.7085H175.841C175.823 86.7085 175.81 86.695 175.81 86.677V79.2023C175.81 79.1866 175.823 79.1709 175.841 79.1709H192.074C192.586 79.1709 193.004 78.7529 193.004 78.2405V73.8761C193.004 73.3637 192.586 72.948 192.074 72.948ZM226.15 72.948H221.109C220.597 72.948 220.179 73.366 220.179 73.8784V88.9828L220.494 97.6126L205.809 73.3952C205.641 73.1188 205.337 72.948 205.014 72.948H198.634C198.121 72.948 197.703 73.366 197.703 73.8784V106.606C197.703 107.119 198.121 107.537 198.634 107.537H203.674C204.187 107.537 204.605 107.119 204.605 106.606V91.2773L204.331 82.9576L218.929 107.085C219.096 107.362 219.401 107.535 219.725 107.535H226.15C226.662 107.535 227.08 107.117 227.08 106.604V73.8761C227.078 73.3637 226.662 72.948 226.15 72.948ZM256.024 72.948H231.375C230.863 72.948 230.445 73.366 230.445 73.8784V78.2877C230.445 78.8001 230.863 79.2181 231.375 79.2181H240.162C240.18 79.2181 240.194 79.2316 240.194 79.2495V106.606C240.194 107.119 240.612 107.537 241.124 107.537H246.235C246.747 107.537 247.165 107.119 247.165 106.606V79.2473C247.165 79.2315 247.178 79.2158 247.196 79.2158H256.029C256.541 79.2158 256.959 78.7978 256.959 78.2854V73.8761C256.952 73.3637 256.536 72.948 256.024 72.948ZM252.511 106.13H253.347V104.809C253.392 104.8 253.426 104.797 253.451 104.797C253.561 104.797 253.671 104.86 253.781 104.984C253.891 105.11 254.107 105.492 254.428 106.13H255.417C255.06 105.494 254.878 105.168 254.873 105.157C254.781 105.006 254.691 104.892 254.606 104.815C254.545 104.761 254.451 104.707 254.323 104.658C254.635 104.584 254.864 104.465 255.01 104.301C255.157 104.137 255.228 103.941 255.228 103.716C255.228 103.429 255.132 103.197 254.943 103.026C254.752 102.856 254.444 102.768 254.017 102.768H252.514V106.13H252.511ZM253.347 103.352H253.743C253.97 103.352 254.132 103.39 254.226 103.469C254.321 103.548 254.368 103.649 254.368 103.773C254.368 103.896 254.318 103.997 254.219 104.076C254.12 104.155 253.95 104.193 253.709 104.193H253.347V103.352ZM256.952 104.449C256.952 102.748 255.568 101.363 253.867 101.363C252.165 101.363 250.781 102.748 250.781 104.449C250.781 106.15 252.165 107.535 253.867 107.535C255.568 107.535 256.952 106.15 256.952 104.449ZM256.166 104.449C256.166 105.716 255.134 106.748 253.867 106.748C252.599 106.748 251.568 105.716 251.568 104.449C251.568 103.181 252.599 102.15 253.867 102.15C255.134 102.15 256.166 103.181 256.166 104.449Z" fill="#808083"/>
</svg>
