<svg width="300" height="84" viewBox="0 0 300 84" fill="none" xmlns="http://www.w3.org/2000/svg">
<path fill-rule="evenodd" clip-rule="evenodd" d="M0.324745 73.4863C0.317409 73.479 0.302736 73.479 0.302736 73.4645C-0.0934369 73.0853 -0.100773 72.4583 0.280726 72.0646L11.5423 60.5302C11.8724 60.1875 12.4007 60.1365 12.7968 60.3916C17.837 63.658 21.9308 65.2985 25.0782 65.2985C35.2099 65.2985 43.4122 57.118 43.4122 47.0199L43.4709 5.45373C43.4709 4.9069 43.9111 4.46215 44.4613 4.46215H60.2202C60.7704 4.46215 61.2179 4.89961 61.2179 5.45373L61.1593 47.0272C61.1593 66.8952 45.0116 83.0011 25.0782 83.0011C17.2281 83.0011 9.76686 80.7045 3.64086 76.2715C2.8265 75.6809 1.71869 74.7477 0.324745 73.4863ZM114.775 30.0464L106.169 16.8642C105.875 16.4121 105.993 15.807 106.448 15.5081L127.364 1.54574C128.861 0.539574 130.614 0.00732922 132.419 3.81899e-05C137.511 -0.0145439 141.656 4.14863 141.67 9.30339L141.832 48.15C141.832 67.9233 126.073 83.8542 106.638 83.8542C87.1526 83.8542 71.357 67.8795 71.357 48.1792L71.3424 5.40998C71.3424 4.86316 71.7825 4.4184 72.3401 4.4184H72.3475L87.8789 4.4986C88.4218 4.5059 88.862 4.94336 88.8693 5.49018L88.9427 48.1792C88.9427 58.0658 96.8661 66.0714 106.638 66.0714C116.367 66.0714 124.246 58.095 124.246 48.2667C124.246 48.2448 124.217 43.1411 124.143 24.9937L116.161 30.3307C115.706 30.6369 115.09 30.513 114.782 30.0537C114.782 30.0537 114.775 30.0537 114.775 30.0464ZM150.203 5.02356C150.203 2.28942 152.433 0.0802395 155.177 0.0802395C156.446 0.0802395 157.671 0.561448 158.596 1.43637L164.648 7.12337C170.481 2.77792 177.685 0.204187 185.484 0.204187C204.97 0.204187 220.758 16.1788 220.758 35.8792L220.78 78.6484C220.78 79.1879 220.333 79.64 219.782 79.64H219.775L204.244 79.5598C203.701 79.5525 203.26 79.115 203.26 78.5682L203.18 35.8792C203.18 25.9926 195.256 17.987 185.484 17.987C175.756 17.987 167.869 25.9561 167.869 35.7917C167.869 35.8136 167.906 43.4035 167.979 58.5616L175.961 53.2246C176.416 52.9183 177.032 53.0423 177.341 53.4943C177.341 53.5016 177.348 53.5016 177.348 53.5089L185.946 66.6838C186.24 67.1358 186.115 67.741 185.668 68.0399L164.751 82.0023C163.254 83.0084 161.494 83.5407 159.696 83.5552C154.597 83.5698 150.21 79.3483 150.195 74.1863V5.02356H150.203ZM264.953 3.81899e-05C284.307 3.81899e-05 300 15.7778 300 35.2449V48.7552C300 68.2222 284.307 84 264.953 84C245.6 84 229.907 68.2222 229.907 48.7552V35.2449C229.899 15.7778 245.592 3.81899e-05 264.953 3.81899e-05ZM264.953 17.6225C255.277 17.6225 247.426 25.5114 247.426 35.2449V48.7552C247.426 58.4887 255.277 66.3776 264.953 66.3776C274.63 66.3776 282.48 58.4887 282.48 48.7552V35.2449C282.48 25.5114 274.63 17.6225 264.953 17.6225Z" fill="#252AFF"/>
</svg>
