<svg width="70" height="40" viewBox="0 0 70 40" fill="none" xmlns="http://www.w3.org/2000/svg">
<g clip-path="url(#clip0_331_870)">
<path d="M4.51445 0.147196C4.02675 0.293999 3.6629 0.494887 3.39196 0.827126C3.00489 1.29071 2.98941 1.36025 3.02037 2.74329C3.03586 3.53912 3.03586 4.94534 3.02037 5.8957C3.00489 7.59553 3.00489 7.59553 2.68749 7.49508C2.05271 7.27874 0.535404 7.37918 0.27994 7.65734C0.0631822 7.88913 0.0631822 7.88913 0.310905 7.80414C0.496697 7.75006 0.558628 7.77323 0.51218 7.88913C0.481214 7.98958 0.365094 8.05911 0.27994 8.03594C0.179302 8.02048 0.117372 8.28318 0.117372 8.7545C0.117372 9.17173 0.0709235 9.75121 0.0322168 10.0216C-0.0219725 10.4234 0.0322168 10.6011 0.334129 10.9179C0.682489 11.2888 0.798609 11.3197 1.83595 11.3197C2.80362 11.3197 2.97392 11.366 3.03586 11.5669C3.12101 11.8992 3.02037 28.3411 2.93522 28.5729C2.88877 28.7043 2.56363 28.7584 1.93659 28.7584C1.30954 28.7584 0.852798 28.8434 0.566369 29.0056C0.132854 29.2683 0.117372 29.2915 0.101889 30.4196C0.0709235 32.7143 0.132854 32.7993 1.95207 32.7993H3.16746L3.12101 35.5654C3.06682 39.4595 3.1752 39.6295 5.97756 39.7841C10.1347 40.0004 22.304 40.0854 24.3013 39.9154C24.998 39.8613 25.6173 39.8459 26.2908 39.8613C27.2275 39.8768 27.4598 39.8613 27.6301 39.6991C27.7772 39.5832 27.8314 39.5832 27.8314 39.6991C27.8314 39.7841 27.901 39.8613 27.9784 39.8613C28.0636 39.8613 28.1255 39.73 28.1255 39.56C28.1255 39.3977 28.0713 39.3127 27.9784 39.3591C27.9088 39.4055 27.8314 39.3745 27.8314 39.2896C27.8314 39.0269 28.1797 39.2046 28.3345 39.5523C28.4816 39.869 28.5203 39.869 31.7252 39.869C33.5135 39.869 35.9675 39.9154 37.1829 39.954C40.4575 40.0854 45.59 39.9 45.59 39.6373C45.59 39.5214 45.6596 39.4364 45.7525 39.4364C45.8377 39.4364 45.8841 39.5368 45.8222 39.6527C45.768 39.8381 45.9229 39.869 46.8596 39.869C47.4634 39.8845 50.7999 39.9 54.2835 39.9154C57.7516 39.9309 60.5462 39.9 60.5075 39.8304C60.4766 39.7763 60.554 39.73 60.6778 39.73C60.8249 39.73 60.8636 39.7995 60.8094 39.9C60.6391 40.1704 64.4169 39.9463 65.0517 39.6295C66.1045 39.1119 66.1664 38.8955 66.1742 35.7663C66.1897 34.221 66.2284 32.8689 66.2903 32.7375C66.3445 32.5675 66.4606 32.5366 66.6929 32.6062C67.1109 32.753 68.6824 32.6757 68.9766 32.5212C69.1623 32.4053 69.1469 32.3898 68.9301 32.3744C68.7675 32.3744 68.6824 32.3048 68.7288 32.1889C68.7598 32.1039 68.8604 32.0267 68.9301 32.0421C69.1159 32.0885 69.263 29.7783 69.1004 29.4924C68.7521 28.8743 68.6979 28.8434 67.3818 28.7738L66.0658 28.7043L66.0348 20.012L65.9884 11.3351H67.2735C68.4579 11.3351 68.5585 11.3042 68.9069 10.9334C69.2088 10.6166 69.2707 10.4466 69.2088 10.0371C69.1623 9.76667 69.1236 9.18718 69.1236 8.7854C69.1236 8.29864 69.0695 8.03594 68.9611 8.06684C68.8759 8.08229 68.7598 8.01276 68.7288 7.90458C68.6824 7.78869 68.7443 7.75778 68.9301 7.81959C69.1623 7.90458 69.1623 7.88913 68.9766 7.68824C68.7443 7.441 67.3199 7.3251 66.6696 7.50281C66.0194 7.67279 65.9652 7.51826 65.8723 4.92216C65.7097 0.912117 65.4078 0.340358 63.4338 0.394443C62.8532 0.409896 62.3113 0.37899 62.2184 0.340358C62.0635 0.201281 59.6095 0.0312983 58.3709 0.0312983C57.891 0.0467513 57.0549 0.0467513 56.4975 0.0467513C55.9479 0.0467513 53.0913 0.0776572 50.1419 0.0931102C47.2079 0.108563 44.2507 0.139469 43.5695 0.162649C42.8882 0.185828 42.0522 0.216734 41.6961 0.209007C36.0914 0.124016 31.4466 0.0931102 31.1988 0.154922C31.013 0.201281 30.8814 0.286272 30.9124 0.340358C30.9279 0.394443 30.8814 0.456255 30.7963 0.471708C30.7266 0.502614 30.6492 0.425349 30.6492 0.324905C30.6492 0.193554 29.9525 0.154922 27.692 0.154922C25.3928 0.154922 24.7503 0.201281 24.758 0.324905C24.789 0.425349 24.7039 0.51034 24.5723 0.51034C24.4561 0.51034 24.3865 0.456255 24.4252 0.37899C24.5955 0.11629 23.6588 0.0776572 17.0786 0.0776572C13.4247 0.0776572 9.26763 0.0467513 7.83548 0.0235719C5.93886 -0.022787 5.03312 0.0158454 4.51445 0.147196ZM33.8619 4.04907C53.6255 4.07998 60.1669 4.03362 60.1669 3.91772C60.1669 3.78637 60.2134 3.80182 60.283 3.91772C60.3372 4.01816 60.7165 4.11861 61.1036 4.13406L61.8236 4.18042L61.839 4.89898C61.87 6.05023 62.0558 17.694 62.0403 17.9413C61.9939 19.1698 62.0403 28.4338 62.11 31.6635C62.1797 34.8932 62.1642 35.8126 62.0248 35.8976C61.9242 35.9517 61.3746 35.9826 60.8249 35.9672C59.7566 35.9208 55.855 35.9208 40.8987 35.9363C33.1419 35.9517 32.1355 35.9826 32.2052 36.1681C32.2594 36.3149 32.1897 36.3844 32.0039 36.3844C31.8181 36.3844 31.7407 36.3149 31.8027 36.1681C31.8723 35.9826 30.9666 35.9672 24.5413 35.9672C20.5158 35.9826 16.0258 36.0213 14.5627 36.0676C13.1151 36.1217 11.9384 36.1217 11.9384 36.0522C11.9384 35.8822 11.4352 35.9363 11.2417 36.1217C11.1101 36.2531 11.0249 36.2685 10.9552 36.1526C10.9011 36.0367 10.2043 35.9826 9.06636 35.9672C8.08321 35.9517 7.21618 35.9131 7.16199 35.8667C7.09231 35.8204 7.03038 35.2795 7.03038 34.6305C7.03038 33.6647 6.99942 33.4947 6.81363 33.5642C6.66654 33.6183 6.59687 33.5488 6.59687 33.3633C6.59687 33.1779 6.66654 33.1006 6.81363 33.1625C6.99942 33.232 7.03038 32.5984 7.04587 28.0166C7.10006 10.7788 7.10006 10.9797 6.89878 10.9102C6.78266 10.8638 6.7517 10.8097 6.85233 10.7479C7.06909 10.6166 7.10006 8.87812 6.89878 8.23682C6.79814 7.95094 6.76718 7.63416 6.84459 7.53371C6.89878 7.43327 6.96071 6.62199 6.99168 5.76435C7.00716 4.88353 7.02264 4.09543 7.02264 3.97953C7.03813 3.84818 7.12328 3.81727 7.29359 3.90999C7.42519 3.96408 19.3856 4.03362 33.8619 4.04907Z" fill="#FFD3C6"/>
<path d="M52.8501 7.6801L49.7768 7.711L49.2116 8.25958C48.7317 8.72317 48.631 8.90861 48.5614 9.58854C48.3988 10.9561 48.3988 12.8723 48.5304 15.932C48.6001 17.5623 48.6465 19.1462 48.6156 19.463C48.5846 19.7798 48.5614 22.4299 48.5614 25.3737L48.5459 30.705L48.8942 31.269C49.08 31.5704 49.4439 31.9026 49.6993 32.0185C50.2799 32.2658 56.0782 32.3198 56.8446 32.0881C57.5491 31.8717 58.1142 31.1531 58.1993 30.3573C58.3464 28.9588 58.2845 18.3117 58.1297 17.91L57.9671 17.5236H55.9853C54.6461 17.5236 53.9493 17.5777 53.8332 17.6936C53.7171 17.8095 53.6629 18.3735 53.6629 19.2466V20.6297L54.0964 20.8769L54.5299 21.1396L54.5454 22.7545C54.5454 23.6507 54.5454 25.0879 54.5299 25.9841C54.5145 26.9499 54.5764 27.6994 54.677 27.8539C54.7931 28.0394 54.8086 28.2248 54.6925 28.503C54.5454 28.8893 54.5299 28.8893 53.4539 28.8352C52.223 28.7811 51.9985 28.6884 52.223 28.4025C52.3856 28.2016 52.4553 18.1263 52.3237 13.39L52.254 11.072L53.2913 11.0179C54.8396 10.9484 54.8241 10.9329 54.8241 11.9683C54.8241 12.4705 54.8938 12.9341 54.9944 13.0345C55.126 13.1659 55.126 13.2045 54.9944 13.2045C54.677 13.2045 54.8086 13.6063 55.157 13.6836C55.6757 13.784 57.7116 13.699 57.8587 13.5522C57.9129 13.4827 58.0058 12.3701 58.0445 11.072L58.0987 8.70772L57.6961 8.30594C57.3478 7.95825 57.0459 7.84235 56.0782 7.68782C55.9853 7.65692 54.5222 7.65692 52.8501 7.6801ZM11.5887 7.95825C11.4571 8.0896 11.4184 8.90861 11.4571 10.9098C11.5036 14.1394 11.4881 13.8922 11.6584 13.6218C11.7745 13.4518 11.8055 13.4904 11.8055 13.7917C11.8055 13.9926 11.7358 14.1935 11.6352 14.2244C11.5036 14.2708 11.4649 14.8889 11.4649 16.3724C11.4494 18.1727 11.4184 18.5049 11.2017 18.7212C10.9849 18.9221 10.9385 19.2389 10.9385 20.5679C10.9385 21.4487 10.9849 22.1209 11.0391 22.0823C11.1707 21.9509 11.6584 22.399 11.6584 22.6617C11.6584 22.7622 11.612 22.8472 11.5578 22.8472C11.4881 22.8472 11.4262 24.8252 11.3952 27.2435C11.3797 29.6619 11.4262 31.6399 11.4804 31.6399C11.55 31.6399 11.6816 31.8022 11.7668 32.0031C11.9294 32.3508 11.9836 32.3662 13.3693 32.3662C15.5059 32.3662 15.3897 32.6289 15.351 27.3826C15.3201 25.0879 15.2968 23.1485 15.2659 23.0712C15.1033 22.4531 15.1807 22.4222 17.2322 22.4222C19.4539 22.4222 20.29 22.26 20.7855 21.7423L21.1183 21.3791L21.1648 15.1284C21.1957 10.9175 21.1493 8.76953 21.0487 8.58409C20.6848 7.91962 20.2978 7.86553 15.8929 7.81917C12.8428 7.79599 11.6971 7.8269 11.5887 7.95825ZM17.2864 11.412C17.3019 11.5588 17.3019 13.0964 17.3173 14.8425C17.3173 16.5887 17.3638 17.8945 17.387 17.7554C17.5031 17.3227 17.7199 17.4927 17.7199 18.0259C17.7199 18.4431 17.6734 18.5281 17.4876 18.4585C17.3251 18.4045 17.2864 18.4431 17.3406 18.6285C17.4102 18.8449 17.3251 18.8758 16.458 18.8294C15.9084 18.7985 15.4207 18.6826 15.3046 18.5822C15.0724 18.3504 15.0569 17.9331 15.2736 17.9331C15.3743 17.9331 15.4052 16.921 15.3433 14.6339C15.3123 12.8182 15.3123 11.2884 15.3588 11.2497C15.413 11.2034 15.862 11.1647 16.3729 11.1647C17.147 11.1725 17.2864 11.2111 17.2864 11.412ZM23.9439 7.91189C23.6962 8.19777 23.7814 11.3965 24.0446 11.3424C24.1297 11.327 24.2149 11.412 24.2149 11.5279C24.2149 11.6438 24.1297 11.7288 24.0446 11.6979C23.913 11.6824 23.8433 11.9142 23.8123 12.4319C23.7814 13.0345 23.8123 13.1814 23.9594 13.0964C24.1065 13.0114 24.1065 13.0268 23.9904 13.1968C23.7581 13.4981 23.6033 29.8242 23.8201 30.79C23.9517 31.3077 24.1065 31.5858 24.4703 31.8408L24.9503 32.2117L28.7358 32.1576C32.9548 32.1035 33.2568 32.0262 33.7135 31.1454C34.0309 30.5273 34.1625 25.6673 34.0851 17.2068C34.0541 13.7608 34.0309 10.3303 34.0309 9.61172C34.0309 8.77726 33.9767 8.24413 33.8683 8.16686C33.7677 8.12051 33.667 8.15141 33.6361 8.2364C33.5664 8.48365 33.3187 8.45274 33.3187 8.19004C33.3187 8.02006 33.0864 7.9737 32.0878 7.9737C30.106 7.9737 30.2531 7.49466 30.2686 14.1394C30.2841 17.2068 30.3228 20.5833 30.3692 21.6187C30.4389 22.9863 30.4157 23.5348 30.2996 23.5348C30.0364 23.5348 30.1138 24.0834 30.4002 24.2379C30.5705 24.3538 30.6015 24.4234 30.4699 24.5006C30.3692 24.5856 30.2841 25.2965 30.2531 26.5868C30.2067 28.2557 30.168 28.6034 29.9512 28.8197C29.7035 29.067 29.6803 29.067 29.5022 28.8197C29.2854 28.5493 28.6816 28.503 28.2481 28.7348C27.8146 28.9511 27.3656 28.5339 27.4817 28.0162C27.5823 27.5835 27.652 15.6229 27.5823 11.2884L27.5282 8.32139L26.9089 7.98916C26.4908 7.75736 26.1889 7.67237 26.0109 7.75736C25.7399 7.87326 24.7722 7.87326 24.3542 7.74191C24.2226 7.74191 24.0446 7.79599 23.9439 7.91189ZM36.81 7.89644C36.6475 8.11278 36.5933 13.3436 36.7558 14.0467C36.8255 14.3171 36.8255 14.9971 36.7868 15.5611C36.7326 16.1251 36.7404 16.6428 36.8178 16.7433C37.0036 16.9751 36.8178 17.5082 36.5546 17.5082C36.4384 17.5082 36.3843 17.5777 36.423 17.655C36.4694 17.74 36.4075 17.9022 36.2914 18.0259C36.0281 18.2886 35.9585 20.3052 36.2062 20.4597C36.2914 20.5061 36.3533 20.676 36.3533 20.8228C36.3533 20.9696 36.423 21.1087 36.5159 21.1396C36.6475 21.186 36.6862 22.4763 36.6862 25.8682C36.6707 28.5802 36.7326 30.62 36.8178 30.7282C36.8874 30.8132 36.8874 30.9291 36.8332 30.96C36.7636 31.0063 36.7326 31.3077 36.7636 31.6245L36.8178 32.2117L40.673 32.1653C46.417 32.119 46.0841 32.5285 46.0996 25.4356C46.0996 20.6683 46.0841 20.452 45.8132 20.1584C44.9462 19.2235 44.8455 19.0458 45.0778 18.9221C45.6584 18.6053 45.7977 17.9409 45.8287 15.7774C45.8442 14.6262 45.8751 12.5323 45.8984 11.1261C45.9448 8.70772 45.9293 8.54546 45.6351 8.27504C45.1861 7.8269 44.5127 7.74191 40.5955 7.72646C37.8628 7.72646 36.9261 7.75736 36.81 7.89644ZM42.2135 11.1879C42.2986 11.3347 42.2986 12.4242 42.2135 16.6505C42.198 17.7013 42.1283 17.7632 41.0445 17.5854L40.4252 17.5005L40.3401 16.2488C40.2936 15.5534 40.2549 14.8966 40.2394 14.7807C40.2394 14.6648 40.2859 13.7686 40.3401 12.795L40.4407 11.0334H41.2768C41.7335 11.0257 42.1515 11.0952 42.2135 11.1879ZM42.1515 21.3173C42.2057 21.4023 42.2677 22.5149 42.2677 23.7821C42.2677 25.0492 42.2831 26.6795 42.2831 27.4135C42.2986 28.1321 42.2677 28.7966 42.2135 28.8661C42.0974 29.0515 40.5955 28.982 40.3478 28.7657C40.1852 28.6343 40.162 28.4643 40.2472 28.0703C40.3169 27.7844 40.3788 26.1541 40.3788 24.4388C40.3788 21.7577 40.4097 21.3096 40.611 21.1705C40.882 20.9696 41.9967 21.0701 42.1515 21.3173Z" fill="#FFD3C6"/>
</g>
<defs>
<clipPath id="clip0_331_870">
<rect width="69.2308" height="40" fill="white"/>
</clipPath>
</defs>
</svg>
