<svg xmlns="http://www.w3.org/2000/svg" viewBox="0 0 748 276">
  <path fill="#FFFFFF" fill-rule="evenodd" d="
    M97 17 L78 27 L56 43 L35 65 L16 96 L8 118 L4 140 L5 172 L14 202 L28 225 L42 240 L63 255 L83 264 L116 271 L215 270 L222 262 L286 84 L222 84 L215 87 L210 94 L168 210 L166 212 L138 211 L118 207 L104 200 L93 191 L79 170 L75 154 L75 138 L80 119 L85 109 L102 88 L112 80 L129 71 L148 66 L194 66 L200 63 L207 52 L226 4 L149 4 L128 7 Z
    M235 270 L399 269 L403 241 L399 236 L283 235 L287 220 L408 219 L412 191 L409 188 L267 188 L260 195 Z
    M285 129 L424 129 L429 105 L427 101 L423 99 L329 99 L336 82 L433 82 L438 57 L434 52 L319 52 L315 54 L311 60 Z
    M264 103 L209 254 L207 256 L168 255 L168 252 L223 103 L225 101 Z
    M244 8 L240 13 L221 66 L287 66 L293 63 L296 60 L298 56 L316 5 L249 5 Z
    M270 174 L409 174 L414 172 L418 168 L423 143 L287 143 L283 145 L280 149 L273 164 Z
    M320 38 L437 38 L443 33 L448 4 L338 4 L331 9 L321 33 Z
    M255 20 L293 23 L293 25 L286 45 L284 48 L283 51 L244 48 L245 43 L247 40 L249 32 L252 24 Z
    M733 198 L726 195 L720 195 L715 197 L709 202 L706 207 L706 211 L705 212 L705 215 L707 221 L711 225 L715 227 L723 227 L728 225 L733 221 L737 214 L737 204 L735 200 Z
    M641 144 L634 144 L627 147 L623 151 L620 157 L620 168 L622 171 L625 174 L630 176 L636 176 L643 173 L647 169 L650 164 L651 160 L651 155 L649 150 L645 146 Z
    M684 144 L682 150 L679 175 L694 175 L701 172 L706 166 L708 160 L708 155 L706 150 L703 147 L699 145 Z
    M633 146 L641 146 L643 147 L647 151 L649 156 L649 160 L648 164 L646 167 L641 172 L637 174 L630 174 L626 172 L623 169 L622 166 L622 157 L624 153 L629 148 Z
    M685 147 L695 146 L699 147 L703 150 L705 153 L706 156 L706 161 L704 166 L699 171 L695 173 L690 174 L685 173 L681 173 L681 171 L683 164 L684 156 L684 149 Z
    M587 144 L586 152 L584 159 L582 175 L584 175 L585 173 L585 167 L587 162 L597 163 L597 164 L599 166 L600 169 L604 175 L607 175 L602 168 L600 163 L602 161 L604 161 L608 157 L609 155 L609 149 L606 146 L604 145 Z
    M580 196 L579 199 L582 200 L582 205 L581 206 L579 220 L579 227 L583 226 L583 221 L584 220 L585 214 L590 214 L592 216 L595 224 L595 226 L601 226 L601 223 L598 222 L596 212 L600 209 L601 207 L601 200 L600 198 L597 196 Z
    M726 199 L728 200 L732 204 L733 206 L733 213 L731 217 L727 221 L723 223 L716 223 L714 222 L711 219 L710 217 L710 208 L711 206 L717 200 L720 199 Z
    M670 247 L666 249 L662 253 L660 258 L660 262 L661 265 L663 268 L667 270 L674 270 L676 269 L681 264 L683 260 L683 254 L681 250 L677 247 Z
    M452 196 L452 199 L451 200 L450 207 L450 214 L449 221 L447 223 L445 223 L445 227 L449 227 L451 226 L453 221 L456 206 L460 211 L466 223 L468 225 L468 226 L472 227 L472 224 L473 223 L473 217 L474 216 L475 209 L475 202 L476 200 L479 199 L479 196 L472 197 L470 209 L467 216 L466 213 L464 211 L456 196 Z
    M691 196 L686 196 L685 200 L682 204 L682 206 L674 221 L671 223 L671 227 L673 226 L676 226 L679 219 L692 219 L693 221 L693 224 L694 226 L699 226 L699 223 L697 222 L694 210 L694 206 Z
    M626 196 L620 197 L609 220 L606 223 L606 227 L608 227 L611 225 L613 220 L615 218 L627 219 L629 226 L631 227 L633 227 L633 225 L634 223 L631 221 L627 204 L627 200 L626 199 Z
    M552 197 L549 199 L544 205 L542 211 L542 216 L544 221 L546 224 L549 226 L552 227 L558 227 L564 225 L566 227 L569 227 L569 223 L570 222 L571 215 L570 212 L567 211 L564 212 L564 215 L567 217 L566 219 L563 222 L561 223 L553 223 L551 222 L548 219 L547 217 L547 208 L548 206 L554 200 L556 199 L563 199 L566 200 L568 202 L570 200 L569 197 L564 195 L557 195 Z
    M664 196 L661 195 L655 195 L649 197 L644 201 L641 206 L640 209 L640 218 L642 222 L645 225 L650 227 L651 232 L649 233 L649 236 L652 236 L656 233 L655 227 L658 226 L661 226 L664 224 L666 221 L664 219 L658 223 L650 223 L645 218 L644 215 L644 210 L646 205 L650 201 L654 199 L660 199 L662 200 L664 202 L664 205 L668 204 L668 199 Z
    M675 248 L677 249 L681 253 L682 258 L680 263 L677 267 L673 269 L668 269 L666 268 L663 265 L662 263 L662 256 L663 254 L668 249 L671 248 Z
    M517 196 L516 199 L519 200 L518 211 L516 219 L516 226 L518 227 L529 226 L530 227 L533 227 L535 225 L535 220 L532 220 L531 223 L520 222 L520 219 L521 218 L522 213 L533 212 L532 209 L522 208 L522 205 L523 204 L524 199 L533 200 L533 202 L537 202 L537 196 Z
    M589 146 L601 146 L604 147 L607 150 L607 155 L606 157 L604 159 L599 161 L586 159 L587 151 Z
    M493 248 L491 261 L491 270 L492 263 L493 261 L500 260 L504 265 L505 268 L508 270 L507 267 L503 261 L505 259 L508 258 L510 254 L510 252 L509 250 L507 248 L504 247 Z
    M486 249 L481 247 L471 248 L469 263 L470 270 L470 266 L472 261 L481 261 L485 259 L487 256 L487 251 Z
    M511 196 L485 196 L484 198 L484 202 L488 201 L489 199 L495 200 L494 213 L492 221 L492 227 L496 226 L497 222 L497 214 L498 207 L500 199 L507 200 L507 202 L511 201 Z
    M513 145 L513 150 L512 151 L512 159 L510 167 L509 175 L511 175 L511 172 L512 171 L513 165 L513 158 L515 151 L517 151 L519 153 L530 171 L532 173 L532 174 L535 175 L535 170 L537 163 L539 145 L537 145 L537 149 L536 150 L536 157 L535 164 L531 169 L528 163 L516 145 Z
    M500 144 L479 145 L479 149 L478 150 L478 157 L476 164 L475 175 L497 175 L497 173 L477 173 L478 165 L480 161 L497 161 L497 159 L479 157 L480 150 L482 146 L501 146 Z
    M569 247 L567 248 L567 249 L565 251 L556 267 L555 270 L557 268 L558 265 L563 264 L564 263 L572 263 L574 265 L574 268 L576 270 L576 267 Z
    M723 144 L722 152 L720 159 L720 167 L718 175 L741 174 L738 173 L721 173 L721 166 L723 161 L740 161 L740 159 L723 158 L723 151 L725 146 L744 146 L744 144 Z
    M721 247 L719 247 L716 252 L714 257 L710 262 L707 270 L710 265 L712 263 L717 264 L725 264 L728 270 L728 268 L721 249 Z
    M432 196 L432 199 L435 200 L433 217 L431 223 L429 223 L429 227 L434 226 L438 227 L439 224 L436 222 L436 217 L437 216 L438 209 L438 202 L439 200 L442 199 L442 196 Z
    M463 145 L460 144 L453 144 L446 147 L441 152 L438 159 L438 165 L440 170 L444 174 L448 176 L455 176 L462 173 L464 170 L462 170 L456 174 L449 174 L446 173 L442 169 L440 164 L440 160 L442 154 L448 148 L451 146 L460 146 L462 147 L467 148 Z
    M508 251 L508 256 L504 259 L493 258 L493 256 L495 249 L501 248 L506 249 Z
    M471 259 L473 249 L483 249 L486 252 L486 255 L482 259 L480 260 Z
    M444 247 L442 253 L442 260 L440 267 L441 270 L443 262 L444 254 L446 254 L448 256 L451 263 L453 262 L457 257 L457 256 L462 254 L462 259 L461 260 L461 266 L460 267 L461 270 L462 268 L463 261 L463 254 L464 253 L464 247 L462 248 L454 259 L452 260 L450 258 L447 251 Z
    M587 199 L594 199 L597 202 L597 206 L594 210 L592 211 L585 210 L585 206 L586 205 Z
    M597 247 L597 249 L596 250 L596 257 L594 264 L594 270 L610 269 L595 267 L597 259 L610 258 L597 257 L597 252 L599 249 L606 248 L612 249 L612 247 Z
    M421 248 L418 269 L434 269 L420 268 L420 265 L421 264 L422 259 L434 258 L421 256 L423 249 L429 248 L437 249 L436 247 Z
    M517 247 L517 249 L516 250 L516 257 L515 264 L514 265 L514 270 L530 269 L515 267 L517 259 L530 258 L517 257 L517 252 L519 249 L525 248 L533 248 Z
    M629 247 L623 247 L619 249 L617 253 L617 255 L618 257 L622 259 L625 259 L628 260 L630 262 L630 265 L626 269 L621 269 L618 268 L615 266 L617 269 L620 270 L626 270 L628 269 L631 266 L631 261 L629 259 L627 258 L624 258 L621 257 L619 255 L619 251 L623 248 L627 248 L630 250 L632 249 Z
    M718 251 L721 251 L723 259 L723 262 L713 260 L715 256 L717 254 Z
    M548 247 L543 247 L539 249 L537 253 L537 255 L540 258 L542 259 L545 259 L548 260 L550 262 L550 265 L546 269 L541 269 L535 266 L537 269 L540 270 L546 270 L548 269 L551 266 L551 261 L549 259 L547 258 L544 258 L541 257 L539 255 L539 251 L543 248 L547 248 L550 250 L552 249 Z
    M568 251 L570 253 L570 256 L572 259 L571 262 L561 260 L563 258 L565 253 Z
    M574 145 L551 146 L561 147 L561 153 L560 154 L560 161 L558 169 L558 175 L560 175 L560 169 L561 168 L561 161 L564 146 Z
    M653 247 L647 247 L644 248 L642 250 L641 250 L638 254 L637 257 L637 264 L638 266 L641 269 L643 270 L650 270 L654 268 L656 266 L654 266 L650 269 L644 269 L639 265 L638 262 L638 258 L639 255 L643 250 L647 248 L652 248 L658 250 Z
    M621 204 L624 204 L625 210 L624 214 L617 212 L619 207 L621 205 Z
    M686 205 L689 205 L690 207 L690 210 L691 211 L690 214 L683 213 L683 211 Z
    M682 193 L685 193 L687 190 L690 193 L694 193 L697 190 L697 188 L695 188 L694 190 L692 191 L689 188 L685 188 L682 191 Z
    M690 248 L690 255 L688 263 L688 270 L702 269 L689 268 L689 265 L691 257 L692 247 Z
    M581 259 L581 261 L589 260 L586 259 Z
  "/>
</svg>
