<svg width="233" height="225" viewBox="0 0 233 225" fill="none" xmlns="http://www.w3.org/2000/svg">
<path d="M45.5265 218.498C51.5466 222.87 58.5359 224.98 65.4742 224.98C75.916 224.98 86.221 220.2 92.853 211.217C92.872 211.198 92.89 211.178 92.907 211.157C92.923 211.136 92.939 211.115 92.954 211.094L92.977 211.061C92.993 211.039 93.008 211.017 93.023 210.996L116.491 178.725L139.959 210.996C139.982 211.031 140.006 211.058 140.029 211.088C140.04 211.102 140.05 211.116 140.061 211.132C151.115 226.188 172.355 229.505 187.473 218.515C202.608 207.526 205.992 186.278 195.074 171.104L195.05 171.066C195.03 171.034 195.014 171.01 194.989 170.985L171.572 138.696L209.512 126.346C227.334 120.545 237.129 101.305 231.33 83.476C225.532 65.648 206.315 55.8493 188.476 61.6334L150.537 73.933L150.52 34.0064C150.502 15.2594 135.248 0 116.508 0C97.768 0 82.514 15.2594 82.497 34.0234L82.463 73.916L44.5233 61.6163C44.5083 61.6163 44.49 61.613 44.4716 61.6078C44.4477 61.6014 44.4232 61.5918 44.4041 61.5823C26.5992 55.8664 7.45076 65.665 1.66886 83.46C-4.11314 101.254 5.61427 120.426 23.3511 126.278C23.3675 126.283 23.3822 126.289 23.3963 126.295L23.4588 126.319L23.4873 126.329L61.4098 138.679L37.9929 170.968C37.9844 170.985 37.9718 171.002 37.9591 171.019C37.9462 171.036 37.9336 171.053 37.9251 171.07C26.9903 186.244 30.3915 207.509 45.5265 218.498Z" fill="black"/>
</svg>
