<svg width="213" height="213" viewBox="0 0 213 213" fill="none" xmlns="http://www.w3.org/2000/svg">
<path fill-rule="evenodd" clip-rule="evenodd" d="M203.407 54.8086C195.728 62.4866 185.129 65.4626 175.186 63.7376C176.911 73.6806 173.935 84.2796 166.257 91.9576C158.579 99.6366 147.98 102.613 138.036 100.887C139.762 110.83 136.786 121.43 129.108 129.108C121.43 136.786 110.83 139.762 100.887 138.037C102.613 147.98 99.6359 158.579 91.9579 166.257C84.2799 173.936 73.6809 176.912 63.7369 175.186C65.4629 185.129 62.4869 195.729 54.8087 203.407C42.2703 215.945 21.9421 215.945 9.4038 203.407C-3.1346 190.869 -3.1346 170.54 9.4038 158.002C17.082 150.324 27.6814 147.348 37.6246 149.073C35.899 139.13 38.875 128.531 46.5532 120.852C54.2314 113.174 64.8309 110.198 74.7739 111.924C73.0489 101.981 76.0249 91.3806 83.7029 83.7026C91.3809 76.0246 101.98 73.0486 111.924 74.7736C110.198 64.8306 113.174 54.2314 120.852 46.5532C128.53 38.875 139.13 35.8989 149.073 37.6246C147.347 27.6814 150.324 17.0819 158.002 9.40372C170.54 -3.13457 190.868 -3.13457 203.407 9.40372C215.945 21.9421 215.945 42.2703 203.407 54.8086Z" fill="black"/>
</svg>
