<svg width="270" height="269" viewBox="0 0 270 269" fill="none" xmlns="http://www.w3.org/2000/svg">
<path d="M134.622 0L144.682 68.2539L174.415 5.9977L163.91 74.1846L210.671 23.4578L180.535 85.519L240.169 50.8289L193.079 101.25L260.29 85.679L200.43 119.98L269.245 124.911L201.934 140.044L266.237 165.04L197.456 159.661L251.535 202.5L187.396 177.086L226.445 233.962L172.646 190.771L193.197 256.631L154.518 199.501L154.743 268.492L134.622 202.5L114.501 268.492L114.727 199.501L76.0482 256.631L96.5985 190.771L42.7992 233.962L81.8489 177.086L17.7091 202.5L71.7885 159.661L3.0072 165.04L67.3112 140.044L0 124.911L68.8149 119.98L8.9545 85.679L76.1658 101.25L29.0753 50.8289L88.7105 85.519L58.5743 23.4578L105.335 74.1846L94.8305 5.9977L124.562 68.2539L134.622 0Z" fill="black"/>
</svg>
