<svg width="217" height="217" viewBox="0 0 217 217" fill="none" xmlns="http://www.w3.org/2000/svg">
<path fill-rule="evenodd" clip-rule="evenodd" d="M217 36.5C217 54.5955 203.832 69.615 186.555 72.5C203.832 75.385 217 90.405 217 108.5C217 126.595 203.832 141.615 186.555 144.5C203.832 147.385 217 162.405 217 180.5C217 200.658 200.658 217 180.5 217C162.405 217 147.385 203.832 144.5 186.555C141.615 203.832 126.595 217 108.5 217C90.405 217 75.385 203.832 72.5 186.555C69.615 203.832 54.5955 217 36.5 217C16.3416 217 0 200.658 0 180.5C0 162.405 13.1681 147.385 30.4445 144.5C13.1681 141.615 0 126.595 0 108.5C0 90.405 13.1681 75.385 30.4445 72.5C13.1681 69.615 0 54.5955 0 36.5C0 16.3416 16.3416 0 36.5 0C54.5955 0 69.615 13.1681 72.5 30.4445C75.385 13.1681 90.405 0 108.5 0C126.595 0 141.615 13.1681 144.5 30.4445C147.385 13.1681 162.405 0 180.5 0C200.658 0 217 16.3416 217 36.5ZM72.5 42.5555C69.944 57.8624 57.8624 69.944 42.5555 72.5C57.8624 75.056 69.944 87.138 72.5 102.445C75.056 87.138 87.138 75.056 102.445 72.5C87.138 69.944 75.056 57.8624 72.5 42.5555ZM114.555 72.5C129.862 69.944 141.944 57.8624 144.5 42.5555C147.056 57.8624 159.138 69.944 174.445 72.5C159.138 75.056 147.056 87.138 144.5 102.445C141.944 87.138 129.862 75.056 114.555 72.5ZM144.5 174.445C147.056 159.138 159.138 147.056 174.445 144.5C159.138 141.944 147.056 129.862 144.5 114.555C141.944 129.862 129.862 141.944 114.555 144.5C129.862 147.056 141.944 159.138 144.5 174.445ZM72.5 114.555C75.056 129.862 87.138 141.944 102.445 144.5C87.138 147.056 75.056 159.138 72.5 174.445C69.944 159.138 57.8624 147.056 42.5555 144.5C57.8624 141.944 69.944 129.862 72.5 114.555Z" fill="black"/>
</svg>
