<svg width="225" height="225" viewBox="0 0 225 225" fill="none" xmlns="http://www.w3.org/2000/svg">
<path fill-rule="evenodd" clip-rule="evenodd" d="M185.857 0H174.142L225 50.8582V39.1423L185.857 0ZM225 10.8582L214.142 0H225V10.8582ZM225 79.142L145.857 0H134.142L225 90.858V79.142ZM225 119.142L105.857 0H94.142L225 130.858V119.142ZM225 159.142L65.857 0H54.1416L225 170.858V159.142ZM225 199.142L25.8574 0H14.1416L225 210.858V199.142ZM210.857 225L0 14.1423V25.8582L199.142 225H210.857ZM170.857 225L0 54.1423V65.858L159.142 225H170.857ZM130.857 225L0 94.142V105.858L119.142 225H130.857ZM90.857 225L0 134.142V145.858L79.142 225H90.857ZM50.8574 225L0 174.142V185.858L39.1416 225H50.8574ZM10.8574 225L0 214.142V225H10.8574Z" fill="black"/>
</svg>
