<svg width="270" height="21" viewBox="0 0 270 21" fill="none" xmlns="http://www.w3.org/2000/svg">
<path d="M1.5 1.5C14.8547 1.5 14.8547 19.5 28.2094 19.5C41.5641 19.5 41.5641 1.5 54.9188 1.5C68.2735 1.5 68.2735 19.5 81.5969 19.5C94.952 19.5 94.952 1.5 108.275 1.5C121.63 1.5 121.63 19.5 134.953 19.5C148.308 19.5 148.308 1.5 161.662 1.5C175.017 1.5 175.017 19.5 188.372 19.5C201.726 19.5 201.726 1.5 215.081 1.5C228.436 1.5 228.436 19.5 241.791 19.5C255.145 19.5 255.145 1.5 268.5 1.5" stroke="black" stroke-width="3" stroke-miterlimit="10" stroke-linecap="round"/>
</svg>
